<svg width="48" height="48" viewBox="0 0 48 48" fill="none" xmlns="http://www.w3.org/2000/svg">
<path d="M20.8889 24.2256C22.6556 23.3276 23.5778 21.9688 23.5778 19.8538C23.5778 15.6828 20.6556 14.6667 17.2833 14.6667H8V35.6042H17.5444C21.1222 35.6042 24.4833 33.7786 24.4833 29.525C24.4833 26.896 23.3111 24.9523 20.8889 24.2256ZM12.3278 18.2409H16.3889C17.95 18.2409 19.3556 18.7076 19.3556 20.6336C19.3556 22.4119 18.2611 23.1267 16.7167 23.1267H12.3278V18.2409ZM16.9556 32.0476H12.3278V26.2815H17.0444C18.95 26.2815 20.1556 27.1264 20.1556 29.2709C20.1556 31.3859 18.7167 32.0476 16.9556 32.0476ZM36.8722 17.8274H28.8889V15.7655H36.8722V17.8274ZM40 28.243C40 23.7589 37.5333 20.0192 33.0611 20.0192C28.7167 20.0192 25.7667 23.493 25.7667 28.0421C25.7667 32.7625 28.5611 36 33.0611 36C36.4667 36 38.6722 34.3694 39.7333 30.9015H36.2778C35.9056 32.1953 34.3722 32.8806 33.1833 32.8806C30.8889 32.8806 29.6833 31.4509 29.6833 29.0228H39.9667C39.9833 28.7747 40 28.5088 40 28.243ZM29.6889 26.3997C29.8167 24.4087 31.0611 23.1622 32.9389 23.1622C34.9056 23.1622 35.8944 24.391 36.0611 26.3997H29.6889Z" fill="#BFB4FF"/>
</svg>
