<svg width="48" height="48" viewBox="0 0 48 48" fill="none" xmlns="http://www.w3.org/2000/svg">
<path d="M20.8889 22.8929C22.6556 21.9949 23.5778 20.6361 23.5778 18.5211C23.5778 14.3501 20.6556 13.334 17.2833 13.334H8V34.2715H17.5444C21.1222 34.2715 24.4833 32.446 24.4833 28.1923C24.4833 25.5633 23.3111 23.6196 20.8889 22.8929ZM12.3278 16.9082H16.3889C17.95 16.9082 19.3556 17.375 19.3556 19.3009C19.3556 21.0792 18.2611 21.7941 16.7167 21.7941H12.3278V16.9082ZM16.9556 30.715H12.3278V24.9489H17.0444C18.95 24.9489 20.1556 25.7937 20.1556 27.9383C20.1556 30.0533 18.7167 30.715 16.9556 30.715ZM36.8722 16.4947H28.8889V14.4328H36.8722V16.4947ZM40 26.9103C40 22.4262 37.5333 18.6865 33.0611 18.6865C28.7167 18.6865 25.7667 22.1603 25.7667 26.7094C25.7667 31.4298 28.5611 34.6673 33.0611 34.6673C36.4667 34.6673 38.6722 33.0367 39.7333 29.5688H36.2778C35.9056 30.8626 34.3722 31.548 33.1833 31.548C30.8889 31.548 29.6833 30.1183 29.6833 27.6901H39.9667C39.9833 27.442 40 27.1761 40 26.9103ZM29.6889 25.067C29.8167 23.0761 31.0611 21.8295 32.9389 21.8295C34.9056 21.8295 35.8944 23.0583 36.0611 25.067H29.6889Z" fill="#BFB4FF"/>
</svg>
