<svg xmlns="http://www.w3.org/2000/svg" width="126" height="11" fill="none">
<path fill="#D4D4D4" d="M5.064 2.184c-1.5 0-2.436.948-2.436 2.532s.936 2.556 2.436 2.556c1.284 0 2.124-.744 2.244-1.944l-.888-.072c-.096.756-.612 1.2-1.356 1.2-.96 0-1.548-.636-1.548-1.74C3.516 3.624 4.104 3 5.064 3c.708 0 1.212.42 1.308 1.092l.888-.06c-.108-1.14-.948-1.848-2.196-1.848ZM.588 4.716A4.425 4.425 0 0 1 5.016.288a4.425 4.425 0 0 1 4.428 4.428 4.425 4.425 0 0 1-4.428 4.428A4.425 4.425 0 0 1 .588 4.716Zm.876 0c0 1.956 1.596 3.564 3.552 3.564 1.944 0 3.552-1.608 3.552-3.564S6.96 1.152 5.016 1.152c-1.956 0-3.552 1.608-3.552 3.564Zm12.443-1.692c.228-1.572 1.344-2.736 3.048-2.736 1.56 0 2.712 1.032 2.712 2.424 0 1.236-.984 2.076-2.268 2.88-.684.384-2.328 1.548-2.364 2.4h4.704V9h-5.988c0-2.544 1.824-3.468 3.276-4.392.9-.576 1.56-1.236 1.56-1.896 0-.828-.672-1.416-1.632-1.416-1.032 0-1.74.648-1.968 1.8l-1.08-.072Zm10.457 6.168c-2.064 0-3.372-1.716-3.372-4.44 0-2.748 1.308-4.464 3.372-4.464 2.076 0 3.384 1.716 3.384 4.464 0 2.724-1.308 4.44-3.384 4.44Zm-2.292-4.44c0 2.196.828 3.432 2.292 3.432 1.476 0 2.304-1.236 2.304-3.432 0-2.208-.828-3.456-2.304-3.456-1.464 0-2.292 1.248-2.292 3.456Zm7.081-1.728c.228-1.572 1.344-2.736 3.048-2.736 1.56 0 2.712 1.032 2.712 2.424 0 1.236-.984 2.076-2.268 2.88-.684.384-2.328 1.548-2.364 2.4h4.704V9h-5.988c0-2.544 1.824-3.468 3.276-4.392.9-.576 1.56-1.236 1.56-1.896 0-.828-.672-1.416-1.632-1.416-1.032 0-1.74.648-1.968 1.8l-1.08-.072ZM41.755.48v5.76h.972v1.008h-.972V9h-1.032V7.248h-4.416V6.24L40.651.48h1.104Zm-4.176 5.76h3.144V2.064L37.579 6.24Zm9.85-5.76h1.031V9h-1.032V.48Zm6.09 0h1.008v7.236c0 .264.132.396.396.396h.552V9h-.708c-.744 0-1.248-.504-1.248-1.236V.48Zm5.8 8.664c-1.763 0-2.915-1.296-2.915-3.324 0-2.028 1.152-3.324 2.916-3.324 1.752 0 2.904 1.296 2.904 3.324 0 2.028-1.152 3.324-2.904 3.324ZM57.46 5.82c0 1.476.685 2.364 1.86 2.364 1.165 0 1.849-.888 1.849-2.364s-.684-2.364-1.848-2.364c-1.176 0-1.86.888-1.86 2.364Zm11.193-3.18L66.336 9h-1.272l-2.316-6.36h1.08L65.7 7.944l1.872-5.304h1.08Zm.525 3.18c0-2.016 1.14-3.324 2.916-3.324 1.404 0 2.652.924 2.748 3.18l.012.456h-4.608c.096 1.296.756 2.052 1.848 2.052a1.72 1.72 0 0 0 1.584-1.068l1.08.084c-.372 1.2-1.452 1.944-2.664 1.944-1.776 0-2.916-1.308-2.916-3.324Zm1.092-.576h3.48c-.168-1.332-.888-1.788-1.656-1.788-1.008 0-1.656.66-1.824 1.788Zm9.113-2.604h.924l.024 1.068c.3-.768.96-1.212 1.836-1.212.924 0 1.584.48 1.86 1.332.276-.852.936-1.332 1.932-1.332 1.284 0 2.028.876 2.028 2.412V9h-1.008V5.196c0-1.152-.456-1.812-1.224-1.812-.996 0-1.572.672-1.572 1.812V9h-1.008V5.196c0-1.128-.456-1.812-1.212-1.812-.984 0-1.572.684-1.572 1.812V9h-1.008V2.64Zm9.593 0h1.08l1.908 5.28 1.86-5.28h1.068l-2.58 7.164c-.24.684-.696.996-1.416.996h-.828v-.888h.732c.312 0 .492-.132.612-.444l.228-.588h-.336l-2.328-6.24ZM99.752 1.2h1.008v1.44h1.692v.888h-1.692v3.78c0 .528.252.804.756.804h.912V9h-.912c-1.14 0-1.764-.612-1.764-1.692v-3.78h-.936V2.64h.936V1.2Zm3.527 4.62c0-2.016 1.14-3.324 2.916-3.324 1.404 0 2.652.924 2.748 3.18l.012.456h-4.608c.096 1.296.756 2.052 1.848 2.052a1.72 1.72 0 0 0 1.584-1.068l1.08.084c-.372 1.2-1.452 1.944-2.664 1.944-1.776 0-2.916-1.308-2.916-3.324Zm1.092-.576h3.48c-.168-1.332-.888-1.788-1.656-1.788-1.008 0-1.656.66-1.824 1.788Zm5.883-.732c.252-1.236 1.248-2.016 2.604-2.016 1.632 0 2.556.96 2.556 2.664v2.556c0 .264.12.396.384.396h.264V9h-.432c-.648 0-1.212-.204-1.212-.984-.276.588-.972 1.128-1.98 1.128-1.272 0-2.292-.672-2.292-1.812 0-1.308.984-1.644 2.4-1.908l1.86-.372c-.012-1.068-.528-1.596-1.548-1.596-.804 0-1.344.408-1.536 1.14l-1.068-.084Zm.948 2.82c0 .504.432.924 1.368.924 1.032-.012 1.86-.732 1.86-2.22v-.084l-1.5.264c-.948.168-1.728.228-1.728 1.116Zm6.149-4.692h.924l.024 1.068c.3-.768.96-1.212 1.836-1.212.924 0 1.584.48 1.86 1.332.276-.852.936-1.332 1.932-1.332 1.284 0 2.028.876 2.028 2.412V9h-1.008V5.196c0-1.152-.456-1.812-1.224-1.812-.996 0-1.572.672-1.572 1.812V9h-1.008V5.196c0-1.128-.456-1.812-1.212-1.812-.984 0-1.572.684-1.572 1.812V9h-1.008V2.64Z"/>
</svg>