<svg width="29" height="28" viewBox="0 0 29 28" fill="none" xmlns="http://www.w3.org/2000/svg">
<path d="M14.3545 0C6.42362 0 2.36132e-06 6.42362 2.36132e-06 14.3545C-0.001726 17.3677 0.945385 20.305 2.70698 22.7496C4.46858 25.1942 6.95522 27.0221 9.81415 27.974C10.5319 28.0989 10.8017 27.6682 10.8017 27.2907C10.8017 26.9505 10.7831 25.8208 10.7831 24.6179C7.17723 25.2825 6.24419 23.7394 5.9571 22.9313C5.7949 22.5178 5.09584 21.2446 4.48577 20.903C3.98337 20.6345 3.26564 19.9699 4.46711 19.9527C5.59824 19.934 6.40496 20.9934 6.67483 21.424C7.96673 23.5944 10.0295 22.9844 10.8548 22.6083C10.9812 21.6752 11.3573 21.048 11.7707 20.6891C8.57679 20.3302 5.23938 19.0914 5.23938 13.6009C5.23938 12.0391 5.7949 10.7486 6.71071 9.74381C6.56717 9.38495 6.06476 7.91362 6.85426 5.93988C6.85426 5.93988 8.05573 5.56236 10.8017 7.40978C11.9703 7.08594 13.1777 6.92318 14.3904 6.92603C15.6105 6.92603 16.8306 7.0868 17.979 7.40978C20.725 5.54369 21.9264 5.93988 21.9264 5.93988C22.7159 7.91362 22.2135 9.38495 22.07 9.74381C22.9844 10.7486 23.5413 12.0219 23.5413 13.6009C23.5413 19.1101 20.1867 20.3302 16.9928 20.6891C17.5124 21.1369 17.9617 21.9982 17.9617 23.3447C17.9617 25.2639 17.9431 26.807 17.9431 27.2921C17.9431 27.6682 18.2129 28.1161 18.9307 27.9725C21.7798 27.0103 24.2555 25.1788 26.0093 22.7359C27.7631 20.293 28.7068 17.3617 28.7075 14.3545C28.7075 6.42362 22.2839 0 14.353 0" fill="#BFB4FF" />
</svg>