<svg width="48" height="48" viewBox="0 0 48 48" fill="none" xmlns="http://www.w3.org/2000/svg">
<path d="M24.0018 12C17.204 12 11.698 17.506 11.698 24.3038C11.6965 26.8866 12.5083 29.4042 14.0183 31.4997C15.5282 33.5951 17.6596 35.1618 20.1101 35.9777C20.7253 36.0847 20.9566 35.7156 20.9566 35.392C20.9566 35.1004 20.9406 34.1321 20.9406 33.1011C17.8499 33.6707 17.0502 32.3481 16.8041 31.6554C16.6651 31.301 16.0659 30.2097 15.5429 29.9168C15.1123 29.6868 14.4971 29.1171 15.527 29.1023C16.4965 29.0863 17.188 29.9943 17.4193 30.3635C18.5266 32.2238 20.2947 31.7009 21.0022 31.3785C21.1104 30.5788 21.4328 30.0411 21.7871 29.7335C19.0495 29.4259 16.1889 28.3641 16.1889 23.6579C16.1889 22.3192 16.6651 21.2131 17.45 20.3518C17.327 20.0442 16.8964 18.7831 17.5731 17.0913C17.5731 17.0913 18.6029 16.7677 20.9566 18.3512C21.9583 18.0737 22.9932 17.9342 24.0326 17.9366C25.0784 17.9366 26.1242 18.0744 27.1085 18.3512C29.4623 16.7517 30.4921 17.0913 30.4921 17.0913C31.1688 18.7831 30.7382 20.0442 30.6151 20.3518C31.3989 21.2131 31.8763 22.3045 31.8763 23.6579C31.8763 28.3801 29.0009 29.4259 26.2633 29.7335C26.7087 30.1174 27.0938 30.8556 27.0938 32.0097C27.0938 33.6547 27.0778 34.9774 27.0778 35.3933C27.0778 35.7156 27.3091 36.0995 27.9243 35.9765C30.3664 35.1517 32.4884 33.5818 33.9917 31.4879C35.495 29.394 36.3038 26.8815 36.3044 24.3038C36.3044 17.506 30.7985 12 24.0006 12" fill="#BFB4FF"/>
</svg>
