<svg width="32" height="32" viewBox="0 0 32 32" fill="none" xmlns="http://www.w3.org/2000/svg">
<path d="M16.0018 4C9.20396 4 3.698 9.50596 3.698 16.3038C3.69652 18.8866 4.50833 21.4042 6.01827 23.4997C7.52821 25.5951 9.65961 27.1618 12.1101 27.9777C12.7253 28.0847 12.9566 27.7156 12.9566 27.392C12.9566 27.1004 12.9406 26.1321 12.9406 25.1011C9.84991 25.6707 9.05016 24.3481 8.80409 23.6554C8.66505 23.301 8.06586 22.2097 7.54295 21.9168C7.11231 21.6868 6.49712 21.1171 7.52695 21.1023C8.49649 21.0863 9.18797 21.9943 9.41928 22.3635C10.5266 24.2238 12.2947 23.7009 13.0022 23.3785C13.1104 22.5788 13.4328 22.0411 13.7871 21.7335C11.0495 21.4259 8.1889 20.3641 8.1889 15.6579C8.1889 14.3192 8.66505 13.2131 9.45004 12.3518C9.327 12.0442 8.89637 10.7831 9.57308 9.09132C9.57308 9.09132 10.6029 8.76773 12.9566 10.3512C13.9583 10.0737 14.9932 9.93416 16.0326 9.9366C17.0784 9.9366 18.1242 10.0744 19.1085 10.3512C21.4623 8.75174 22.4921 9.09132 22.4921 9.09132C23.1688 10.7831 22.7382 12.0442 22.6151 12.3518C23.3989 13.2131 23.8763 14.3045 23.8763 15.6579C23.8763 20.3801 21.0009 21.4259 18.2633 21.7335C18.7087 22.1174 19.0938 22.8556 19.0938 24.0097C19.0938 25.6547 19.0778 26.9774 19.0778 27.3933C19.0778 27.7156 19.3091 28.0995 19.9243 27.9765C22.3664 27.1517 24.4884 25.5818 25.9917 23.4879C27.495 21.394 28.3038 18.8815 28.3044 16.3038C28.3044 9.50596 22.7985 4 16.0006 4" fill="#BFB4FF"/>
</svg>
