<svg width="48" height="48" viewBox="0 0 48 48" fill="none" xmlns="http://www.w3.org/2000/svg">
<path d="M24.0013 10.666C16.6346 10.666 10.668 16.6327 10.668 23.9994C10.6664 26.7982 11.5461 29.5265 13.1824 31.7973C14.8187 34.068 17.1284 35.7659 19.784 36.65C20.4506 36.766 20.7013 36.366 20.7013 36.0154C20.7013 35.6994 20.684 34.65 20.684 33.5327C17.3346 34.15 16.468 32.7167 16.2013 31.966C16.0506 31.582 15.4013 30.3994 14.8346 30.082C14.368 29.8327 13.7013 29.2154 14.8173 29.1994C15.868 29.182 16.6173 30.166 16.868 30.566C18.068 32.582 19.984 32.0154 20.7506 31.666C20.868 30.7994 21.2173 30.2167 21.6013 29.8834C18.6346 29.55 15.5346 28.3994 15.5346 23.2994C15.5346 21.8487 16.0506 20.65 16.9013 19.7167C16.768 19.3834 16.3013 18.0167 17.0346 16.1833C17.0346 16.1833 18.1506 15.8327 20.7013 17.5487C21.7868 17.2479 22.9083 17.0967 24.0346 17.0993C25.168 17.0993 26.3013 17.2487 27.368 17.5487C29.9186 15.8154 31.0346 16.1833 31.0346 16.1833C31.768 18.0167 31.3013 19.3834 31.168 19.7167C32.0173 20.65 32.5346 21.8327 32.5346 23.2994C32.5346 28.4167 29.4186 29.55 26.452 29.8834C26.9346 30.2994 27.352 31.0994 27.352 32.35C27.352 34.1327 27.3346 35.566 27.3346 36.0167C27.3346 36.366 27.5853 36.782 28.252 36.6487C30.8984 35.7549 33.198 34.0537 34.827 31.7846C36.4561 29.5155 37.3326 26.7927 37.3333 23.9994C37.3333 16.6327 31.3666 10.666 24 10.666" fill="#BFB4FF"/>
</svg>
