<svg width="397" height="404" viewBox="0 0 397 404" fill="none" xmlns="http://www.w3.org/2000/svg">
<g opacity="0.4" clip-path="url(#clip0_6563_18635)">
<path d="M96.1455 63.9974L128.984 113.949L83.6282 168.172L96.1455 63.9974Z" fill="#EDE2FF"/>
<path d="M187.706 43.7487L132.767 109.428L99.1039 58.2333L187.706 43.7487Z" fill="#D4B1FF"/>
<path d="M132.468 118.35L175.488 165.929L86.2646 173.586L132.468 118.35Z" fill="#D099FB"/>
<path d="M191.025 48.3435L179.383 161.761L136.149 113.948L191.025 48.3435Z" fill="#EAD9FF"/>
<path d="M175.013 171.718L98.0219 263.76L83.0833 179.602L175.013 171.718Z" fill="#D6B6FF"/>
<path d="M196.809 45.534L244.35 88.8232L185.09 159.668L196.809 45.534Z" fill="#CAA1F3"/>
<path d="M180.066 174.239L209.54 294.694L101.38 268.309L180.066 174.239Z" fill="#B33FDC"/>
<path d="M186.336 176.603L262.486 245.942L214.869 293.19L186.336 176.603Z" fill="#A14CE4"/>
<path d="M331.45 172.916L266.482 241.854L188.947 171.254L331.45 172.916Z" fill="#A85BF6"/>
<path d="M339.067 295.931L279.605 295.836L220.142 295.727L266.849 249.383L339.067 295.931Z" fill="#9123B8"/>
</g>
<defs>
<clipPath id="clip0_6563_18635">
<rect width="229.169" height="336.866" fill="white" transform="matrix(0.641604 -0.767036 0.739398 0.673269 0.339844 176.305)"/>
</clipPath>
</defs>
</svg>
