<svg width="102" height="92" viewBox="0 0 102 92" fill="none" xmlns="http://www.w3.org/2000/svg">
<path d="M29.707 14.2269H14.3004L32.9405 1.2477L29.707 14.2269Z" fill="#EDE2FF"/>
<path d="M69.7116 1.24769L88.3517 14.2269H72.9451L69.7116 1.24769Z" fill="#853AE5"/>
<path d="M34.3054 0.923944L49.656 14.2269H30.9913L34.3054 0.923944Z" fill="#D4B1FF"/>
<path d="M68.3467 0.923944L71.6609 14.2269H52.9963L68.3467 0.923944Z" fill="#BB9AFF"/>
<path d="M29.5094 15.4729L28.1531 29.8791L13.8146 15.4729H29.5094Z" fill="#D099FB"/>
<path d="M74.4991 29.8791L73.1427 15.4729H88.8376L74.4991 29.8791Z" fill="#BA8BDF"/>
<path d="M30.7611 15.4729H49.4026L29.3982 29.9491L30.7611 15.4729Z" fill="#EAD9FF"/>
<path d="M53.2497 15.4729H71.891L73.254 29.9491L53.2497 15.4729Z" fill="#D3B0FF"/>
<path d="M0.997043 30.6374L12.3765 15.7944L27.1498 30.6374H0.997043Z" fill="#D6B6FF"/>
<path d="M101.655 30.6374H75.5023L90.2757 15.7944L101.655 30.6374Z" fill="#895BEB"/>
<path d="M30.5725 30.6374L50.703 16.0698V30.6374H30.5725Z" fill="#CAA1F3"/>
<path d="M51.9492 30.6374V16.0699L72.0797 30.6374H51.9492Z" fill="#F0DDFF"/>
<path d="M0.754623 31.8833H27.4848L12.3853 54.5356L0.754623 31.8833Z" fill="#B33FDC"/>
<path d="M90.2668 54.5356L75.1673 31.8833H101.898L90.2668 54.5356Z" fill="#9236DA"/>
<path d="M13.4111 55.2434L28.0258 33.3185V56.6514L13.4111 55.2434Z" fill="#A14CE4"/>
<path d="M89.2411 55.2434L74.6264 56.6514V33.3185L89.2411 55.2434Z" fill="#A14CE4"/>
<path d="M29.971 31.8833H50.703V57.0001L29.971 31.8833Z" fill="#BA89F9"/>
<path d="M51.9492 57.0001V31.8833H72.6812L51.9492 57.0001Z" fill="#BA89F9"/>
<path d="M49.9322 58.0238L29.272 56.7515V32.994L49.9322 58.0238Z" fill="#A85BF6"/>
<path d="M73.3802 56.7515L52.72 58.0238L73.3802 32.994V56.7515Z" fill="#A85BF6"/>
<path d="M31.2093 77.2463L22.4921 66.8882L13.7749 56.5301L28.1098 57.9112L31.2093 77.2463Z" fill="#9123B8"/>
<path d="M74.5423 57.9112L88.8773 56.5302L71.4429 77.2463L74.5423 57.9112Z" fill="#7017B5"/>
<path d="M32.5933 78.0068L29.3873 58.0069L49.9743 59.2746L32.5933 78.0068Z" fill="#8F3BE3"/>
<path d="M70.0588 78.0068L52.6779 59.2746L73.2649 58.0069L70.0588 78.0068Z" fill="#8F3BE3"/>
<path d="M33.1258 79.2649L50.703 60.3213V91.4445L33.1258 79.2649Z" fill="#9123B8"/>
<path d="M69.5263 79.2649L51.9492 91.4445V60.3213L69.5263 79.2649Z" fill="#771FAE"/>
</svg>
