<svg width="325" height="410" viewBox="0 0 325 410" fill="none" xmlns="http://www.w3.org/2000/svg">
<g opacity="0.2" clip-path="url(#clip0_3191_22139)">
<path d="M263.994 60.1236H195.016L180.547 1.46484L263.994 60.1236Z" fill="#853AE5"/>
<path d="M189.272 60.1243H105.709L174.427 0L189.272 60.1243Z" fill="#BB9AFF"/>
<path d="M266.168 65.7539L201.971 130.857L195.9 65.7539H266.168Z" fill="#BA8BDF"/>
<path d="M196.4 131.178L106.844 65.7539H190.301L196.4 131.178Z" fill="#D3B0FF"/>
<path d="M323.553 134.291H206.463L272.603 67.2109L323.553 134.291Z" fill="#895BEB"/>
<path d="M191.138 134.293H101.014V68.457L191.138 134.293Z" fill="#F0DDFF"/>
<path d="M324.641 139.922L272.565 242.294L204.963 139.922H324.641Z" fill="#9236DA"/>
<path d="M267.977 245.496L202.549 251.859V146.406L267.977 245.496Z" fill="#A14CE4"/>
<path d="M95.4446 139.922V253.425L2.62695 139.922H95.4446Z" fill="#BA89F9"/>
<path d="M193.831 139.922L101.014 253.425V139.922H193.831Z" fill="#BA89F9"/>
<path d="M196.969 144.941V252.312L104.469 258.053L196.969 144.941Z" fill="#A85BF6"/>
<path d="M266.341 251.309L188.291 344.928L202.173 257.552L266.341 251.309Z" fill="#7017B5"/>
<path d="M92.1732 263.712L14.3634 348.368L0.00976562 257.98L92.1732 263.712Z" fill="#8F3BE3"/>
<path d="M196.449 257.98L182.095 348.368L104.285 263.712L196.449 257.98Z" fill="#8F3BE3"/>
<path d="M95.4449 268.441V409.096L16.75 354.051L95.4449 268.441Z" fill="#9123B8"/>
<path d="M179.709 354.051L101.014 409.096V268.441L179.709 354.051Z" fill="#771FAE"/>
</g>
<defs>
<clipPath id="clip0_3191_22139">
<rect width="324.631" height="409.096" fill="white" transform="translate(0.00976562)"/>
</clipPath>
</defs>
</svg>
