<svg width="119" height="117" viewBox="0 0 119 117" fill="none" xmlns="http://www.w3.org/2000/svg">
<g opacity="0.2" clip-path="url(#clip0_3191_22218)">
<path d="M28.2478 18.5802L38.1978 33.0384L24.6236 48.6169L28.2478 18.5802Z" fill="#EDE2FF"/>
<path d="M56.1565 12.4285L39.733 31.2771L29.8496 16.7424L56.1565 12.4285Z" fill="#D4B1FF"/>
<path d="M39.9266 34.1008L53.04 47.9731L26.1309 49.9335L39.9266 34.1008Z" fill="#D099FB"/>
<path d="M57.007 14.4983L53.5747 47.3592L40.4776 33.4683L57.007 14.4983Z" fill="#EAD9FF"/>
<path d="M51.6028 49.6214L28.6099 76.0094L24.3097 52.0226L51.6028 49.6214Z" fill="#D6B6FF"/>
<path d="M59.0734 13.6485L73.3785 26.153L55.6411 46.5094L59.0734 13.6485Z" fill="#CAA1F3"/>
<path d="M53.7651 50.1833L62.2391 84.602L30.1152 77.3252L53.7651 50.1833Z" fill="#B33FDC"/>
<path d="M55.9279 50.7454L78.515 70.4893L64.0131 84.3767L55.9279 50.7454Z" fill="#A14CE4"/>
<path d="M99.0732 49.942L79.4559 69.9834L56.5859 49.9922L99.0732 49.942Z" fill="#A85BF6"/>
<path d="M100.815 85.9973L83.0961 85.7849L65.377 85.5684L79.1567 72.4949L100.815 85.9973Z" fill="#9123B8"/>
</g>
<defs>
<clipPath id="clip0_3191_22218">
<rect width="67" height="99" fill="white" transform="matrix(0.656941 -0.753942 0.752904 0.658131 0 51)"/>
</clipPath>
</defs>
</svg>
