<svg width="98" height="118" viewBox="0 0 98 118" fill="none" xmlns="http://www.w3.org/2000/svg">
<g opacity="0.2" clip-path="url(#clip0_3191_22229)">
<path d="M80 17H59.3348L55 0L80 17Z" fill="#853AE5"/>
<path d="M57 17H32L52.5589 0L57 17Z" fill="#BB9AFF"/>
<path d="M80 19L60.8142 38L59 19H80Z" fill="#BA8BDF"/>
<path d="M59 38L32 19H57.1611L59 38Z" fill="#D3B0FF"/>
<path d="M97 38H62L81.7704 19L97 38Z" fill="#895BEB"/>
<path d="M57 39H30V20L57 39Z" fill="#F0DDFF"/>
<path d="M98 40L82.3354 70L62 40H98Z" fill="#9236DA"/>
<path d="M81 70.1896L61 72V42L81 70.1896Z" fill="#A14CE4"/>
<path d="M29 40V73L1 40H29Z" fill="#BA89F9"/>
<path d="M58 40L30 73V40H58Z" fill="#BA89F9"/>
<path d="M60 42V73.325L32 75L60 42Z" fill="#A85BF6"/>
<path d="M81 72L57 99L61.2687 73.8006L81 72Z" fill="#7017B5"/>
<path d="M28 75.6486L4.36075 100L0 74L28 75.6486Z" fill="#8F3BE3"/>
<path d="M59 74L54.6392 100L31 75.6486L59 74Z" fill="#8F3BE3"/>
<path d="M29 77V118L5 101.955L29 77Z" fill="#9123B8"/>
<path d="M54 101.955L30 118V77L54 101.955Z" fill="#771FAE"/>
</g>
<defs>
<clipPath id="clip0_3191_22229">
<rect width="98" height="118" fill="white"/>
</clipPath>
</defs>
</svg>
