<svg width="238" height="341" viewBox="0 0 238 341" fill="none" xmlns="http://www.w3.org/2000/svg">
<g opacity="0.4" clip-path="url(#clip0_3316_17981)">
<path d="M155.658 2.90976L139.454 60.4508L68.7745 61.7339L155.658 2.90976Z" fill="#EDE2FF"/>
<path d="M230.962 58.7906L145.348 60.3448L161.951 1.36627L230.962 58.7906Z" fill="#D4B1FF"/>
<path d="M138.414 65.9674L130.676 129.644L66.4141 67.2744L138.414 65.9674Z" fill="#D099FB"/>
<path d="M229.667 64.3091L136.377 129.852L144.152 65.8615L229.667 64.3091Z" fill="#EAD9FF"/>
<path d="M125.991 133.077L6.01366 135.255L59.7843 68.8138L125.991 133.077Z" fill="#D6B6FF"/>
<path d="M235.579 66.8359L234.044 131.115L141.697 132.791L235.579 66.8359Z" fill="#CAA1F3"/>
<path d="M127.399 138.547L55.7415 239.756L4.7793 140.773L127.399 138.547Z" fill="#B33FDC"/>
<path d="M129.724 144.831L127.264 247.791L60.3706 242.795L129.724 144.831Z" fill="#A14CE4"/>
<path d="M227.618 252.014L132.97 248.129L135.475 143.298L227.618 252.014Z" fill="#A85BF6"/>
<path d="M139.702 338.393L100.801 293.421L61.9102 248.439L127.525 253.341L139.702 338.393Z" fill="#9123B8"/>
</g>
<defs>
<clipPath id="clip0_3316_17981">
<rect width="229.169" height="336.866" fill="white" transform="matrix(0.999835 -0.0181504 -0.0238803 0.999715 8.04297 4.15967)"/>
</clipPath>
</defs>
</svg>
