<svg width="165" height="144" viewBox="0 0 165 144" fill="none" xmlns="http://www.w3.org/2000/svg">
<g opacity="0.4">
<path d="M48.4143 23.2295H24.1235L53.5124 3.42897L48.4143 23.2295Z" fill="#EDE2FF"/>
<path d="M111.488 3.42897L140.877 23.2295H116.586L111.488 3.42897Z" fill="#853AE5"/>
<path d="M55.6644 2.93507L79.8668 23.2295H50.4391L55.6644 2.93507Z" fill="#D4B1FF"/>
<path d="M109.336 2.93507L114.561 23.2295H85.1333L109.336 2.93507Z" fill="#BB9AFF"/>
<path d="M48.1028 25.1302L45.9643 47.1076L23.3574 25.1302H48.1028Z" fill="#D099FB"/>
<path d="M119.036 47.1076L116.897 25.1302H141.643L119.036 47.1076Z" fill="#BA8BDF"/>
<path d="M50.0763 25.1302H79.4673L47.9274 47.2144L50.0763 25.1302Z" fill="#EAD9FF"/>
<path d="M85.5328 25.1302H114.924L117.073 47.2144L85.5328 25.1302Z" fill="#D3B0FF"/>
<path d="M3.14864 48.2645L21.0901 25.6207L44.3825 48.2645H3.14864Z" fill="#D6B6FF"/>
<path d="M161.851 48.2645H120.618L143.91 25.6207L161.851 48.2645Z" fill="#895BEB"/>
<path d="M49.7788 48.2645L81.5177 26.0409V48.2645H49.7788Z" fill="#CAA1F3"/>
<path d="M83.4825 48.2645V26.0409L115.221 48.2645H83.4825Z" fill="#F0DDFF"/>
<path d="M2.76643 50.1652H44.9107L21.104 84.7224L2.76643 50.1652Z" fill="#B33FDC"/>
<path d="M143.896 84.7224L120.089 50.1652H162.234L143.896 84.7224Z" fill="#9236DA"/>
<path d="M22.7213 85.8021L45.7636 52.3546V87.9501L22.7213 85.8021Z" fill="#A14CE4"/>
<path d="M142.279 85.8021L119.236 87.9501V52.3546L142.279 85.8021Z" fill="#A14CE4"/>
<path d="M48.8304 50.1652H81.5177V88.4821L48.8304 50.1652Z" fill="#BA89F9"/>
<path d="M83.4825 88.4821V50.1652H116.17L83.4825 88.4821Z" fill="#BA89F9"/>
<path d="M80.3024 90.0437L47.7284 88.1029V51.8596L80.3024 90.0437Z" fill="#A85BF6"/>
<path d="M117.272 88.1029L84.6978 90.0437L117.272 51.8596V88.1029Z" fill="#A85BF6"/>
<path d="M50.7829 119.369L37.0388 103.567L23.2948 87.7651L45.8961 89.872L50.7829 119.369Z" fill="#9123B8"/>
<path d="M119.104 89.872L141.705 87.7651L114.217 119.369L119.104 89.872Z" fill="#7017B5"/>
<path d="M52.965 120.529L47.9102 90.018L80.3687 91.952L52.965 120.529Z" fill="#8F3BE3"/>
<path d="M112.035 120.529L84.6314 91.952L117.09 90.018L112.035 120.529Z" fill="#8F3BE3"/>
<path d="M53.8045 122.448L81.5177 93.5487V141.029L53.8045 122.448Z" fill="#9123B8"/>
<path d="M111.195 122.448L83.4825 141.029V93.5487L111.195 122.448Z" fill="#771FAE"/>
</g>
</svg>
