<svg width="232" height="346" viewBox="0 0 232 346" fill="none" xmlns="http://www.w3.org/2000/svg">
<g opacity="0.2" clip-path="url(#clip0_3316_17981)">
<path d="M149.757 4.67427L134.556 62.4885L63.9096 65.0007L149.757 4.67427Z" fill="#EDE2FF"/>
<path d="M226.021 59.2368L140.447 62.2799L156.022 3.02159L226.021 59.2368Z" fill="#D4B1FF"/>
<path d="M133.611 68.0223L126.982 131.824L61.6445 70.5815L133.611 68.0223Z" fill="#D099FB"/>
<path d="M224.822 64.7771L132.685 131.933L139.346 67.8167L224.822 64.7771Z" fill="#EAD9FF"/>
<path d="M122.358 135.338L2.43629 139.603L55.0432 72.2359L122.358 135.338Z" fill="#D6B6FF"/>
<path d="M230.778 67.2006L230.361 131.496L138.057 134.779L230.778 67.2006Z" fill="#CAA1F3"/>
<path d="M123.861 140.783L53.975 243.223L1.29883 145.141L123.861 140.783Z" fill="#B33FDC"/>
<path d="M126.294 147.026L125.626 250.013L58.6553 246.181L126.294 147.026Z" fill="#A14CE4"/>
<path d="M226.038 252.489L131.337 250.251L132.018 145.392L226.038 252.489Z" fill="#A85BF6"/>
<path d="M139.638 340.384L99.9604 296.095L60.293 251.797L125.983 255.557L139.638 340.384Z" fill="#9123B8"/>
</g>
<defs>
<clipPath id="clip0_3316_17981">
<rect width="229.169" height="336.866" fill="white" transform="matrix(0.999368 -0.0355386 -0.00648783 0.999979 2.18555 8.49158)"/>
</clipPath>
</defs>
</svg>
