<svg width="644" height="562" viewBox="0 0 644 562" fill="none" xmlns="http://www.w3.org/2000/svg">
<g opacity="0.15">
<path d="M188.962 90.6595H94.1546L208.86 13.3825L188.962 90.6595Z" fill="#EDE2FF"/>
<path d="M435.14 13.3825L549.845 90.6595H455.038L435.14 13.3825Z" fill="#853AE5"/>
<path d="M217.26 11.4549L311.723 90.6595H196.865L217.26 11.4549Z" fill="#D4B1FF"/>
<path d="M426.74 11.4549L447.135 90.6595H332.278L426.74 11.4549Z" fill="#BB9AFF"/>
<path d="M187.747 98.0776L179.4 183.85L91.1648 98.0776H187.747Z" fill="#D099FB"/>
<path d="M464.6 183.85L456.253 98.0776H552.835L464.6 183.85Z" fill="#BA8BDF"/>
<path d="M195.449 98.0776H310.163L187.062 184.267L195.449 98.0776Z" fill="#EAD9FF"/>
<path d="M333.837 98.0776H448.551L456.938 184.267L333.837 98.0776Z" fill="#D3B0FF"/>
<path d="M12.2892 188.365L82.3153 99.9918L173.226 188.365H12.2892Z" fill="#D6B6FF"/>
<path d="M631.711 188.365H470.774L561.685 99.9918L631.711 188.365Z" fill="#895BEB"/>
<path d="M194.288 188.365L318.166 101.632V188.365H194.288Z" fill="#CAA1F3"/>
<path d="M325.835 188.365V101.632L449.712 188.365H325.835Z" fill="#F0DDFF"/>
<path d="M10.7975 195.784H175.288L82.3696 330.653L10.7975 195.784Z" fill="#B33FDC"/>
<path d="M561.63 330.653L468.712 195.784H633.203L561.63 330.653Z" fill="#9236DA"/>
<path d="M88.682 334.867L178.617 204.328V343.25L88.682 334.867Z" fill="#A14CE4"/>
<path d="M555.318 334.867L465.383 343.25V204.328L555.318 334.867Z" fill="#A14CE4"/>
<path d="M190.587 195.784H318.166V345.326L190.587 195.784Z" fill="#BA89F9"/>
<path d="M325.835 345.326V195.784H453.413L325.835 345.326Z" fill="#BA89F9"/>
<path d="M313.423 351.421L186.285 343.846V202.396L313.423 351.421Z" fill="#A85BF6"/>
<path d="M457.715 343.846L330.578 351.421L457.715 202.396V343.846Z" fill="#A85BF6"/>
<path d="M198.207 465.869L144.564 404.199L90.9204 342.528L179.134 350.751L198.207 465.869Z" fill="#9123B8"/>
<path d="M464.866 350.751L553.08 342.528L445.793 465.869L464.866 350.751Z" fill="#7017B5"/>
<path d="M206.724 470.398L186.995 351.32L313.682 358.868L206.724 470.398Z" fill="#8F3BE3"/>
<path d="M437.276 470.398L330.319 358.868L457.005 351.32L437.276 470.398Z" fill="#8F3BE3"/>
<path d="M210.001 477.888L318.166 365.1V550.404L210.001 477.888Z" fill="#9123B8"/>
<path d="M433.999 477.888L325.835 550.404V365.1L433.999 477.888Z" fill="#771FAE"/>
</g>
</svg>
