<svg width="48" height="48" viewBox="0 0 48 48" fill="none" xmlns="http://www.w3.org/2000/svg">
<path d="M17.5534 15.112C17.553 15.8406 17.2793 16.5393 16.7925 17.0542C16.3056 17.5692 15.6455 17.8583 14.9574 17.8579C14.2692 17.8576 13.6094 17.5678 13.1231 17.0523C12.6367 16.5368 12.3637 15.8379 12.364 15.1092C12.3644 14.3806 12.6381 13.6819 13.1249 13.167C13.6117 12.652 14.2718 12.3629 14.96 12.3633C15.6481 12.3636 16.308 12.6534 16.7943 13.1689C17.2807 13.6844 17.5537 14.3833 17.5534 15.112ZM17.6312 19.8923H12.4419V37.0906H17.6312V19.8923ZM25.8304 19.8923H20.667V37.0906H25.7785V28.0656C25.7785 23.038 31.9668 22.571 31.9668 28.0656V37.0906H37.0913V26.1974C37.0913 17.7219 27.9321 18.0379 25.7785 22.2001L25.8304 19.8923Z" fill="#BFB4FF"/>
</svg>
