<svg width="48" height="48" viewBox="0 0 48 48" fill="none" xmlns="http://www.w3.org/2000/svg">
<path d="M17.7645 14.6679C17.7642 15.3751 17.4985 16.0532 17.026 16.553C16.5535 17.0528 15.9128 17.3334 15.2449 17.333C14.577 17.3327 13.9366 17.0514 13.4645 16.5511C12.9925 16.0508 12.7274 15.3724 12.7278 14.6652C12.7281 13.958 12.9938 13.2799 13.4663 12.7801C13.9388 12.2802 14.5795 11.9996 15.2474 12C15.9153 12.0004 16.5557 12.2816 17.0278 12.7819C17.4998 13.2823 17.7648 13.9606 17.7645 14.6679ZM17.8401 19.3076H12.8033V36H17.8401V19.3076ZM25.7981 19.3076H20.7865V36H25.7477V27.2405C25.7477 22.3608 31.754 21.9075 31.754 27.2405V36H36.7278V25.4273C36.7278 17.201 27.838 17.5077 25.7477 21.5475L25.7981 19.3076Z" fill="#BFB4FF"/>
</svg>
