<svg width="48" height="42" viewBox="0 0 48 42" fill="none" xmlns="http://www.w3.org/2000/svg">
<path d="M14.6237 6.67376H7.70454L16.0759 0.857358L14.6237 6.67376Z" fill="#EDE2FF"/>
<path d="M32.5901 0.857358L40.9615 6.67376H34.0423L32.5901 0.857358Z" fill="#853AE5"/>
<path d="M16.6889 0.712275L23.5829 6.67376H15.2005L16.6889 0.712275Z" fill="#D4B1FF"/>
<path d="M31.9771 0.712275L33.4655 6.67376H25.0831L31.9771 0.712275Z" fill="#BB9AFF"/>
<path d="M14.535 7.2321L13.9259 13.6879L7.48634 7.2321H14.535Z" fill="#D099FB"/>
<path d="M34.7402 13.6879L34.131 7.2321H41.1797L34.7402 13.6879Z" fill="#BA8BDF"/>
<path d="M15.0972 7.2321H23.4691L14.485 13.7193L15.0972 7.2321Z" fill="#EAD9FF"/>
<path d="M25.1969 7.2321H33.5689L34.181 13.7193L25.1969 7.2321Z" fill="#D3B0FF"/>
<path d="M1.72989 14.0278L6.84049 7.37617L13.4753 14.0278H1.72989Z" fill="#D6B6FF"/>
<path d="M46.9361 14.0278H35.1907L41.8255 7.37617L46.9361 14.0278Z" fill="#895BEB"/>
<path d="M15.0124 14.0278L24.0532 7.49962V14.0278H15.0124Z" fill="#CAA1F3"/>
<path d="M24.6129 14.0278V7.49962L33.6536 14.0278H24.6129Z" fill="#F0DDFF"/>
<path d="M1.62102 14.5861H13.6257L6.84446 24.7373L1.62102 14.5861Z" fill="#B33FDC"/>
<path d="M41.8216 24.7373L35.0403 14.5861H47.045L41.8216 24.7373Z" fill="#9236DA"/>
<path d="M7.30514 25.0545L13.8687 15.2293V25.6855L7.30514 25.0545Z" fill="#A14CE4"/>
<path d="M41.3609 25.0545L34.7973 25.6855V15.2293L41.3609 25.0545Z" fill="#A14CE4"/>
<path d="M14.7423 14.5861H24.0532V25.8417L14.7423 14.5861Z" fill="#BA89F9"/>
<path d="M24.6129 25.8417V14.5861H33.9237L24.6129 25.8417Z" fill="#BA89F9"/>
<path d="M23.707 26.3004L14.4284 25.7303V15.0838L23.707 26.3004Z" fill="#A85BF6"/>
<path d="M34.2376 25.7303L24.959 26.3004L34.2376 15.0838V25.7303Z" fill="#A85BF6"/>
<path d="M15.2984 34.9146L11.3835 30.2729L7.4685 25.6311L13.9064 26.25L15.2984 34.9146Z" fill="#9123B8"/>
<path d="M34.7596 26.25L41.1975 25.6311L33.3676 34.9146L34.7596 26.25Z" fill="#7017B5"/>
<path d="M15.92 35.2555L14.4801 26.2929L23.7259 26.861L15.92 35.2555Z" fill="#8F3BE3"/>
<path d="M32.746 35.2555L24.9401 26.861L34.1859 26.2929L32.746 35.2555Z" fill="#8F3BE3"/>
<path d="M16.1591 35.8193L24.0532 27.33V41.2773L16.1591 35.8193Z" fill="#9123B8"/>
<path d="M32.5069 35.8193L24.6129 41.2773V27.33L32.5069 35.8193Z" fill="#771FAE"/>
</svg>
