<svg width="66" height="60" viewBox="0 0 66 60" fill="none" xmlns="http://www.w3.org/2000/svg">
<path d="M18.9525 9.00158H8.94179L21.0536 0.476363L18.9525 9.00158Z" fill="#EDE2FF"/>
<path d="M44.9464 0.476362L57.0582 9.00158H47.0475L44.9464 0.476362Z" fill="#853AE5"/>
<path d="M21.9405 0.263712L31.9148 9.00158H19.787L21.9405 0.263712Z" fill="#D4B1FF"/>
<path d="M44.0595 0.263712L46.213 9.00158H34.0852L44.0595 0.263712Z" fill="#BB9AFF"/>
<path d="M18.8242 9.81995L17.9429 19.2824L8.62609 9.81995H18.8242Z" fill="#D099FB"/>
<path d="M48.0572 19.2824L47.1758 9.81995H57.3739L48.0572 19.2824Z" fill="#BA8BDF"/>
<path d="M19.6375 9.81995H31.7501L18.7519 19.3284L19.6375 9.81995Z" fill="#EAD9FF"/>
<path d="M34.2499 9.81995H46.3625L47.2481 19.3284L34.2499 9.81995Z" fill="#D3B0FF"/>
<path d="M0.297622 19.7805L7.69167 10.0311L17.291 19.7805H0.297622Z" fill="#D6B6FF"/>
<path d="M65.7024 19.7805H48.709L58.3083 10.0311L65.7024 19.7805Z" fill="#895BEB"/>
<path d="M19.5149 19.7805L32.5952 10.2121V19.7805H19.5149Z" fill="#CAA1F3"/>
<path d="M33.4049 19.7805V10.2121L46.4851 19.7805H33.4049Z" fill="#F0DDFF"/>
<path d="M0.140104 20.5989H17.5086L7.69741 35.4777L0.140104 20.5989Z" fill="#B33FDC"/>
<path d="M58.3026 35.4777L48.4914 20.5989H65.8599L58.3026 35.4777Z" fill="#9236DA"/>
<path d="M8.36393 35.9426L17.8601 21.5415V36.8674L8.36393 35.9426Z" fill="#A14CE4"/>
<path d="M57.6361 35.9426L48.1399 36.8674V21.5416L57.6361 35.9426Z" fill="#A14CE4"/>
<path d="M19.1241 20.5989H32.5952V37.0965L19.1241 20.5989Z" fill="#BA89F9"/>
<path d="M33.4049 37.0965V20.5989H46.8759L33.4049 37.0965Z" fill="#BA89F9"/>
<path d="M32.0943 37.7688L18.6699 36.9332V21.3284L32.0943 37.7688Z" fill="#A85BF6"/>
<path d="M47.3301 36.9332L33.9058 37.7688L47.3301 21.3284V36.9332Z" fill="#A85BF6"/>
<path d="M19.9287 50.3948L14.2645 43.5913L8.60029 36.7878L17.9148 37.6949L19.9287 50.3948Z" fill="#9123B8"/>
<path d="M48.0853 37.6949L57.3997 36.7878L46.0713 50.3948L48.0853 37.6949Z" fill="#7017B5"/>
<path d="M20.828 50.8944L18.7448 37.7578L32.1217 38.5904L20.828 50.8944Z" fill="#8F3BE3"/>
<path d="M45.172 50.8944L33.8784 38.5904L47.2552 37.7578L45.172 50.8944Z" fill="#8F3BE3"/>
<path d="M21.174 51.7208L32.5952 39.2779V59.7207L21.174 51.7208Z" fill="#9123B8"/>
<path d="M44.826 51.7208L33.4049 59.7207V39.2779L44.826 51.7208Z" fill="#771FAE"/>
</svg>
