<svg width="233" height="206" viewBox="0 0 233 206" fill="none" xmlns="http://www.w3.org/2000/svg">
<path d="M116.5 34.1702L77.591 1M116.5 34.1702H69.1906M116.5 34.1702V70.3108M116.5 34.1702L65.7317 70.3108M116.5 34.1702L155.409 1M116.5 34.1702H163.809M116.5 34.1702L167.268 70.3108M77.591 1L29.1657 34.1702M77.591 1L69.1906 34.1702M29.1657 34.1702L1 70.3108M29.1657 34.1702H69.1906M29.1657 34.1702L65.7317 70.3108M1 70.3108L29.1657 124.274M1 70.3108H65.7317M29.1657 124.274L73.6379 176.257M29.1657 124.274L65.7317 70.3108M29.1657 124.274L65.7317 127.74M73.6379 176.257L116.5 205.474M73.6379 176.257L116.5 130.815M73.6379 176.257L65.7317 127.74M116.5 205.474V130.815M116.5 205.474L159.362 176.257M69.1906 34.1702L65.7317 70.3108M65.7317 70.3108H116.5M65.7317 70.3108L116.5 130.815M65.7317 70.3108V127.74M116.5 70.3108V130.815M116.5 70.3108H167.268M116.5 130.815L65.7317 127.74M116.5 130.815L167.268 70.3108M116.5 130.815L167.268 127.74M116.5 130.815L159.362 176.257M155.409 1L203.834 34.1702M155.409 1L163.809 34.1702M203.834 34.1702L232 70.3108M203.834 34.1702H163.809M203.834 34.1702L167.268 70.3108M232 70.3108L203.834 124.274M232 70.3108H167.268M203.834 124.274L159.362 176.257M203.834 124.274L167.268 70.3108M203.834 124.274L167.268 127.74M159.362 176.257L167.268 127.74M163.809 34.1702L167.268 70.3108M167.268 70.3108V127.74" stroke="#A258FF" stroke-width="0.25"/>
</svg>
