<svg width="299" height="265" viewBox="0 0 299 265" fill="none" xmlns="http://www.w3.org/2000/svg">
<path d="M149.765 43.7234L99.6498 1M149.765 43.7234H88.8301M149.765 43.7234V90.2728M149.765 43.7234L84.3749 90.2728M149.765 43.7234L199.88 1M149.765 43.7234H210.7M149.765 43.7234L215.155 90.2728M99.6498 1L37.2777 43.7234M99.6498 1L88.8301 43.7234M37.2777 43.7234L1 90.2728M37.2777 43.7234H88.8301M37.2777 43.7234L84.3749 90.2728M1 90.2728L37.2777 159.778M1 90.2728H84.3749M37.2777 159.778L94.5581 226.733M37.2777 159.778L84.3749 90.2728M37.2777 159.778L84.3749 164.242M94.5581 226.733L149.765 264.364M94.5581 226.733L149.765 168.203M94.5581 226.733L84.3749 164.242M149.765 264.364V168.203M149.765 264.364L204.972 226.733M88.8301 43.7234L84.3749 90.2728M84.3749 90.2728H149.765M84.3749 90.2728L149.765 168.203M84.3749 90.2728V164.242M149.765 90.2728V168.203M149.765 90.2728H215.155M149.765 168.203L84.3749 164.242M149.765 168.203L215.155 90.2728M149.765 168.203L215.155 164.242M149.765 168.203L204.972 226.733M199.88 1L262.252 43.7234M199.88 1L210.7 43.7234M262.252 43.7234L298.53 90.2728M262.252 43.7234H210.7M262.252 43.7234L215.155 90.2728M298.53 90.2728L262.252 159.778M298.53 90.2728H215.155M262.252 159.778L204.972 226.733M262.252 159.778L215.155 90.2728M262.252 159.778L215.155 164.242M204.972 226.733L215.155 164.242M210.7 43.7234L215.155 90.2728M215.155 90.2728V164.242" stroke="#A258FF" stroke-width="0.25"/>
</svg>
