<svg width="233" height="206" viewBox="0 0 233 206" fill="none" xmlns="http://www.w3.org/2000/svg">
<path d="M116.817 33.896L77.8389 0.666687M116.817 33.896H69.4236M116.817 33.896V70.1011M116.817 33.896L65.9585 70.1011M77.8389 0.666687L29.3273 33.896M77.8389 0.666687L69.4236 33.896M29.3273 33.896L1.11133 70.1011M29.3273 33.896H69.4236M29.3273 33.896L65.9585 70.1011M1.11133 70.1011L29.3273 124.161M1.11133 70.1011H65.9585M29.3273 124.161L73.8787 176.237M29.3273 124.161L65.9585 70.1011M29.3273 124.161L65.9585 127.632M73.8787 176.237L116.817 205.505V130.713M73.8787 176.237L116.817 130.713M73.8787 176.237L65.9585 127.632M69.4236 33.896L65.9585 70.1011M65.9585 70.1011H116.817M65.9585 70.1011L116.817 130.713M65.9585 70.1011V127.632M116.817 70.1011V130.713M116.817 130.713L65.9585 127.632" stroke="#5F3F87" stroke-width="0.5"/>
<path d="M116.817 33.8962L155.795 0.66687M116.817 33.8962H164.211M116.817 33.8962V70.1013M116.817 33.8962L167.676 70.1013M155.795 0.66687L204.307 33.8962M155.795 0.66687L164.211 33.8962M204.307 33.8962L232.523 70.1013M204.307 33.8962H164.211M204.307 33.8962L167.676 70.1013M232.523 70.1013L204.307 124.161M232.523 70.1013H167.676M204.307 124.161L159.756 176.237M204.307 124.161L167.676 70.1013M204.307 124.161L167.676 127.633M159.756 176.237L116.817 205.505V130.713M159.756 176.237L116.817 130.713M159.756 176.237L167.676 127.633M164.211 33.8962L167.676 70.1013M167.676 70.1013H116.817M167.676 70.1013L116.817 130.713M167.676 70.1013V127.633M116.817 70.1013V130.713M116.817 130.713L167.676 127.633" stroke="#5F3F87" stroke-width="0.5"/>
</svg>
