<svg width="206" height="170" viewBox="0 0 206 170" fill="none" xmlns="http://www.w3.org/2000/svg">
<rect x="0.528205" y="0.528205" width="204.944" height="168.944" fill="url(#paint0_linear_5492_10850)" stroke="#C7C0F3" stroke-width="1.05641"/>
<path d="M163 170C163 161.989 161.422 154.057 158.357 146.656C155.291 139.255 150.798 132.531 145.134 126.866C139.469 121.202 132.745 116.709 125.344 113.643C117.943 110.578 110.011 109 102 109C93.9894 109 86.0572 110.578 78.6563 113.643C71.2554 116.709 64.5309 121.202 58.8665 126.866C53.2021 132.531 48.7089 139.255 45.6433 146.656C42.5778 154.057 41 161.989 41 170L163 170Z" fill="#C7C0F3"/>
<circle cx="102.353" cy="71.3529" r="30.3529" fill="#C7C0F3"/>
<defs>
<linearGradient id="paint0_linear_5492_10850" x1="1.82951e-09" y1="85" x2="206" y2="85.0406" gradientUnits="userSpaceOnUse">
<stop stop-color="#D8C5FF"/>
<stop offset="0.482533" stop-color="#EFE8FF"/>
<stop offset="1" stop-color="#FBF9FF"/>
</linearGradient>
</defs>
</svg>
