<svg width="60" height="40" fill="none" xmlns="http://www.w3.org/2000/svg"><path d="m22.704 16.592-.1.293.219.22c2.52 2.539 3.78 5.642 3.78 9.342 0 3.631-1.286 6.703-3.87 9.244l-.004.004c-2.522 2.54-5.572 3.805-9.178 3.805-3.541 0-6.594-1.264-9.182-3.81C1.786 33.15.5 30.079.5 26.448c0-1.938.36-3.814 1.08-5.633L11.526.5H28.18l-5.476 16.092Zm31.122 0-.1.293.218.22c2.521 2.539 3.78 5.642 3.78 9.342 0 3.631-1.286 6.703-3.869 9.244l-.004.004c-2.522 2.54-5.572 3.805-9.178 3.805-3.542 0-6.594-1.264-9.182-3.81-2.584-2.54-3.87-5.612-3.87-9.243 0-1.938.36-3.814 1.08-5.633L42.648.5h16.654l-5.476 16.092Z" stroke="#FB7185"/></svg>