<svg aria-hidden="true" style="position: absolute; width: 0; height: 0; overflow: hidden;" version="1.1" xmlns="http://www.w3.org/2000/svg" xmlns:xlink="http://www.w3.org/1999/xlink">
<defs>
<symbol id="postgresql" viewBox="0 0 33 32">
<path fill="#5f3f87" style="fill: var(--color1, #5f3f87)" d="M31.857 19.63c-0.018-0.056-0.044-0.109-0.075-0.159-0.185-0.351-0.636-0.456-1.343-0.309-2.204 0.455-3.058 0.175-3.367-0.025 1.789-2.731 3.26-6.029 4.055-9.106 0.362-1.401 1.064-4.698 0.163-6.309-0.058-0.11-0.125-0.215-0.201-0.313-1.719-2.197-4.242-3.375-7.297-3.408-1.993-0.021-3.694 0.461-4.155 0.639-0.228-0.043-0.458-0.079-0.688-0.109-0.577-0.105-1.162-0.161-1.749-0.17-1.576-0.025-2.938 0.352-4.066 1.121-1.143-0.428-6.385-2.193-9.629 0.105-1.812 1.284-2.648 3.578-2.486 6.819 0.055 1.091 0.676 4.445 1.656 7.658 0.613 2.009 1.252 3.602 1.911 4.776 0.737 1.326 1.501 2.124 2.286 2.386 0.597 0.199 1.51 0.192 2.477-0.971 1.068-1.285 2.12-2.434 2.593-2.943 0.58 0.314 1.209 0.483 1.853 0.503 0 0.002 0 0.004 0.001 0.006-0.112 0.134-0.222 0.27-0.33 0.407-0.452 0.574-0.546 0.693-2 0.992-0.414 0.085-1.513 0.312-1.529 1.082-0.003 0.163 0.044 0.308 0.123 0.436 0.303 0.564 1.229 0.813 1.353 0.844 1.779 0.445 3.339 0.123 4.495-0.905-0.023 2.975 0.103 5.89 0.461 6.783 0.295 0.737 1.016 2.539 3.292 2.539 0.334 0 0.702-0.039 1.106-0.125 2.376-0.509 3.408-1.559 3.807-3.875 0.2-1.161 0.535-3.834 0.718-5.468 0.023-0.094 0.048-0.161 0.076-0.182 0.001-0.001 0.093-0.063 0.57 0.041 0.019 0.004 0.039 0.007 0.059 0.009l0.339 0.030 0.020 0.001c1.129 0.051 2.549-0.19 3.375-0.574 0.858-0.398 2.408-1.376 2.127-2.226zM3.606 15.835c-0.991-3.248-1.571-6.513-1.616-7.429-0.145-2.895 0.556-4.911 2.083-5.99 2.449-1.731 6.453-0.721 8.144-0.173-0.004 0.004-0.009 0.008-0.013 0.013-2.698 2.725-2.634 7.381-2.628 7.666-0 0.11 0.009 0.265 0.022 0.479 0.046 0.783 0.133 2.241-0.098 3.891-0.214 1.534 0.258 3.035 1.297 4.119 0.107 0.112 0.22 0.217 0.336 0.317-0.462 0.495-1.467 1.59-2.537 2.877-0.757 0.91-1.28 0.736-1.451 0.678-0.523-0.174-1.084-0.783-1.651-1.763-0.639-1.119-1.285-2.709-1.887-4.683zM11.615 22.618c-0.228-0.057-0.436-0.151-0.576-0.236 0.118-0.053 0.317-0.12 0.644-0.188 1.711-0.352 1.975-0.601 2.552-1.334 0.132-0.168 0.282-0.358 0.49-0.59 0.045-0.050 0.078-0.109 0.098-0.173 0.228-0.202 0.363-0.147 0.582-0.056 0.208 0.086 0.41 0.347 0.493 0.634 0.039 0.135 0.082 0.393-0.060 0.593-1.206 1.688-2.962 1.666-4.223 1.35zM14.407 17.301l-0.070 0.188c-0.177 0.475-0.342 0.918-0.445 1.337-0.89-0.003-1.756-0.383-2.414-1.070-0.837-0.873-1.217-2.089-1.043-3.334 0.244-1.744 0.154-3.262 0.105-4.078-0.007-0.114-0.013-0.214-0.016-0.293 0.394-0.35 2.221-1.328 3.524-1.030 0.595 0.136 0.957 0.541 1.107 1.237 0.779 3.605 0.103 5.108-0.44 6.315-0.112 0.249-0.218 0.484-0.308 0.727zM24.226 23.398c-0.023 0.236-0.048 0.501-0.082 0.794l-0.195 0.584c-0.015 0.046-0.024 0.095-0.024 0.144-0.008 0.633-0.072 0.865-0.153 1.159-0.085 0.306-0.18 0.652-0.239 1.41-0.147 1.886-1.171 2.969-3.223 3.409-2.021 0.433-2.379-0.662-2.695-1.629-0.032-0.101-0.067-0.202-0.102-0.302-0.287-0.781-0.255-1.883-0.21-3.407 0.022-0.748-0.033-2.535-0.44-3.528 0.006-0.391 0.014-0.788 0.025-1.189 0.001-0.051-0.006-0.102-0.020-0.15-0.013-0.094-0.032-0.186-0.058-0.277-0.163-0.571-0.562-1.049-1.040-1.247-0.19-0.079-0.538-0.223-0.957-0.116 0.089-0.368 0.244-0.783 0.412-1.233l0.071-0.189c0.079-0.213 0.179-0.434 0.284-0.668 0.569-1.263 1.347-2.994 0.502-6.903-0.317-1.464-1.374-2.179-2.977-2.013-0.961 0.099-1.84 0.487-2.278 0.709-0.088 0.045-0.175 0.091-0.261 0.139 0.122-1.475 0.585-4.232 2.314-5.976 0.129-0.129 0.263-0.252 0.404-0.368 0.070-0.014 0.136-0.043 0.193-0.086 1.003-0.761 2.259-1.134 3.736-1.11 0.546 0.009 1.069 0.045 1.566 0.108 2.585 0.473 4.325 1.929 5.381 3.177 1.086 1.283 1.674 2.575 1.908 3.272-1.764-0.179-2.965 0.169-3.573 1.039-1.323 1.892 0.724 5.564 1.708 7.329 0.18 0.323 0.336 0.603 0.385 0.722 0.32 0.777 0.735 1.295 1.038 1.674 0.093 0.116 0.183 0.229 0.251 0.327-0.534 0.154-1.494 0.51-1.407 2.289-0.016 0.208-0.056 0.596-0.111 1.086-0.061 0.277-0.094 0.614-0.133 1.022zM25.413 21.236c-0.054-1.109 0.359-1.225 0.796-1.347 0.060-0.017 0.12-0.035 0.18-0.054 0.056 0.050 0.116 0.096 0.179 0.137 0.76 0.502 2.11 0.562 4.009 0.179-0.269 0.236-0.692 0.533-1.271 0.801-0.546 0.254-1.461 0.444-2.33 0.485-0.96 0.045-1.448-0.108-1.563-0.201zM26.172 8.874c-0.008 0.468-0.072 0.892-0.141 1.336-0.073 0.477-0.149 0.97-0.169 1.568-0.019 0.582 0.054 1.188 0.124 1.773 0.142 1.183 0.288 2.4-0.277 3.602-0.094-0.166-0.177-0.338-0.25-0.514-0.070-0.17-0.223-0.443-0.433-0.822-0.821-1.472-2.743-4.919-1.759-6.326 0.506-0.724 1.788-0.755 2.904-0.617zM26.477 18.226c-0.038-0.048-0.076-0.096-0.114-0.143l-0.047-0.059c0.968-1.599 0.779-3.182 0.61-4.585-0.069-0.576-0.134-1.119-0.118-1.63 0.017-0.541 0.089-1.006 0.158-1.455 0.085-0.553 0.172-1.126 0.148-1.801 0.018-0.071 0.025-0.154 0.016-0.254-0.061-0.647-0.8-2.584-2.306-4.337-0.81-0.943-1.986-1.996-3.585-2.719 0.7-0.142 1.644-0.271 2.699-0.248 2.735 0.061 4.899 1.085 6.432 3.043 0.033 0.043 0.062 0.087 0.089 0.134 0.964 1.807-0.368 8.367-3.982 14.054zM14.721 10.071c-0.033 0.239-0.412 0.563-0.828 0.563-0.036 0-0.072-0.002-0.108-0.007-0.25-0.035-0.502-0.192-0.675-0.421-0.061-0.081-0.16-0.237-0.141-0.379 0.007-0.053 0.035-0.131 0.123-0.198 0.158-0.119 0.469-0.163 0.813-0.116 0.422 0.059 0.857 0.258 0.815 0.558zM25.295 9.523c0.015 0.106-0.065 0.268-0.204 0.414-0.091 0.096-0.283 0.261-0.544 0.298-0.033 0.005-0.067 0.007-0.1 0.007-0.391 0-0.722-0.313-0.748-0.496-0.032-0.235 0.352-0.414 0.748-0.469s0.815 0.012 0.847 0.247z"></path>
</symbol>
<symbol id="figma" viewBox="0 0 32 32">
<path fill="#5f3f87" style="fill: var(--color1, #5f3f87)" d="M21.135 11.975h-6.117v-11.975h6.117c3.301 0 5.987 2.685 5.987 5.987s-2.685 5.988-5.987 5.988zM16.979 10.013h4.156c2.22 0 4.025-1.807 4.025-4.025s-1.807-4.025-4.025-4.025h-4.156v8.051zM16.979 11.975h-6.116c-3.301 0-5.987-2.685-5.987-5.987s2.685-5.988 5.987-5.988h6.117v11.975h-0.001zM10.863 1.961c-2.22 0-4.025 1.807-4.025 4.025s1.805 4.027 4.025 4.027h4.156v-8.052h-4.156zM16.979 21.987h-6.116c-3.301 0-5.987-2.685-5.987-5.987s2.685-5.987 5.987-5.987h6.117v11.973h-0.001zM10.863 11.975c-2.22 0-4.025 1.807-4.025 4.025s1.807 4.025 4.025 4.025h4.156v-8.051h-4.156zM10.895 32c-3.319 0-6.020-2.685-6.020-5.987s2.685-5.987 5.987-5.987h6.117v5.921c0 3.337-2.729 6.052-6.084 6.052zM10.863 21.987c-1.067 0.001-2.090 0.426-2.845 1.181s-1.179 1.778-1.181 2.845c0 2.22 1.82 4.025 4.059 4.025 2.273 0 4.124-1.835 4.124-4.091v-3.96h-4.157zM21.135 21.987h-0.131c-3.301 0-5.987-2.685-5.987-5.987s2.685-5.987 5.987-5.987h0.131c3.301 0 5.987 2.685 5.987 5.987s-2.685 5.987-5.987 5.987zM21.006 11.975c-2.22 0-4.025 1.807-4.025 4.025s1.807 4.025 4.025 4.025h0.131c2.22 0 4.025-1.807 4.025-4.025s-1.808-4.025-4.027-4.025h-0.129z"></path>
</symbol>
<symbol id="illustrator" viewBox="0 0 32 32">
<path fill="#5f3f87" style="fill: var(--color1, #5f3f87)" d="M26.333 0.399h-20.665c-0.745-0.001-1.482 0.145-2.17 0.429s-1.313 0.702-1.84 1.228c-0.526 0.526-0.944 1.152-1.228 1.84s-0.43 1.425-0.429 2.17v19.865c-0.001 0.745 0.145 1.482 0.429 2.17s0.702 1.313 1.228 1.84 1.152 0.944 1.84 1.228c0.688 0.285 1.426 0.43 2.17 0.429h20.665c0.745 0.001 1.482-0.145 2.17-0.429s1.313-0.702 1.84-1.228 0.944-1.152 1.228-1.84c0.285-0.688 0.43-1.425 0.429-2.17v-19.865c0.001-0.745-0.145-1.482-0.429-2.17s-0.702-1.313-1.228-1.84-1.152-0.944-1.84-1.228c-0.688-0.284-1.425-0.43-2.17-0.429zM19.56 22.399h-2.787c-0.047 0.004-0.094-0.009-0.132-0.036s-0.067-0.066-0.080-0.111l-1.093-3.185h-4.967l-1 3.132c-0.011 0.057-0.043 0.107-0.089 0.142s-0.104 0.051-0.161 0.046h-2.5c-0.145 0-0.185-0.080-0.145-0.25l4.275-12.35c0.040-0.135 0.080-0.28 0.133-0.44 0.055-0.286 0.081-0.576 0.080-0.868-0.004-0.034 0.005-0.067 0.025-0.095s0.049-0.046 0.082-0.053h3.453c0.107 0 0.16 0.040 0.175 0.107l4.865 13.732c0.040 0.147 0 0.215-0.133 0.215v0.012zM24.16 22.249c0 0.147-0.053 0.212-0.173 0.212h-2.615c-0.028 0.002-0.056-0.002-0.082-0.012s-0.050-0.026-0.069-0.046c-0.019-0.020-0.034-0.045-0.042-0.071s-0.011-0.055-0.007-0.083v-10.277c0-0.133 0.055-0.185 0.175-0.185h2.653c0.12 0 0.173 0.065 0.173 0.185l-0.013 10.277zM23.88 10.199c-0.157 0.16-0.347 0.284-0.556 0.365s-0.433 0.116-0.657 0.103c-0.219 0.005-0.437-0.034-0.641-0.114s-0.39-0.2-0.547-0.353c-0.307-0.333-0.47-0.775-0.453-1.227-0.009-0.22 0.028-0.439 0.109-0.643s0.205-0.389 0.363-0.542c0.319-0.304 0.744-0.471 1.185-0.468 0.224-0.012 0.448 0.024 0.657 0.105s0.399 0.204 0.558 0.363c0.295 0.323 0.452 0.748 0.44 1.185 0.009 0.225-0.027 0.449-0.106 0.66s-0.199 0.404-0.354 0.567zM14.667 16.359h-3.387c0.2-0.56 0.4-1.187 0.587-1.867s0.413-1.333 0.613-1.973c0.182-0.565 0.333-1.139 0.453-1.72h0.027c0.093 0.32 0.187 0.668 0.293 1.040s0.227 0.773 0.36 1.188c0.132 0.415 0.25 0.812 0.387 1.225s0.25 0.787 0.36 1.147c0.11 0.36 0.227 0.68 0.307 0.96z"></path>
</symbol>
<symbol id="nestjs" viewBox="0 0 32 32">
<path fill="#5f3f87" style="fill: var(--color1, #5f3f87)" d="M18.841 0.063c-0.231 0-0.445 0.049-0.644 0.116 0.421 0.28 0.653 0.653 0.768 1.075 0.009 0.057 0.025 0.099 0.033 0.156 0.010 0.049 0.016 0.099 0.017 0.149 0.032 0.727-0.191 0.819-0.347 1.248-0.24 0.553-0.173 1.148 0.115 1.627 0.026 0.064 0.059 0.125 0.099 0.183-0.313-2.091 1.431-2.404 1.752-3.057 0.025-0.571-0.445-0.951-0.817-1.215-0.292-0.184-0.631-0.281-0.976-0.28v-0.001zM21.469 0.533c-0.032 0.191-0.008 0.141-0.016 0.24-0.008 0.067-0.008 0.149-0.016 0.215-0.017 0.067-0.033 0.133-0.059 0.199-0.016 0.067-0.040 0.133-0.067 0.199l-0.089 0.189c-0.027 0.033-0.041 0.067-0.067 0.1l-0.049 0.073c-0.039 0.057-0.081 0.112-0.124 0.165-0.049 0.051-0.091 0.108-0.149 0.149v0.008c-0.049 0.041-0.099 0.091-0.157 0.133-0.173 0.132-0.371 0.231-0.553 0.355-0.057 0.040-0.116 0.075-0.165 0.124-0.056 0.039-0.109 0.084-0.157 0.132-0.057 0.049-0.099 0.099-0.148 0.157-0.041 0.049-0.091 0.107-0.124 0.165-0.041 0.056-0.080 0.114-0.116 0.173-0.033 0.067-0.057 0.124-0.091 0.189-0.025 0.067-0.049 0.124-0.067 0.191-0.022 0.068-0.041 0.137-0.057 0.207-0.008 0.033-0.008 0.075-0.016 0.107-0.009 0.033-0.009 0.067-0.017 0.1 0 0.067-0.008 0.14-0.008 0.207 0 0.049 0 0.099 0.008 0.148 0 0.067 0.008 0.133 0.025 0.207 0.008 0.067 0.024 0.133 0.040 0.2 0.027 0.065 0.043 0.131 0.067 0.197 0.017 0.040 0.041 0.083 0.059 0.116l-1.901-0.736c-0.321-0.091-0.636-0.173-0.959-0.248l-0.52-0.124c-0.496-0.099-1-0.173-1.504-0.223-0.017 0-0.025-0.008-0.041-0.008-0.852-0.085-1.709-0.096-2.563-0.033-0.504 0.033-1.008 0.099-1.512 0.181-0.375 0.065-0.747 0.142-1.116 0.232l-0.372 0.099c-0.123 0.049-0.24 0.107-0.355 0.157l-0.273 0.124c-0.016 0.008-0.032 0.008-0.040 0.016-0.084 0.041-0.157 0.075-0.232 0.116-0.107 0.047-0.212 0.1-0.315 0.157-0.057 0.024-0.115 0.057-0.165 0.083-0.024 0.015-0.048 0.028-0.073 0.040-0.075 0.043-0.149 0.084-0.216 0.125-0.068 0.038-0.134 0.079-0.197 0.124-0.059 0.040-0.116 0.073-0.165 0.115-0.008 0.009-0.017 0.009-0.025 0.017-0.049 0.033-0.107 0.075-0.157 0.116l-0.016 0.016-0.124 0.099c-0.016 0.009-0.033 0.025-0.049 0.033-0.041 0.033-0.083 0.075-0.124 0.107-0.008 0.017-0.025 0.027-0.033 0.033-0.049 0.051-0.099 0.092-0.148 0.141-0.009 0-0.009 0.008-0.017 0.016-0.051 0.045-0.101 0.092-0.148 0.141-0.009 0.008-0.009 0.016-0.017 0.016-0.043 0.042-0.085 0.087-0.124 0.133-0.016 0.016-0.040 0.032-0.057 0.048-0.044 0.052-0.091 0.102-0.141 0.149-0.008 0.016-0.024 0.025-0.032 0.040-0.067 0.067-0.124 0.133-0.191 0.2l-0.024 0.024c-0.133 0.141-0.273 0.281-0.423 0.405-0.148 0.133-0.305 0.256-0.463 0.364-0.316 0.226-0.657 0.414-1.016 0.561-0.173 0.075-0.356 0.141-0.537 0.199-0.347 0.075-0.703 0.215-1.008 0.24-0.067 0-0.14 0.016-0.207 0.024l-0.207 0.049-0.199 0.075c-0.067 0.025-0.132 0.059-0.197 0.091-0.059 0.041-0.124 0.075-0.183 0.116-0.059 0.043-0.114 0.090-0.165 0.141-0.057 0.040-0.116 0.099-0.165 0.148-0.049 0.057-0.099 0.107-0.14 0.165-0.041 0.067-0.091 0.124-0.124 0.191-0.043 0.060-0.082 0.123-0.116 0.189-0.033 0.075-0.067 0.141-0.091 0.215-0.025 0.067-0.049 0.141-0.075 0.215-0.016 0.067-0.033 0.133-0.040 0.2 0 0.007-0.009 0.016-0.009 0.024-0.016 0.075-0.016 0.173-0.025 0.223-0.008 0.059-0.016 0.107-0.016 0.165-0.002 0.144 0.032 0.286 0.099 0.413v0.008c0.025 0.049 0.059 0.1 0.092 0.149 0.032 0.049 0.067 0.099 0.107 0.148 0.041 0.041 0.091 0.092 0.141 0.133 0.048 0.048 0.1 0.093 0.156 0.132 0.199 0.173 0.248 0.231 0.504 0.363 0.041 0.025 0.083 0.041 0.133 0.067 0.008 0 0.016 0.008 0.024 0.008 0 0.017 0 0.025 0.008 0.041 0.019 0.136 0.055 0.27 0.107 0.397 0.027 0.049 0.043 0.099 0.067 0.148 0.009 0.017 0.017 0.033 0.027 0.041 0.032 0.067 0.065 0.124 0.097 0.183l0.124 0.173c0.041 0.049 0.092 0.107 0.141 0.157 0.049 0.049 0.099 0.091 0.157 0.14 0 0 0.008 0.008 0.016 0.008 0.049 0.041 0.099 0.083 0.149 0.116 0.058 0.040 0.118 0.076 0.181 0.107 0.057 0.033 0.124 0.067 0.189 0.092 0.053 0.024 0.109 0.043 0.165 0.057 0.009 0.008 0.017 0.008 0.033 0.016 0.033 0.009 0.075 0.017 0.107 0.025-0.024 0.447-0.032 0.867 0.035 1.016 0.073 0.165 0.437-0.339 0.8-0.917-0.048 0.571-0.081 1.24 0 1.439 0.092 0.207 0.587-0.439 1.017-1.149 5.86-1.355 11.207 2.693 11.768 8.413-0.107-0.893-1.207-1.388-1.711-1.264-0.248 0.611-0.669 1.396-1.347 1.884 0.057-0.547 0.033-1.107-0.083-1.653-0.185 0.761-0.535 1.472-1.025 2.083-0.784 0.057-1.569-0.323-1.983-0.893-0.033-0.024-0.041-0.073-0.067-0.107-0.024-0.057-0.049-0.116-0.067-0.173-0.024-0.055-0.041-0.114-0.049-0.173-0.008-0.059-0.008-0.116-0.008-0.183v-0.124c0.010-0.059 0.024-0.117 0.041-0.173s0.033-0.115 0.059-0.173c0.032-0.057 0.057-0.116 0.099-0.173 0.14-0.397 0.14-0.72-0.116-0.909-0.050-0.032-0.102-0.060-0.157-0.083-0.032-0.008-0.073-0.024-0.107-0.033l-0.067-0.024c-0.057-0.018-0.115-0.032-0.173-0.041-0.056-0.016-0.115-0.025-0.173-0.025-0.060-0.009-0.121-0.015-0.181-0.016-0.041 0-0.083 0.008-0.124 0.008-0.062-0-0.123 0.008-0.183 0.025-0.057 0.008-0.115 0.016-0.173 0.032s-0.117 0.035-0.173 0.059c-0.057 0.024-0.107 0.049-0.165 0.075-0.049 0.024-0.099 0.057-0.157 0.083-1.925 1.256-0.776 4.197 0.537 5.049-0.496 0.091-1 0.197-1.14 0.305l-0.017 0.016c0.356 0.215 0.728 0.397 1.116 0.555 0.529 0.173 1.091 0.329 1.339 0.396v0.008c0.685 0.141 1.385 0.191 2.083 0.149 3.661-0.256 6.661-3.041 7.207-6.711l0.049 0.215c0.025 0.149 0.057 0.307 0.075 0.463v0.008c0.016 0.075 0.024 0.149 0.033 0.216v0.032c0.008 0.075 0.016 0.149 0.016 0.216 0.008 0.091 0.016 0.181 0.016 0.272v0.133c0 0.040 0.009 0.089 0.009 0.131 0 0.051-0.009 0.1-0.009 0.149v0.116c0 0.057-0.008 0.107-0.008 0.165 0 0.033 0 0.067-0.008 0.107 0 0.059-0.008 0.116-0.008 0.183-0.008 0.024-0.008 0.049-0.008 0.073l-0.027 0.191c0 0.025 0 0.049-0.007 0.075-0.009 0.083-0.025 0.157-0.033 0.24v0.016l-0.049 0.232v0.024l-0.049 0.223c0 0.009-0.009 0.027-0.009 0.033-0.015 0.076-0.034 0.15-0.057 0.224v0.024c-0.025 0.083-0.049 0.157-0.067 0.232-0.008 0.008-0.008 0.016-0.008 0.016l-0.075 0.248c-0.032 0.083-0.057 0.157-0.091 0.24s-0.057 0.165-0.091 0.24c-0.033 0.083-0.067 0.156-0.099 0.24h-0.009c-0.032 0.073-0.067 0.156-0.107 0.231-0.007 0.020-0.015 0.039-0.025 0.057-0.008 0.008-0.008 0.017-0.016 0.025-0.547 1.094-1.342 2.045-2.323 2.776-0.067 0.041-0.132 0.092-0.199 0.141-0.016 0.016-0.040 0.024-0.057 0.040-0.059 0.044-0.12 0.085-0.181 0.125l0.024 0.049h0.009l0.347-0.049h0.008c0.215-0.033 0.429-0.075 0.644-0.116 0.059-0.008 0.124-0.025 0.183-0.041l0.116-0.025c0.057-0.008 0.115-0.024 0.173-0.032 0.049-0.017 0.099-0.027 0.148-0.041 0.827-0.2 1.628-0.472 2.397-0.793-1.328 1.809-3.095 3.251-5.133 4.189 0.952-0.067 1.901-0.223 2.819-0.488 3.32-0.976 6.125-3.217 7.809-6.24-0.34 1.914-1.099 3.729-2.223 5.315 0.801-0.528 1.541-1.144 2.207-1.835 1.85-1.931 3.064-4.382 3.48-7.024 0.28 1.307 0.363 2.653 0.24 3.983 5.965-8.321 0.495-16.949-1.795-19.221-0.008-0.017-0.016-0.025-0.016-0.041-0.008 0.008-0.008 0.008-0.008 0.016 0-0.008 0-0.008-0.009-0.016 0 0.099-0.008 0.197-0.016 0.297-0.023 0.185-0.050 0.37-0.083 0.553-0.040 0.181-0.091 0.364-0.14 0.547-0.059 0.173-0.124 0.355-0.2 0.528-0.076 0.171-0.158 0.339-0.247 0.504-0.185 0.324-0.397 0.631-0.636 0.917-0.124 0.148-0.256 0.28-0.389 0.413-0.078 0.071-0.158 0.14-0.24 0.207l-0.189 0.165c-0.148 0.116-0.302 0.224-0.463 0.321-0.158 0.102-0.321 0.196-0.488 0.281-0.173 0.083-0.347 0.157-0.52 0.232-0.353 0.134-0.718 0.234-1.091 0.297-0.191 0.033-0.38 0.049-0.563 0.067-0.132 0.009-0.264 0.015-0.396 0.016-0.188-0.003-0.376-0.014-0.563-0.033-0.189-0.015-0.376-0.042-0.561-0.083-0.187-0.034-0.372-0.081-0.553-0.14h-0.009c0.183-0.017 0.364-0.033 0.547-0.067 0.372-0.065 0.737-0.164 1.091-0.297 0.181-0.067 0.355-0.149 0.52-0.232 0.173-0.083 0.331-0.173 0.496-0.272 0.157-0.107 0.313-0.215 0.463-0.331s0.289-0.24 0.421-0.372c0.14-0.124 0.264-0.264 0.388-0.405 0.124-0.148 0.24-0.297 0.347-0.445 0.017-0.025 0.035-0.059 0.051-0.083 0.083-0.133 0.165-0.265 0.24-0.397 0.182-0.329 0.331-0.675 0.445-1.033 0.059-0.173 0.1-0.355 0.141-0.537 0.033-0.189 0.067-0.371 0.083-0.553 0.016-0.189 0.033-0.38 0.033-0.561 0-0.133-0.009-0.265-0.017-0.397-0.017-0.185-0.039-0.37-0.067-0.553-0.032-0.186-0.073-0.371-0.123-0.553-0.059-0.173-0.116-0.356-0.183-0.529s-0.148-0.347-0.231-0.512c-0.092-0.165-0.183-0.331-0.281-0.488-0.106-0.154-0.216-0.306-0.331-0.453-0.124-0.141-0.248-0.283-0.38-0.423-0.070-0.071-0.141-0.14-0.215-0.207-0.373-0.289-0.76-0.561-1.149-0.809-0.053-0.031-0.109-0.058-0.165-0.083-0.245-0.15-0.509-0.268-0.785-0.348z"></path>
</symbol>
<symbol id="nextjs" viewBox="0 0 32 32">
<path fill="#5f3f87" style="fill: var(--color1, #5f3f87)" d="M24.887 29.304c-2.543 1.703-5.6 2.696-8.887 2.696-8.831 0-16-7.169-16-16s7.169-16 16-16c8.831 0 16 7.169 16 16 0 4.777-2.099 9.068-5.423 12.001l-14.285-18.401h-2.692v12.795h2.153v-10.060l13.133 16.969zM20.444 17.927l2.133 2.748v-11.075h-2.133v8.327z"></path>
</symbol>
<symbol id="photoshop" viewBox="0 0 32 32">
<path fill="#5f3f87" style="fill: var(--color1, #5f3f87)" d="M5.667 0.399c-3.133 0-5.667 2.534-5.667 5.667v19.866c0 3.134 2.533 5.667 5.667 5.667h20.667c3.133 0 5.666-2.534 5.666-5.667v-19.866c0-3.134-2.533-5.667-5.666-5.667h-20.667zM11.467 8.333c1.093 0 2 0.133 2.746 0.413 0.669 0.227 1.28 0.601 1.787 1.094 0.43 0.431 0.761 0.949 0.973 1.52 0.2 0.56 0.306 1.133 0.306 1.733 0 1.147-0.267 2.093-0.8 2.84s-1.279 1.307-2.146 1.627c-0.907 0.334-1.907 0.453-3 0.453-0.32 0-0.534 0-0.667-0.013s-0.32-0.013-0.573-0.013v4.28c0.013 0.093-0.053 0.174-0.146 0.187h-2.587c-0.106 0-0.16-0.054-0.16-0.174v-13.72c0-0.093 0.040-0.147 0.133-0.147 0.227 0 0.44 0 0.747-0.013 0.32-0.014 0.653-0.013 1.013-0.027s0.747-0.014 1.16-0.027c0.413-0.014 0.813-0.013 1.213-0.013zM11.764 10.959c-0.068-0.001-0.136-0.001-0.204 0-0.347 0-0.653 0-0.907 0.014-0.267-0.014-0.453-0-0.546 0.013v4.48c0.187 0.014 0.359 0.027 0.519 0.027h0.707c0.52 0 1.040-0.080 1.533-0.24 0.427-0.12 0.8-0.373 1.093-0.707 0.28-0.334 0.413-0.787 0.413-1.373 0.012-0.417-0.094-0.828-0.306-1.187-0.227-0.347-0.547-0.614-0.934-0.76-0.432-0.175-0.894-0.258-1.369-0.267zM22.947 11.64c0.547 0 1.107 0.039 1.653 0.119 0.4 0.053 0.787 0.161 1.146 0.307 0.053 0.013 0.107 0.066 0.133 0.119 0.014 0.053 0.027 0.107 0.027 0.16v2.174c0 0.026-0.006 0.051-0.017 0.075s-0.028 0.043-0.049 0.059c-0.12 0.027-0.187 0.027-0.24 0-0.4-0.213-0.827-0.36-1.281-0.453-0.493-0.107-0.986-0.174-1.493-0.174-0.267-0.014-0.547 0.027-0.8 0.094-0.174 0.040-0.32 0.133-0.413 0.267-0.067 0.107-0.107 0.24-0.107 0.36s0.053 0.24 0.134 0.347c0.12 0.147 0.28 0.267 0.453 0.361 0.309 0.16 0.625 0.306 0.947 0.439 0.72 0.24 1.413 0.574 2.053 0.974 0.44 0.28 0.8 0.654 1.053 1.107 0.215 0.425 0.32 0.897 0.307 1.373 0.011 0.63-0.171 1.249-0.521 1.773-0.372 0.532-0.891 0.945-1.493 1.186-0.654 0.28-1.453 0.427-2.413 0.427-0.613 0-1.213-0.053-1.813-0.173-0.47-0.081-0.928-0.225-1.36-0.427-0.093-0.053-0.16-0.147-0.147-0.253v-2.32c0-0.040 0.013-0.093 0.053-0.12s0.080-0.013 0.12 0.014c0.514 0.303 1.072 0.523 1.654 0.654 0.507 0.133 1.040 0.2 1.574 0.2 0.506 0 0.866-0.067 1.107-0.187 0.213-0.093 0.36-0.32 0.36-0.56 0-0.186-0.107-0.36-0.32-0.534s-0.653-0.373-1.306-0.626c-0.67-0.236-1.307-0.559-1.893-0.96-0.418-0.298-0.764-0.685-1.013-1.133-0.213-0.421-0.318-0.888-0.306-1.36 0-0.573 0.16-1.12 0.453-1.613 0.333-0.533 0.827-0.96 1.401-1.226 0.627-0.32 1.413-0.467 2.36-0.467z"></path>
</symbol>
<symbol id="react-toastify" viewBox="0 0 32 32">
<path fill="#5f3f87" style="fill: var(--color1, #5f3f87)" d="M18.973 16.005c0 0.791-0.314 1.549-0.873 2.108s-1.317 0.873-2.107 0.874c-0.791 0-1.549-0.314-2.108-0.873s-0.873-1.317-0.873-2.108c0-0.79 0.314-1.549 0.873-2.108s1.317-0.873 2.107-0.874c0.791 0 1.549 0.314 2.108 0.873s0.873 1.317 0.873 2.108zM22.504 1.752c-1.795 0-4.143 1.28-6.517 3.496-2.373-2.204-4.723-3.469-6.516-3.469-0.547 0-1.044 0.124-1.475 0.371-1.833 1.057-2.244 4.352-1.297 8.487-4.059 1.253-6.699 3.257-6.699 5.369 0 2.12 2.653 4.129 6.724 5.373-0.939 4.151-0.52 7.451 1.317 8.507 0.427 0.249 0.92 0.367 1.469 0.367 1.793 0 4.143-1.28 6.517-3.499 2.373 2.205 4.723 3.471 6.516 3.471 0.547 0 1.044-0.12 1.475-0.367 1.832-1.056 2.244-4.351 1.297-8.487 4.044-1.243 6.684-3.251 6.684-5.365 0-2.12-2.653-4.129-6.724-5.376 0.939-4.147 0.52-7.449-1.317-8.507-0.424-0.245-0.916-0.369-1.455-0.371zM22.497 3.205v0.008c0.3 0 0.541 0.059 0.744 0.169 0.888 0.509 1.273 2.447 0.973 4.939-0.072 0.613-0.189 1.26-0.333 1.92-1.28-0.315-2.675-0.556-4.143-0.712-0.88-1.207-1.793-2.303-2.713-3.263 2.123-1.973 4.116-3.056 5.473-3.060l-0.001-0.001zM9.471 3.232c1.349 0 3.352 1.077 5.48 3.040-0.915 0.96-1.827 2.049-2.693 3.256-1.476 0.156-2.872 0.397-4.151 0.717-0.149-0.653-0.26-1.285-0.339-1.893-0.307-2.491 0.072-4.427 0.952-4.943 0.253-0.12 0.533-0.171 0.751-0.177zM15.98 7.298c0.607 0.624 1.213 1.323 1.813 2.085-0.587-0.027-1.187-0.045-1.793-0.045-0.613 0-1.22 0.013-1.813 0.045 0.587-0.763 1.193-1.46 1.793-2.085zM16 10.8c0.987 0 1.969 0.045 2.936 0.124 0.541 0.776 1.069 1.604 1.577 2.48 0.496 0.853 0.947 1.72 1.357 2.595-0.411 0.873-0.861 1.747-1.351 2.6-0.507 0.88-1.031 1.717-1.573 2.493-0.971 0.084-1.955 0.131-2.947 0.131-0.987 0-1.969-0.047-2.936-0.124-0.541-0.776-1.069-1.605-1.577-2.48-0.496-0.853-0.947-1.72-1.357-2.595 0.404-0.876 0.861-1.751 1.351-2.605 0.507-0.88 1.031-1.715 1.573-2.491 0.971-0.085 1.955-0.131 2.947-0.131v0.003zM11.153 11.138c-0.32 0.503-0.64 1.017-0.939 1.547-0.3 0.52-0.58 1.043-0.847 1.565-0.353-0.875-0.653-1.747-0.901-2.596 0.853-0.2 1.753-0.379 2.687-0.516zM20.833 11.138c0.927 0.137 1.82 0.307 2.675 0.516-0.24 0.843-0.54 1.709-0.88 2.577-0.267-0.52-0.547-1.044-0.853-1.565-0.3-0.523-0.62-1.032-0.94-1.528h-0.001zM24.917 12.038c0.645 0.2 1.259 0.423 1.833 0.664 2.309 0.987 3.803 2.277 3.803 3.301-0.007 1.024-1.5 2.32-3.809 3.3-0.56 0.24-1.173 0.456-1.807 0.657-0.373-1.277-0.861-2.608-1.467-3.973 0.6-1.356 1.080-2.68 1.447-3.952v0.003zM7.057 12.044c0.371 1.28 0.86 2.609 1.467 3.973-0.6 1.356-1.083 2.68-1.448 3.952-0.645-0.2-1.259-0.424-1.827-0.667-2.309-0.983-3.803-2.275-3.803-3.299s1.493-2.323 3.803-3.301c0.56-0.24 1.173-0.456 1.808-0.659zM22.628 17.75c0.353 0.876 0.653 1.749 0.901 2.597-0.853 0.209-1.755 0.387-2.688 0.52 0.32-0.5 0.64-1.016 0.94-1.544 0.3-0.52 0.579-1.051 0.847-1.573zM9.368 17.777c0.267 0.523 0.547 1.044 0.853 1.567 0.307 0.52 0.62 1.029 0.94 1.524-0.927-0.136-1.82-0.307-2.675-0.515 0.24-0.84 0.541-1.709 0.88-2.577l0.001 0.001zM23.893 21.76c0.149 0.657 0.267 1.291 0.339 1.897 0.307 2.491-0.072 4.427-0.952 4.944-0.196 0.12-0.451 0.171-0.751 0.171-1.349 0-3.352-1.076-5.48-3.040 0.915-0.96 1.827-2.048 2.693-3.253 1.476-0.157 2.872-0.399 4.151-0.719zM8.12 21.773c1.28 0.312 2.675 0.553 4.143 0.709 0.88 1.207 1.793 2.303 2.713 3.261-2.127 1.977-4.123 3.060-5.48 3.060-0.293-0.007-0.541-0.067-0.737-0.176-0.888-0.507-1.273-2.445-0.973-4.937 0.072-0.613 0.191-1.259 0.335-1.917zM14.2 22.626c0.587 0.027 1.187 0.045 1.793 0.045 0.613 0 1.22-0.013 1.813-0.045-0.587 0.763-1.193 1.46-1.793 2.087-0.607-0.627-1.213-1.324-1.813-2.087z"></path>
</symbol>
<symbol id="rtk-rtkq" viewBox="0 0 32 32">
<path fill="#5f3f87" style="fill: var(--color1, #5f3f87)" d="M22.179 22.005c1.16-0.1 2.057-1.12 2-2.339-0.063-1.219-1.061-2.197-2.279-2.197h-0.081c-0.604 0.021-1.175 0.282-1.587 0.724s-0.632 1.030-0.61 1.634c0.040 0.639 0.301 1.159 0.659 1.537-1.397 2.717-3.495 4.715-6.673 6.393-2.137 1.117-4.395 1.539-6.592 1.24-1.837-0.26-3.275-1.080-4.155-2.399-1.317-1.999-1.437-4.155-0.34-6.312 0.8-1.56 1.999-2.697 2.799-3.257-0.242-0.67-0.429-1.358-0.56-2.057-5.916 4.237-5.313 10.029-3.516 12.767 1.339 1.997 4.076 3.275 7.072 3.275 0.8 0 1.64-0.059 2.457-0.259 5.196-0.999 9.131-4.115 11.388-8.709l0.019-0.041zM29.309 17.010c-3.093-3.637-7.651-5.635-12.845-5.635h-0.68c-0.337-0.739-1.116-1.199-1.997-1.199h-0.060c-1.257 0-2.237 1.080-2.196 2.337 0.040 1.197 1.059 2.197 2.277 2.197h0.099c0.432-0.017 0.851-0.158 1.205-0.405s0.63-0.593 0.794-0.993h0.74c3.079 0 5.993 0.899 8.651 2.656 2.036 1.34 3.496 3.097 4.316 5.196 0.717 1.717 0.679 3.396-0.060 4.796-1.14 2.196-3.059 3.356-5.595 3.356-1.599 0-3.156-0.5-3.956-0.859-0.48 0.397-1.28 1.057-1.859 1.457 1.757 0.797 3.536 1.257 5.253 1.257 3.896 0 6.792-2.196 7.892-4.315 1.197-2.397 1.099-6.432-1.96-9.888l-0.019 0.040zM8.653 22.722c0.040 1.199 1.057 2.197 2.277 2.197h0.080c0.3-0.007 0.596-0.074 0.87-0.196s0.521-0.299 0.725-0.519c0.205-0.22 0.363-0.478 0.467-0.76s0.149-0.582 0.135-0.882c0-1.2-1.039-2.196-2.257-2.196h-0.080c-0.080 0-0.2 0-0.301 0.039-1.657-2.797-2.357-5.796-2.096-9.029 0.16-2.437 0.96-4.556 2.396-6.313 1.2-1.499 3.457-2.24 4.996-2.277 4.315-0.081 6.113 5.295 6.252 7.432l1.997 0.6c-0.46-6.555-4.533-9.991-8.429-9.991-3.659 0-7.032 2.657-8.392 6.553-1.857 5.193-0.639 10.189 1.64 14.185-0.2 0.26-0.32 0.719-0.28 1.157z"></path>
</symbol>
<symbol id="typeorm" viewBox="0 0 32 32">
<path fill="#5f3f87" style="fill: var(--color1, #5f3f87)" d="M30.124 9.151c0 1.2-0.011 2.323 0.005 3.444 0.008 0.473 0.093 0.944 0.28 1.384 0.177 0.408 0.467 0.725 0.869 0.923 0.204 0.1 0.419 0.175 0.627 0.272 0.024 0.014 0.045 0.033 0.060 0.056s0.025 0.049 0.028 0.076c0.007 0.516 0.007 1.031 0 1.547 0 0.052-0.069 0.129-0.124 0.147-0.374 0.123-0.713 0.335-0.986 0.619s-0.474 0.629-0.584 1.008c-0.167 0.516-0.183 1.047-0.183 1.583 0.002 1.991-0.001 3.982-0.008 5.973 0 0.621-0.093 1.235-0.3 1.817-0.116 0.321-0.301 0.617-0.463 0.92-0.021 0.041-0.067 0.069-0.107 0.097-0.247 0.183-0.487 0.383-0.747 0.543-0.225 0.137-0.472 0.236-0.713 0.34-0.152 0.064-0.315 0.109-0.469 0.161-0.022 0.009-0.044 0.015-0.067 0.019-0.307 0.037-0.613 0.083-0.919 0.111-0.372 0.029-0.742 0.052-1.112 0.069-0.081 0.004-0.164-0.027-0.244-0.035-0.139-0.013-0.173-0.093-0.171-0.224 0.007-0.452 0.007-0.904 0-1.356 0-0.139 0.036-0.2 0.185-0.188 0.156 0.009 0.32 0.016 0.472-0.005 0.295-0.042 0.586-0.097 0.873-0.167 0.201-0.053 0.397-0.121 0.587-0.204 0.258-0.109 0.472-0.301 0.608-0.545 0.167-0.277 0.247-0.583 0.315-0.901 0.076-0.351 0.048-0.693 0.053-1.040 0.009-1.98 0-3.96 0.011-5.941 0.003-0.418 0.037-0.833 0.104-1.247 0.062-0.441 0.225-0.862 0.477-1.229s0.586-0.67 0.976-0.885l0.333-0.191c0.081-0.049 0.072-0.143-0.021-0.192-0.413-0.217-0.781-0.509-1.087-0.861-0.233-0.279-0.41-0.601-0.52-0.948-0.24-0.735-0.273-1.493-0.269-2.259 0.003-1.928-0.013-3.856 0-5.783 0.001-0.299-0.031-0.596-0.096-0.888-0.107-0.493-0.32-0.949-0.787-1.212-0.198-0.101-0.407-0.18-0.623-0.236-0.219-0.068-0.443-0.117-0.671-0.147-0.239-0.027-0.479-0.038-0.72-0.033-0.151 0.001-0.204-0.040-0.2-0.196 0.008-0.485 0.004-0.971 0.001-1.456 0-0.119 0.040-0.163 0.156-0.159 0.261 0.007 0.52-0.009 0.779 0.005 0.363 0.021 0.727 0.047 1.087 0.097 0.787 0.106 1.527 0.436 2.131 0.952 0.336 0.287 0.544 0.639 0.712 1.029 0.2 0.461 0.301 0.947 0.367 1.443 0.173 1.32 0.040 2.648 0.096 3.891l-0.003 0.001zM1.894 8.953c0-0.775-0.008-1.551 0.003-2.327 0.008-0.509 0.012-1.027 0.065-1.532 0.036-0.351 0.147-0.693 0.24-1.037 0.087-0.354 0.254-0.684 0.488-0.964 0.196-0.229 0.424-0.431 0.677-0.599 0.259-0.169 0.555-0.277 0.839-0.407 0.227-0.101 0.464-0.144 0.707-0.188 0.692-0.122 1.394-0.178 2.097-0.167 0.12 0 0.163 0.036 0.16 0.156-0.004 0.496-0.004 0.993 0 1.491 0 0.121-0.037 0.168-0.164 0.163-0.142-0.013-0.286-0.012-0.428 0.004-0.315 0.042-0.628 0.099-0.939 0.169-0.2 0.047-0.388 0.125-0.579 0.197-0.259 0.107-0.475 0.297-0.613 0.541-0.164 0.277-0.244 0.587-0.317 0.907-0.089 0.4 0.011 0.784 0.003 1.176-0.027 1.772-0.008 3.544-0.013 5.32 0.004 0.489-0.019 0.978-0.068 1.464-0.107 0.965-0.513 1.771-1.365 2.303-0.154 0.092-0.307 0.184-0.46 0.279-0.031 0.019-0.068 0.065-0.063 0.091 0.011 0.046 0.038 0.086 0.077 0.112 0.428 0.228 0.809 0.535 1.124 0.904 0.253 0.307 0.415 0.659 0.533 1.040 0.2 0.661 0.212 1.341 0.219 2.021 0.011 1.731 0.003 3.463 0.004 5.195 0 0.192 0.020 0.384 0.017 0.575 0 0.096-0.033 0.191-0.036 0.287-0.004 0.112-0.001 0.224 0.007 0.337 0.004 0.069 0.027 0.139 0.039 0.208 0.057 0.401 0.183 0.777 0.448 1.089 0.175 0.204 0.404 0.336 0.659 0.428 0.268 0.096 0.547 0.133 0.821 0.199 0.328 0.077 0.647 0.059 0.973 0.072 0.087 0.004 0.12 0.040 0.12 0.124 0 0.523 0.003 1.045-0.007 1.568 0 0.039-0.071 0.108-0.109 0.108-0.336 0.007-0.671 0.013-1.005-0.003-0.303-0.010-0.605-0.041-0.904-0.092-0.312-0.059-0.613-0.163-0.92-0.248-0.484-0.138-0.923-0.401-1.273-0.763-0.208-0.209-0.377-0.453-0.501-0.72-0.172-0.371-0.302-0.76-0.389-1.16-0.087-0.423-0.133-0.853-0.137-1.285-0.020-1.897-0.017-3.795-0.031-5.691-0.003-0.429-0.005-0.86-0.052-1.285-0.053-0.48-0.16-0.949-0.456-1.351-0.214-0.287-0.502-0.511-0.832-0.649-0.147-0.064-0.301-0.111-0.445-0.183-0.049-0.027-0.103-0.1-0.103-0.153-0.005-0.498-0.007-0.995-0.004-1.491 0-0.133 0.117-0.157 0.207-0.188 0.496-0.173 0.901-0.464 1.188-0.912 0.287-0.43 0.446-0.933 0.459-1.449 0.029-1.227 0.040-2.455 0.059-3.68h-0.021l0.004-0.004zM9.941 10.26v-4.147c0-0.393 0.233-0.629 0.629-0.629h6.869c0.395 0 0.631 0.236 0.631 0.629v8.267c0 0.427-0.227 0.653-0.651 0.653-2.277 0-4.549-0.003-6.827 0.005-0.383 0-0.659-0.263-0.653-0.657 0.008-1.373 0.001-2.747 0.001-4.121zM10.269 10.263v4.121c0 0.277 0.047 0.323 0.32 0.323h6.825c0.285 0 0.328-0.040 0.328-0.325v-8.244c0-0.284-0.044-0.327-0.325-0.327h-6.824c-0.28 0-0.323 0.044-0.323 0.329l-0.001 4.123zM9.942 21.449v-4.133c0-0.397 0.231-0.632 0.628-0.632h6.869c0.4 0 0.631 0.236 0.631 0.64v8.245c0 0.444-0.22 0.665-0.661 0.665h-6.813c-0.427 0-0.651-0.227-0.651-0.652l-0.003-4.133zM10.269 21.457v4.145c0 0.252 0.052 0.304 0.303 0.304h6.856c0.269 0 0.315-0.047 0.315-0.319v-8.263c0-0.263-0.051-0.312-0.311-0.312h-6.844c-0.273 0-0.32 0.047-0.32 0.324l0.001 4.12zM21.924 16.047c-0.002 1.858-0.001 3.717 0.003 5.579 0 0.147-0.040 0.191-0.187 0.189-0.779-0.007-1.557-0.007-2.336 0-0.139 0-0.16-0.053-0.16-0.173 0-0.124 0.040-0.16 0.16-0.16 0.667 0.005 1.333 0 1.999 0.005 0.144 0 0.197-0.041 0.197-0.193-0.003-3.497-0.003-6.994 0-10.491 0-0.149-0.048-0.196-0.196-0.195-0.667 0.007-1.332 0-1.997 0.005-0.133 0-0.164-0.045-0.164-0.171 0-0.12 0.032-0.163 0.159-0.161 0.789 0.004 1.579 0.004 2.368 0 0.128 0 0.156 0.044 0.156 0.163-0.002 1.868-0.003 3.735-0.001 5.603zM14.058 7.599c-0.91 0-1.82-0.001-2.729-0.003-0.053 0-0.145-0.013-0.151-0.037-0.016-0.081-0.005-0.169 0-0.255 0-0.013 0.041-0.027 0.069-0.031 0.036-0.004 0.072-0.004 0.109-0.003h5.395c0.177 0 0.259 0.117 0.183 0.277-0.013 0.032-0.088 0.048-0.133 0.048-0.752 0.002-1.504 0.002-2.255 0.001l-0.488 0.001zM14.422 9.483c-0.78 0-1.56-0.005-2.344 0.004-0.173 0-0.157-0.091-0.164-0.204-0.009-0.136 0.073-0.129 0.164-0.129h4.701c0.091 0 0.173-0.005 0.164 0.129-0.007 0.115 0.008 0.205-0.164 0.204-0.787-0.011-1.571-0.004-2.355-0.004h-0.003zM14.429 11.225c0.787 0 1.571 0.003 2.356-0.003 0.137 0 0.157 0.055 0.16 0.173 0 0.124-0.040 0.16-0.16 0.16-1.572-0.004-3.143-0.004-4.715 0-0.123 0-0.161-0.039-0.16-0.161 0-0.12 0.027-0.173 0.161-0.173 0.788 0.004 1.573 0.006 2.357 0.004zM14.417 13.621c-0.78 0-1.564-0.003-2.345 0.003-0.124 0-0.16-0.040-0.16-0.163 0-0.124 0.031-0.171 0.164-0.168 1.568 0.005 3.136 0.005 4.704 0 0.131 0 0.164 0.040 0.164 0.167 0.003 0.133-0.040 0.165-0.169 0.164-0.786-0.003-1.572-0.004-2.357-0.003zM11.418 11.552h-0.045c-0.213 0-0.269-0.045-0.196-0.249 0.060-0.172 0.247-0.047 0.373-0.073 0.036-0.005 0.116 0.044 0.123 0.080 0.040 0.229 0.023 0.241-0.253 0.241l-0.001 0.001zM11.422 9.153h0.045c0.221 0 0.275 0.041 0.197 0.253-0.063 0.173-0.249 0.045-0.379 0.069-0.031 0.008-0.107-0.051-0.112-0.085-0.032-0.236-0.027-0.236 0.247-0.236l0.001-0.001zM11.425 13.621h-0.068c-0.183 0.001-0.244-0.088-0.184-0.267 0.008-0.027 0.051-0.053 0.080-0.056 0.080-0.008 0.157-0.003 0.235-0.003 0.177 0 0.253 0.115 0.18 0.277-0.008 0.024-0.055 0.040-0.088 0.045-0.051 0.008-0.104 0.003-0.156 0.003h0.001zM14.056 18.472c0.911 0.001 1.821 0 2.729-0.003 0.123 0 0.16 0.036 0.16 0.16 0 0.12-0.023 0.173-0.159 0.171-1.819-0.004-3.638-0.004-5.457 0-0.128 0-0.168-0.036-0.168-0.165s0.040-0.167 0.167-0.167c0.911 0.004 1.82 0.005 2.728 0.004zM14.418 20.683c-0.78 0-1.561-0.005-2.344 0.004-0.179 0-0.151-0.101-0.159-0.208-0.009-0.129 0.068-0.125 0.16-0.125h4.711c0.1 0 0.168 0.007 0.16 0.137-0.009 0.108 0.008 0.2-0.16 0.197-0.789-0.008-1.579-0.003-2.368-0.003v-0.003zM14.418 22.751c-0.782-0.002-1.564-0.001-2.344 0.003-0.133 0-0.16-0.049-0.161-0.172 0-0.121 0.039-0.16 0.16-0.16 1.572 0.004 3.143 0.004 4.713 0 0.12 0 0.161 0.036 0.16 0.16 0 0.119-0.021 0.173-0.16 0.171-0.788-0.004-1.577-0.004-2.367-0.003l-0.001 0.001zM14.43 24.496c0.785 0.002 1.57 0.001 2.356-0.003 0.128 0 0.16 0.044 0.16 0.163-0.003 0.115-0.020 0.169-0.155 0.168-1.576-0.004-3.151-0.004-4.727 0-0.123 0-0.155-0.044-0.151-0.157 0.001-0.107 0.007-0.175 0.147-0.173 0.79 0.004 1.58 0.004 2.371 0.003zM11.422 20.352h0.033c0.236 0 0.267 0.017 0.209 0.247-0.044 0.173-0.215 0.056-0.328 0.080-0.057 0.011-0.156 0.044-0.169-0.080-0.027-0.239-0.021-0.245 0.256-0.245l-0.001-0.001zM11.418 22.424h0.061c0.187 0 0.253 0.093 0.188 0.272-0.008 0.025-0.052 0.048-0.083 0.051-0.083 0.007-0.165-0.004-0.249 0.004-0.133 0.016-0.176-0.035-0.177-0.173-0.004-0.249 0.177-0.116 0.26-0.153zM11.421 24.821h-0.068c-0.18 0-0.245-0.089-0.181-0.269 0.008-0.024 0.051-0.051 0.083-0.053 0.072-0.008 0.147-0.003 0.22-0.003 0.193 0 0.256 0.083 0.195 0.267-0.008 0.027-0.051 0.051-0.080 0.056-0.056 0.007-0.113 0.001-0.167 0.001l-0.001 0.001z"></path>
</symbol>
<symbol id="typescript" viewBox="0 0 32 32">
<path fill="#5f3f87" style="fill: var(--color1, #5f3f87)" d="M1.5 0c-0.831 0-1.5 0.669-1.5 1.5v29c0 0.831 0.669 1.5 1.5 1.5h29c0.831 0 1.5-0.669 1.5-1.5v-29c0-0.831-0.669-1.5-1.5-1.5h-29zM24.651 13c0.816 0 1.539 0.049 2.169 0.148 0.595 0.089 1.179 0.241 1.741 0.453v3.277c-0.27-0.187-0.557-0.348-0.857-0.481-0.309-0.139-0.629-0.255-0.956-0.347-0.619-0.173-1.259-0.262-1.901-0.267-0.4 0-0.764 0.037-1.092 0.115-0.292 0.063-0.573 0.171-0.831 0.323-0.227 0.139-0.4 0.305-0.524 0.499-0.125 0.195-0.19 0.422-0.187 0.653 0 0.261 0.071 0.497 0.208 0.705 0.139 0.208 0.336 0.405 0.591 0.592s0.564 0.368 0.928 0.547c0.364 0.18 0.776 0.365 1.235 0.555 0.627 0.263 1.189 0.543 1.688 0.837 0.499 0.296 0.927 0.631 1.284 1.004 0.357 0.372 0.629 0.797 0.819 1.276s0.285 1.035 0.285 1.671c0 0.876-0.167 1.613-0.497 2.208-0.323 0.587-0.787 1.084-1.349 1.447-0.606 0.385-1.279 0.654-1.983 0.795-0.755 0.16-1.551 0.24-2.387 0.24-0.823 0.004-1.644-0.070-2.453-0.219-0.7-0.121-1.379-0.343-2.016-0.657v-3.507c1.205 1.026 2.734 1.592 4.316 1.6 0.444 0 0.832-0.040 1.163-0.12 0.332-0.080 0.608-0.192 0.831-0.333 0.221-0.144 0.387-0.312 0.497-0.507 0.122-0.227 0.178-0.483 0.161-0.74s-0.107-0.504-0.259-0.712c-0.198-0.262-0.44-0.488-0.716-0.667-0.342-0.227-0.702-0.425-1.076-0.592-0.444-0.203-0.891-0.396-1.343-0.581-1.224-0.511-2.136-1.136-2.737-1.873-0.6-0.737-0.901-1.629-0.901-2.673 0-0.819 0.164-1.521 0.492-2.109s0.773-1.072 1.339-1.452c0.598-0.395 1.262-0.678 1.96-0.839 0.773-0.182 1.566-0.272 2.36-0.268zM4.5 13.251h12.751v2.888h-4.576v12.861h-3.623v-12.861h-4.552v-2.888z"></path>
</symbol>
<symbol id="nodemailer" viewBox="0 0 32 32">
<path fill="#5f3f87" style="fill: var(--color1, #5f3f87)" d="M0.615 4.615v14.688h12.486l-12.486-14.688z"></path>
<path fill="#5f3f87" style="fill: var(--color1, #5f3f87)" d="M31.385 4.615v14.688h-12.486l12.486-14.688z"></path>
<path fill="#5f3f87" style="fill: var(--color1, #5f3f87)" d="M31.385 4.615l-8.642 11.342-0.5-0.589 9.142-10.752z"></path>
<path fill="#5f3f87" style="fill: var(--color1, #5f3f87)" d="M13.102 4.615v14.688h12.486l-12.486-14.688z"></path>
</symbol>
<symbol id="swiper" viewBox="0 0 32 32">
<path fill="#5f3f87" style="fill: var(--color1, #5f3f87)" d="M16 0c-8.836 0-16 7.164-16 16s7.164 16 16 16c8.836 0 16-7.164 16-16s-7.164-16-16-16zM22.512 23.877c-0.337 0.758-0.834 1.435-1.456 1.984-0.641 0.557-1.386 0.981-2.192 1.248-0.843 0.288-1.744 0.432-2.704 0.432s-1.824-0.133-2.592-0.4c-0.768-0.267-1.451-0.619-2.048-1.056s-1.109-0.939-1.536-1.504c-0.405-0.53-0.749-1.104-1.024-1.712l2.24-1.344c0.192 0.448 0.443 0.88 0.752 1.296s0.667 0.784 1.072 1.104c0.884 0.696 1.979 1.069 3.104 1.056 0.533 0 1.051-0.075 1.552-0.224s0.944-0.373 1.328-0.672c0.384-0.299 0.693-0.667 0.928-1.104s0.352-0.955 0.352-1.552c0-0.576-0.112-1.072-0.336-1.488-0.232-0.426-0.542-0.806-0.912-1.12-0.42-0.354-0.882-0.655-1.376-0.896-0.533-0.267-1.109-0.549-1.728-0.848-0.738-0.348-1.469-0.71-2.192-1.088-0.712-0.368-1.378-0.819-1.984-1.344-0.578-0.501-1.060-1.103-1.424-1.776-0.363-0.672-0.544-1.456-0.544-2.352 0-0.747 0.139-1.488 0.416-2.224 0.273-0.729 0.686-1.398 1.216-1.968 0.533-0.576 1.2-1.045 2-1.408s1.733-0.544 2.8-0.544c0.789 0 1.52 0.101 2.192 0.304 1.202 0.352 2.303 0.983 3.216 1.84 0.405 0.384 0.736 0.757 0.992 1.12l-2.016 1.632c-0.452-0.643-1.036-1.183-1.712-1.584-0.387-0.23-0.801-0.413-1.232-0.544-0.467-0.141-0.952-0.212-1.44-0.208-0.619 0-1.157 0.096-1.616 0.288-0.436 0.177-0.833 0.438-1.168 0.768-0.32 0.32-0.56 0.688-0.72 1.104s-0.24 0.837-0.24 1.264c0 0.533 0.117 0.997 0.352 1.392s0.565 0.763 0.992 1.104c0.427 0.341 0.949 0.672 1.568 0.992s1.312 0.651 2.080 0.992c0.853 0.384 1.627 0.784 2.32 1.2s1.28 0.869 1.76 1.36c0.48 0.491 0.848 1.045 1.104 1.664s0.384 1.344 0.384 2.176c0 0.981-0.176 1.861-0.528 2.64z"></path>
</symbol>
<symbol id="tailwind" viewBox="0 0 52 32">
<path fill="#5f3f87" style="fill: var(--color1, #5f3f87)" d="M26.184 0.291c-6.982 0-11.345 3.491-13.091 10.473 2.618-3.491 5.673-4.8 9.164-3.927 1.992 0.497 3.415 1.942 4.992 3.543 2.568 2.605 5.537 5.62 12.026 5.62 6.982 0 11.345-3.491 13.091-10.473-2.618 3.491-5.673 4.8-9.164 3.927-1.992-0.497-3.415-1.942-4.992-3.543-2.566-2.605-5.535-5.62-12.026-5.62zM13.093 16c-6.982 0-11.345 3.491-13.091 10.473 2.618-3.491 5.673-4.8 9.164-3.927 1.992 0.497 3.415 1.942 4.992 3.543 2.568 2.605 5.537 5.62 12.026 5.62 6.982 0 11.345-3.491 13.091-10.473-2.618 3.491-5.673 4.8-9.164 3.927-1.992-0.497-3.415-1.942-4.992-3.543-2.566-2.605-5.535-5.62-12.026-5.62z"></path>
</symbol>
<symbol id="vite" viewBox="0 0 32 32">
<path fill="#5f3f87" style="fill: var(--color1, #5f3f87)" d="M11.048 14.104l0.683-11.543c0.005-0.090 0.041-0.176 0.1-0.244s0.14-0.114 0.229-0.132l11.109-2.177c0.069-0.013 0.14-0.009 0.206 0.013s0.126 0.060 0.173 0.112c0.047 0.052 0.080 0.114 0.096 0.182s0.014 0.139-0.005 0.206l-2.077 7.204c-0.019 0.067-0.021 0.138-0.005 0.206s0.049 0.131 0.096 0.182c0.047 0.052 0.107 0.090 0.173 0.112s0.137 0.027 0.206 0.013l3.184-0.613c0.075-0.015 0.152-0.008 0.224 0.019s0.134 0.074 0.18 0.135 0.074 0.133 0.081 0.209c0.007 0.076-0.008 0.152-0.042 0.221l-9.053 18.067-0.164 0.253c-0.035 0.057-0.085 0.105-0.144 0.137s-0.125 0.050-0.192 0.049c-0.236 0-0.467-0.203-0.407-0.492l1.46-7.068c0.014-0.069 0.010-0.141-0.011-0.208s-0.061-0.128-0.113-0.175-0.116-0.081-0.185-0.097c-0.069-0.016-0.141-0.013-0.208 0.007l-1.911 0.58c-0.068 0.021-0.139 0.023-0.208 0.008s-0.133-0.049-0.185-0.096c-0.052-0.048-0.091-0.108-0.113-0.175s-0.026-0.139-0.012-0.208l0.92-4.5c0.014-0.067 0.011-0.137-0.009-0.202s-0.056-0.125-0.106-0.173c-0.049-0.048-0.11-0.082-0.176-0.101s-0.136-0.020-0.203-0.004l-3.093 0.715c-0.062 0.014-0.126 0.014-0.187-0.001s-0.119-0.044-0.167-0.085c-0.048-0.041-0.087-0.093-0.112-0.151s-0.036-0.121-0.032-0.185h0.001zM31.016 3.536l-7.971 1.451-0.725 2.516 2.769-0.533c0.215-0.043 0.437-0.019 0.637 0.069s0.369 0.236 0.483 0.423c0.097 0.155 0.151 0.333 0.159 0.516s-0.031 0.365-0.114 0.528l-9.072 18.101-0.020 0.031-0.163 0.253c-0.096 0.151-0.229 0.275-0.385 0.361s-0.332 0.132-0.511 0.132c-0.162-0.001-0.322-0.037-0.468-0.107s-0.275-0.171-0.378-0.296c-0.1-0.124-0.171-0.268-0.208-0.423s-0.039-0.315-0.006-0.471l1.372-6.641-1.493 0.453c-0.204 0.061-0.422 0.061-0.626-0.001s-0.385-0.183-0.52-0.348c-0.101-0.123-0.173-0.267-0.211-0.422s-0.041-0.316-0.009-0.472l0.84-4.107-2.703 0.624c-0.183 0.042-0.374 0.035-0.553-0.019s-0.342-0.155-0.471-0.291c-0.1-0.107-0.177-0.233-0.227-0.37s-0.071-0.284-0.063-0.43l0.519-8.76-9.92-1.773c-0.153-0.028-0.31-0.011-0.454 0.048s-0.268 0.158-0.357 0.284c-0.090 0.127-0.141 0.277-0.149 0.432s0.030 0.309 0.107 0.444l15.313 26.849c0.072 0.126 0.175 0.23 0.3 0.302s0.267 0.11 0.412 0.11c0.145-0.001 0.286-0.040 0.411-0.113s0.227-0.179 0.298-0.305l15.013-26.847c0.075-0.135 0.111-0.289 0.102-0.443s-0.061-0.303-0.151-0.429c-0.090-0.126-0.214-0.223-0.357-0.281s-0.3-0.074-0.452-0.047z"></path>
</symbol>
<symbol id="scss" viewBox="0 0 32 32">
<path fill="#5f3f87" style="fill: var(--color1, #5f3f87)" d="M28 9v13h-2v-13h-4c-0.796 0-1.559-0.316-2.121-0.879s-0.879-1.326-0.879-2.121v-4h-11c-0.53 0-1.039 0.211-1.414 0.586s-0.586 0.884-0.586 1.414v18h-2v-18c0-1.061 0.421-2.078 1.172-2.828s1.768-1.172 2.828-1.172h11l9 9zM2.712 30.58c-0.132-0.282-0.207-0.587-0.222-0.898h1.53c0.028 0.156 0.088 0.305 0.175 0.437s0.202 0.245 0.335 0.331c0.14 0.097 0.306 0.173 0.498 0.228 0.191 0.055 0.403 0.082 0.638 0.082 0.328 0 0.603-0.047 0.826-0.14 0.204-0.076 0.381-0.21 0.51-0.386 0.115-0.171 0.175-0.374 0.17-0.58 0.005-0.125-0.020-0.25-0.073-0.363s-0.133-0.213-0.233-0.289c-0.201-0.16-0.509-0.289-0.924-0.386l-1.238-0.286c-0.381-0.080-0.746-0.225-1.078-0.428-0.293-0.18-0.535-0.433-0.702-0.734-0.168-0.324-0.252-0.684-0.246-1.048 0-0.488 0.127-0.914 0.38-1.278 0.253-0.363 0.605-0.644 1.056-0.844 0.448-0.2 0.965-0.299 1.552-0.298 0.609 0 1.129 0.101 1.56 0.304 0.432 0.204 0.765 0.477 1 0.82 0.24 0.34 0.373 0.717 0.4 1.132h-1.5c-0.034-0.19-0.117-0.368-0.24-0.516-0.131-0.161-0.301-0.286-0.494-0.362-0.234-0.097-0.485-0.143-0.738-0.136-0.433 0-0.775 0.101-1.026 0.304-0.117 0.090-0.212 0.206-0.276 0.34s-0.096 0.28-0.092 0.428c0 0.24 0.095 0.44 0.286 0.6 0.241 0.175 0.517 0.295 0.81 0.35l1.24 0.286c0.435 0.1 0.812 0.241 1.132 0.422s0.57 0.42 0.75 0.716c0.18 0.296 0.27 0.669 0.27 1.12 0 0.493-0.125 0.931-0.376 1.312-0.265 0.393-0.64 0.698-1.078 0.878-0.468 0.211-1.040 0.316-1.716 0.316-0.508 0-0.951-0.060-1.33-0.18-0.348-0.104-0.673-0.275-0.956-0.504-0.246-0.205-0.443-0.461-0.58-0.75zM11.26 26.12c-0.148 0.405-0.218 0.835-0.206 1.266v0.99c0 0.492 0.069 0.91 0.206 1.254 0.115 0.316 0.323 0.589 0.596 0.784 0.285 0.181 0.618 0.273 0.956 0.264 0.277 0.004 0.552-0.056 0.802-0.176 0.223-0.114 0.412-0.286 0.546-0.498 0.135-0.22 0.216-0.469 0.234-0.726h1.53v0.152c-0.019 0.483-0.176 0.951-0.452 1.348-0.282 0.393-0.661 0.705-1.1 0.908-0.493 0.226-1.030 0.338-1.572 0.328-0.72 0-1.329-0.145-1.828-0.434-0.501-0.289-0.9-0.727-1.142-1.252-0.26-0.544-0.389-1.195-0.388-1.952v-0.996c0-0.759 0.131-1.411 0.394-1.958 0.244-0.527 0.641-0.969 1.14-1.266 0.507-0.296 1.115-0.444 1.824-0.444 0.437 0 0.842 0.065 1.214 0.194 0.373 0.124 0.699 0.305 0.978 0.544 0.281 0.238 0.51 0.533 0.67 0.865s0.25 0.694 0.262 1.063v0.146h-1.53c-0.019-0.269-0.101-0.529-0.24-0.76-0.131-0.221-0.32-0.401-0.546-0.522-0.244-0.133-0.518-0.2-0.796-0.194-0.338-0.011-0.67 0.086-0.95 0.276-0.274 0.201-0.483 0.478-0.602 0.796zM16.478 29.682c0.011 0.315 0.089 0.624 0.227 0.908s0.334 0.535 0.575 0.738c0.257 0.216 0.576 0.384 0.956 0.504 0.379 0.121 0.822 0.182 1.33 0.182 0.676 0 1.248-0.105 1.716-0.316 0.472-0.211 0.832-0.504 1.080-0.88 0.252-0.39 0.382-0.847 0.374-1.312 0-0.448-0.090-0.821-0.27-1.12-0.183-0.3-0.442-0.546-0.75-0.714-0.354-0.196-0.736-0.338-1.132-0.42l-1.24-0.288c-0.293-0.055-0.57-0.176-0.81-0.352-0.091-0.071-0.164-0.161-0.214-0.265s-0.074-0.218-0.072-0.333c0-0.312 0.123-0.568 0.368-0.768 0.251-0.203 0.593-0.304 1.026-0.304 0.284 0 0.53 0.045 0.738 0.136 0.192 0.076 0.362 0.201 0.492 0.362 0.123 0.148 0.206 0.326 0.24 0.516h1.5c-0.026-0.407-0.164-0.799-0.4-1.132-0.252-0.36-0.598-0.643-1-0.82-0.491-0.216-1.024-0.32-1.56-0.304-0.584 0-1.101 0.1-1.552 0.3-0.448 0.199-0.799 0.479-1.054 0.842-0.253 0.364-0.38 0.79-0.38 1.278 0 0.403 0.082 0.752 0.246 1.048s0.398 0.541 0.702 0.734c0.304 0.191 0.664 0.333 1.080 0.426l1.234 0.288c0.415 0.097 0.723 0.226 0.926 0.386 0.1 0.076 0.179 0.175 0.233 0.289s0.078 0.238 0.073 0.363c0.005 0.206-0.055 0.409-0.17 0.58-0.129 0.176-0.306 0.31-0.51 0.386-0.264 0.099-0.544 0.147-0.826 0.14-0.236 0-0.449-0.027-0.64-0.080-0.178-0.047-0.346-0.125-0.498-0.23-0.133-0.086-0.247-0.199-0.335-0.331s-0.147-0.281-0.175-0.437h-1.528zM23.482 30.58c-0.131-0.282-0.206-0.587-0.22-0.898h1.528c0.028 0.156 0.088 0.305 0.175 0.437s0.202 0.245 0.335 0.331c0.14 0.097 0.306 0.173 0.498 0.228 0.191 0.055 0.403 0.082 0.638 0.082 0.328 0 0.603-0.047 0.826-0.14 0.204-0.076 0.381-0.21 0.51-0.386 0.115-0.171 0.174-0.374 0.17-0.58 0.005-0.125-0.019-0.25-0.072-0.363s-0.132-0.213-0.232-0.289c-0.204-0.16-0.513-0.289-0.926-0.386l-1.236-0.286c-0.382-0.080-0.747-0.224-1.080-0.428-0.293-0.18-0.535-0.433-0.702-0.734-0.168-0.324-0.252-0.684-0.246-1.048 0-0.488 0.127-0.914 0.38-1.278 0.253-0.363 0.605-0.644 1.056-0.844 0.448-0.2 0.965-0.299 1.552-0.298 0.611 0 1.131 0.101 1.56 0.304 0.432 0.204 0.765 0.477 1 0.82 0.24 0.34 0.373 0.717 0.4 1.132h-1.5c-0.034-0.19-0.117-0.368-0.24-0.516-0.131-0.161-0.301-0.286-0.494-0.362-0.234-0.097-0.485-0.143-0.738-0.136-0.433 0-0.775 0.101-1.024 0.304-0.118 0.090-0.213 0.206-0.277 0.34s-0.096 0.28-0.093 0.428c0 0.24 0.095 0.44 0.286 0.6 0.241 0.175 0.517 0.295 0.81 0.35l1.24 0.286c0.435 0.1 0.812 0.241 1.132 0.422s0.57 0.42 0.75 0.716c0.18 0.296 0.27 0.669 0.27 1.12 0 0.493-0.125 0.931-0.374 1.312-0.265 0.393-0.641 0.698-1.080 0.878-0.468 0.211-1.040 0.316-1.716 0.316-0.508 0-0.951-0.060-1.33-0.18-0.348-0.104-0.673-0.275-0.956-0.504-0.246-0.205-0.444-0.461-0.58-0.75z"></path>
</symbol>
<symbol id="js" viewBox="0 0 32 32">
<path fill="#5f3f87" style="fill: var(--color1, #5f3f87)" d="M32 4.571c0-2.521-2.050-4.571-4.571-4.571h-22.857c-2.521 0-4.571 2.050-4.571 4.571v22.857c0 2.521 2.050 4.571 4.571 4.571h22.857c2.521 0 4.571-2.050 4.571-4.571v-22.857zM12.921 29.493c-2.407 0-3.8-1.243-4.514-2.75l2.45-1.479c0.471 0.836 0.9 1.543 1.936 1.543 0.986 0 1.614-0.386 1.614-1.893v-10.221h3.007v10.264c0 3.114-1.829 4.536-4.493 4.536zM19.050 26.421l2.45-1.414c0.643 1.050 1.486 1.829 2.964 1.829 1.243 0 2.043-0.621 2.043-1.486 0-1.029-0.814-1.393-2.193-2l-0.75-0.321c-2.171-0.921-3.607-2.086-3.607-4.536 0-2.257 1.721-3.971 4.4-3.971 1.914 0 3.286 0.664 4.271 2.407l-2.343 1.5c-0.514-0.921-1.071-1.286-1.936-1.286-0.878 0-1.436 0.557-1.436 1.286 0 0.9 0.557 1.264 1.85 1.829l0.75 0.321c2.557 1.093 3.993 2.214 3.993 4.729 0 2.7-2.129 4.186-4.979 4.186-2.793 0-4.6-1.329-5.479-3.071z"></path>
</symbol>
<symbol id="html" viewBox="0 0 32 32">
<path fill="#5f3f87" style="fill: var(--color1, #5f3f87)" d="M2 0h28l-2.547 28.751-11.484 3.249-11.419-3.251-2.551-28.749zM11.375 13l-0.309-3.624 13.412 0.004 0.307-3.496-17.568-0.004 0.931 10.68h12.168l-0.435 4.568-3.88 1.072-3.94-1.080-0.251-2.813h-3.479l0.44 5.561 7.229 1.933 7.172-1.924 0.992-10.876-12.789-0.001z"></path>
</symbol>
<symbol id="handlebars" viewBox="0 0 32 32">
<path fill="#5f3f87" style="fill: var(--color1, #5f3f87)" d="M12.361 12.058c-0.253-0.018-0.507-0.016-0.759 0.007-3.173 0.251-4.433 1.893-5.206 2.584s-2.205 2.348-3.168 2.049c-0.963-0.299-1.232-1.459-0.891-1.828s0.607-0.302 0.814 0c0.134 0.244 0.202 0.518 0.197 0.796 0.282-0.231 0.488-0.542 0.592-0.891 0.117-0.512 0.092-1.009-0.592-1.357-1.734-0.876-2.853 0.686-3.027 1.052s-0.446 0.942-0.256 2.264c0.19 1.322 0.817 2.536 2.817 3.004 1.898 0.438 3.889 0.206 5.634-0.658 1.752-0.835 5.046-2.305 5.875-2.453 0.527-0.129 1.068-0.197 1.611-0.204 0.543 0.007 1.083 0.076 1.611 0.204 0.83 0.149 4.123 1.619 5.875 2.453 1.745 0.863 3.735 1.096 5.632 0.658 2-0.468 2.627-1.683 2.817-3.004s-0.082-1.895-0.256-2.264c-0.174-0.369-1.294-1.931-3.025-1.052-0.684 0.348-0.709 0.845-0.592 1.357 0.104 0.35 0.31 0.66 0.592 0.891-0.007-0.283 0.062-0.564 0.2-0.812 0.207-0.302 0.474-0.366 0.814 0s0.072 1.541-0.891 1.841c-0.963 0.3-2.395-1.357-3.168-2.049s-2.036-2.325-5.209-2.582c-0.873-0.079-1.751 0.092-2.53 0.493s-1.428 1.017-1.87 1.774c-0.377-0.646-0.905-1.191-1.539-1.587s-1.355-0.632-2.101-0.688z"></path>
</symbol>
<symbol id="gsap" viewBox="0 0 32 32">
<path fill="#5f3f87" style="fill: var(--color1, #5f3f87)" d="M4.402 14.089c-0.909 0.429-3.315 2.357-3.779 2.929-0.481 0.571-0.624-0.321-0.125-1.804 0.392-1.197 1.39-2.822 3.066-4.215 0.98-0.804 3.137-1.964 4.456-2.643 0.267-0.143 3.725-1.607 6.809-2.34 0.267-0.071-0.321 0.446-0.41 0.732-0.463 1.357-9.714 7.179-9.714 7.179l-0.303 0.161zM17.432 30.465c0.16 0.964 0.018 1.036-0.98 1.161s-1.729-0.25-1.996-0.5c-0.267-0.25-0.321-0.804-0.053-1.304 0.16-0.322 0.321-0.429 0.41-0.822 0.089-0.375 0.16-0.464 0.232-0.607 0.071-0.125 0.089-0.25 0.107-1.125s0-2.518 0.089-3.215c0.089-0.714 3.173 0.321 3.173 0.321s-0.731 1.822-0.927 2.268c-0.196 0.447-0.178 1.304-0.178 1.482s-0.071 0.536-0.125 0.554c-0.053 0.018 0.178 0.482 0.071 0.75-0.071 0.25 0.16 0.893 0.178 1.036zM18.608 3.159c-0.107-0.679 0-2.018 0.143-2.232 0.446-0.607 2.798-0.679 3.297 0.036 0.214 0.321 0.196 1.071 0.16 1.554s-0.16 1.518-0.178 1.857c-0.018 0.25-2.602 0.643-3.173-0.036-0.161-0.178-0.25-1.179-0.25-1.179zM23.848 28.733c1.087 0.786 1.925 0.929 2.477 1.214s0.41 0.839-0.517 1c-0.749 0.143-1.925-0.143-2.709-0.143s-2.531 0.089-2.994-0.232c-0.535-0.375-0.303-1.072-0.303-1.072 0.143-0.393 0.499-1.268 0.392-1.982s-0.25-1.107-0.517-1.768c-0.267-0.661-0.463-2.286-0.214-2.375s0.178 0 0.499 0.071c0.321 0.071 0.677 0.179 1.372 0.179s1.462-0.107 1.729-0.161c0.267-0.054 0.481-0.107 0.392 0.446s-0.356 1.589-0.374 2.393c-0.018 0.804-0.018 1.732 0.036 1.893s0.446 0.339 0.731 0.536z"></path>
<path fill="#5f3f87" style="fill: var(--color1, #5f3f87)" d="M20.034 4.945c-1.961 1.697-5.757 2.161-11.389 4.34-1.444 0.554-5.294 2.214-6.221 3.947 3.119-1.804 4.278 0.679 4.527 3.232 0.232 2.393 1.426 3.643 4.492 3.572 3.155-0.071 4.117 1.768 4.991 3.929 1.693-8.269 4.402-9.876 6.149-11.287 3.707-3.018-0.855-8.34-2.549-7.733z"></path>
<path fill="#5f3f87" style="fill: var(--color1, #5f3f87)" d="M20.034 4.945c-4.705 1.643-9.357 2.054-14.829 5.429-1.301 0.804-4.046 2.625-4.581 6.108 1.996-2.215 6.613-5 12.263-6.768 2.852-0.893 4.937-1.482 7.468-2.465-0.178-1.143-0.178-1.59-0.321-2.304z"></path>
<path fill="#5f3f87" style="fill: var(--color1, #5f3f87)" d="M26.040 14.732c0 0-0.339 1.161-1.016 1.536 0 0-0.499 0.179-1.497-0.375-0.285-0.161-0.499-0.714-0.481-0.893 0.018-0.429 0.285-0.625 0.285-0.625s0.285-0.482 0.624-0.464c0.339 0.018 0.909 0.071 1.087-0.089 0.16-0.179 1.034 0.321 0.998 0.911zM18.768 3.499c0 0-0.071 0.911-0.196 1.482-0.018 0.107-0.553 0.161-0.945 0.322 0.749 2.143 5.258 2.125 5.846 1.071-0.285-0.196-0.856-0.5-1.123-0.607s-0.25-0.089-0.267-0.589c-0.018-0.5-0.053-1.429-0.089-1.679s-2.798-0.25-3.226 0z"></path>
<path fill="#5f3f87" style="fill: var(--color1, #5f3f87)" d="M18.947 3.499c0 0 0 0.518-0.053 1.018-0.018 0.232-0.036 0.375-0.071 0.554-0.018 0.107 0.606 0.536 0.784 1.482 0.856 1.911 2.834 0.964 3.654 0.054-0.285-0.196-0.749-0.464-1.283-0.679-0.267-0.107-0.143-0.339-0.16-0.839s-0.089-1.232-0.125-1.5c-0.036-0.268-2.317-0.339-2.745-0.089z"></path>
<path fill="#5f3f87" style="fill: var(--color1, #5f3f87)" d="M18.769 3.499c0 0-0.018 0.321-0.071 0.696 0.232 0.232 0.535 0.554 0.767 0.75 0.16 0.143 0.552 0.125 0.909 0.125 0.321 0 0.606 0.036 0.731-0.036 0.285-0.143 0.695-0.5 0.927-0.768-0.018-0.321-0.036-0.625-0.053-0.768-0.018-0.25-2.781-0.25-3.208 0z"></path>
<path fill="#5f3f87" style="fill: var(--color1, #5f3f87)" d="M20.39 4.856c-0.214 0-0.463-0.018-0.659-0.054-0.089-0.018-0.178-0.071-0.25-0.107-0.125-0.089-0.25-0.196-0.392-0.304-0.285-0.214-0.303-0.339-0.303-0.393 0.125-1.125-0.036-2.072-0.036-2.072s-0.125-0.482 0.553-0.607c0.677-0.125 1.087-0.143 1.087-0.143s0.428 0 1.087 0.143c0.677 0.125 0.553 0.607 0.553 0.607s-0.16 0.946-0.036 2.072c0 0.053-0.018 0.178-0.303 0.393-0.25 0.179-0.446 0.375-0.642 0.411s-0.446 0.054-0.659 0.054z"></path>
<path fill="#5f3f87" style="fill: var(--color1, #5f3f87)" d="M20.39 0.713c-1.176 0-1.408 0.321-1.747 0.679-0.071 0.089-0.018 0.625 0.107 1.768h0.16c0 0-0.107-0.321-0.089-0.696s0.089-0.357 0.036-0.446c-0.071-0.107-0.214-0.286 0.107-0.464s0.82 0.143 1.426 0.161c0.606-0.018 1.123-0.339 1.444-0.161s0.178 0.357 0.107 0.464c-0.071 0.107 0.018 0.071 0.036 0.446s-0.089 0.696-0.089 0.696h0.16c0.107-1.143 0.178-1.643 0.125-1.732-0.303-0.393-0.606-0.697-1.782-0.714zM26.041 14.786c0 0-0.339 1.089-0.998 1.464-0.143-0.071-0.125-0.178-0.25-0.339-0.036-0.053-0.161-0.089-0.214-0.143s-0.036-0.143-0.125-0.214c-0.071-0.071-0.125-0.018-0.196-0.071-0.071-0.071-0.089-0.161-0.143-0.214-0.036-0.036-0.178-0.054-0.214-0.089-0.089-0.089-0.873-0.25-0.838-0.429 0.071-0.268 0.214-0.464 0.214-0.464s0.339-0.5 0.677-0.482c0.339 0.018 0.66 0.089 0.838-0.071 0.196-0.179 1.301 0.482 1.248 1.054z"></path>
<path fill="#5f3f87" style="fill: var(--color1, #5f3f87)" d="M23.723 6.892c0 0 1.123-0.268 1.889 0.464 0.767 0.75 0.713 1.679 0.481 2.25 0.196 0.232 0.552 0.875 0.285 1.643 1.176 1 0.659 2.536-0.392 3.554 0 0-0.25-0.929-1.248-0.982 0.036-0.357-0.927-0.643-0.481-1.572-0.677-0.161-0.659-0.625-0.766-1.196-0.089-0.572 0.232-4.161 0.232-4.161z"></path>
<path fill="#5f3f87" style="fill: var(--color1, #5f3f87)" d="M23.314 7.392c0 0 1.301-0.661 2.068 0.089s0.552 1.572 0.321 2.143c0.196 0.232 0.659 0.893 0.374 1.679-0.053 0.179-0.446 0.179-0.731 0.643 0.713-0.411 1.159-0.304 1.319 0.214 0.25 0.804-0.303 1.768-0.784 2.304 0-0.018-0.018-0.036-0.018-0.053-0.071 0.268-0.16 0.786-0.695 1.357-0.267 0.286-0.481 0.25-0.784 0.179-0.356-0.089-0.481-0.25-0.98-0.518-0.285-0.161-0.125-0.357-0.125-0.518 0-0.036 0.036-0.089 0.089-0.161 0.036-0.089 0.143-0.232 0.303-0.393 0 0 0.232-0.321 0.57-0.304s0.695-0.053 0.784-0.143c0-0.625-0.713-0.643-0.463-1.714 0.018-0.054 0.107-0.143 0.392-0.179-0.428-0.089-0.624-0.107-0.927-0.393-0.214-0.196-0.374-0.447-0.428-0.768-0.107-0.554-0.285-3.465-0.285-3.465z"></path>
<path fill="#5f3f87" style="fill: var(--color1, #5f3f87)" d="M19.553 6.267c-0.107-0.143-0.659-0.857-1.711-1.143-0.303-0.089-0.499 0.161-0.802 0.339-0.089-0.054-0.481-0.232-0.695-0.107s-0.356 0.25-0.57 0.339c-0.107-0.054-0.392-0.054-0.624 0.036-0.232 0.071-0.588 0.232-0.927 0.697-0.214 0.768 3.779 0.196 3.779 0.196l1.551-0.357z"></path>
<path fill="#5f3f87" style="fill: var(--color1, #5f3f87)" d="M19.588 6.267c-0.57-0.197-0.481-0.857-1.747-0.964-0.25-0.018-0.41 0.178-0.588 0.304 0.089 0.089 0.178 0.232 0.232 0.375-0.16-0.178-0.446-0.411-0.731-0.464-0.267-0.053-0.446 0.143-0.731 0.286 0.053 0.053 0.107 0.143 0.178 0.25-0.25-0.161-0.428-0.214-0.766-0.089-0.232 0.071-0.677 0.268-1.016 0.75-0.214 0.768 3.6-0.089 3.6-0.089l1.569-0.357z"></path>
<path fill="#5f3f87" style="fill: var(--color1, #5f3f87)" d="M22.939 6.553c0 0 0-0.197-0.018-0.375 0-0.036-0.143-0.125-0.143-0.161l-0.036-0.036c0 0 0.285-0.161 0.499-0.071 0.232 0.071 0.356 0.375 0.356 0.375 0.41-0.143 0.446 0.018 0.642 0.232 0.428-0.089 0.481 0.071 0.749 0.464 0 0-0.321-0.054-0.945 0.053-0.606 0.089-1.105-0.5-1.105-0.482z"></path>
<path fill="#5f3f87" style="fill: var(--color1, #5f3f87)" d="M22.868 6.463c0 0 0.107-0.089 0.071-0.107 0.196-0.107 0.463-0.232 0.588 0.107 0.41-0.143 0.463 0.054 0.659 0.268 0.499-0.232 0.535 0.053 0.57 0.178-0.16 0-0.392 0.018-0.713 0.054-0.606 0.089-1.194-0.518-1.176-0.5z"></path>
<path fill="#5f3f87" style="fill: var(--color1, #5f3f87)" d="M16.808 6.017c0 0 1.016 0.357 1.871 0.304 0.856-0.071 2.317-0.143 3.101 0.322 0 0 0.802-0.286 1.551-0.089s2.121 1.482 1.711 2.84c-0.036 0.089-0.267 0.232-0.535 0.322 0 0 0.143 0.607-0.107 1.107-0.25 0.482-0.802 1.411-0.82 2.697-0.018 0.214-0.053 0.661-0.089 0.875-1.39-0.053-3.529-0.571-5.632-0.536 0.018-0.232 0.036-0.375 0.053-0.607h0.053c-0.107-0.589-0.143-0.893-0.25-1.339-0.677-0.429-1.39-0.929-1.996-1.875-0.588-0.947 1.087-4.018 1.087-4.018zM23.688 15.661c0 0 1.105 3.965-0.196 5.626 0 0 0.196 0.768-0.25 1.589-0.071 0.357-0.161 0.679-0.214 1.036-0.232 1.482-0.624 2.107-0.731 4.483l-1.070-0.018c0 0-0.125-1.715-0.499-2.625-0.214-0.518-1.052-1.214-1.016-1.911 0.036-0.536 0.143-0.982 1.052-1.697 0.071-1.036-0.962-2.018-0.802-5.876l3.725-0.607z"></path>
<path fill="#5f3f87" style="fill: var(--color1, #5f3f87)" d="M23.367 15.5c0.285 1.822 0.945 4.518-0.25 5.84 0.070 0.335 0.076 0.681 0.018 1.018-0.036 0.214-0.107 0.447-0.196 0.696-0.178 0.429-0.25 1.054-0.303 1.429-0.232 1.482-0.232 1.554-0.339 3.929l-1.069-0.018c0 0-0.125-1.715-0.499-2.625-0.214-0.518-0.659-0.964-0.695-1.661-0.036-0.536 0.339-1.607 1.23-1.572-0.053-2.161-1.052-1.732-1.319-6.233l3.422-0.804zM16.808 6.017c0 0 0.392 0.125 0.82 0.161s0.891 0 1.301-0.018c0.856-0.071 2.068-0.161 2.87 0.304 0 0 0.446-0.143 0.927-0.107 0.214 0.018 0.428 0.197 0.677 0.268 0.784 0.196 1.533 1.5 1.194 2.679-0.036 0.089-0.285 0-0.57 0.089 0.053 0.25 0.089 0.822-0.196 1.429-0.303 0.607-0.695 1.393-0.624 2.893-1.871-0.089-2.709-0.214-4.563-0.304-0.16-0.661-0.267-1.322-0.285-1.661 0.25-0.125 0.392-0.232 0.588-0.446-0.535 0.089-0.749 0.053-1.070-0.125s-0.891-0.75-1.176-1.125c-0.036-0.036-0.232 0.553-0.677 0.571-0.16-0.232 0.517-0.893 0.392-1.143-0.445-0.911 0.392-3.465 0.392-3.465z"></path>
<path fill="#5f3f87" style="fill: var(--color1, #5f3f87)" d="M23.509 14.018c0 0 0.036 0.643 0.036 0.804 0 0.179 0.143 0.714 0.16 0.964-0.196 0.339-1.052 1.107-2.602 1.393-1.533 0.321-3.565-2.089-3.565-2.089 0.053-0.232 0.232-0.911 0.357-1.268 0.018-0.036 0.053-0.125 0.053-0.161 0.161-0.232 5.561 0.357 5.561 0.357z"></path>
<path fill="#5f3f87" style="fill: var(--color1, #5f3f87)" d="M23.117 14.071c0 0.446 0.071 0.768 0.125 1.054 0.089 0.518 0.232 0.857 0.232 1.197 0 1.036-1.355 0.857-2.495 0.893-1.533 0.322-2.834-2.089-2.834-2.089 0.107-0.411 0.178-0.875 0.339-1.268 0.018-0.214 0.053-0.482 0.071-0.607 2.175 0 3.707 0.125 4.599 0.214 0.036 0.197 0 0.536-0.036 0.607z"></path>
<path fill="#5f3f87" style="fill: var(--color1, #5f3f87)" d="M21.406 16.375c0 0-0.945-2.107-3.779-1.482-0.677 1.911-1.586 4.108-0.998 6.483-0.588 0.804-1.265 1.25-1.265 2.732s0.071 1.732 0.071 1.732l2.085 0.107c0 0 0.677-0.875 0.945-1.822 0.071-0.268 0.143-0.75 0.089-1.304 0.071-0.107 0.374-0.357 0.41-0.839 0 0 1.016-0.536 1.604-1.839 0.553-1.179 0.41-2.197 0.838-3.768z"></path>
<path fill="#5f3f87" style="fill: var(--color1, #5f3f87)" d="M21.406 16.375c-0.053-0.196-0.766-2.125-3.404-1.554-1.551 4.143-0.98 5.858-0.749 6.608-1.052 1.339-1.533 1.625-1.319 4.34h1.39c0.642-1.018 0.784-1.393 0.82-2.732 0-0.054-0.196 0.107-0.339 0.286 0.107-0.554 0.41-0.661 0.642-1 0.107-0.143 0.196-0.357 0.196-0.643 1.248-0.839 1.711-1.893 1.979-2.982 0.214-0.75 0.463-1.982 0.784-2.322z"></path>
<path fill="#5f3f87" style="fill: var(--color1, #5f3f87)" d="M17.004 13.5c0 0 0.481 0.018 0.909 0.161 0.41 0.143 0.41 0.232 0.57 0.411s0.553 0.447 0.481 0.714c-0.036 0.143-0.125 0.179-0.25 0.304-0.053 0.054-0.446 0.482-0.535 0.536-0.053 0.036-0.125 0.089-0.178 0.125l-0.267 0.179c-0.178 0.089-0.303 0.143-0.499 0.125 0 0-0.446-0.018-0.731-0.321 0 0-0.036-0.143 0.036-0.214 0 0-0.374-0.322-0.481-0.536s-0.107-0.518-0.036-0.679c0.036-0.161 0.731-0.607 0.98-0.804zM17.45 30.876l-0.053 0.447c0 0-0.16 0.196-1.355 0.179-1.212-0.018-1.533-0.393-1.64-0.589l-0.071-0.464c0 0 0.232-0.339 0.285-0.339 0.392 0.036 1.729 0.571 2.656 0.714 0.089 0 0.107 0.036 0.178 0.054zM20.034 29.965c0 0.196-0.018 0.196-0.018 0.393 0.214 0.161 0.749 0.25 1.765 0.232 1.479-0.036 2.852 0.447 4.527 0.161l0.018-0.321-0.16-0.018-5.935-0.482-0.196 0.036z"></path>
<path fill="#5f3f87" style="fill: var(--color1, #5f3f87)" d="M21.335 30.59h0.446c0.963-0.036 1.872 0.179 2.852 0.232 0.517-0.018 1.159-0.143 1.105-0.518l-5.062-0.429c-0.303 0.339-0.071 0.625 0.659 0.714zM15.524 23.072c0.16 0.107 1.248 0.75 3.012 0.661-0.036 0.339-0.018 1-0.802 2.161-0.392 0.571-0.731 1.572-0.802 2.84 0.018 0.286 0.178 0.536-0.036 0.911 0.071 0.232 0.356 0.696 0.499 0.982s0.214 0.607-0.731 0.625c-0.962 0.018-2.513-0.089-2.299-0.839 0.107-0.393 0.41-0.804 0.446-0.964s0.036-0.643 0.339-0.964c0.267-0.893 0.178-1.75 0.125-2.554-0.089-0.839-0.107-2.179 0.249-2.857zM17.182 8.517c1.265-1.697 0.196-3.054-1.836-2.643-0.82 0.161-1.64 0.732-1.693 1.768-0.267 0.036-0.873 0.071-1.176 1.179-0.232 0.857-0.356 1.018-0.767 1.446-0.267 0.304 0.018 0.929 0.214 1.375 0.66 1.536 2.691 1.679 4.064 2.84 0.463-0.125 0.945-0.643 1.087-0.982-1.159-1.375-0.909-1.911-1.372-2.625 0.499-0.179 1.64-0.875 1.479-2.357z"></path>
<path fill="#5f3f87" style="fill: var(--color1, #5f3f87)" d="M16.933 8.41c0.071-0.107 0.196-0.339 0.25-0.429 0.018-0.018 0.214 0.321 0.232 0.304 0.481-0.786 0.606-1.929 0.053-2.036-0.125-0.018-0.356-0.071-0.552-0.143-0.356-0.125-0.677-0.125-1.248-0.018-0.784 0.143-1.568 0.714-1.568 1.536 0 0.054 0.552 0.214 0.713 0.875-0.267-0.375-0.731-0.786-1.283-0.429-0.588 0.375-0.285 1.232-1.069 2.125-0.267 0.304-0.232 0.661 0.053 1.375 0.463 1.125 2.656 1.732 3.85 2.804 0.285-0.125 0.481-0.411 0.624-0.625-0.802-0.839-1.123-1.625-1.355-2.197-0.285-0.661-0.606-1.036-1.23-1.536 0.321 0.125 0.57 0.25 0.713 0.357 0.16 0.107 0.392 0.125 0.606 0.054 0.767-0.268 1.177-1.339 1.212-2.018z"></path>
<path fill="#5f3f87" style="fill: var(--color1, #5f3f87)" d="M24.686 8.696c-0.053 0.679-0.553 0.339-0.82 0.214-0.535-0.232-1.069-0.393-1.693-0.393s-1.426 0.054-2.121 0.232c-0.962 0.268-1.248 0.25-1.675 0.036-0.428-0.232-1.176-0.804-1.176-0.804s-0.018 0.179 0.16 0.411c0.232 0.286 0.749 0.643 1.444 0.875 0.339 0.107 0.606 0.036 0.909-0.036 1.586-0.393 3.262-0.464 4.67 0.393 0.071 0.036 0.321-0.071 0.428-0.232 0.142-0.232-0.125-0.696-0.125-0.696z"></path>
<path fill="#5f3f87" style="fill: var(--color1, #5f3f87)" d="M16.576 15.5c0.142 0.089 0.321 0.143 0.517 0.304 0 0-0.16 0-0.232-0.071-0.089-0.054-0.267-0.214-0.285-0.232z"></path>
<path fill="#5f3f87" style="fill: var(--color1, #5f3f87)" d="M21.727 1.338c-0.053-0.161-0.446-0.447-1.355-0.447-0.98 0-1.265 0.304-1.283 0.464 0 0.054-0.071 0.625-0.089 0.857 0 0 0 0.286 0.018 0.714 0.018 0.286 0.089 0.446 0.125 0.822 0.036 0.393 0.143 0.643 0.339 0.964 0.089 0.053 0.16 0.107 0.25 0.125 0.357 0.071 0.98 0.089 1.319 0 0.196-0.054 0.445-0.393 0.499-0.697 0.071-0.375 0.143-0.643 0.16-0.875 0.036-0.232 0.053-0.75 0.071-0.893 0.053-0.393-0.036-1-0.053-1.036z"></path>
<path fill="#5f3f87" style="fill: var(--color1, #5f3f87)" d="M19.856 23.411c0 0 0.945 0.411 3.28 0.054 0 0-0.659 3.322-0.356 4.983 0 0 0.303 0.429 2.549 1.25 0 0 0.998 0.25 0.962 0.75 0 0 0.036 0.107-1.176 0.071s-2.353-0.25-3.155-0.25c-0.802 0-1.658 0.036-1.8-0.196-0.16-0.214 0.036-0.768 0.267-1.089 0.25-0.339 0.178-0.589 0.16-1.196-0.054-1.589-1.266-3.232-0.731-4.375z"></path>
<path fill="#5f3f87" style="fill: var(--color1, #5f3f87)" d="M19.659 23.715c-0.125 0.179 0.018 0.857 0.196 1.518s0.57 1.054 0.659 2.143c0.089 1.071 0.107 1.214-0.196 1.839s-0.392 1.197 0.659 1.214c1.052 0.018 1.622-0.018 2.691 0.143s1.444 0.214 2.032 0.125 0.713-0.286 0.463-0.464c-0.25-0.179-1.283-0.375-1.729-0.732-0.428-0.321-1.64-0.857-1.657-1-0.053-0.482-0.071-2.232 0.018-2.804s0.214-1.393 0.25-1.607c0.036-0.214 0.214-0.429-0.089-0.357s-1.444 0.232-2.299 0.179c-0.856-0.053-0.945-0.25-0.998-0.196z"></path>
<path fill="#5f3f87" style="fill: var(--color1, #5f3f87)" opacity="0.3" d="M20.266 29.233c0.303 0.143 0.749 0.25 1.087 0.25 0 0-0.125 0.589 0.071 0.947s-1.426 0.143-1.426 0.143l-0.071-1.268 0.339-0.071zM24.989 30.769c0.285-0.089 0.481-0.411 0.25-0.714-0.25-0.304-0.463-0.357-0.143-0.375s1.497 0.696 1.497 0.696l-0.606 0.554-0.998-0.161zM19.606 24.411c0.41 0.143 1.034 0.179 1.569 0.161s1.337-0.089 1.854-0.268c0.517-0.179 0.303 0.196 0.303 0.196l-0.285 0.268c0 0-0.677 0.268-1.782 0.25-1.301-0.018-1.693-0.161-1.693-0.161l0.036-0.447zM19.642 25.304c0.41 0.143 1.034 0.179 1.569 0.161s1.248-0.018 1.765-0.214c0.214-0.071 0.089 0.232 0.089 0.232l-0.089 0.161c0 0-0.695 0.25-1.782 0.232-1.301-0.018-1.533-0.125-1.533-0.125l-0.018-0.446z"></path>
<path fill="#5f3f87" style="fill: var(--color1, #5f3f87)" d="M18.465 12.786c0 0.125 1.39 0.821 2.157 0.964s2.371 0 2.62-0.054l-0.036 0.25c0 0-1.907 0.286-3.369-0.107s-1.301-0.482-1.301-0.482l-0.071-0.571z"></path>
<path fill="#5f3f87" style="fill: var(--color1, #5f3f87)" d="M15.489 28.019c0.214 0.107 0.98 0.304 1.479 0.196 0.071-0.018 0-1.232 0.196-1.786 0.285-0.768 0.749-1.393 0.962-2.75-0.749-0.071-1.604-0.268-2.050-0.411-0.57 1.75-0.374 3.25-0.588 4.75zM16.683 29.144c0.125 0.036 0.214 0.178 0.25 0.089 0.071-0.161-0.125-0.464-0.143-0.679v-0.018c-0.16-0.143-1.248-0.161-1.176-0.089-0.125 0.232-0.321 0.197-0.392 0.661-0.036 0.232 0.25 0.036 0.517 0.018-0.481 0.321-1.034 0.732-1.123 1.089-0.107 0.5 0.071 0.643 0.606 0.911 0.463 0.107 1.016 0.125 1.444 0.107 0.481-0.089 0.57-0.321 0.428-0.643-0.214-0.482-0.357-1.107-0.41-1.447z"></path>
<path fill="#5f3f87" style="fill: var(--color1, #5f3f87)" d="M16.879 5.946c0.588 0.339 1.408 0.25 1.711 0.232 0.071 0 0.784-0.125 0.82-0.107 0.071 0.018 0.071 0.071 0.071 0.071s-0.267 0.143-0.873 0.178c-0.57 0.036-1.248 0-1.622-0.178-0.446-0.196-0.107-0.196-0.107-0.196zM22.939 6.285c0.107 0.071 0.802 0.339 1.105 0.661 0.267 0.286 0.125 0.268 0.071 0.196-0.071-0.089-0.624-0.464-0.838-0.554s-0.481-0.25-0.481-0.286c0-0.036 0.143-0.018 0.143-0.018z"></path>
<path fill="#5f3f87" style="fill: var(--color1, #5f3f87)" d="M16.79 13.696c0.517-0.036 1.052 0.089 1.39 0.447 0.178 0.179 0.463 0.375 0.428 0.554 0 0.054-0.107 0.196-0.196 0.304-0.053 0.071-0.214 0.232-0.267 0.286-0.071 0.054-0.321 0.25-0.374 0.286s-0.125 0.125-0.178 0.143c-0.178 0.089-0.374 0.018-0.553-0.071s0.036-0.107-0.16-0.25c-0.481-0.339-0.749-0.572-0.552-1.232 0.018-0.125 0.214-0.268 0.463-0.464z"></path>
<path fill="#5f3f87" style="fill: var(--color1, #5f3f87)" opacity="0.4" d="M12.245 9.607c-1.604 0.643-5.686 2.679-6.844 3.304 0.962 0.607 1.408 2.071 1.551 3.554 0.018 0.143 0.036 0.268 0.053 0.411 0.018 0.125 0.036 0.214 0.053 0.268 0 0.018 0 0.053 0.018 0.071 1.052-2.875 4.812-5.911 4.955-6.143 0.071-0.107-0.089-0.571 0.16-1.018 0.321-0.572 0.945-0.822 0.054-0.447zM16.059 23.090c0.82-1.643 0.838-3.215 0.82-5.054 0-0.768 0.552-1.857 0.267-1.554-1.070 1.196-3.761 3.447-5.704 3.572 2.727-0.089 3.796 1.286 4.616 3.036z"></path>
<path fill="#5f3f87" style="fill: var(--color1, #5f3f87)" d="M3.832 14.428c1.016-0.732 6.274-3.536 7.54-3.929 1.265-0.411 0.873-0.893 0.873-0.893s-5.133 2.214-8.199 4.125z"></path>
<path fill="#5f3f87" style="fill: var(--color1, #5f3f87)" opacity="0.4" d="M18.804 9.267c-0.41-0.161-0.731 0.322-0.624 0.786s1.069 0.982 1.016 2.679c-0.036 1.393-0.339 1.964-0.339 1.964l-0.677-0.857c0 0-0.107-1.929-0.339-2.215s-0.962-0.804-1.248-1.071c-0.285-0.268 0.321-0.625 0.285-1.125-0.036-0.482 0.303-1.447 0.303-1.447l1.622 1.286zM21.282 16.875c-0.036 1.339 0.267 3.322 0.392 4.268s0.285 1.018 0 1.447c-0.285 0.411-0.659 1.089-0.659 1.089l-1.23-0.107c0 0 0.98-1.25 1.034-1.482s-0.499-2-0.499-2l0.963-3.215zM18.911 4.374c0.25 0.553 0.552 0.804 1.034 0.964 0.285 0.107 1.408 0.25 1.854-0.25 0.196-0.232 0.071-0.857 0.071-0.857l-1.016 0.821-1.372-0.25-0.16-0.411-0.41-0.018z"></path>
<path fill="#5f3f87" style="fill: var(--color1, #5f3f87)" d="M19.018 5.606c0.463 0.304 1.622 0.589 1.943 0.643 0.321 0.071 0.838-0.339 1.087-0.446 0.267-0.125 0.731-0.197 1.265 0.286 0.053 0.054-0.125 0.286-0.125 0.286-0.018-0.018-0.125-0.018-0.267-0.089s-0.267-0.125-0.481-0.107c-0.891 0.107-1.034 0.411-1.818 0.232s-0.98-0.321-1.747-0.286z"></path>
<path fill="#5f3f87" style="fill: var(--color1, #5f3f87)" d="M18.858 5.66c0.588 0.25 1.729 0.518 2.050 0.589s0.838-0.25 1.087-0.411c0.446-0.286 1.016-0.054 1.283 0.25 0.178 0.196 0.25 0.321 0.25 0.375 0 0.071-0.214 0-0.214 0-0.125-0.054-0.267-0.071-0.374-0.143-0.143-0.071-0.285-0.178-0.499-0.161-0.891 0.107-1.070 0.411-1.836 0.232s-0.962-0.339-1.782-0.286z"></path>
<path fill="#5f3f87" style="fill: var(--color1, #5f3f87)" d="M16.095 22.339c-0.036-0.036 0.036-0.071 0-0.071-0.232 0-0.553-0.179-0.731-0.429-0.766-1.107-1.889-1.839-3.921-1.786-3.048 0.071-4.26-1.179-4.492-3.572-0.125-1.304-0.481-2.572-1.212-3.286l-0.428 0.268c0.82 0.714 1.087 1.875 1.266 3.465 0.285 2.393 2.21 3.5 4.456 3.536 2.335 0.036 3.173 0.518 4.046 1.697 0.285 0.375 0.606 0.5 0.856 0.554l0.161-0.375z"></path>
<path fill="#5f3f87" style="fill: var(--color1, #5f3f87)" opacity="0.4" d="M24.365 10.856c0.053 0.268 0.196 0.786 0.481 1.036 0.125 0.125 0.143 0.161 0.036 0.161s-0.891-0.036-0.891-0.036l-0.214-0.375 0.588-0.786z"></path>
</symbol>
<symbol id="astrojs" viewBox="0 0 32 32">
<path fill="#5f3f87" style="fill: var(--color1, #5f3f87)" d="M11.144 26.883c-1.581-1.427-2.043-4.421-1.384-6.592 1.141 1.368 2.724 1.803 4.363 2.047 2.529 0.377 5.013 0.236 7.363-0.904 0.269-0.131 0.517-0.305 0.811-0.48 0.221 0.631 0.279 1.267 0.201 1.916-0.187 1.58-0.984 2.8-2.251 3.725-0.507 0.369-1.043 0.7-1.567 1.049-1.607 1.072-2.041 2.329-1.437 4.159l0.059 0.197c-0.769-0.33-1.422-0.881-1.876-1.584-0.472-0.719-0.725-1.56-0.725-2.42-0.005-0.427-0.005-0.856-0.064-1.277-0.141-1.025-0.629-1.484-1.548-1.511-0.943-0.027-1.689 0.548-1.887 1.453-0.016 0.071-0.037 0.139-0.060 0.22h0.003v0.001zM3.196 20.956c0 0 4.32-2.1 8.653-2.1l3.268-10.087c0.123-0.488 0.48-0.819 0.883-0.819s0.76 0.331 0.883 0.819l3.267 10.087c5.133 0 8.655 2.1 8.655 2.1l-7.353-19.987c-0.211-0.589-0.567-0.969-1.047-0.969h-8.808c-0.48 0-0.82 0.38-1.045 0.969l-7.355 19.987z"></path>
</symbol>
<symbol id="emailjs" viewBox="0 0 32 32">
<path fill="#5f3f87" style="fill: var(--color1, #5f3f87)" d="M30.497 0h-12.046c-0.83 0-1.503 0.672-1.503 1.5v12.019c0 0.828 0.673 1.5 1.503 1.5h12.046c0.83 0 1.503-0.672 1.503-1.5v-12.019c0-0.828-0.673-1.5-1.503-1.5z"></path>
<path fill="#5f3f87" style="fill: var(--color1, #5f3f87)" d="M13.475 15.921v-11.639c0-0.24-0.047-0.477-0.139-0.698s-0.227-0.422-0.397-0.592c-0.343-0.342-0.808-0.534-1.293-0.534s-0.95 0.192-1.293 0.534l-9.34 9.321c-0.649 0.648-1.013 1.526-1.013 2.442s0.364 1.794 1.013 2.442l13.825 13.793c0.649 0.647 1.529 1.011 2.447 1.011s1.798-0.364 2.447-1.011l9.34-9.319c0.343-0.342 0.535-0.806 0.535-1.29s-0.193-0.948-0.535-1.29l-0.071-0.070c-0.17-0.169-0.371-0.304-0.593-0.396s-0.46-0.139-0.7-0.139h-11.664c-0.338 0-0.672-0.066-0.984-0.195s-0.595-0.318-0.834-0.556c-0.239-0.238-0.428-0.521-0.557-0.832s-0.195-0.645-0.195-0.982z"></path>
</symbol>
</defs>
</svg>
