<svg aria-hidden="true" style="position: absolute; width: 0; height: 0; overflow: hidden;" version="1.1" xmlns="http://www.w3.org/2000/svg" xmlns:xlink="http://www.w3.org/1999/xlink">
<defs>
<symbol id="postgresql" viewBox="0 0 33 32">
<path fill="#5f3f87" style="fill: var(--color1, #5f3f87)" d="M31.857 19.63c-0.018-0.056-0.044-0.109-0.075-0.159-0.185-0.351-0.636-0.456-1.343-0.309-2.204 0.455-3.058 0.175-3.367-0.025 1.789-2.731 3.26-6.029 4.055-9.106 0.362-1.401 1.064-4.698 0.163-6.309-0.058-0.11-0.125-0.215-0.201-0.313-1.719-2.197-4.242-3.375-7.297-3.408-1.993-0.021-3.694 0.461-4.155 0.639-0.228-0.043-0.458-0.079-0.688-0.109-0.577-0.105-1.162-0.161-1.749-0.17-1.576-0.025-2.938 0.352-4.066 1.121-1.143-0.428-6.385-2.193-9.629 0.105-1.812 1.284-2.648 3.578-2.486 6.819 0.055 1.091 0.676 4.445 1.656 7.658 0.613 2.009 1.252 3.602 1.911 4.776 0.737 1.326 1.501 2.124 2.286 2.386 0.597 0.199 1.51 0.192 2.477-0.971 1.068-1.285 2.12-2.434 2.593-2.943 0.58 0.314 1.209 0.483 1.853 0.503 0 0.002 0 0.004 0.001 0.006-0.112 0.134-0.222 0.27-0.33 0.407-0.452 0.574-0.546 0.693-2 0.992-0.414 0.085-1.513 0.312-1.529 1.082-0.003 0.163 0.044 0.308 0.123 0.436 0.303 0.564 1.229 0.813 1.353 0.844 1.779 0.445 3.339 0.123 4.495-0.905-0.023 2.975 0.103 5.89 0.461 6.783 0.295 0.737 1.016 2.539 3.292 2.539 0.334 0 0.702-0.039 1.106-0.125 2.376-0.509 3.408-1.559 3.807-3.875 0.2-1.161 0.535-3.834 0.718-5.468 0.023-0.094 0.048-0.161 0.076-0.182 0.001-0.001 0.093-0.063 0.57 0.041 0.019 0.004 0.039 0.007 0.059 0.009l0.339 0.030 0.020 0.001c1.129 0.051 2.549-0.19 3.375-0.574 0.858-0.398 2.408-1.376 2.127-2.226zM3.606 15.835c-0.991-3.248-1.571-6.513-1.616-7.429-0.145-2.895 0.556-4.911 2.083-5.99 2.449-1.731 6.453-0.721 8.144-0.173-0.004 0.004-0.009 0.008-0.013 0.013-2.698 2.725-2.634 7.381-2.628 7.666-0 0.11 0.009 0.265 0.022 0.479 0.046 0.783 0.133 2.241-0.098 3.891-0.214 1.534 0.258 3.035 1.297 4.119 0.107 0.112 0.22 0.217 0.336 0.317-0.462 0.495-1.467 1.59-2.537 2.877-0.757 0.91-1.28 0.736-1.451 0.678-0.523-0.174-1.084-0.783-1.651-1.763-0.639-1.119-1.285-2.709-1.887-4.683zM11.615 22.618c-0.228-0.057-0.436-0.151-0.576-0.236 0.118-0.053 0.317-0.12 0.644-0.188 1.711-0.352 1.975-0.601 2.552-1.334 0.132-0.168 0.282-0.358 0.49-0.59 0.045-0.050 0.078-0.109 0.098-0.173 0.228-0.202 0.363-0.147 0.582-0.056 0.208 0.086 0.41 0.347 0.493 0.634 0.039 0.135 0.082 0.393-0.060 0.593-1.206 1.688-2.962 1.666-4.223 1.35zM14.407 17.301l-0.070 0.188c-0.177 0.475-0.342 0.918-0.445 1.337-0.89-0.003-1.756-0.383-2.414-1.070-0.837-0.873-1.217-2.089-1.043-3.334 0.244-1.744 0.154-3.262 0.105-4.078-0.007-0.114-0.013-0.214-0.016-0.293 0.394-0.35 2.221-1.328 3.524-1.030 0.595 0.136 0.957 0.541 1.107 1.237 0.779 3.605 0.103 5.108-0.44 6.315-0.112 0.249-0.218 0.484-0.308 0.727zM24.226 23.398c-0.023 0.236-0.048 0.501-0.082 0.794l-0.195 0.584c-0.015 0.046-0.024 0.095-0.024 0.144-0.008 0.633-0.072 0.865-0.153 1.159-0.085 0.306-0.18 0.652-0.239 1.41-0.147 1.886-1.171 2.969-3.223 3.409-2.021 0.433-2.379-0.662-2.695-1.629-0.032-0.101-0.067-0.202-0.102-0.302-0.287-0.781-0.255-1.883-0.21-3.407 0.022-0.748-0.033-2.535-0.44-3.528 0.006-0.391 0.014-0.788 0.025-1.189 0.001-0.051-0.006-0.102-0.020-0.15-0.013-0.094-0.032-0.186-0.058-0.277-0.163-0.571-0.562-1.049-1.040-1.247-0.19-0.079-0.538-0.223-0.957-0.116 0.089-0.368 0.244-0.783 0.412-1.233l0.071-0.189c0.079-0.213 0.179-0.434 0.284-0.668 0.569-1.263 1.347-2.994 0.502-6.903-0.317-1.464-1.374-2.179-2.977-2.013-0.961 0.099-1.84 0.487-2.278 0.709-0.088 0.045-0.175 0.091-0.261 0.139 0.122-1.475 0.585-4.232 2.314-5.976 0.129-0.129 0.263-0.252 0.404-0.368 0.070-0.014 0.136-0.043 0.193-0.086 1.003-0.761 2.259-1.134 3.736-1.11 0.546 0.009 1.069 0.045 1.566 0.108 2.585 0.473 4.325 1.929 5.381 3.177 1.086 1.283 1.674 2.575 1.908 3.272-1.764-0.179-2.965 0.169-3.573 1.039-1.323 1.892 0.724 5.564 1.708 7.329 0.18 0.323 0.336 0.603 0.385 0.722 0.32 0.777 0.735 1.295 1.038 1.674 0.093 0.116 0.183 0.229 0.251 0.327-0.534 0.154-1.494 0.51-1.407 2.289-0.016 0.208-0.056 0.596-0.111 1.086-0.061 0.277-0.094 0.614-0.133 1.022zM25.413 21.236c-0.054-1.109 0.359-1.225 0.796-1.347 0.060-0.017 0.12-0.035 0.18-0.054 0.056 0.050 0.116 0.096 0.179 0.137 0.76 0.502 2.11 0.562 4.009 0.179-0.269 0.236-0.692 0.533-1.271 0.801-0.546 0.254-1.461 0.444-2.33 0.485-0.96 0.045-1.448-0.108-1.563-0.201zM26.172 8.874c-0.008 0.468-0.072 0.892-0.141 1.336-0.073 0.477-0.149 0.97-0.169 1.568-0.019 0.582 0.054 1.188 0.124 1.773 0.142 1.183 0.288 2.4-0.277 3.602-0.094-0.166-0.177-0.338-0.25-0.514-0.070-0.17-0.223-0.443-0.433-0.822-0.821-1.472-2.743-4.919-1.759-6.326 0.506-0.724 1.788-0.755 2.904-0.617zM26.477 18.226c-0.038-0.048-0.076-0.096-0.114-0.143l-0.047-0.059c0.968-1.599 0.779-3.182 0.61-4.585-0.069-0.576-0.134-1.119-0.118-1.63 0.017-0.541 0.089-1.006 0.158-1.455 0.085-0.553 0.172-1.126 0.148-1.801 0.018-0.071 0.025-0.154 0.016-0.254-0.061-0.647-0.8-2.584-2.306-4.337-0.81-0.943-1.986-1.996-3.585-2.719 0.7-0.142 1.644-0.271 2.699-0.248 2.735 0.061 4.899 1.085 6.432 3.043 0.033 0.043 0.062 0.087 0.089 0.134 0.964 1.807-0.368 8.367-3.982 14.054zM14.721 10.071c-0.033 0.239-0.412 0.563-0.828 0.563-0.036 0-0.072-0.002-0.108-0.007-0.25-0.035-0.502-0.192-0.675-0.421-0.061-0.081-0.16-0.237-0.141-0.379 0.007-0.053 0.035-0.131 0.123-0.198 0.158-0.119 0.469-0.163 0.813-0.116 0.422 0.059 0.857 0.258 0.815 0.558zM25.295 9.523c0.015 0.106-0.065 0.268-0.204 0.414-0.091 0.096-0.283 0.261-0.544 0.298-0.033 0.005-0.067 0.007-0.1 0.007-0.391 0-0.722-0.313-0.748-0.496-0.032-0.235 0.352-0.414 0.748-0.469s0.815 0.012 0.847 0.247z"></path>
</symbol>
<symbol id="figma" viewBox="0 0 32 32">
<path fill="#5f3f87" style="fill: var(--color1, #5f3f87)" d="M21.135 11.975h-6.117v-11.975h6.117c3.301 0 5.987 2.685 5.987 5.987s-2.685 5.988-5.987 5.988zM16.979 10.013h4.156c2.22 0 4.025-1.807 4.025-4.025s-1.807-4.025-4.025-4.025h-4.156v8.051zM16.979 11.975h-6.116c-3.301 0-5.987-2.685-5.987-5.987s2.685-5.988 5.987-5.988h6.117v11.975h-0.001zM10.863 1.961c-2.22 0-4.025 1.807-4.025 4.025s1.805 4.027 4.025 4.027h4.156v-8.052h-4.156zM16.979 21.987h-6.116c-3.301 0-5.987-2.685-5.987-5.987s2.685-5.987 5.987-5.987h6.117v11.973h-0.001zM10.863 11.975c-2.22 0-4.025 1.807-4.025 4.025s1.807 4.025 4.025 4.025h4.156v-8.051h-4.156zM10.895 32c-3.319 0-6.020-2.685-6.020-5.987s2.685-5.987 5.987-5.987h6.117v5.921c0 3.337-2.729 6.052-6.084 6.052zM10.863 21.987c-1.067 0.001-2.090 0.426-2.845 1.181s-1.179 1.778-1.181 2.845c0 2.22 1.82 4.025 4.059 4.025 2.273 0 4.124-1.835 4.124-4.091v-3.96h-4.157zM21.135 21.987h-0.131c-3.301 0-5.987-2.685-5.987-5.987s2.685-5.987 5.987-5.987h0.131c3.301 0 5.987 2.685 5.987 5.987s-2.685 5.987-5.987 5.987zM21.006 11.975c-2.22 0-4.025 1.807-4.025 4.025s1.807 4.025 4.025 4.025h0.131c2.22 0 4.025-1.807 4.025-4.025s-1.808-4.025-4.027-4.025h-0.129z"></path>
</symbol>
<symbol id="illustrator" viewBox="0 0 32 32">
<path fill="#5f3f87" style="fill: var(--color1, #5f3f87)" d="M26.333 0.399h-20.665c-0.745-0.001-1.482 0.145-2.17 0.429s-1.313 0.702-1.84 1.228c-0.526 0.526-0.944 1.152-1.228 1.84s-0.43 1.425-0.429 2.17v19.865c-0.001 0.745 0.145 1.482 0.429 2.17s0.702 1.313 1.228 1.84 1.152 0.944 1.84 1.228c0.688 0.285 1.426 0.43 2.17 0.429h20.665c0.745 0.001 1.482-0.145 2.17-0.429s1.313-0.702 1.84-1.228 0.944-1.152 1.228-1.84c0.285-0.688 0.43-1.425 0.429-2.17v-19.865c0.001-0.745-0.145-1.482-0.429-2.17s-0.702-1.313-1.228-1.84-1.152-0.944-1.84-1.228c-0.688-0.284-1.425-0.43-2.17-0.429zM19.56 22.399h-2.787c-0.047 0.004-0.094-0.009-0.132-0.036s-0.067-0.066-0.080-0.111l-1.093-3.185h-4.967l-1 3.132c-0.011 0.057-0.043 0.107-0.089 0.142s-0.104 0.051-0.161 0.046h-2.5c-0.145 0-0.185-0.080-0.145-0.25l4.275-12.35c0.040-0.135 0.080-0.28 0.133-0.44 0.055-0.286 0.081-0.576 0.080-0.868-0.004-0.034 0.005-0.067 0.025-0.095s0.049-0.046 0.082-0.053h3.453c0.107 0 0.16 0.040 0.175 0.107l4.865 13.732c0.040 0.147 0 0.215-0.133 0.215v0.012zM24.16 22.249c0 0.147-0.053 0.212-0.173 0.212h-2.615c-0.028 0.002-0.056-0.002-0.082-0.012s-0.050-0.026-0.069-0.046c-0.019-0.020-0.034-0.045-0.042-0.071s-0.011-0.055-0.007-0.083v-10.277c0-0.133 0.055-0.185 0.175-0.185h2.653c0.12 0 0.173 0.065 0.173 0.185l-0.013 10.277zM23.88 10.199c-0.157 0.16-0.347 0.284-0.556 0.365s-0.433 0.116-0.657 0.103c-0.219 0.005-0.437-0.034-0.641-0.114s-0.39-0.2-0.547-0.353c-0.307-0.333-0.47-0.775-0.453-1.227-0.009-0.22 0.028-0.439 0.109-0.643s0.205-0.389 0.363-0.542c0.319-0.304 0.744-0.471 1.185-0.468 0.224-0.012 0.448 0.024 0.657 0.105s0.399 0.204 0.558 0.363c0.295 0.323 0.452 0.748 0.44 1.185 0.009 0.225-0.027 0.449-0.106 0.66s-0.199 0.404-0.354 0.567zM14.667 16.359h-3.387c0.2-0.56 0.4-1.187 0.587-1.867s0.413-1.333 0.613-1.973c0.182-0.565 0.333-1.139 0.453-1.72h0.027c0.093 0.32 0.187 0.668 0.293 1.040s0.227 0.773 0.36 1.188c0.132 0.415 0.25 0.812 0.387 1.225s0.25 0.787 0.36 1.147c0.11 0.36 0.227 0.68 0.307 0.96z"></path>
</symbol>
<symbol id="nestjs" viewBox="0 0 32 32">
<path fill="#5f3f87" style="fill: var(--color1, #5f3f87)" d="M18.841 0.063c-0.231 0-0.445 0.049-0.644 0.116 0.421 0.28 0.653 0.653 0.768 1.075 0.009 0.057 0.025 0.099 0.033 0.156 0.010 0.049 0.016 0.099 0.017 0.149 0.032 0.727-0.191 0.819-0.347 1.248-0.24 0.553-0.173 1.148 0.115 1.627 0.026 0.064 0.059 0.125 0.099 0.183-0.313-2.091 1.431-2.404 1.752-3.057 0.025-0.571-0.445-0.951-0.817-1.215-0.292-0.184-0.631-0.281-0.976-0.28v-0.001zM21.469 0.533c-0.032 0.191-0.008 0.141-0.016 0.24-0.008 0.067-0.008 0.149-0.016 0.215-0.017 0.067-0.033 0.133-0.059 0.199-0.016 0.067-0.040 0.133-0.067 0.199l-0.089 0.189c-0.027 0.033-0.041 0.067-0.067 0.1l-0.049 0.073c-0.039 0.057-0.081 0.112-0.124 0.165-0.049 0.051-0.091 0.108-0.149 0.149v0.008c-0.049 0.041-0.099 0.091-0.157 0.133-0.173 0.132-0.371 0.231-0.553 0.355-0.057 0.040-0.116 0.075-0.165 0.124-0.056 0.039-0.109 0.084-0.157 0.132-0.057 0.049-0.099 0.099-0.148 0.157-0.041 0.049-0.091 0.107-0.124 0.165-0.041 0.056-0.080 0.114-0.116 0.173-0.033 0.067-0.057 0.124-0.091 0.189-0.025 0.067-0.049 0.124-0.067 0.191-0.022 0.068-0.041 0.137-0.057 0.207-0.008 0.033-0.008 0.075-0.016 0.107-0.009 0.033-0.009 0.067-0.017 0.1 0 0.067-0.008 0.14-0.008 0.207 0 0.049 0 0.099 0.008 0.148 0 0.067 0.008 0.133 0.025 0.207 0.008 0.067 0.024 0.133 0.040 0.2 0.027 0.065 0.043 0.131 0.067 0.197 0.017 0.040 0.041 0.083 0.059 0.116l-1.901-0.736c-0.321-0.091-0.636-0.173-0.959-0.248l-0.52-0.124c-0.496-0.099-1-0.173-1.504-0.223-0.017 0-0.025-0.008-0.041-0.008-0.852-0.085-1.709-0.096-2.563-0.033-0.504 0.033-1.008 0.099-1.512 0.181-0.375 0.065-0.747 0.142-1.116 0.232l-0.372 0.099c-0.123 0.049-0.24 0.107-0.355 0.157l-0.273 0.124c-0.016 0.008-0.032 0.008-0.040 0.016-0.084 0.041-0.157 0.075-0.232 0.116-0.107 0.047-0.212 0.1-0.315 0.157-0.057 0.024-0.115 0.057-0.165 0.083-0.024 0.015-0.048 0.028-0.073 0.040-0.075 0.043-0.149 0.084-0.216 0.125-0.068 0.038-0.134 0.079-0.197 0.124-0.059 0.040-0.116 0.073-0.165 0.115-0.008 0.009-0.017 0.009-0.025 0.017-0.049 0.033-0.107 0.075-0.157 0.116l-0.016 0.016-0.124 0.099c-0.016 0.009-0.033 0.025-0.049 0.033-0.041 0.033-0.083 0.075-0.124 0.107-0.008 0.017-0.025 0.027-0.033 0.033-0.049 0.051-0.099 0.092-0.148 0.141-0.009 0-0.009 0.008-0.017 0.016-0.051 0.045-0.101 0.092-0.148 0.141-0.009 0.008-0.009 0.016-0.017 0.016-0.043 0.042-0.085 0.087-0.124 0.133-0.016 0.016-0.040 0.032-0.057 0.048-0.044 0.052-0.091 0.102-0.141 0.149-0.008 0.016-0.024 0.025-0.032 0.040-0.067 0.067-0.124 0.133-0.191 0.2l-0.024 0.024c-0.133 0.141-0.273 0.281-0.423 0.405-0.148 0.133-0.305 0.256-0.463 0.364-0.316 0.226-0.657 0.414-1.016 0.561-0.173 0.075-0.356 0.141-0.537 0.199-0.347 0.075-0.703 0.215-1.008 0.24-0.067 0-0.14 0.016-0.207 0.024l-0.207 0.049-0.199 0.075c-0.067 0.025-0.132 0.059-0.197 0.091-0.059 0.041-0.124 0.075-0.183 0.116-0.059 0.043-0.114 0.090-0.165 0.141-0.057 0.040-0.116 0.099-0.165 0.148-0.049 0.057-0.099 0.107-0.14 0.165-0.041 0.067-0.091 0.124-0.124 0.191-0.043 0.060-0.082 0.123-0.116 0.189-0.033 0.075-0.067 0.141-0.091 0.215-0.025 0.067-0.049 0.141-0.075 0.215-0.016 0.067-0.033 0.133-0.040 0.2 0 0.007-0.009 0.016-0.009 0.024-0.016 0.075-0.016 0.173-0.025 0.223-0.008 0.059-0.016 0.107-0.016 0.165-0.002 0.144 0.032 0.286 0.099 0.413v0.008c0.025 0.049 0.059 0.1 0.092 0.149 0.032 0.049 0.067 0.099 0.107 0.148 0.041 0.041 0.091 0.092 0.141 0.133 0.048 0.048 0.1 0.093 0.156 0.132 0.199 0.173 0.248 0.231 0.504 0.363 0.041 0.025 0.083 0.041 0.133 0.067 0.008 0 0.016 0.008 0.024 0.008 0 0.017 0 0.025 0.008 0.041 0.019 0.136 0.055 0.27 0.107 0.397 0.027 0.049 0.043 0.099 0.067 0.148 0.009 0.017 0.017 0.033 0.027 0.041 0.032 0.067 0.065 0.124 0.097 0.183l0.124 0.173c0.041 0.049 0.092 0.107 0.141 0.157 0.049 0.049 0.099 0.091 0.157 0.14 0 0 0.008 0.008 0.016 0.008 0.049 0.041 0.099 0.083 0.149 0.116 0.058 0.040 0.118 0.076 0.181 0.107 0.057 0.033 0.124 0.067 0.189 0.092 0.053 0.024 0.109 0.043 0.165 0.057 0.009 0.008 0.017 0.008 0.033 0.016 0.033 0.009 0.075 0.017 0.107 0.025-0.024 0.447-0.032 0.867 0.035 1.016 0.073 0.165 0.437-0.339 0.8-0.917-0.048 0.571-0.081 1.24 0 1.439 0.092 0.207 0.587-0.439 1.017-1.149 5.86-1.355 11.207 2.693 11.768 8.413-0.107-0.893-1.207-1.388-1.711-1.264-0.248 0.611-0.669 1.396-1.347 1.884 0.057-0.547 0.033-1.107-0.083-1.653-0.185 0.761-0.535 1.472-1.025 2.083-0.784 0.057-1.569-0.323-1.983-0.893-0.033-0.024-0.041-0.073-0.067-0.107-0.024-0.057-0.049-0.116-0.067-0.173-0.024-0.055-0.041-0.114-0.049-0.173-0.008-0.059-0.008-0.116-0.008-0.183v-0.124c0.010-0.059 0.024-0.117 0.041-0.173s0.033-0.115 0.059-0.173c0.032-0.057 0.057-0.116 0.099-0.173 0.14-0.397 0.14-0.72-0.116-0.909-0.050-0.032-0.102-0.060-0.157-0.083-0.032-0.008-0.073-0.024-0.107-0.033l-0.067-0.024c-0.057-0.018-0.115-0.032-0.173-0.041-0.056-0.016-0.115-0.025-0.173-0.025-0.060-0.009-0.121-0.015-0.181-0.016-0.041 0-0.083 0.008-0.124 0.008-0.062-0-0.123 0.008-0.183 0.025-0.057 0.008-0.115 0.016-0.173 0.032s-0.117 0.035-0.173 0.059c-0.057 0.024-0.107 0.049-0.165 0.075-0.049 0.024-0.099 0.057-0.157 0.083-1.925 1.256-0.776 4.197 0.537 5.049-0.496 0.091-1 0.197-1.14 0.305l-0.017 0.016c0.356 0.215 0.728 0.397 1.116 0.555 0.529 0.173 1.091 0.329 1.339 0.396v0.008c0.685 0.141 1.385 0.191 2.083 0.149 3.661-0.256 6.661-3.041 7.207-6.711l0.049 0.215c0.025 0.149 0.057 0.307 0.075 0.463v0.008c0.016 0.075 0.024 0.149 0.033 0.216v0.032c0.008 0.075 0.016 0.149 0.016 0.216 0.008 0.091 0.016 0.181 0.016 0.272v0.133c0 0.040 0.009 0.089 0.009 0.131 0 0.051-0.009 0.1-0.009 0.149v0.116c0 0.057-0.008 0.107-0.008 0.165 0 0.033 0 0.067-0.008 0.107 0 0.059-0.008 0.116-0.008 0.183-0.008 0.024-0.008 0.049-0.008 0.073l-0.027 0.191c0 0.025 0 0.049-0.007 0.075-0.009 0.083-0.025 0.157-0.033 0.24v0.016l-0.049 0.232v0.024l-0.049 0.223c0 0.009-0.009 0.027-0.009 0.033-0.015 0.076-0.034 0.15-0.057 0.224v0.024c-0.025 0.083-0.049 0.157-0.067 0.232-0.008 0.008-0.008 0.016-0.008 0.016l-0.075 0.248c-0.032 0.083-0.057 0.157-0.091 0.24s-0.057 0.165-0.091 0.24c-0.033 0.083-0.067 0.156-0.099 0.24h-0.009c-0.032 0.073-0.067 0.156-0.107 0.231-0.007 0.020-0.015 0.039-0.025 0.057-0.008 0.008-0.008 0.017-0.016 0.025-0.547 1.094-1.342 2.045-2.323 2.776-0.067 0.041-0.132 0.092-0.199 0.141-0.016 0.016-0.040 0.024-0.057 0.040-0.059 0.044-0.12 0.085-0.181 0.125l0.024 0.049h0.009l0.347-0.049h0.008c0.215-0.033 0.429-0.075 0.644-0.116 0.059-0.008 0.124-0.025 0.183-0.041l0.116-0.025c0.057-0.008 0.115-0.024 0.173-0.032 0.049-0.017 0.099-0.027 0.148-0.041 0.827-0.2 1.628-0.472 2.397-0.793-1.328 1.809-3.095 3.251-5.133 4.189 0.952-0.067 1.901-0.223 2.819-0.488 3.32-0.976 6.125-3.217 7.809-6.24-0.34 1.914-1.099 3.729-2.223 5.315 0.801-0.528 1.541-1.144 2.207-1.835 1.85-1.931 3.064-4.382 3.48-7.024 0.28 1.307 0.363 2.653 0.24 3.983 5.965-8.321 0.495-16.949-1.795-19.221-0.008-0.017-0.016-0.025-0.016-0.041-0.008 0.008-0.008 0.008-0.008 0.016 0-0.008 0-0.008-0.009-0.016 0 0.099-0.008 0.197-0.016 0.297-0.023 0.185-0.050 0.37-0.083 0.553-0.040 0.181-0.091 0.364-0.14 0.547-0.059 0.173-0.124 0.355-0.2 0.528-0.076 0.171-0.158 0.339-0.247 0.504-0.185 0.324-0.397 0.631-0.636 0.917-0.124 0.148-0.256 0.28-0.389 0.413-0.078 0.071-0.158 0.14-0.24 0.207l-0.189 0.165c-0.148 0.116-0.302 0.224-0.463 0.321-0.158 0.102-0.321 0.196-0.488 0.281-0.173 0.083-0.347 0.157-0.52 0.232-0.353 0.134-0.718 0.234-1.091 0.297-0.191 0.033-0.38 0.049-0.563 0.067-0.132 0.009-0.264 0.015-0.396 0.016-0.188-0.003-0.376-0.014-0.563-0.033-0.189-0.015-0.376-0.042-0.561-0.083-0.187-0.034-0.372-0.081-0.553-0.14h-0.009c0.183-0.017 0.364-0.033 0.547-0.067 0.372-0.065 0.737-0.164 1.091-0.297 0.181-0.067 0.355-0.149 0.52-0.232 0.173-0.083 0.331-0.173 0.496-0.272 0.157-0.107 0.313-0.215 0.463-0.331s0.289-0.24 0.421-0.372c0.14-0.124 0.264-0.264 0.388-0.405 0.124-0.148 0.24-0.297 0.347-0.445 0.017-0.025 0.035-0.059 0.051-0.083 0.083-0.133 0.165-0.265 0.24-0.397 0.182-0.329 0.331-0.675 0.445-1.033 0.059-0.173 0.1-0.355 0.141-0.537 0.033-0.189 0.067-0.371 0.083-0.553 0.016-0.189 0.033-0.38 0.033-0.561 0-0.133-0.009-0.265-0.017-0.397-0.017-0.185-0.039-0.37-0.067-0.553-0.032-0.186-0.073-0.371-0.123-0.553-0.059-0.173-0.116-0.356-0.183-0.529s-0.148-0.347-0.231-0.512c-0.092-0.165-0.183-0.331-0.281-0.488-0.106-0.154-0.216-0.306-0.331-0.453-0.124-0.141-0.248-0.283-0.38-0.423-0.070-0.071-0.141-0.14-0.215-0.207-0.373-0.289-0.76-0.561-1.149-0.809-0.053-0.031-0.109-0.058-0.165-0.083-0.245-0.15-0.509-0.268-0.785-0.348z"></path>
</symbol>
<symbol id="nextjs" viewBox="0 0 32 32">
<path fill="#5f3f87" style="fill: var(--color1, #5f3f87)" d="M24.887 29.304c-2.543 1.703-5.6 2.696-8.887 2.696-8.831 0-16-7.169-16-16s7.169-16 16-16c8.831 0 16 7.169 16 16 0 4.777-2.099 9.068-5.423 12.001l-14.285-18.401h-2.692v12.795h2.153v-10.060l13.133 16.969zM20.444 17.927l2.133 2.748v-11.075h-2.133v8.327z"></path>
</symbol>
<symbol id="photoshop" viewBox="0 0 32 32">
<path fill="#5f3f87" style="fill: var(--color1, #5f3f87)" d="M5.667 0.399c-3.133 0-5.667 2.534-5.667 5.667v19.866c0 3.134 2.533 5.667 5.667 5.667h20.667c3.133 0 5.666-2.534 5.666-5.667v-19.866c0-3.134-2.533-5.667-5.666-5.667h-20.667zM11.467 8.333c1.093 0 2 0.133 2.746 0.413 0.669 0.227 1.28 0.601 1.787 1.094 0.43 0.431 0.761 0.949 0.973 1.52 0.2 0.56 0.306 1.133 0.306 1.733 0 1.147-0.267 2.093-0.8 2.84s-1.279 1.307-2.146 1.627c-0.907 0.334-1.907 0.453-3 0.453-0.32 0-0.534 0-0.667-0.013s-0.32-0.013-0.573-0.013v4.28c0.013 0.093-0.053 0.174-0.146 0.187h-2.587c-0.106 0-0.16-0.054-0.16-0.174v-13.72c0-0.093 0.040-0.147 0.133-0.147 0.227 0 0.44 0 0.747-0.013 0.32-0.014 0.653-0.013 1.013-0.027s0.747-0.014 1.16-0.027c0.413-0.014 0.813-0.013 1.213-0.013zM11.764 10.959c-0.068-0.001-0.136-0.001-0.204 0-0.347 0-0.653 0-0.907 0.014-0.267-0.014-0.453-0-0.546 0.013v4.48c0.187 0.014 0.359 0.027 0.519 0.027h0.707c0.52 0 1.040-0.080 1.533-0.24 0.427-0.12 0.8-0.373 1.093-0.707 0.28-0.334 0.413-0.787 0.413-1.373 0.012-0.417-0.094-0.828-0.306-1.187-0.227-0.347-0.547-0.614-0.934-0.76-0.432-0.175-0.894-0.258-1.369-0.267zM22.947 11.64c0.547 0 1.107 0.039 1.653 0.119 0.4 0.053 0.787 0.161 1.146 0.307 0.053 0.013 0.107 0.066 0.133 0.119 0.014 0.053 0.027 0.107 0.027 0.16v2.174c0 0.026-0.006 0.051-0.017 0.075s-0.028 0.043-0.049 0.059c-0.12 0.027-0.187 0.027-0.24 0-0.4-0.213-0.827-0.36-1.281-0.453-0.493-0.107-0.986-0.174-1.493-0.174-0.267-0.014-0.547 0.027-0.8 0.094-0.174 0.040-0.32 0.133-0.413 0.267-0.067 0.107-0.107 0.24-0.107 0.36s0.053 0.24 0.134 0.347c0.12 0.147 0.28 0.267 0.453 0.361 0.309 0.16 0.625 0.306 0.947 0.439 0.72 0.24 1.413 0.574 2.053 0.974 0.44 0.28 0.8 0.654 1.053 1.107 0.215 0.425 0.32 0.897 0.307 1.373 0.011 0.63-0.171 1.249-0.521 1.773-0.372 0.532-0.891 0.945-1.493 1.186-0.654 0.28-1.453 0.427-2.413 0.427-0.613 0-1.213-0.053-1.813-0.173-0.47-0.081-0.928-0.225-1.36-0.427-0.093-0.053-0.16-0.147-0.147-0.253v-2.32c0-0.040 0.013-0.093 0.053-0.12s0.080-0.013 0.12 0.014c0.514 0.303 1.072 0.523 1.654 0.654 0.507 0.133 1.040 0.2 1.574 0.2 0.506 0 0.866-0.067 1.107-0.187 0.213-0.093 0.36-0.32 0.36-0.56 0-0.186-0.107-0.36-0.32-0.534s-0.653-0.373-1.306-0.626c-0.67-0.236-1.307-0.559-1.893-0.96-0.418-0.298-0.764-0.685-1.013-1.133-0.213-0.421-0.318-0.888-0.306-1.36 0-0.573 0.16-1.12 0.453-1.613 0.333-0.533 0.827-0.96 1.401-1.226 0.627-0.32 1.413-0.467 2.36-0.467z"></path>
</symbol>
<symbol id="react" viewBox="0 0 32 32">
<path fill="#5f3f87" style="fill: var(--color1, #5f3f87)" d="M18.973 16.005c0 0.791-0.314 1.549-0.873 2.108s-1.317 0.873-2.107 0.874c-0.791 0-1.549-0.314-2.108-0.873s-0.873-1.317-0.873-2.108c0-0.79 0.314-1.549 0.873-2.108s1.317-0.873 2.107-0.874c0.791 0 1.549 0.314 2.108 0.873s0.873 1.317 0.873 2.108zM22.504 1.752c-1.795 0-4.143 1.28-6.517 3.496-2.373-2.204-4.723-3.469-6.516-3.469-0.547 0-1.044 0.124-1.475 0.371-1.833 1.057-2.244 4.352-1.297 8.487-4.059 1.253-6.699 3.257-6.699 5.369 0 2.12 2.653 4.129 6.724 5.373-0.939 4.151-0.52 7.451 1.317 8.507 0.427 0.249 0.92 0.367 1.469 0.367 1.793 0 4.143-1.28 6.517-3.499 2.373 2.205 4.723 3.471 6.516 3.471 0.547 0 1.044-0.12 1.475-0.367 1.832-1.056 2.244-4.351 1.297-8.487 4.044-1.243 6.684-3.251 6.684-5.365 0-2.12-2.653-4.129-6.724-5.376 0.939-4.147 0.52-7.449-1.317-8.507-0.424-0.245-0.916-0.369-1.455-0.371zM22.497 3.205v0.008c0.3 0 0.541 0.059 0.744 0.169 0.888 0.509 1.273 2.447 0.973 4.939-0.072 0.613-0.189 1.26-0.333 1.92-1.28-0.315-2.675-0.556-4.143-0.712-0.88-1.207-1.793-2.303-2.713-3.263 2.123-1.973 4.116-3.056 5.473-3.060l-0.001-0.001zM9.471 3.232c1.349 0 3.352 1.077 5.48 3.040-0.915 0.96-1.827 2.049-2.693 3.256-1.476 0.156-2.872 0.397-4.151 0.717-0.149-0.653-0.26-1.285-0.339-1.893-0.307-2.491 0.072-4.427 0.952-4.943 0.253-0.12 0.533-0.171 0.751-0.177zM15.98 7.298c0.607 0.624 1.213 1.323 1.813 2.085-0.587-0.027-1.187-0.045-1.793-0.045-0.613 0-1.22 0.013-1.813 0.045 0.587-0.763 1.193-1.46 1.793-2.085zM16 10.8c0.987 0 1.969 0.045 2.936 0.124 0.541 0.776 1.069 1.604 1.577 2.48 0.496 0.853 0.947 1.72 1.357 2.595-0.411 0.873-0.861 1.747-1.351 2.6-0.507 0.88-1.031 1.717-1.573 2.493-0.971 0.084-1.955 0.131-2.947 0.131-0.987 0-1.969-0.047-2.936-0.124-0.541-0.776-1.069-1.605-1.577-2.48-0.496-0.853-0.947-1.72-1.357-2.595 0.404-0.876 0.861-1.751 1.351-2.605 0.507-0.88 1.031-1.715 1.573-2.491 0.971-0.085 1.955-0.131 2.947-0.131v0.003zM11.153 11.138c-0.32 0.503-0.64 1.017-0.939 1.547-0.3 0.52-0.58 1.043-0.847 1.565-0.353-0.875-0.653-1.747-0.901-2.596 0.853-0.2 1.753-0.379 2.687-0.516zM20.833 11.138c0.927 0.137 1.82 0.307 2.675 0.516-0.24 0.843-0.54 1.709-0.88 2.577-0.267-0.52-0.547-1.044-0.853-1.565-0.3-0.523-0.62-1.032-0.94-1.528h-0.001zM24.917 12.038c0.645 0.2 1.259 0.423 1.833 0.664 2.309 0.987 3.803 2.277 3.803 3.301-0.007 1.024-1.5 2.32-3.809 3.3-0.56 0.24-1.173 0.456-1.807 0.657-0.373-1.277-0.861-2.608-1.467-3.973 0.6-1.356 1.080-2.68 1.447-3.952v0.003zM7.057 12.044c0.371 1.28 0.86 2.609 1.467 3.973-0.6 1.356-1.083 2.68-1.448 3.952-0.645-0.2-1.259-0.424-1.827-0.667-2.309-0.983-3.803-2.275-3.803-3.299s1.493-2.323 3.803-3.301c0.56-0.24 1.173-0.456 1.808-0.659zM22.628 17.75c0.353 0.876 0.653 1.749 0.901 2.597-0.853 0.209-1.755 0.387-2.688 0.52 0.32-0.5 0.64-1.016 0.94-1.544 0.3-0.52 0.579-1.051 0.847-1.573zM9.368 17.777c0.267 0.523 0.547 1.044 0.853 1.567 0.307 0.52 0.62 1.029 0.94 1.524-0.927-0.136-1.82-0.307-2.675-0.515 0.24-0.84 0.541-1.709 0.88-2.577l0.001 0.001zM23.893 21.76c0.149 0.657 0.267 1.291 0.339 1.897 0.307 2.491-0.072 4.427-0.952 4.944-0.196 0.12-0.451 0.171-0.751 0.171-1.349 0-3.352-1.076-5.48-3.040 0.915-0.96 1.827-2.048 2.693-3.253 1.476-0.157 2.872-0.399 4.151-0.719zM8.12 21.773c1.28 0.312 2.675 0.553 4.143 0.709 0.88 1.207 1.793 2.303 2.713 3.261-2.127 1.977-4.123 3.060-5.48 3.060-0.293-0.007-0.541-0.067-0.737-0.176-0.888-0.507-1.273-2.445-0.973-4.937 0.072-0.613 0.191-1.259 0.335-1.917zM14.2 22.626c0.587 0.027 1.187 0.045 1.793 0.045 0.613 0 1.22-0.013 1.813-0.045-0.587 0.763-1.193 1.46-1.793 2.087-0.607-0.627-1.213-1.324-1.813-2.087z"></path>
</symbol>
<symbol id="redux" viewBox="0 0 32 32">
<path fill="#5f3f87" style="fill: var(--color1, #5f3f87)" d="M22.179 22.005c1.16-0.1 2.057-1.12 2-2.339-0.063-1.219-1.061-2.197-2.279-2.197h-0.081c-0.604 0.021-1.175 0.282-1.587 0.724s-0.632 1.030-0.61 1.634c0.040 0.639 0.301 1.159 0.659 1.537-1.397 2.717-3.495 4.715-6.673 6.393-2.137 1.117-4.395 1.539-6.592 1.24-1.837-0.26-3.275-1.080-4.155-2.399-1.317-1.999-1.437-4.155-0.34-6.312 0.8-1.56 1.999-2.697 2.799-3.257-0.242-0.67-0.429-1.358-0.56-2.057-5.916 4.237-5.313 10.029-3.516 12.767 1.339 1.997 4.076 3.275 7.072 3.275 0.8 0 1.64-0.059 2.457-0.259 5.196-0.999 9.131-4.115 11.388-8.709l0.019-0.041zM29.309 17.010c-3.093-3.637-7.651-5.635-12.845-5.635h-0.68c-0.337-0.739-1.116-1.199-1.997-1.199h-0.060c-1.257 0-2.237 1.080-2.196 2.337 0.040 1.197 1.059 2.197 2.277 2.197h0.099c0.432-0.017 0.851-0.158 1.205-0.405s0.63-0.593 0.794-0.993h0.74c3.079 0 5.993 0.899 8.651 2.656 2.036 1.34 3.496 3.097 4.316 5.196 0.717 1.717 0.679 3.396-0.060 4.796-1.14 2.196-3.059 3.356-5.595 3.356-1.599 0-3.156-0.5-3.956-0.859-0.48 0.397-1.28 1.057-1.859 1.457 1.757 0.797 3.536 1.257 5.253 1.257 3.896 0 6.792-2.196 7.892-4.315 1.197-2.397 1.099-6.432-1.96-9.888l-0.019 0.040zM8.653 22.722c0.040 1.199 1.057 2.197 2.277 2.197h0.080c0.3-0.007 0.596-0.074 0.87-0.196s0.521-0.299 0.725-0.519c0.205-0.22 0.363-0.478 0.467-0.76s0.149-0.582 0.135-0.882c0-1.2-1.039-2.196-2.257-2.196h-0.080c-0.080 0-0.2 0-0.301 0.039-1.657-2.797-2.357-5.796-2.096-9.029 0.16-2.437 0.96-4.556 2.396-6.313 1.2-1.499 3.457-2.24 4.996-2.277 4.315-0.081 6.113 5.295 6.252 7.432l1.997 0.6c-0.46-6.555-4.533-9.991-8.429-9.991-3.659 0-7.032 2.657-8.392 6.553-1.857 5.193-0.639 10.189 1.64 14.185-0.2 0.26-0.32 0.719-0.28 1.157z"></path>
</symbol>
<symbol id="typeorm" viewBox="0 0 32 32">
<path fill="#5f3f87" style="fill: var(--color1, #5f3f87)" d="M30.124 9.151c0 1.2-0.011 2.323 0.005 3.444 0.008 0.473 0.093 0.944 0.28 1.384 0.177 0.408 0.467 0.725 0.869 0.923 0.204 0.1 0.419 0.175 0.627 0.272 0.024 0.014 0.045 0.033 0.060 0.056s0.025 0.049 0.028 0.076c0.007 0.516 0.007 1.031 0 1.547 0 0.052-0.069 0.129-0.124 0.147-0.374 0.123-0.713 0.335-0.986 0.619s-0.474 0.629-0.584 1.008c-0.167 0.516-0.183 1.047-0.183 1.583 0.002 1.991-0.001 3.982-0.008 5.973 0 0.621-0.093 1.235-0.3 1.817-0.116 0.321-0.301 0.617-0.463 0.92-0.021 0.041-0.067 0.069-0.107 0.097-0.247 0.183-0.487 0.383-0.747 0.543-0.225 0.137-0.472 0.236-0.713 0.34-0.152 0.064-0.315 0.109-0.469 0.161-0.022 0.009-0.044 0.015-0.067 0.019-0.307 0.037-0.613 0.083-0.919 0.111-0.372 0.029-0.742 0.052-1.112 0.069-0.081 0.004-0.164-0.027-0.244-0.035-0.139-0.013-0.173-0.093-0.171-0.224 0.007-0.452 0.007-0.904 0-1.356 0-0.139 0.036-0.2 0.185-0.188 0.156 0.009 0.32 0.016 0.472-0.005 0.295-0.042 0.586-0.097 0.873-0.167 0.201-0.053 0.397-0.121 0.587-0.204 0.258-0.109 0.472-0.301 0.608-0.545 0.167-0.277 0.247-0.583 0.315-0.901 0.076-0.351 0.048-0.693 0.053-1.040 0.009-1.98 0-3.96 0.011-5.941 0.003-0.418 0.037-0.833 0.104-1.247 0.062-0.441 0.225-0.862 0.477-1.229s0.586-0.67 0.976-0.885l0.333-0.191c0.081-0.049 0.072-0.143-0.021-0.192-0.413-0.217-0.781-0.509-1.087-0.861-0.233-0.279-0.41-0.601-0.52-0.948-0.24-0.735-0.273-1.493-0.269-2.259 0.003-1.928-0.013-3.856 0-5.783 0.001-0.299-0.031-0.596-0.096-0.888-0.107-0.493-0.32-0.949-0.787-1.212-0.198-0.101-0.407-0.18-0.623-0.236-0.219-0.068-0.443-0.117-0.671-0.147-0.239-0.027-0.479-0.038-0.72-0.033-0.151 0.001-0.204-0.040-0.2-0.196 0.008-0.485 0.004-0.971 0.001-1.456 0-0.119 0.040-0.163 0.156-0.159 0.261 0.007 0.52-0.009 0.779 0.005 0.363 0.021 0.727 0.047 1.087 0.097 0.787 0.106 1.527 0.436 2.131 0.952 0.336 0.287 0.544 0.639 0.712 1.029 0.2 0.461 0.301 0.947 0.367 1.443 0.173 1.32 0.040 2.648 0.096 3.891l-0.003 0.001zM1.894 8.953c0-0.775-0.008-1.551 0.003-2.327 0.008-0.509 0.012-1.027 0.065-1.532 0.036-0.351 0.147-0.693 0.24-1.037 0.087-0.354 0.254-0.684 0.488-0.964 0.196-0.229 0.424-0.431 0.677-0.599 0.259-0.169 0.555-0.277 0.839-0.407 0.227-0.101 0.464-0.144 0.707-0.188 0.692-0.122 1.394-0.178 2.097-0.167 0.12 0 0.163 0.036 0.16 0.156-0.004 0.496-0.004 0.993 0 1.491 0 0.121-0.037 0.168-0.164 0.163-0.142-0.013-0.286-0.012-0.428 0.004-0.315 0.042-0.628 0.099-0.939 0.169-0.2 0.047-0.388 0.125-0.579 0.197-0.259 0.107-0.475 0.297-0.613 0.541-0.164 0.277-0.244 0.587-0.317 0.907-0.089 0.4 0.011 0.784 0.003 1.176-0.027 1.772-0.008 3.544-0.013 5.32 0.004 0.489-0.019 0.978-0.068 1.464-0.107 0.965-0.513 1.771-1.365 2.303-0.154 0.092-0.307 0.184-0.46 0.279-0.031 0.019-0.068 0.065-0.063 0.091 0.011 0.046 0.038 0.086 0.077 0.112 0.428 0.228 0.809 0.535 1.124 0.904 0.253 0.307 0.415 0.659 0.533 1.040 0.2 0.661 0.212 1.341 0.219 2.021 0.011 1.731 0.003 3.463 0.004 5.195 0 0.192 0.020 0.384 0.017 0.575 0 0.096-0.033 0.191-0.036 0.287-0.004 0.112-0.001 0.224 0.007 0.337 0.004 0.069 0.027 0.139 0.039 0.208 0.057 0.401 0.183 0.777 0.448 1.089 0.175 0.204 0.404 0.336 0.659 0.428 0.268 0.096 0.547 0.133 0.821 0.199 0.328 0.077 0.647 0.059 0.973 0.072 0.087 0.004 0.12 0.040 0.12 0.124 0 0.523 0.003 1.045-0.007 1.568 0 0.039-0.071 0.108-0.109 0.108-0.336 0.007-0.671 0.013-1.005-0.003-0.303-0.010-0.605-0.041-0.904-0.092-0.312-0.059-0.613-0.163-0.92-0.248-0.484-0.138-0.923-0.401-1.273-0.763-0.208-0.209-0.377-0.453-0.501-0.72-0.172-0.371-0.302-0.76-0.389-1.16-0.087-0.423-0.133-0.853-0.137-1.285-0.020-1.897-0.017-3.795-0.031-5.691-0.003-0.429-0.005-0.86-0.052-1.285-0.053-0.48-0.16-0.949-0.456-1.351-0.214-0.287-0.502-0.511-0.832-0.649-0.147-0.064-0.301-0.111-0.445-0.183-0.049-0.027-0.103-0.1-0.103-0.153-0.005-0.498-0.007-0.995-0.004-1.491 0-0.133 0.117-0.157 0.207-0.188 0.496-0.173 0.901-0.464 1.188-0.912 0.287-0.43 0.446-0.933 0.459-1.449 0.029-1.227 0.040-2.455 0.059-3.68h-0.021l0.004-0.004zM9.941 10.26v-4.147c0-0.393 0.233-0.629 0.629-0.629h6.869c0.395 0 0.631 0.236 0.631 0.629v8.267c0 0.427-0.227 0.653-0.651 0.653-2.277 0-4.549-0.003-6.827 0.005-0.383 0-0.659-0.263-0.653-0.657 0.008-1.373 0.001-2.747 0.001-4.121zM10.269 10.263v4.121c0 0.277 0.047 0.323 0.32 0.323h6.825c0.285 0 0.328-0.040 0.328-0.325v-8.244c0-0.284-0.044-0.327-0.325-0.327h-6.824c-0.28 0-0.323 0.044-0.323 0.329l-0.001 4.123zM9.942 21.449v-4.133c0-0.397 0.231-0.632 0.628-0.632h6.869c0.4 0 0.631 0.236 0.631 0.64v8.245c0 0.444-0.22 0.665-0.661 0.665h-6.813c-0.427 0-0.651-0.227-0.651-0.652l-0.003-4.133zM10.269 21.457v4.145c0 0.252 0.052 0.304 0.303 0.304h6.856c0.269 0 0.315-0.047 0.315-0.319v-8.263c0-0.263-0.051-0.312-0.311-0.312h-6.844c-0.273 0-0.32 0.047-0.32 0.324l0.001 4.12zM21.924 16.047c-0.002 1.858-0.001 3.717 0.003 5.579 0 0.147-0.040 0.191-0.187 0.189-0.779-0.007-1.557-0.007-2.336 0-0.139 0-0.16-0.053-0.16-0.173 0-0.124 0.040-0.16 0.16-0.16 0.667 0.005 1.333 0 1.999 0.005 0.144 0 0.197-0.041 0.197-0.193-0.003-3.497-0.003-6.994 0-10.491 0-0.149-0.048-0.196-0.196-0.195-0.667 0.007-1.332 0-1.997 0.005-0.133 0-0.164-0.045-0.164-0.171 0-0.12 0.032-0.163 0.159-0.161 0.789 0.004 1.579 0.004 2.368 0 0.128 0 0.156 0.044 0.156 0.163-0.002 1.868-0.003 3.735-0.001 5.603zM14.058 7.599c-0.91 0-1.82-0.001-2.729-0.003-0.053 0-0.145-0.013-0.151-0.037-0.016-0.081-0.005-0.169 0-0.255 0-0.013 0.041-0.027 0.069-0.031 0.036-0.004 0.072-0.004 0.109-0.003h5.395c0.177 0 0.259 0.117 0.183 0.277-0.013 0.032-0.088 0.048-0.133 0.048-0.752 0.002-1.504 0.002-2.255 0.001l-0.488 0.001zM14.422 9.483c-0.78 0-1.56-0.005-2.344 0.004-0.173 0-0.157-0.091-0.164-0.204-0.009-0.136 0.073-0.129 0.164-0.129h4.701c0.091 0 0.173-0.005 0.164 0.129-0.007 0.115 0.008 0.205-0.164 0.204-0.787-0.011-1.571-0.004-2.355-0.004h-0.003zM14.429 11.225c0.787 0 1.571 0.003 2.356-0.003 0.137 0 0.157 0.055 0.16 0.173 0 0.124-0.040 0.16-0.16 0.16-1.572-0.004-3.143-0.004-4.715 0-0.123 0-0.161-0.039-0.16-0.161 0-0.12 0.027-0.173 0.161-0.173 0.788 0.004 1.573 0.006 2.357 0.004zM14.417 13.621c-0.78 0-1.564-0.003-2.345 0.003-0.124 0-0.16-0.040-0.16-0.163 0-0.124 0.031-0.171 0.164-0.168 1.568 0.005 3.136 0.005 4.704 0 0.131 0 0.164 0.040 0.164 0.167 0.003 0.133-0.040 0.165-0.169 0.164-0.786-0.003-1.572-0.004-2.357-0.003zM11.418 11.552h-0.045c-0.213 0-0.269-0.045-0.196-0.249 0.060-0.172 0.247-0.047 0.373-0.073 0.036-0.005 0.116 0.044 0.123 0.080 0.040 0.229 0.023 0.241-0.253 0.241l-0.001 0.001zM11.422 9.153h0.045c0.221 0 0.275 0.041 0.197 0.253-0.063 0.173-0.249 0.045-0.379 0.069-0.031 0.008-0.107-0.051-0.112-0.085-0.032-0.236-0.027-0.236 0.247-0.236l0.001-0.001zM11.425 13.621h-0.068c-0.183 0.001-0.244-0.088-0.184-0.267 0.008-0.027 0.051-0.053 0.080-0.056 0.080-0.008 0.157-0.003 0.235-0.003 0.177 0 0.253 0.115 0.18 0.277-0.008 0.024-0.055 0.040-0.088 0.045-0.051 0.008-0.104 0.003-0.156 0.003h0.001zM14.056 18.472c0.911 0.001 1.821 0 2.729-0.003 0.123 0 0.16 0.036 0.16 0.16 0 0.12-0.023 0.173-0.159 0.171-1.819-0.004-3.638-0.004-5.457 0-0.128 0-0.168-0.036-0.168-0.165s0.040-0.167 0.167-0.167c0.911 0.004 1.82 0.005 2.728 0.004zM14.418 20.683c-0.78 0-1.561-0.005-2.344 0.004-0.179 0-0.151-0.101-0.159-0.208-0.009-0.129 0.068-0.125 0.16-0.125h4.711c0.1 0 0.168 0.007 0.16 0.137-0.009 0.108 0.008 0.2-0.16 0.197-0.789-0.008-1.579-0.003-2.368-0.003v-0.003zM14.418 22.751c-0.782-0.002-1.564-0.001-2.344 0.003-0.133 0-0.16-0.049-0.161-0.172 0-0.121 0.039-0.16 0.16-0.16 1.572 0.004 3.143 0.004 4.713 0 0.12 0 0.161 0.036 0.16 0.16 0 0.119-0.021 0.173-0.16 0.171-0.788-0.004-1.577-0.004-2.367-0.003l-0.001 0.001zM14.43 24.496c0.785 0.002 1.57 0.001 2.356-0.003 0.128 0 0.16 0.044 0.16 0.163-0.003 0.115-0.020 0.169-0.155 0.168-1.576-0.004-3.151-0.004-4.727 0-0.123 0-0.155-0.044-0.151-0.157 0.001-0.107 0.007-0.175 0.147-0.173 0.79 0.004 1.58 0.004 2.371 0.003zM11.422 20.352h0.033c0.236 0 0.267 0.017 0.209 0.247-0.044 0.173-0.215 0.056-0.328 0.080-0.057 0.011-0.156 0.044-0.169-0.080-0.027-0.239-0.021-0.245 0.256-0.245l-0.001-0.001zM11.418 22.424h0.061c0.187 0 0.253 0.093 0.188 0.272-0.008 0.025-0.052 0.048-0.083 0.051-0.083 0.007-0.165-0.004-0.249 0.004-0.133 0.016-0.176-0.035-0.177-0.173-0.004-0.249 0.177-0.116 0.26-0.153zM11.421 24.821h-0.068c-0.18 0-0.245-0.089-0.181-0.269 0.008-0.024 0.051-0.051 0.083-0.053 0.072-0.008 0.147-0.003 0.22-0.003 0.193 0 0.256 0.083 0.195 0.267-0.008 0.027-0.051 0.051-0.080 0.056-0.056 0.007-0.113 0.001-0.167 0.001l-0.001 0.001z"></path>
</symbol>
<symbol id="typescript" viewBox="0 0 32 32">
<path fill="#5f3f87" style="fill: var(--color1, #5f3f87)" d="M1.5 0c-0.831 0-1.5 0.669-1.5 1.5v29c0 0.831 0.669 1.5 1.5 1.5h29c0.831 0 1.5-0.669 1.5-1.5v-29c0-0.831-0.669-1.5-1.5-1.5h-29zM24.651 13c0.816 0 1.539 0.049 2.169 0.148 0.595 0.089 1.179 0.241 1.741 0.453v3.277c-0.27-0.187-0.557-0.348-0.857-0.481-0.309-0.139-0.629-0.255-0.956-0.347-0.619-0.173-1.259-0.262-1.901-0.267-0.4 0-0.764 0.037-1.092 0.115-0.292 0.063-0.573 0.171-0.831 0.323-0.227 0.139-0.4 0.305-0.524 0.499-0.125 0.195-0.19 0.422-0.187 0.653 0 0.261 0.071 0.497 0.208 0.705 0.139 0.208 0.336 0.405 0.591 0.592s0.564 0.368 0.928 0.547c0.364 0.18 0.776 0.365 1.235 0.555 0.627 0.263 1.189 0.543 1.688 0.837 0.499 0.296 0.927 0.631 1.284 1.004 0.357 0.372 0.629 0.797 0.819 1.276s0.285 1.035 0.285 1.671c0 0.876-0.167 1.613-0.497 2.208-0.323 0.587-0.787 1.084-1.349 1.447-0.606 0.385-1.279 0.654-1.983 0.795-0.755 0.16-1.551 0.24-2.387 0.24-0.823 0.004-1.644-0.070-2.453-0.219-0.7-0.121-1.379-0.343-2.016-0.657v-3.507c1.205 1.026 2.734 1.592 4.316 1.6 0.444 0 0.832-0.040 1.163-0.12 0.332-0.080 0.608-0.192 0.831-0.333 0.221-0.144 0.387-0.312 0.497-0.507 0.122-0.227 0.178-0.483 0.161-0.74s-0.107-0.504-0.259-0.712c-0.198-0.262-0.44-0.488-0.716-0.667-0.342-0.227-0.702-0.425-1.076-0.592-0.444-0.203-0.891-0.396-1.343-0.581-1.224-0.511-2.136-1.136-2.737-1.873-0.6-0.737-0.901-1.629-0.901-2.673 0-0.819 0.164-1.521 0.492-2.109s0.773-1.072 1.339-1.452c0.598-0.395 1.262-0.678 1.96-0.839 0.773-0.182 1.566-0.272 2.36-0.268zM4.5 13.251h12.751v2.888h-4.576v12.861h-3.623v-12.861h-4.552v-2.888z"></path>
</symbol>
</defs>
</svg>
