<svg width="21" height="16" viewBox="0 0 21 16" fill="none" xmlns="http://www.w3.org/2000/svg">
<path fill-rule="evenodd" clip-rule="evenodd" d="M1.6249 6.8879C6.99359 4.62993 10.5736 3.14134 12.3648 2.42212C17.4792 0.36862 18.5419 0.0119045 19.2346 0.00012559C19.3869 -0.00246506 19.7276 0.0339819 19.9482 0.206816C20.1345 0.352754 20.1858 0.549895 20.2103 0.68826C20.2348 0.826626 20.2654 1.14183 20.2411 1.38811C19.964 4.1992 18.7647 11.021 18.1546 14.1694C17.8965 15.5017 17.3882 15.9484 16.8961 15.9921C15.8266 16.0871 15.0145 15.3098 13.9787 14.6543C12.3578 13.6287 11.4421 12.9902 9.86879 11.9893C8.05053 10.8327 9.22923 10.1969 10.2654 9.15799C10.5366 8.88609 15.2487 4.74867 15.3399 4.37335C15.3513 4.32641 15.3619 4.15143 15.2542 4.05904C15.1465 3.96664 14.9876 3.99824 14.8729 4.02337C14.7104 4.05898 12.121 5.71112 7.10486 8.97978C6.36988 9.46697 5.70416 9.70435 5.1077 9.69191C4.45015 9.6782 3.18528 9.33301 2.24498 9.03795C1.09166 8.67605 0.175027 8.48471 0.254845 7.87009C0.296419 7.54996 0.753103 7.22256 1.6249 6.8879Z" fill="#BFB4FF"/>
</svg>
