<svg width="337" height="127" viewBox="0 0 337 127" fill="none" xmlns="http://www.w3.org/2000/svg">
<path d="M34.9594 83.2059C34.9649 83.4619 35.0825 83.7348 35.29 83.9428C35.671 84.3253 36.2173 84.3618 36.5178 84.0254C60.0497 57.6743 86.434 33.884 114.926 13.3131C115.286 13.054 115.324 12.4896 114.999 12.0531C114.682 11.6213 114.128 11.4766 113.768 11.7357C85.2007 32.3595 58.7465 56.2157 35.1475 82.6392C35.0162 82.7905 34.9563 82.9859 34.9596 83.1911L34.9594 83.2059Z" fill="#C7C0F3"/>
<path d="M47.3048 43.1501C47.3069 43.2159 47.3148 43.2799 47.3313 43.3487C47.4519 43.8577 47.9227 44.2355 48.3956 44.2065C57.4821 43.5431 66.8397 44.0582 76.2177 45.7486C76.7007 45.8347 77.0879 45.5 77.0824 44.9995C77.0827 44.4972 76.6822 44.0236 76.1992 43.9376C66.6889 42.2293 57.1874 41.6998 47.9682 42.375C47.5616 42.4055 47.2983 42.7386 47.3076 43.1566L47.3048 43.1501Z" fill="#C7C0F3"/>
<path d="M59.1233 45.5893C59.1233 45.5893 59.1257 45.6246 59.1255 45.639C59.165 46.1313 59.5889 46.5701 60.0604 46.6124C63.835 46.9721 67.6658 47.6098 71.4425 48.4948C71.9188 48.6077 72.3235 48.3031 72.3408 47.8223C72.3608 47.3478 71.9915 46.8561 71.518 46.7496C67.662 45.8458 63.7545 45.1956 59.9033 44.8235C59.4432 44.7776 59.1063 45.119 59.1205 45.5829L59.1233 45.5893Z" fill="#C7C0F3"/>
<path d="M46.6515 49.1629C46.6515 49.1629 46.6568 49.2053 46.6594 49.2264C46.7078 49.7318 47.1388 50.1698 47.612 50.2064L67.8657 51.911C68.3474 51.9523 68.6936 51.5738 68.6422 51.0768C68.5938 50.5715 68.1628 50.1334 67.6897 50.0968L47.4359 48.3922C46.9743 48.352 46.64 48.6975 46.6543 49.1694L46.6515 49.1629Z" fill="#C7C0F3"/>
<path d="M41.237 56.4509C41.2418 56.5401 41.2552 56.6343 41.2832 56.7313C41.4429 57.2483 41.9421 57.5975 42.4056 57.5192C49.2242 56.3572 56.2884 55.8362 63.403 55.9802C63.8829 55.9876 64.2107 55.5739 64.1296 55.0548C64.0484 54.5358 63.5938 54.1043 63.1138 54.097C55.9003 53.954 48.7372 54.4759 41.8223 55.6608C41.4463 55.7266 41.2155 56.0567 41.2312 56.4527L41.237 56.4509Z" fill="#C7C0F3"/>
<path d="M45.8326 59.4559C45.8347 59.5227 45.8454 59.5944 45.862 59.6643C45.9893 60.1797 46.4692 60.5618 46.9367 60.5275L58.8737 59.5319C59.3441 59.4892 59.6249 59.0482 59.5034 58.531C59.3761 58.0156 58.8962 57.6334 58.4288 57.6677L46.4917 58.6633C46.0852 58.701 45.8259 59.0376 45.8326 59.4559Z" fill="#C7C0F3"/>
<path d="M31.728 64.4287C31.7273 64.4893 31.7352 64.5547 31.749 64.6183C31.8621 65.1337 32.3429 65.5331 32.8141 65.5053L54.3185 64.1595C54.7898 64.1317 55.0829 63.6845 54.9698 63.1692C54.8567 62.6538 54.3759 62.2544 53.9046 62.2822L32.4002 63.6279C31.9871 63.6525 31.7098 63.9966 31.728 64.4287Z" fill="#C7C0F3"/>
<path d="M34.6132 68.9584C34.6124 69.0192 34.6262 69.0829 34.64 69.1467C34.7533 69.6634 35.2286 70.0658 35.7062 70.036C40.1874 69.7786 43.9567 69.4357 48.917 68.5274C49.3777 68.4424 49.6162 67.9583 49.4506 67.443C49.2849 66.9277 48.7798 66.5802 48.3191 66.6651C43.4142 67.5635 39.8226 67.8881 35.2919 68.1537C34.8784 68.1783 34.6008 68.5233 34.6132 68.9584Z" fill="#C7C0F3"/>
<path d="M25.4451 81.9682C25.449 82.1384 25.4969 82.3178 25.5919 82.482C25.8624 82.9716 26.4148 83.2066 26.8224 82.9972C30.6324 81.0669 34.6419 79.423 38.7415 78.1086C39.1836 77.966 39.3717 77.4376 39.1544 76.9153C38.94 76.3998 38.4061 76.0966 37.964 76.2391C33.7936 77.5764 29.7134 79.2431 25.8442 81.2081C25.5726 81.3425 25.4341 81.6365 25.4422 81.9613L25.4451 81.9682Z" fill="#C7C0F3"/>
<path d="M24.952 76.6847C24.9532 76.8334 24.9926 76.9934 25.0675 77.1418C25.3118 77.6513 25.853 77.9233 26.2816 77.7451C31.658 75.5387 37.4106 74.1445 43.3829 73.6211C43.86 73.5763 44.1418 73.1081 44.0126 72.5691C43.8833 72.0301 43.3965 71.6306 42.9194 71.6754C36.7997 72.2152 30.9115 73.6377 25.3991 75.9039C25.1006 76.0242 24.9353 76.3368 24.9461 76.6866L24.952 76.6847Z" fill="#C7C0F3"/>
<path d="M56.9441 38.6414C56.9435 38.6855 56.9515 38.7343 56.9595 38.7831C57.0538 39.2883 57.508 39.6895 57.9758 39.6837C65.4365 39.6134 73.0684 40.332 80.6593 41.8322C81.1373 41.9257 81.5343 41.6051 81.5346 41.1071C81.5351 40.5944 81.1533 40.1342 80.6696 40.0425C72.9585 38.521 65.2119 37.7939 57.6393 37.8623C57.2089 37.8638 56.9178 38.2029 56.9355 38.6368L56.9441 38.6414Z" fill="#C7C0F3"/>
<path d="M73.9846 36.3693C73.9866 36.4344 73.9945 36.4978 74.0109 36.5659C74.1309 37.07 74.6052 37.4424 75.0731 37.4073C78.3079 37.1593 81.6352 37.3214 84.9775 37.8958C85.4582 37.981 85.8409 37.6431 85.8354 37.1475C85.8354 37.1475 85.8298 37.1346 85.8356 37.1328C85.8187 36.6407 85.4256 36.1846 84.9534 36.1041C81.4766 35.5055 78.0061 35.3292 74.6393 35.5888C74.2346 35.619 73.9725 35.9488 73.9875 36.361L73.9846 36.3693Z" fill="#C7C0F3"/>
<path d="M63.9282 34.1073C63.9275 34.1668 63.9412 34.2293 63.949 34.2936C64.0613 34.7999 64.5328 35.1942 65.0066 35.1651C72.6699 34.7106 80.5389 34.9187 88.397 35.7901C88.8785 35.8402 89.238 35.4685 89.2007 34.9685C89.1606 34.4618 88.7418 34.0066 88.2603 33.9566C80.307 33.0777 72.3457 32.8688 64.5928 33.329C64.1826 33.3531 63.9072 33.6911 63.9252 34.1156L63.9282 34.1073Z" fill="#C7C0F3"/>
<path d="M73.4857 30.4013C73.4909 30.4435 73.4876 30.481 73.4986 30.5214C73.5784 31.0218 74.0315 31.4361 74.5038 31.4432C80.1181 31.5237 85.852 32.1216 91.5539 33.2325C92.031 33.3258 92.4244 32.9999 92.4275 32.5103C92.4334 32.0271 92.0413 31.5429 91.5642 31.4497C85.7624 30.3186 79.9227 29.7024 74.2139 29.6292C73.7815 29.6243 73.4768 29.9592 73.4915 30.3996L73.4857 30.4013Z" fill="#C7C0F3"/>
<path d="M70.7002 27.8795C70.7049 27.966 70.7154 28.0507 70.7459 28.1365C70.8949 28.6327 71.393 28.984 71.8473 28.9165C79.0973 27.8205 86.9283 28.5232 94.5029 30.9469C94.9804 31.0994 95.4142 30.8331 95.4746 30.3527C95.535 29.8723 95.1967 29.3615 94.7192 29.209C86.893 26.702 78.7896 25.9737 71.301 27.1071C70.9271 27.1643 70.6935 27.4858 70.706 27.8777L70.7002 27.8795Z" fill="#C7C0F3"/>
<path d="M84.5127 24.4282C84.5127 24.4282 84.5153 24.449 84.5123 24.4571C84.546 24.9513 84.9587 25.3938 85.4301 25.4506C89.6958 25.9551 94.0155 26.6881 98.2871 27.6376C98.7607 27.7442 99.1655 27.4396 99.18 26.9522C99.1999 26.492 98.825 25.9874 98.3456 25.8826C94.023 24.9199 89.6409 24.1773 85.3155 23.6696C84.8498 23.611 84.4929 23.9514 84.5127 24.4282Z" fill="#C7C0F3"/>
<path d="M79.4093 22.2146C79.4086 22.2736 79.4194 22.329 79.433 22.3908C79.539 22.894 80.0083 23.2844 80.4827 23.2621C87.7595 22.8921 95.2432 23.4711 102.718 24.9854C103.2 25.0857 103.597 24.7641 103.598 24.2647C103.609 23.7765 103.216 23.2891 102.737 23.1952C95.1245 21.6502 87.4973 21.0569 80.0882 21.4386C79.6771 21.456 79.3972 21.7925 79.4151 22.2128L79.4093 22.2146Z" fill="#C7C0F3"/>
<path d="M83.1663 17.9785C83.1686 18.0282 83.1708 18.0778 83.1872 18.1304C83.2805 18.627 83.736 19.0196 84.2022 19.0058C90.9693 18.8619 98.0976 20.3053 104.822 23.1826C105.283 23.3792 105.748 23.1713 105.856 22.7208C105.964 22.2702 105.675 21.7402 105.214 21.5435C98.2498 18.5601 90.8607 17.0674 83.8492 17.2145C83.4314 17.2205 83.1432 17.5538 83.1606 17.9802L83.1663 17.9785Z" fill="#C7C0F3"/>
<path d="M92.3971 14.9357C92.4138 15.4166 92.8043 15.8688 93.2757 15.9458C98.688 16.8096 104.151 18.144 109.509 19.9178C109.977 20.0747 110.413 19.8195 110.481 19.3554C110.546 18.8851 110.219 18.3851 109.751 18.2283C104.294 16.4204 98.7379 15.0645 93.2296 14.1872C92.7581 14.1102 92.3834 14.4467 92.3944 14.9294L92.3971 14.9357Z" fill="#C7C0F3"/>
<path d="M101.706 40.8793C101.718 41.2193 101.935 41.5724 102.268 41.7523C102.698 41.9849 103.172 41.8332 103.316 41.4248C105.83 34.3733 107.644 26.9107 108.702 19.2392C108.764 18.7869 108.449 18.3061 107.993 18.157C107.536 18.0078 107.122 18.2515 107.059 18.7038C106.01 26.2692 104.223 33.6346 101.748 40.5916C101.714 40.6844 101.702 40.7844 101.703 40.887L101.706 40.8793Z" fill="#C7C0F3"/>
<path d="M98.5495 41.2486C98.5613 41.615 98.8037 41.9862 99.1629 42.1434C99.603 42.3445 100.053 42.1586 100.17 41.7323C101.841 35.5126 103.13 29.0537 104.012 22.5274C104.069 22.0782 103.754 21.5989 103.308 21.4546C102.857 21.3119 102.443 21.5549 102.384 21.998C101.511 28.4599 100.231 34.8544 98.5823 41.0124C98.5597 41.0879 98.5506 41.166 98.555 41.2469L98.5495 41.2486Z" fill="#C7C0F3"/>
<path d="M96.5347 36.0909C96.549 36.4617 96.798 36.8355 97.1603 36.9904C97.6003 37.1829 98.0425 36.9858 98.1449 36.5587C98.8979 33.483 99.2888 30.2386 99.3028 26.9325C99.2897 26.4658 98.939 26.0277 98.4896 25.9404C98.0401 25.8532 97.6695 26.1579 97.6665 26.6159C97.654 29.7987 97.2783 32.9088 96.5537 35.8667C96.5366 35.9402 96.5303 36.0103 96.5321 36.0848L96.5347 36.0909Z" fill="#C7C0F3"/>
<path d="M88.6678 53.8135C88.6818 54.2114 88.9732 54.6128 89.3732 54.7423C89.8214 54.8842 90.2313 54.6425 90.2961 54.2L93.5174 30.613C93.5768 30.1721 93.2675 29.6876 92.8166 29.5397C92.3683 29.3978 91.9584 29.6395 91.8937 30.082L88.6723 53.669C88.669 53.7177 88.6631 53.7604 88.6652 53.8075L88.6678 53.8135Z" fill="#C7C0F3"/>
<path d="M84.3831 51.4391C84.3922 51.7993 84.6344 52.1702 84.9959 52.3334C85.4356 52.5343 85.8881 52.3546 86.0046 51.9286C87.6267 46.0425 88.7962 39.8978 89.4814 33.6618C89.5304 33.2086 89.2054 32.7329 88.7539 32.6041C88.2999 32.4692 87.8925 32.7241 87.8489 33.1757C87.1729 39.3336 86.0179 45.3985 84.4213 51.2014C84.4013 51.2829 84.3922 51.361 84.3966 51.4418L84.3831 51.4391Z" fill="#C7C0F3"/>
<path d="M79.8189 54.8766C79.8332 55.2485 80.0833 55.6236 80.4473 55.779C80.8867 55.966 81.3336 55.7744 81.4364 55.3459C82.8298 49.6496 83.8978 43.745 84.622 37.8019C84.6765 37.3473 84.3544 36.878 83.9035 36.7355C83.4527 36.593 83.0457 36.8477 82.9886 37.2964C82.2759 43.1811 81.2169 49.0214 79.8351 54.6594C79.8179 54.7331 79.8116 54.8035 79.8134 54.8782L79.8189 54.8766Z" fill="#C7C0F3"/>
<path d="M74.0179 64.2319C74.0271 64.5768 74.2518 64.9375 74.5894 65.1066C75.0208 65.322 75.4811 65.1671 75.6129 64.7516C77.9589 57.5332 79.0388 49.7896 78.8286 41.7328C78.8127 41.274 78.4406 40.8427 77.9913 40.7692C77.5419 40.6957 77.1848 41.0167 77.1953 41.4771C77.4051 49.35 76.3462 56.9166 74.0562 63.9678C74.0255 64.0522 74.0163 64.1437 74.0205 64.2379L74.0179 64.2319Z" fill="#C7C0F3"/>
<path d="M70.7754 63.0994C70.7869 63.477 71.0509 63.8586 71.4281 64.0082C71.8694 64.1788 72.2993 63.9719 72.3907 63.5355C73.6034 57.6234 74.2735 51.4628 74.3803 45.2167C74.394 44.7565 74.0287 44.3107 73.5783 44.2177C73.1279 44.1247 72.756 44.4227 72.7477 44.8812C72.6448 51.024 71.9813 57.0873 70.7886 62.9048C70.7744 62.9704 70.7709 63.0327 70.7728 63.0934L70.7754 63.0994Z" fill="#C7C0F3"/>
<path d="M66.0902 64.877C66.1045 65.2473 66.3529 65.6207 66.7199 65.7737C67.1591 65.9659 67.6004 65.7691 67.6999 65.3366C68.9001 60.3829 69.5192 55.1785 69.5418 49.8711C69.5367 49.4094 69.1787 48.9674 68.7302 48.8803C68.2816 48.7932 67.9117 49.0976 67.9087 49.5549C67.8876 54.7393 67.2836 59.8233 66.1091 64.6532C66.0921 64.7265 66.0858 64.7966 66.0876 64.871L66.0902 64.877Z" fill="#C7C0F3"/>
<path d="M61.287 68.936C61.2989 69.2873 61.5239 69.6484 61.8755 69.8204C62.313 70.0343 62.7661 69.8612 62.8928 69.4469C64.4576 64.3252 65.257 58.8716 65.2595 53.2256C65.2651 52.7733 64.8954 52.3201 64.4401 52.2345C63.9848 52.1489 63.6192 52.4522 63.6188 52.9165C63.6184 58.398 62.8398 63.7019 61.3226 68.6793C61.2973 68.7622 61.2854 68.8478 61.2896 68.942L61.287 68.936Z" fill="#C7C0F3"/>
<path d="M55.4992 76.3625C55.5111 76.7147 55.7344 77.0706 56.0792 77.2387C56.5129 77.4549 56.973 77.2934 57.1056 76.8764C59.074 70.7162 60.2774 64.1743 60.6808 57.4395C60.7082 56.9795 60.3615 56.5245 59.9103 56.4095C59.4591 56.2945 59.0707 56.5777 59.0406 57.0318C58.6441 63.6412 57.4641 70.0527 55.5351 76.0914C55.5042 76.1761 55.495 76.2679 55.4992 76.3625Z" fill="#C7C0F3"/>
<path d="M51.1444 75.1251C51.1541 75.4463 51.3443 75.7813 51.6514 75.9703C52.0753 76.2269 52.5585 76.1206 52.7387 75.7207C54.8535 71.0259 56.2969 65.9363 57.0316 60.5943C57.0974 60.1466 56.7776 59.6581 56.3195 59.5084C55.8614 59.3587 55.4449 59.6032 55.3818 60.057C54.6653 65.2556 53.2593 70.2027 51.2035 74.776C51.1557 74.8803 51.135 75.0039 51.1363 75.1207L51.1444 75.1251Z" fill="#C7C0F3"/>
<path d="M42.144 87.5748C42.1588 87.9215 42.3758 88.2752 42.7151 88.4538C43.1495 88.679 43.616 88.5226 43.7579 88.1074C46.0639 81.3359 47.9418 74.2683 49.3429 67.0917C49.4303 66.6518 49.1332 66.1574 48.6844 65.9847C48.2357 65.812 47.8039 66.0335 47.7164 66.4734C46.3299 73.5836 44.4609 80.5865 42.1831 87.2943C42.1546 87.3857 42.1397 87.4797 42.144 87.5748Z" fill="#C7C0F3"/>
<path d="M39.4315 84.2248C39.4412 84.5455 39.631 84.8799 39.9374 85.0685C40.3604 85.3248 40.8426 85.2186 41.0225 84.8194C42.7393 81.0103 43.8103 76.8478 44.2093 72.457C44.2477 72.0046 43.9148 71.528 43.4602 71.3985C43.0055 71.269 42.6005 71.5374 42.5566 71.9915C42.1707 76.213 41.14 80.2117 39.4905 83.8763C39.4428 83.9804 39.4221 84.1038 39.4234 84.2204L39.4315 84.2248Z" fill="#C7C0F3"/>
<path d="M34.2868 87.5759C34.2964 87.8967 34.4864 88.2314 34.8012 88.4245C35.2245 88.6809 35.7099 88.5669 35.8844 88.1691C37.2774 84.9945 38.1843 81.5482 38.5713 77.9234C38.6234 77.4734 38.2876 76.9905 37.8381 76.8592C37.3805 76.7235 36.9725 76.986 36.9286 77.4404C36.56 80.9081 35.6932 84.2043 34.3566 87.2377C34.3088 87.3418 34.291 87.4575 34.2923 87.5742L34.2868 87.5759Z" fill="#C7C0F3"/>
<path d="M108.864 34.1444C108.873 34.5153 109.136 34.8962 109.501 35.0487C109.939 35.2267 110.37 35.0262 110.469 34.5949C111.74 28.8922 112.243 22.8823 111.957 16.7551C111.933 16.2937 111.552 15.8673 111.105 15.8078C110.659 15.7482 110.314 16.0919 110.335 16.5337C110.607 22.5159 110.125 28.3768 108.883 33.9485C108.868 34.014 108.862 34.0838 108.861 34.152L108.864 34.1444Z" fill="#C7C0F3"/>
<path d="M45.1817 28.2742C45.1043 28.4127 45.0883 28.5824 45.1463 28.7351C45.2527 29.0158 45.5666 29.1436 45.8516 29.0226C68.1743 19.5461 91.3888 12.0086 114.844 6.61603C115.14 6.54829 115.341 6.25311 115.284 5.95439C115.232 5.6599 114.947 5.47258 114.651 5.54032C91.1347 10.9463 67.8579 18.5053 45.4724 28.0074C45.3465 28.0626 45.2492 28.1556 45.1865 28.2663L45.1817 28.2742Z" fill="#A088BF"/>
<path d="M65.2036 8.4547C65.1841 8.49039 65.1687 8.52626 65.1569 8.56636C65.0686 8.86306 65.2299 9.15889 65.5204 9.23708C71.1366 10.6824 76.5434 12.813 81.5926 15.5777C81.853 15.7195 82.1887 15.6169 82.3428 15.3475C82.501 15.0784 82.4116 14.7452 82.1512 14.6033C77.0288 11.8029 71.541 9.63604 65.8422 8.17075C65.5906 8.10652 65.3291 8.23283 65.2032 8.45874L65.2036 8.4547Z" fill="#A088BF"/>
<path d="M71.4936 12.3775C71.4936 12.3775 71.4837 12.3971 71.479 12.4049C71.3447 12.6794 71.4584 13.0012 71.728 13.1175C73.8793 14.0598 75.9752 15.164 77.9592 16.3914C78.209 16.5469 78.5498 16.462 78.7145 16.2049C78.8788 15.9517 78.8148 15.6122 78.5646 15.4606C76.539 14.2073 74.4011 13.0812 72.2078 12.117C71.9462 12.001 71.6344 12.1193 71.494 12.3735L71.4936 12.3775Z" fill="#A088BF"/>
<path d="M63.2344 11.5986C63.2344 11.5986 63.2241 11.6224 63.2189 11.6343C63.0878 11.9156 63.2063 12.2365 63.4771 12.3498L75.0215 17.2766C75.2959 17.3942 75.6222 17.2593 75.7489 16.9818C75.88 16.7005 75.7616 16.3797 75.4908 16.2663L63.9463 11.3395C63.6836 11.2265 63.3748 11.3461 63.234 11.6026L63.2344 11.5986Z" fill="#A088BF"/>
<path d="M58.1142 14.4262C58.0895 14.4746 58.0685 14.5274 58.0551 14.5846C57.9903 14.8915 58.1778 15.1769 58.4758 15.2278C62.8638 15.9708 67.1994 17.1039 71.3599 18.6008C71.6413 18.7005 71.9625 18.5459 72.0744 18.2536C72.1863 17.9613 72.0505 17.641 71.7691 17.5413C67.5498 16.0252 63.1554 14.8729 58.7035 14.1228C58.461 14.0827 58.2229 14.2122 58.1102 14.426L58.1142 14.4262Z" fill="#A088BF"/>
<path d="M60.0133 17.1019C59.9938 17.1379 59.9779 17.1782 59.9661 17.2188C59.8816 17.5187 60.0474 17.8178 60.3349 17.8925L67.7142 19.7369C68.0061 19.8077 68.3092 19.6287 68.3977 19.3289C68.4822 19.0289 68.3164 18.7299 68.0289 18.6551L60.6496 16.8107C60.3971 16.7499 60.1391 16.8777 60.0133 17.1019Z" fill="#A088BF"/>
<path d="M50.4381 16.734C50.419 16.7661 50.4035 16.8025 50.392 16.8391C50.2998 17.1359 50.4609 17.4444 50.7481 17.5236L63.8805 21.0962C64.1678 21.1753 64.4792 20.9958 64.5713 20.699C64.6635 20.4021 64.5025 20.0936 64.2152 20.0145L51.0828 16.4419C50.8309 16.3726 50.5607 16.5004 50.4381 16.734Z" fill="#A088BF"/>
<path d="M50.9302 19.8703C50.9111 19.9025 50.8996 19.9391 50.8881 19.9758C50.7959 20.2732 50.953 20.5822 51.2444 20.6617C53.9719 21.4195 56.305 21.9897 59.516 22.497C59.8144 22.5438 60.1044 22.3339 60.1652 22.0268C60.226 21.7196 60.0345 21.4339 59.7361 21.3871C56.5609 20.8856 54.3384 20.3412 51.5791 19.5778C51.3272 19.5083 51.0569 19.6364 50.9302 19.8703Z" fill="#A088BF"/>
<path d="M42.0797 25.0248C42.0309 25.1158 42.0052 25.2207 42.0118 25.3271C42.0237 25.6418 42.2775 25.8787 42.5796 25.8505C45.3953 25.6015 48.242 25.5449 51.0429 25.6813C51.3452 25.6956 51.6141 25.4537 51.6432 25.1325C51.6719 24.8155 51.4494 24.5461 51.1471 24.5318C48.2978 24.393 45.4027 24.4474 42.542 24.7028C42.3422 24.7188 42.1727 24.8466 42.08 25.0205L42.0797 25.0248Z" fill="#A088BF"/>
<path d="M43.223 21.9552C43.1794 22.0344 43.1549 22.1275 43.1545 22.2216C43.1459 22.5423 43.3821 22.7976 43.6865 22.7906C47.4957 22.7193 51.2834 23.1564 54.9404 24.101C55.2335 24.1749 55.5382 23.9839 55.623 23.6712C55.7079 23.3584 55.5415 23.0465 55.2485 22.9726C51.5002 22.0065 47.6246 21.5567 43.7178 21.6319C43.507 21.6348 43.3169 21.767 43.219 21.955L43.223 21.9552Z" fill="#A088BF"/>
<path d="M72.0472 8.0955C72.0329 8.11911 72.0222 8.14693 72.0115 8.17475C71.9077 8.4652 72.0517 8.77089 72.3327 8.8604C76.8077 10.2997 81.135 12.1973 85.1902 14.5071C85.4458 14.652 85.7843 14.5582 85.9423 14.2904C86.105 14.0147 86.0229 13.6916 85.7633 13.5464C81.6431 11.2014 77.2501 9.27656 72.7089 7.81406C72.4515 7.72967 72.1704 7.85443 72.0435 8.09129L72.0472 8.0955Z" fill="#A088BF"/>
<path d="M82.6078 10.6231C82.5884 10.6586 82.5729 10.6942 82.5611 10.7341C82.473 11.029 82.6381 11.3233 82.9286 11.397C84.9388 11.9038 86.8742 12.6496 88.6878 13.6202C88.9478 13.7612 89.2834 13.6551 89.4374 13.3874C89.4374 13.3874 89.4381 13.3794 89.4421 13.3795C89.588 13.1115 89.498 12.7883 89.2416 12.6515C87.3553 11.6413 85.3389 10.8595 83.2462 10.3328C82.995 10.2689 82.7339 10.3945 82.6122 10.6193L82.6078 10.6231Z" fill="#A088BF"/>
<path d="M77.3108 7.16307C77.2917 7.19479 77.2803 7.23093 77.2648 7.2669C77.1728 7.56012 77.3295 7.86465 77.6202 7.94304C82.3173 9.21979 86.929 10.8919 91.3262 12.9169C91.5967 13.0392 91.9269 12.9116 92.0614 12.6366C92.1964 12.3575 92.0901 12.0309 91.8196 11.9086C87.3681 9.86076 82.7018 8.16986 77.9497 6.87839C77.6984 6.80994 77.4288 6.9362 77.3064 7.16694L77.3108 7.16307Z" fill="#A088BF"/>
<path d="M83.9038 7.23545C83.8935 7.25919 83.8796 7.27874 83.8733 7.30266C83.762 7.58812 83.9011 7.90101 84.1812 7.99836C87.5109 9.15309 90.7477 10.6102 93.8023 12.3376C94.0578 12.4822 94.3965 12.3845 94.5539 12.1213C94.711 11.8621 94.6305 11.5236 94.375 11.379C91.2671 9.62102 87.9729 8.13304 84.5843 6.96355C84.3275 6.87532 84.039 6.99544 83.9078 7.23563L83.9038 7.23545Z" fill="#A088BF"/>
<path d="M82.9344 5.23602C82.9099 5.28345 82.8893 5.33106 82.8803 5.38325C82.8122 5.67952 82.9981 5.96704 83.2906 6.0207C87.9631 6.86692 92.4128 8.79528 96.1648 11.5982C96.4015 11.7748 96.7446 11.7175 96.9327 11.4711C97.1208 11.2248 97.0807 10.8832 96.844 10.7066C92.9682 7.80907 88.3641 5.81305 83.5374 4.93964C83.2962 4.89639 83.0551 5.02303 82.9384 5.2362L82.9344 5.23602Z" fill="#A088BF"/>
<path d="M91.9484 6.3801C91.9484 6.3801 91.9433 6.3919 91.9389 6.39571C91.8006 6.67018 91.9064 6.9917 92.1712 7.11587C94.5703 8.23408 96.9285 9.48678 99.1884 10.8473C99.4386 10.9989 99.7793 10.914 99.9444 10.6527C100.104 10.4073 100.041 10.0596 99.7866 9.90785C97.5003 8.53007 95.1077 7.25978 92.6738 6.12798C92.413 6.00399 92.0895 6.11778 91.9484 6.3801Z" fill="#A088BF"/>
<path d="M89.5174 4.06557C89.4984 4.09711 89.4873 4.12901 89.4759 4.16494C89.38 4.45623 89.5365 4.75894 89.8264 4.84089C94.282 6.08316 98.5611 7.87629 102.539 10.1702C102.795 10.3194 103.134 10.2254 103.292 9.95713C103.453 9.69714 103.372 9.35737 103.116 9.21216C99.0658 6.87454 94.7057 5.04534 90.1674 3.78314C89.9168 3.71106 89.6436 3.8364 89.5214 4.06575L89.5174 4.06557Z" fill="#A088BF"/>
<path d="M92.8826 2.54007C92.8679 2.56746 92.8533 2.59485 92.8463 2.62659C92.7428 2.91444 92.8904 3.21756 93.1748 3.30245C97.2864 4.56484 101.105 6.75967 104.22 9.65216C104.434 9.85007 104.781 9.82957 104.99 9.60658C105.2 9.38359 105.196 9.03886 104.983 8.84095C101.757 5.84334 97.7976 3.57007 93.5382 2.26098C93.2853 2.18151 93.005 2.30516 92.8786 2.53989L92.8826 2.54007Z" fill="#A088BF"/>
<path d="M99.0848 2.92009C98.9396 3.18518 99.0289 3.50871 99.288 3.64414C102.27 5.18767 105.131 6.99735 107.786 9.02552C108.017 9.20363 108.362 9.1512 108.553 8.91211C108.744 8.66905 108.708 8.33194 108.477 8.15383C105.773 6.08755 102.863 4.2477 99.828 2.67781C99.5688 2.54238 99.2344 2.65121 99.0852 2.91612L99.0848 2.92009Z" fill="#A088BF"/>
<path d="M96.7564 19.6437C96.6514 19.8356 96.668 20.0763 96.8136 20.244C97.0018 20.4609 97.3437 20.4723 97.5675 20.2739C101.448 16.8532 105.033 13.0614 108.221 9.00015C108.409 8.76083 108.374 8.4289 108.142 8.25335C107.911 8.07781 107.575 8.12962 107.387 8.36894C104.239 12.373 100.702 16.1158 96.8773 19.4918C96.8257 19.5367 96.7852 19.5899 96.7521 19.6475L96.7564 19.6437Z" fill="#A088BF"/>
<path d="M94.9366 19.092C94.8225 19.299 94.8493 19.5556 95.0188 19.7164C95.2239 19.9181 95.5633 19.9058 95.7765 19.6914C98.8671 16.5575 101.801 13.2122 104.506 9.74667C104.69 9.50742 104.655 9.17584 104.427 9.00456C104.196 8.83311 103.86 8.88487 103.677 9.1202C100.998 12.5516 98.0914 15.8627 95.035 18.9667C94.9961 19.0043 94.9646 19.0461 94.9405 19.0921L94.9366 19.092Z" fill="#A088BF"/>
<path d="M95.5094 15.6614C95.3953 15.8721 95.4255 16.1323 95.5984 16.2931C95.8071 16.4907 96.1462 16.4707 96.3512 16.2523C97.8372 14.6833 99.1548 12.9458 100.26 11.0968C100.406 10.8327 100.334 10.5156 100.085 10.375C99.8355 10.2343 99.505 10.3293 99.3513 10.5852C98.2884 12.3655 97.0247 14.0309 95.5954 15.5398C95.5605 15.5774 95.5333 15.6154 95.5097 15.6575L95.5094 15.6614Z" fill="#A088BF"/>
<path d="M85.6675 23.9121C85.5442 24.138 85.5917 24.4225 85.7965 24.5768C86.0272 24.7479 86.3612 24.6963 86.5481 24.4615L96.3647 11.9015C96.5477 11.6665 96.5167 11.3318 96.2865 11.1567C96.0558 10.9856 95.7217 11.0372 95.5349 11.272L85.7182 23.832C85.7 23.8587 85.6822 23.8814 85.6679 23.9082L85.6675 23.9121Z" fill="#A088BF"/>
<path d="M84.0009 21.5294C83.8872 21.7325 83.914 21.989 84.0831 22.1537C84.2881 22.3553 84.627 22.347 84.84 22.1326C87.7909 19.1738 90.5479 15.9785 93.0361 12.6337C93.2165 12.3904 93.1734 12.0586 92.9373 11.8948C92.7016 11.7271 92.3657 11.7867 92.1892 12.0302C89.7325 15.3332 87.0108 18.4869 84.1032 21.4044C84.0639 21.4458 84.0324 21.4876 84.0083 21.5337L84.0009 21.5294Z" fill="#A088BF"/>
<path d="M80.4487 22.4052C80.3343 22.616 80.3646 22.8765 80.5379 23.0375C80.7475 23.2314 81.087 23.2152 81.2925 22.9967C84.04 20.0962 86.6556 17.0131 89.0716 13.8386C89.2558 13.5956 89.2123 13.2677 88.9809 13.0963C88.7496 12.9249 88.4138 12.9845 88.23 13.2236C85.8405 16.3679 83.2517 19.4169 80.5306 22.2871C80.4956 22.3248 80.4684 22.3628 80.4448 22.405L80.4487 22.4052Z" fill="#A088BF"/>
<path d="M74.382 26.3626C74.2733 26.5578 74.2929 26.8058 74.4459 26.9695C74.6417 27.1784 74.9781 27.1856 75.1975 26.9797C79.0439 23.4146 82.2802 19.2965 84.8214 14.7392C84.9636 14.4789 84.8762 14.1612 84.6223 14.0282C84.3684 13.8952 84.0407 14.0021 83.8945 14.2622C81.4141 18.7163 78.2495 22.7396 74.4933 26.2225C74.4463 26.2635 74.4102 26.3129 74.3816 26.3665L74.382 26.3626Z" fill="#A088BF"/>
<path d="M72.9658 24.937C72.8477 25.1512 72.8849 25.4194 73.0692 25.5805C73.2863 25.7667 73.6216 25.7386 73.8231 25.5125C76.5363 22.4438 78.9954 19.1246 81.1335 15.6421C81.2947 15.3867 81.2159 15.0617 80.9674 14.9173C80.7189 14.7728 80.3893 14.8638 80.2321 15.1194C78.1307 18.5448 75.708 21.8108 73.0385 24.8305C73.0079 24.8644 72.9851 24.8986 72.9662 24.9331L72.9658 24.937Z" fill="#A088BF"/>
<path d="M69.8612 24.8393C69.7472 25.0499 69.7774 25.31 69.9541 25.4709C70.1625 25.6685 70.5013 25.6484 70.7064 25.4263C73.093 22.8946 75.2026 20.1034 76.9767 17.1325C77.1267 16.8726 77.0514 16.5516 76.8023 16.411C76.5531 16.2704 76.223 16.3654 76.0694 16.6212C74.3371 19.5234 72.2767 22.2501 69.9472 24.7177C69.9123 24.7554 69.8851 24.7934 69.8616 24.8354L69.8612 24.8393Z" fill="#A088BF"/>
<path d="M65.9494 26.013C65.8403 26.2121 65.8599 26.4602 66.0204 26.6283C66.2203 26.8373 66.5581 26.8329 66.7738 26.6268C69.44 24.0784 71.7425 21.1881 73.6155 18.0273C73.7689 17.7753 73.6903 17.4461 73.4369 17.3052C73.1835 17.1644 72.8567 17.2596 72.7026 17.5195C70.8853 20.5885 68.6453 23.3993 66.0565 25.8766C66.0133 25.9178 65.9776 25.9633 65.949 26.0169L65.9494 26.013Z" fill="#A088BF"/>
<path d="M60.4661 28.8831C60.3567 29.0824 60.3768 29.3268 60.5341 29.4909C60.7304 29.7 61.0681 29.7033 61.2881 29.4972C64.5445 26.4546 67.4547 23.043 69.9347 19.3608C70.104 19.1092 70.0405 18.7843 69.7999 18.6283C69.5593 18.4722 69.2255 18.5515 69.0566 18.7991C66.6224 22.4127 63.7698 25.7562 60.578 28.7389C60.5309 28.78 60.4947 28.8294 60.4661 28.8831Z" fill="#A088BF"/>
<path d="M58.4066 27.1418C58.3064 27.3223 58.3127 27.5471 58.4389 27.7141C58.6147 27.9425 58.9467 27.981 59.1895 27.795C62.0392 25.6113 64.6069 23.0725 66.8224 20.2501C67.0107 20.0145 66.9756 19.6782 66.7435 19.5025C66.5115 19.3267 66.1748 19.3786 65.9862 19.6182C63.8292 22.3644 61.3316 24.8315 58.5582 26.9596C58.4943 27.0079 58.4408 27.0724 58.403 27.1377L58.4066 27.1418Z" fill="#A088BF"/>
<path d="M49.6088 32.1138C49.5034 32.3098 49.5199 32.5506 49.6696 32.7186C49.8624 32.9319 50.201 32.9391 50.4254 32.7367C54.0816 29.4335 57.5723 25.879 60.8058 22.1673C61.0049 21.9401 60.9856 21.6048 60.7666 21.4179C60.5477 21.231 60.2089 21.267 60.0097 21.4942C56.8071 25.1718 53.3434 28.6922 49.7255 31.9656C49.6778 32.0106 49.6376 32.06 49.6088 32.1138Z" fill="#A088BF"/>
<path d="M49.2539 29.5563C49.1538 29.7368 49.1601 29.9613 49.2862 30.1283C49.4618 30.3565 49.7934 30.395 50.036 30.2091C52.351 28.4358 54.3854 26.3351 56.0819 23.9713C56.2551 23.7272 56.2078 23.3946 55.9709 23.2305C55.7341 23.0665 55.3962 23.134 55.2192 23.3779C53.5866 25.65 51.6311 27.6677 49.4053 29.3742C49.3416 29.4225 49.2881 29.487 49.2503 29.5522L49.2539 29.5563Z" fill="#A088BF"/>
<path d="M45.4316 30.2482C45.3316 30.4287 45.3378 30.6534 45.4675 30.8245C45.6431 31.0527 45.9792 31.0875 46.218 30.9014C48.1234 29.4163 49.8197 27.6818 51.2553 25.7427C51.436 25.5028 51.3892 25.1662 51.1561 25.0023C50.9195 24.8343 50.582 24.8979 50.4048 25.1418C49.0325 26.9971 47.4104 28.6562 45.5863 30.0741C45.5225 30.1224 45.4733 30.1832 45.4355 30.2484L45.4316 30.2482Z" fill="#A088BF"/>
<path d="M102.917 17.4954C102.8 17.7056 102.837 17.9736 103.013 18.1344C103.226 18.3241 103.56 18.3 103.765 18.0781C106.446 15.1354 108.752 11.8624 110.608 8.36146C110.746 8.09739 110.651 7.77972 110.393 7.65452C110.136 7.52931 109.807 7.65165 109.674 7.9042C107.858 11.3207 105.614 14.5142 102.994 17.3892C102.963 17.4231 102.936 17.461 102.913 17.4992L102.917 17.4954Z" fill="#A088BF"/>
<path d="M288.848 118.963C289.089 118.672 289.141 118.269 288.946 117.955C269.429 85.9875 246.638 55.7842 221.188 28.1892C220.865 27.8409 220.286 27.8316 219.896 28.1737C219.506 28.5158 219.447 29.0763 219.77 29.4246C245.152 56.9433 267.888 87.0635 287.345 118.944C287.59 119.346 288.153 119.454 288.592 119.183C288.693 119.121 288.778 119.047 288.844 118.968L288.848 118.963Z" fill="#C7C0F3"/>
<path d="M283.037 75.7796C283.094 75.7115 283.144 75.6308 283.18 75.5478C283.38 75.0887 283.167 74.5951 282.705 74.4409C273.618 71.4192 264.056 69.487 254.303 68.6943C253.803 68.6553 253.336 69.0111 253.257 69.4919C253.169 69.9742 253.506 70.3983 254.001 70.4336C263.614 71.2165 273.027 73.1225 281.985 76.1008C282.364 76.2273 282.786 76.0831 283.037 75.7796Z" fill="#C7C0F3"/>
<path d="M270.692 75.3645C270.778 75.2605 270.843 75.1327 270.88 75.0004C271.001 74.5293 270.707 74.0789 270.225 74.0015C266.3 73.3709 262.268 72.9877 258.241 72.8839C257.746 72.8719 257.293 73.2508 257.239 73.7293C257.184 74.2078 257.541 74.6122 258.036 74.6243C261.983 74.7273 265.934 75.1008 269.781 75.7165C270.128 75.7701 270.477 75.6245 270.692 75.3645Z" fill="#C7C0F3"/>
<path d="M282.376 81.802C282.463 81.6975 282.529 81.5781 282.561 81.4505C282.692 80.9758 282.406 80.5219 281.918 80.4404L261.402 76.8759C260.918 76.7892 260.42 77.113 260.293 77.5824C260.162 78.0571 260.453 78.5148 260.936 78.5926L281.452 82.157C281.801 82.2198 282.16 82.0721 282.381 81.8057L282.376 81.802Z" fill="#C7C0F3"/>
<path d="M286.188 90.2285C286.227 90.1811 286.265 90.1247 286.299 90.0646C286.535 89.6202 286.371 89.102 285.923 88.9078C279.25 86.0239 272.226 83.6942 265.038 81.9803C264.558 81.8643 264.045 82.1559 263.883 82.6297C263.722 83.1034 263.982 83.5743 264.462 83.6902C271.548 85.3793 278.473 87.6789 285.056 90.5222C285.444 90.6893 285.908 90.5563 286.183 90.2247L286.188 90.2285Z" fill="#C7C0F3"/>
<path d="M280.918 92.1111C280.975 92.0428 281.021 91.967 281.057 91.8836C281.263 91.4263 281.053 90.9253 280.594 90.7652L268.886 86.7481C268.427 86.588 267.887 86.8334 267.681 87.2907C267.475 87.748 267.685 88.249 268.145 88.4091L279.852 92.4262C280.232 92.5533 280.661 92.4122 280.913 92.1074L280.918 92.1111Z" fill="#C7C0F3"/>
<path d="M293.944 100.303C294.005 100.229 294.055 100.148 294.091 100.065C294.287 99.5994 294.068 99.1085 293.6 98.9588L272.466 92.1758C271.998 92.026 271.468 92.2792 271.272 92.7444C271.076 93.2097 271.295 93.7006 271.763 93.8503L292.897 100.633C293.272 100.757 293.696 100.612 293.949 100.307L293.944 100.303Z" fill="#C7C0F3"/>
<path d="M290.056 104.067C290.117 103.993 290.167 103.912 290.203 103.819C290.394 103.359 290.175 102.859 289.711 102.713C285.249 101.302 281.747 100.073 277.019 97.9681C276.575 97.7686 276.017 97.9761 275.776 98.4169C275.53 98.8629 275.694 99.3813 276.138 99.5809C280.92 101.709 284.61 103 289.013 104.392C289.392 104.51 289.808 104.367 290.056 104.067Z" fill="#C7C0F3"/>
<path d="M296.46 118.984C296.781 118.594 296.745 118.052 296.381 117.758C292.832 114.932 289.035 112.326 285.096 110.002C284.678 109.754 284.103 109.896 283.81 110.332C283.516 110.759 283.625 111.303 284.043 111.552C287.92 113.83 291.651 116.395 295.138 119.176C295.512 119.478 296.098 119.403 296.438 119.011C296.447 119 296.451 118.995 296.46 118.984Z" fill="#C7C0F3"/>
<path d="M298.058 113.843C298.058 113.843 298.071 113.827 298.08 113.817C298.398 113.411 298.332 112.86 297.933 112.591C292.838 109.101 287.23 106.292 281.28 104.237C280.818 104.075 280.274 104.323 280.067 104.785C279.86 105.246 280.071 105.751 280.533 105.913C286.344 107.916 291.811 110.665 296.788 114.068C297.178 114.338 297.743 114.234 298.063 113.847L298.058 113.843Z" fill="#C7C0F3"/>
<path d="M274.383 69.0878C274.453 69.0042 274.507 68.9095 274.541 68.8087C274.712 68.3461 274.471 67.867 273.998 67.7377C266.442 65.7169 258.581 64.4295 250.633 63.9182C250.135 63.8882 249.674 64.247 249.6 64.7305C249.527 65.214 249.862 65.6283 250.36 65.6583C258.193 66.1606 265.933 67.4263 273.382 69.4188C273.748 69.5196 274.145 69.375 274.383 69.0878Z" fill="#C7C0F3"/>
<path d="M257.823 62.8774C257.879 62.8095 257.925 62.7342 257.961 62.6514C258.161 62.1932 257.952 61.6953 257.496 61.5452C254.173 60.4239 250.673 59.6937 247.095 59.3844C246.6 59.3402 246.13 59.7005 246.046 60.1766C245.958 60.658 246.289 61.0775 246.784 61.1217C250.214 61.4228 253.577 62.1201 256.767 63.1943C257.145 63.3205 257.572 63.1804 257.823 62.8774Z" fill="#C7C0F3"/>
<path d="M268.397 63.0187C268.458 62.9454 268.508 62.8646 268.544 62.7725C268.739 62.3092 268.516 61.8165 268.054 61.6711C260.405 59.2366 252.438 57.394 244.378 56.199C243.889 56.1263 243.396 56.4548 243.279 56.9331C243.161 57.4114 243.462 57.8599 243.951 57.9327C251.92 59.1194 259.793 60.9357 267.353 63.3388C267.727 63.4617 268.145 63.3136 268.396 63.0098L268.397 63.0187Z" fill="#C7C0F3"/>
<path d="M259.644 57.1474C259.718 57.0587 259.776 56.9588 259.81 56.8492C259.97 56.3796 259.716 55.9076 259.239 55.7927C253.504 54.393 247.564 53.4884 241.585 53.0929C241.091 53.0578 240.627 53.4214 240.553 53.9045C240.475 54.3839 240.815 54.8014 241.313 54.8314C247.191 55.2201 253.03 56.1091 258.663 57.4841C259.023 57.5722 259.411 57.4291 259.644 57.1474Z" fill="#C7C0F3"/>
<path d="M262.976 55.3327C263.02 55.2805 263.058 55.2245 263.09 55.1559C263.32 54.7111 263.148 54.1983 262.703 54.0145C255.394 50.9827 247.185 49.6001 238.962 50.0215C238.458 50.0468 238.045 50.4572 238.028 50.9408C238.012 51.4245 238.405 51.7888 238.904 51.7688C246.862 51.3622 254.8 52.697 261.867 55.6354C262.252 55.7923 262.704 55.6618 262.972 55.338L262.976 55.3327Z" fill="#C7C0F3"/>
<path d="M249.928 48.7029C250.018 48.5936 250.088 48.4606 250.119 48.3247C250.23 47.8461 249.927 47.4061 249.442 47.3428C245.019 46.7231 240.496 46.3227 235.992 46.1452C235.496 46.1243 235.048 46.4979 234.984 46.978C234.92 47.458 235.272 47.8587 235.768 47.8796C240.21 48.0534 244.676 48.4538 249.036 49.0608C249.378 49.1107 249.716 48.9577 249.928 48.7029Z" fill="#C7C0F3"/>
<path d="M255.509 47.7608C255.569 47.6877 255.62 47.607 255.655 47.5152C255.845 47.0582 255.622 46.5668 255.157 46.418C247.808 44.1396 240.105 42.7527 232.252 42.2888C231.753 42.2588 231.293 42.6268 231.224 43.1054C231.15 43.5893 231.495 44.0024 231.989 44.0287C239.694 44.4844 247.261 45.8473 254.472 48.0839C254.844 48.1975 255.262 48.0587 255.509 47.7608Z" fill="#C7C0F3"/>
<path d="M252.673 42.695C252.738 42.617 252.791 42.5227 252.831 42.4262C253.01 41.9644 252.77 41.4875 252.303 41.3537C245.282 39.3941 237.615 38.9499 230.129 40.0756C229.632 40.1542 229.257 40.5974 229.296 41.0698C229.336 41.5421 229.767 41.8667 230.264 41.7881C237.487 40.695 244.892 41.122 251.67 43.0207C252.035 43.1211 252.436 42.9808 252.677 42.6898L252.673 42.695Z" fill="#C7C0F3"/>
<path d="M244.106 37.568C244.204 37.4487 244.273 37.3072 244.303 37.1537C244.395 36.6794 244.075 36.2524 243.582 36.1997C237.89 35.6354 232.067 35.5336 226.274 35.9046C225.775 35.9386 225.364 36.3461 225.357 36.8249C225.35 37.3037 225.741 37.6655 226.24 37.6315C231.929 37.2678 237.653 37.363 243.244 37.9205C243.574 37.954 243.898 37.8081 244.1 37.5643L244.106 37.568Z" fill="#C7C0F3"/>
<path d="M229.654 61.6353C229.82 61.4345 229.897 61.1763 229.852 60.9195C228.447 53.1565 227.832 45.1701 228.011 37.1699C228.023 36.6983 227.63 36.3354 227.138 36.364C226.647 36.3925 226.234 36.8022 226.223 37.2738C226.033 45.3829 226.662 53.4789 228.086 61.3465C228.172 61.807 228.628 62.0838 229.121 61.9655C229.334 61.9141 229.521 61.7949 229.654 61.6353Z" fill="#C7C0F3"/>
<path d="M232.651 62.6312C232.8 62.4513 232.884 62.2147 232.864 61.9767C232.181 55.2413 231.927 48.3576 232.106 41.5262C232.118 41.0553 231.725 40.693 231.234 40.7215C230.743 40.75 230.326 41.1554 230.32 41.6299C230.138 48.5334 230.392 55.4839 231.085 62.2847C231.134 62.7505 231.569 63.0614 232.06 62.9749C232.301 62.9367 232.511 62.8009 232.655 62.6261L232.651 62.6312Z" fill="#C7C0F3"/>
<path d="M235.533 57.7091C235.682 57.5295 235.761 57.3075 235.746 57.0737C235.487 53.8481 235.621 50.556 236.147 47.2955C236.224 46.8243 235.89 46.4138 235.404 46.3792C234.918 46.3446 234.461 46.7021 234.383 47.1733C233.84 50.5613 233.699 53.9883 233.969 57.3458C234.009 57.8119 234.434 58.1323 234.929 58.0497C235.179 58.0102 235.392 57.8783 235.541 57.6988L235.533 57.7091Z" fill="#C7C0F3"/>
<path d="M239.857 77.4294C239.985 77.2755 240.063 77.0849 240.073 76.8783L240.687 51.8374C240.699 51.3676 240.308 51.0061 239.818 51.0346C239.328 51.063 238.917 51.4711 238.905 51.9409L238.291 76.9818C238.279 77.4516 238.671 77.8131 239.161 77.7846C239.441 77.7671 239.691 77.6294 239.862 77.4242L239.857 77.4294Z" fill="#C7C0F3"/>
<path d="M244.557 75.8782C244.71 75.6932 244.793 75.4567 244.764 75.2203C244.075 68.8543 243.896 62.3497 244.231 55.8753C244.256 55.398 243.877 55.0292 243.381 55.0452C242.884 55.0612 242.467 55.4576 242.441 55.935C242.104 62.4989 242.282 69.0932 242.983 75.5421C243.031 76.0078 243.471 76.3134 243.961 76.2269C244.197 76.1851 244.407 76.0581 244.552 75.8834L244.557 75.8782Z" fill="#C7C0F3"/>
<path d="M248.363 80.2992C248.512 80.1194 248.591 79.8969 248.576 79.6627C248.09 73.5298 247.969 67.2679 248.214 61.0596C248.235 60.5875 247.847 60.2203 247.355 60.24C246.864 60.2596 246.447 60.6648 246.426 61.1369C246.173 67.4134 246.3 73.7371 246.791 79.9316C246.831 80.3986 247.257 80.7196 247.752 80.6368C248.003 80.5972 248.217 80.4651 248.366 80.2853L248.363 80.2992Z" fill="#C7C0F3"/>
<path d="M252.229 91.0297C252.391 90.8348 252.468 90.5863 252.433 90.3378C251.226 82.4968 251.394 74.4606 252.943 66.4467C253.035 65.9776 252.718 65.5553 252.226 65.5082C251.744 65.4597 251.276 65.8011 251.18 66.2754C249.595 74.4776 249.424 82.7015 250.656 90.7258C250.723 91.1876 251.179 91.4722 251.667 91.3682C251.892 91.3192 252.084 91.1953 252.22 91.0312L252.229 91.0297Z" fill="#C7C0F3"/>
<path d="M255.596 90.4995C255.737 90.3304 255.817 90.1174 255.808 89.8962C255.538 83.6072 255.872 77.2093 256.798 70.8826C256.866 70.4132 256.527 70.0081 256.038 69.9787C255.553 69.9529 255.101 70.3138 255.029 70.7883C254.089 77.2197 253.749 83.7209 254.023 90.1117C254.044 90.5804 254.456 90.9159 254.947 90.856C255.207 90.8238 255.435 90.6943 255.592 90.5047L255.596 90.4995Z" fill="#C7C0F3"/>
<path d="M259.827 93.2517C259.975 93.0722 260.055 92.8502 260.04 92.6165C259.631 87.3444 259.857 81.9765 260.709 76.6564C260.786 76.1853 260.452 75.775 259.966 75.7404C259.481 75.7058 259.024 76.0632 258.946 76.5342C258.072 81.9869 257.844 87.4845 258.259 92.8849C258.298 93.3508 258.724 93.6711 259.214 93.5936C259.463 93.5541 259.677 93.4223 259.826 93.2429L259.827 93.2517Z" fill="#C7C0F3"/>
<path d="M263.764 98.3563C263.922 98.1665 264.004 97.9216 263.969 97.673C263.217 92.1693 263.303 86.5288 264.226 80.9163C264.303 80.4448 263.968 80.0341 263.482 79.9995C262.996 79.9649 262.539 80.3226 262.461 80.7941C261.511 86.5759 261.42 92.3777 262.199 98.042C262.262 98.5091 262.714 98.7989 263.198 98.7001C263.428 98.6547 263.624 98.5257 263.76 98.3615L263.764 98.3563Z" fill="#C7C0F3"/>
<path d="M268.009 107.126C268.171 106.931 268.253 106.686 268.213 106.433C267.219 99.7376 267.065 92.8644 267.771 86.0026C267.82 85.5261 267.458 85.1368 266.97 85.1337C266.476 85.127 266.039 85.5086 265.994 85.98C265.276 92.9821 265.428 99.994 266.443 106.82C266.51 107.283 266.962 107.573 267.451 107.469C267.677 107.42 267.868 107.296 268.005 107.132L268.009 107.126Z" fill="#C7C0F3"/>
<path d="M272.561 106.751C272.74 106.534 272.819 106.244 272.75 105.977C271.386 100.773 270.762 95.3569 270.888 89.8765C270.9 89.4042 270.506 89.0409 270.014 89.0695C269.521 89.0981 269.108 89.5083 269.096 89.9806C268.96 95.6105 269.606 101.175 271.005 106.522C271.123 106.974 271.61 107.215 272.092 107.062C272.28 107.001 272.445 106.89 272.565 106.746L272.561 106.751Z" fill="#C7C0F3"/>
<path d="M278.969 121.291C279.131 121.095 279.213 120.84 279.173 120.587C277.935 113.14 277.176 105.506 276.927 97.8899C276.915 97.4171 276.501 97.0798 276.002 97.1363C275.507 97.1877 275.119 97.6161 275.136 98.0925C275.386 105.776 276.147 113.486 277.4 121.002C277.476 121.464 277.938 121.745 278.428 121.632C278.649 121.579 278.837 121.459 278.974 121.294L278.969 121.291Z" fill="#C7C0F3"/>
<path d="M282.184 118.356C282.364 118.14 282.443 117.85 282.373 117.583C281.281 113.41 280.884 109.06 281.19 104.661C281.221 104.186 280.849 103.806 280.356 103.817C279.863 103.828 279.434 104.218 279.404 104.693C279.085 109.273 279.496 113.8 280.636 118.14C280.754 118.591 281.241 118.832 281.722 118.68C281.91 118.619 282.075 118.508 282.19 118.369L282.184 118.356Z" fill="#C7C0F3"/>
<path d="M286.533 122.798C286.713 122.581 286.793 122.3 286.722 122.025C285.846 118.573 285.505 114.983 285.702 111.358C285.727 110.879 285.348 110.509 284.85 110.526C284.352 110.542 283.934 110.939 283.908 111.417C283.702 115.21 284.062 118.963 284.974 122.565C285.092 123.016 285.575 123.262 286.052 123.115C286.245 123.058 286.405 122.943 286.524 122.799L286.533 122.798Z" fill="#C7C0F3"/>
<path d="M223.793 53.2534C223.938 53.0794 224.022 52.8614 224.003 52.6331C223.64 46.578 224.122 40.4339 225.424 34.3646C225.524 33.8949 225.212 33.4683 224.735 33.4148C224.253 33.3575 223.781 33.6947 223.684 34.1592C222.348 40.3763 221.861 46.6725 222.231 52.8733C222.261 53.34 222.682 53.665 223.168 53.6015C223.422 53.5657 223.645 53.4327 223.793 53.2534Z" fill="#C7C0F3"/>
<path d="M167.143 93.3436C166.983 93.3077 166.846 93.2098 166.754 93.0614C151.091 66.1956 137.94 37.2627 127.678 7.06501C127.546 6.68272 127.764 6.20886 128.156 6.01146C128.551 5.80842 128.976 5.95884 129.102 6.33997C139.337 36.4585 152.445 65.3088 168.066 92.1043C168.261 92.4463 168.128 92.9331 167.765 93.2041C167.562 93.3529 167.335 93.399 167.134 93.3537L167.143 93.3436Z" fill="#A088BF"/>
<path d="M138.701 72.3981C138.418 72.3285 138.243 72.0312 138.29 71.6787C139.403 63.5912 141.36 55.5034 144.108 47.6271C144.248 47.2281 144.625 46.9628 144.962 47.0746C145.296 47.1681 145.453 47.565 145.318 47.9651C142.608 55.7237 140.679 63.697 139.581 71.6613C139.526 72.0694 139.187 72.408 138.832 72.413C138.783 72.4126 138.741 72.408 138.696 72.397L138.701 72.3981Z" fill="#A088BF"/>
<path d="M143.051 62.8158C142.727 62.7363 142.555 62.3703 142.664 61.9753C143.578 58.6857 144.69 55.3985 145.976 52.2006C146.134 51.8059 146.525 51.5781 146.854 51.6996C147.181 51.8145 147.318 52.2296 147.155 52.6231C145.896 55.7526 144.805 58.9755 143.912 62.201C143.799 62.6067 143.431 62.8861 143.087 62.8247C143.073 62.8213 143.064 62.8191 143.051 62.8158Z" fill="#A088BF"/>
<path d="M144.093 74.0338C143.775 73.9554 143.602 73.5951 143.705 73.2046L148.272 56.0135C148.38 55.607 148.748 55.3225 149.093 55.3785C149.432 55.4335 149.629 55.8111 149.521 56.2176L144.953 73.4087C144.845 73.8152 144.477 74.0998 144.133 74.0437C144.12 74.0404 144.106 74.0371 144.093 74.0338Z" fill="#A088BF"/>
<path d="M149.349 79.9623C149.076 79.8978 148.892 79.6325 148.913 79.2994C149.322 73.1115 150.217 66.8403 151.578 60.6447C151.666 60.2341 152.041 59.9207 152.405 59.9545C152.77 59.9883 152.999 60.3458 152.907 60.7553C151.565 66.8623 150.677 73.0535 150.276 79.1559C150.248 79.5691 149.922 79.9348 149.543 79.9734C149.475 79.9805 149.405 79.9757 149.344 79.9612L149.349 79.9623Z" fill="#A088BF"/>
<path d="M153.005 76.6144C152.709 76.5452 152.522 76.2497 152.567 75.8917L153.998 65.3415C154.052 64.9271 154.406 64.5831 154.79 64.5737C155.169 64.5631 155.431 64.8938 155.376 65.3136L153.944 75.8638C153.89 76.2782 153.537 76.6223 153.153 76.6317C153.102 76.6313 153.052 76.6256 153.005 76.6144Z" fill="#A088BF"/>
<path d="M154.98 89.4902C154.684 89.4201 154.497 89.1194 154.554 88.7543L157.403 69.954C157.467 69.5381 157.816 69.2074 158.192 69.2035C158.562 69.2038 158.814 69.5375 158.754 69.9545L155.906 88.7547C155.842 89.1706 155.492 89.5013 155.116 89.5052C155.07 89.506 155.026 89.5014 154.98 89.4902Z" fill="#A088BF"/>
<path d="M159.629 87.8655C159.327 87.7951 159.138 87.4873 159.195 87.1257C159.821 83.1495 160.232 79.9837 160.483 75.5626C160.507 75.1465 160.839 74.7791 161.221 74.7337C161.608 74.6895 161.897 74.9914 161.875 75.4021C161.616 79.8743 161.185 83.2051 160.566 87.1303C160.501 87.5484 160.14 87.8797 159.763 87.8794C159.717 87.8802 159.672 87.8756 159.629 87.8655Z" fill="#A088BF"/>
<path d="M169.517 98.0828C169.288 98.0307 169.108 97.853 169.065 97.5933C168.404 93.8513 167.986 89.9806 167.816 86.0949C167.799 85.6809 168.103 85.2745 168.509 85.1887C168.91 85.1018 169.248 85.3632 169.264 85.7772C169.429 89.6022 169.843 93.4067 170.494 97.0868C170.565 97.4834 170.303 97.9233 169.905 98.0643C169.77 98.1109 169.637 98.1222 169.518 98.095L169.517 98.0828Z" fill="#A088BF"/>
<path d="M164.617 97.4675C164.379 97.4125 164.201 97.2124 164.166 96.9335C163.614 91.7714 163.707 86.4287 164.438 81.0627C164.493 80.6455 164.854 80.2992 165.241 80.2885C165.626 80.2833 165.896 80.6107 165.841 81.0279C165.132 86.2694 165.044 91.4777 165.58 96.5185C165.624 96.9231 165.343 97.341 164.953 97.4511C164.837 97.4831 164.726 97.4868 164.619 97.4621L164.617 97.4675Z" fill="#A088BF"/>
<path d="M136.384 63.3986C136.09 63.3258 135.915 63.0054 135.987 62.6365C137.21 56.0742 139.004 49.5151 141.309 43.1461C141.452 42.7488 141.821 42.4999 142.165 42.6084C142.493 42.7072 142.641 43.113 142.498 43.5103C140.223 49.7886 138.461 56.2462 137.254 62.7143C137.179 63.1228 136.832 63.4404 136.484 63.4175C136.451 63.4151 136.418 63.4127 136.387 63.405L136.384 63.3986Z" fill="#A088BF"/>
<path d="M137.126 48.5356C136.839 48.4668 136.652 48.1721 136.702 47.8121C137.108 44.8288 137.839 41.8358 138.869 38.9204C139.007 38.5233 139.396 38.2735 139.739 38.3557C139.739 38.3557 139.748 38.3579 139.753 38.359C140.099 38.4477 140.266 38.848 140.12 39.2548C139.134 42.0529 138.434 44.9252 138.04 47.7954C137.983 48.206 137.638 48.5478 137.271 48.5528C137.221 48.5525 137.173 48.5468 137.126 48.5356Z" fill="#A088BF"/>
<path d="M133.286 56.6504C132.999 56.5806 132.817 56.2816 132.873 55.9186C133.894 49.135 135.398 42.3063 137.351 35.6099C137.47 35.2044 137.845 34.9307 138.194 34.9923C138.532 35.057 138.726 35.44 138.611 35.8466C136.681 42.4616 135.193 49.2129 134.182 55.9182C134.12 56.3316 133.78 56.6603 133.416 56.6588C133.372 56.6596 133.329 56.655 133.288 56.645L133.286 56.6504Z" fill="#A088BF"/>
<path d="M131.771 47.8769C131.472 47.8029 131.299 47.4716 131.372 47.0971C132.394 42.1529 133.796 37.2103 135.535 32.4032C135.679 32.0056 136.046 31.75 136.395 31.8651C136.725 31.9639 136.875 32.3647 136.732 32.7623C135.02 37.4839 133.646 42.3409 132.639 47.1963C132.555 47.6029 132.203 47.9143 131.851 47.8849C131.824 47.8783 131.795 47.877 131.768 47.8704L131.771 47.8769Z" fill="#A088BF"/>
<path d="M128.931 49.7736C128.666 49.7084 128.491 49.44 128.517 49.1055C129.027 42.3922 130.897 35.5214 133.917 29.2274C134.1 28.8446 134.503 28.6544 134.815 28.8004C135.127 28.9464 135.23 29.3763 135.047 29.759C132.126 35.8402 130.319 42.4895 129.823 48.9808C129.792 49.3893 129.474 49.7507 129.113 49.7835C129.048 49.7905 128.987 49.7815 128.933 49.7682L128.931 49.7736Z" fill="#A088BF"/>
<path d="M128.326 37.4504C128 37.3698 127.832 36.9935 127.945 36.6C129.028 32.9239 130.285 29.2447 131.671 25.6608C131.824 25.2654 132.211 25.0378 132.538 25.1474C132.864 25.2569 133.006 25.6673 132.849 26.0616C131.479 29.5974 130.242 33.2295 129.172 36.8511C129.051 37.2542 128.682 37.5269 128.344 37.4548C128.335 37.4526 128.33 37.4515 128.321 37.4493L128.326 37.4504Z" fill="#A088BF"/>
<path d="M125.348 41.3681C125.062 41.2974 124.889 40.9949 124.944 40.633C125.947 34.1448 127.633 27.6691 129.952 21.3898C130.101 20.9932 130.49 20.7483 130.813 20.8568C131.143 20.9611 131.293 21.362 131.145 21.7587C128.868 27.9214 127.211 34.2772 126.227 40.6487C126.165 41.061 125.826 41.3877 125.468 41.3861C125.425 41.3869 125.383 41.3823 125.347 41.3735L125.348 41.3681Z" fill="#A088BF"/>
<path d="M122.334 37.4631C122.042 37.3912 121.863 37.0757 121.929 36.7104C123.031 30.5486 125.325 24.3847 128.564 18.8809C128.78 18.5177 129.192 18.3705 129.481 18.5571C129.77 18.7437 129.833 19.1925 129.617 19.5556C126.489 24.8672 124.276 30.814 123.213 36.7658C123.138 37.175 122.791 37.4942 122.435 37.482C122.397 37.4785 122.364 37.4762 122.328 37.4673L122.334 37.4631Z" fill="#A088BF"/>
<path d="M121.213 29.1196C120.872 29.0366 120.704 28.6367 120.841 28.2357C122.41 23.5624 124.33 18.9399 126.538 14.5031C126.727 14.1208 127.132 13.9356 127.451 14.0883C127.764 14.2399 127.862 14.6748 127.672 15.0571C125.498 19.421 123.615 23.9599 122.073 28.5529C121.94 28.9549 121.557 29.2091 121.216 29.1261L121.213 29.1196Z" fill="#A088BF"/>
<path d="M145.624 27.1057C145.538 27.0857 145.458 27.0474 145.384 26.9909C139.93 22.7804 133.98 19.1828 127.693 16.3075C127.321 16.1358 127.198 15.648 127.423 15.2147C127.648 14.7815 128.131 14.5655 128.503 14.7371C134.875 17.6519 140.909 21.2951 146.441 25.5634C146.763 25.8151 146.794 26.334 146.502 26.7254C146.275 27.0271 145.929 27.1698 145.632 27.1009L145.624 27.1057Z" fill="#A088BF"/>
<path d="M145.519 29.6726C145.449 29.6562 145.383 29.6275 145.321 29.5866C140.35 26.3846 135.091 23.512 129.686 21.0483C129.313 20.8753 129.189 20.3837 129.415 19.9471C129.641 19.5105 130.122 19.2989 130.498 19.4658C135.955 21.9482 141.267 24.8531 146.291 28.0874C146.637 28.3068 146.699 28.8238 146.434 29.2381C146.213 29.5765 145.841 29.741 145.527 29.6678L145.519 29.6726Z" fill="#A088BF"/>
<path d="M140.704 29.8832C140.639 29.868 140.578 29.8405 140.52 29.8069C138.1 28.3258 135.474 27.1745 132.709 26.3954C132.309 26.282 132.127 25.8215 132.295 25.3633C132.469 24.9064 132.945 24.6461 133.335 24.7373C136.212 25.5491 138.945 26.7454 141.463 28.2826C141.811 28.4967 141.886 29.0118 141.626 29.4288C141.408 29.7758 141.032 29.9531 140.706 29.8771L140.704 29.8832Z" fill="#A088BF"/>
<path d="M155.272 40.5667C155.228 40.5564 155.19 40.5474 155.151 40.5246L135.218 31.2532C134.842 31.0765 134.718 30.5745 134.945 30.1287C135.172 29.6829 135.662 29.4682 136.034 29.6373L155.967 38.9087C156.343 39.0854 156.467 39.5874 156.24 40.0332C156.041 40.4316 155.626 40.6506 155.272 40.5667Z" fill="#A088BF"/>
<path d="M152.314 43.4661C152.243 43.4496 152.177 43.4209 152.11 43.3787C147.424 40.3049 142.418 37.6396 137.235 35.456C136.857 35.295 136.72 34.8062 136.935 34.3664C137.15 33.9266 137.628 33.6937 138.011 33.856C143.266 36.0695 148.336 38.7697 153.089 41.8857C153.433 42.1116 153.49 42.6282 153.219 43.0418C152.998 43.3808 152.628 43.5394 152.314 43.4661Z" fill="#A088BF"/>
<path d="M154.664 47.9324C154.599 47.9172 154.538 47.8897 154.479 47.8561C149.886 45.0519 145.049 42.5291 140.102 40.365C139.726 40.1976 139.595 39.7094 139.815 39.2702C140.036 38.8311 140.517 38.6053 140.893 38.7727C145.89 40.9618 150.776 43.5095 155.418 46.3448C155.766 46.5588 155.841 47.0737 155.582 47.4905C155.363 47.8373 154.987 48.0145 154.662 47.9386L154.664 47.9324Z" fill="#A088BF"/>
<path d="M162.154 54.8395C162.072 54.8202 161.995 54.7884 161.926 54.7317C156.26 50.5405 149.877 47.5479 142.95 45.8351C142.541 45.7385 142.34 45.2731 142.504 44.8063C142.662 44.3383 143.117 44.0549 143.535 44.1403C150.628 45.8855 157.161 48.9542 162.958 53.2438C163.292 53.4912 163.329 54.0256 163.045 54.4302C162.818 54.7539 162.461 54.9054 162.156 54.8333L162.154 54.8395Z" fill="#A088BF"/>
<path d="M160.641 57.1074C160.586 57.0945 160.528 57.074 160.475 57.0409C155.634 54.3057 150.457 52.0938 145.097 50.4617C144.697 50.3395 144.516 49.8629 144.697 49.3976C144.877 48.9323 145.332 48.6474 145.749 48.7735C151.199 50.4339 156.459 52.6791 161.378 55.4601C161.74 55.6612 161.829 56.1837 161.582 56.6196C161.369 56.9892 160.975 57.1801 160.643 57.1012L160.641 57.1074Z" fill="#A088BF"/>
<path d="M161.463 61.2583C161.398 61.2429 161.337 61.215 161.278 61.1809C157.306 58.7364 153 56.8451 148.467 55.5527C148.065 55.4376 147.883 54.9708 148.052 54.5063C148.227 54.0431 148.69 53.7691 149.095 53.8717C153.74 55.1974 158.155 57.1343 162.223 59.6419C162.572 59.859 162.648 60.3813 162.387 60.8039C162.173 61.157 161.79 61.3354 161.463 61.2583Z" fill="#A088BF"/>
<path d="M164.256 66.1047C164.18 66.0868 164.103 66.0553 164.038 66.0065C160.034 63.175 155.579 61.0658 150.803 59.7296C150.402 59.6153 150.214 59.1503 150.388 58.6901C150.563 58.23 151.018 57.9428 151.43 58.0597C156.346 59.4353 160.931 61.6085 165.048 64.5202C165.383 64.7593 165.433 65.2854 165.153 65.694C164.93 66.0224 164.566 66.1775 164.256 66.1047Z" fill="#A088BF"/>
<path d="M169.904 72.5648C169.823 72.5457 169.746 72.5144 169.677 72.4585C164.859 68.9686 159.547 66.1862 153.901 64.1754C153.509 64.0373 153.352 63.5557 153.551 63.1111C153.746 62.659 154.22 62.4046 154.609 62.5488C160.373 64.5937 165.78 67.4383 170.7 70.9918C171.032 71.2354 171.076 71.7569 170.791 72.1616C170.571 72.4817 170.208 72.6358 169.904 72.5648Z" fill="#A088BF"/>
<path d="M167.953 75.7972C167.851 75.7737 167.752 75.7249 167.674 75.6487C164.21 72.4866 160.277 69.9036 155.999 67.9667C155.628 67.7971 155.505 67.3153 155.729 66.8874C155.953 66.4595 156.437 66.2533 156.804 66.4156C161.204 68.4062 165.243 71.0656 168.804 74.3149C169.103 74.591 169.098 75.1081 168.782 75.4826C168.554 75.7541 168.23 75.8675 167.956 75.8044L167.953 75.7972Z" fill="#A088BF"/>
<path d="M177.599 86.04C177.518 86.0214 177.438 85.9833 177.362 85.9331C172.096 82.0074 166.493 78.4477 160.695 75.3519C160.337 75.1583 160.242 74.6598 160.486 74.2398C160.73 73.8198 161.22 73.6328 161.578 73.8265C167.429 76.9541 173.09 80.5468 178.402 84.5092C178.73 84.7548 178.761 85.271 178.474 85.6617C178.252 85.9691 177.9 86.1098 177.599 86.04Z" fill="#A088BF"/>
<path d="M174.298 87.2375C174.195 87.2139 174.096 87.1651 174.018 87.0887C171.235 84.5464 168.032 82.5627 164.505 81.1792C164.12 81.0322 163.984 80.5532 164.187 80.1196C164.39 79.6861 164.866 79.4519 165.251 79.5988C168.922 81.0351 172.254 83.1003 175.146 85.7457C175.445 86.0222 175.44 86.5401 175.124 86.9151C174.896 87.1871 174.572 87.3006 174.298 87.2375Z" fill="#A088BF"/>
<path d="M176.491 92.0976C176.389 92.0742 176.295 92.0268 176.215 91.9567C173.905 89.8937 171.278 88.2426 168.395 87.0627C168.02 86.9056 167.882 86.4343 168.092 85.9976C168.305 85.5682 168.784 85.342 169.159 85.4992C172.168 86.7338 174.921 88.4589 177.331 90.6161C177.632 90.8857 177.63 91.4088 177.316 91.7765C177.089 92.0474 176.763 92.1665 176.484 92.1024L176.491 92.0976Z" fill="#A088BF"/>
<path d="M141.103 19.5292C141.043 19.5148 140.985 19.4942 140.926 19.4595C136.296 16.7136 131.256 14.7167 125.918 13.5226C125.481 13.4182 125.295 12.9707 125.448 12.4951C125.607 12.0208 126.06 11.7058 126.472 11.7973C131.92 13.0175 137.108 15.0637 141.849 17.8838C142.207 18.0993 142.291 18.6247 142.034 19.0552C141.818 19.42 141.431 19.6075 141.098 19.5279L141.103 19.5292Z" fill="#A088BF"/>
<path d="M280.911 54.9838C280.956 54.7787 280.883 54.5699 280.712 54.4711C263.431 44.3026 244.998 35.8682 225.919 29.4093C225.677 29.3283 225.395 29.4797 225.291 29.7499C225.186 30.0202 225.295 30.3065 225.536 30.3875C244.564 36.8282 262.949 45.2374 280.179 55.3801C280.397 55.5079 280.695 55.4084 280.841 55.1589C280.875 55.1018 280.898 55.0435 280.91 54.9876L280.911 54.9838Z" fill="#A088BF"/>
<path d="M267.246 36.2033C267.257 36.1566 267.261 36.1055 267.258 36.0571C267.242 35.7893 267.018 35.6135 266.758 35.662C261.638 36.6212 256.555 38.2164 251.66 40.3964C251.41 40.5089 251.272 40.7981 251.352 41.0444C251.427 41.2939 251.694 41.4049 251.941 41.2919C256.766 39.1438 261.77 37.5756 266.818 36.6295C267.031 36.5898 267.199 36.4116 267.246 36.2033Z" fill="#A088BF"/>
<path d="M261.275 39.1605C261.291 39.0899 261.291 39.0137 261.276 38.9429C261.22 38.6928 260.968 38.5598 260.718 38.6484C258.679 39.3706 256.649 40.2355 254.69 41.2289C254.449 41.3513 254.324 41.6442 254.415 41.8805C254.506 42.1168 254.776 42.2122 255.017 42.0898C256.937 41.1169 258.926 40.2686 260.924 39.5595C261.103 39.4948 261.235 39.337 261.275 39.1605Z" fill="#A088BF"/>
<path d="M268.507 39.2711C268.523 39.1997 268.526 39.1266 268.51 39.0585C268.457 38.8022 268.208 38.6645 267.953 38.7537L257.201 42.4342C256.947 42.5199 256.786 42.8009 256.84 43.0537C256.893 43.31 257.145 43.4481 257.397 43.3584L268.149 39.6779C268.332 39.6164 268.469 39.4536 268.51 39.2715L268.507 39.2711Z" fill="#A088BF"/>
<path d="M272.513 42.2809C272.521 42.2479 272.525 42.2109 272.527 42.1734C272.532 41.8993 272.326 41.6962 272.062 41.7228C268.131 42.1221 264.166 42.8784 260.273 43.9713C260.012 44.0436 259.836 44.3185 259.874 44.5868C259.912 44.8551 260.154 45.0101 260.414 44.9378C264.251 43.8604 268.161 43.1159 272.039 42.7211C272.267 42.6975 272.459 42.5111 272.51 42.2805L272.513 42.2809Z" fill="#A088BF"/>
<path d="M270.51 44.5369C270.521 44.4896 270.525 44.4414 270.522 44.3923C270.509 44.121 270.285 43.939 270.024 43.9846L263.385 45.1764C263.124 45.2219 262.923 45.4811 262.936 45.7524C262.949 46.0236 263.173 46.2056 263.434 46.1601L270.073 44.9683C270.287 44.9281 270.46 44.7477 270.507 44.5365L270.51 44.5369Z" fill="#A088BF"/>
<path d="M278.834 45.1347C278.845 45.0836 278.85 45.0315 278.847 44.9823C278.827 44.7093 278.601 44.534 278.338 44.587L266.467 46.9668C266.204 47.0198 266.01 47.2807 266.029 47.5537C266.049 47.8267 266.275 48.002 266.538 47.949L278.409 45.5692C278.621 45.5284 278.79 45.3471 278.837 45.1351L278.834 45.1347Z" fill="#A088BF"/>
<path d="M277.975 47.9294C277.987 47.8781 277.991 47.8259 277.986 47.7725C277.966 47.5022 277.737 47.3223 277.477 47.3759C274.975 47.8901 272.981 48.2355 270.181 48.4894C269.917 48.5123 269.699 48.7596 269.69 49.0337C269.681 49.3114 269.887 49.5149 270.15 49.4919C272.983 49.2346 275.082 48.8688 277.551 48.3617C277.764 48.3171 277.929 48.1384 277.975 47.9294Z" fill="#A088BF"/>
<path d="M284.902 53.4378C284.963 53.1496 284.813 52.8856 284.564 52.8397C282.152 52.4147 279.673 52.1715 277.195 52.1112C276.932 52.1038 276.688 52.3387 276.653 52.6425C276.615 52.9418 276.801 53.1863 277.064 53.1937C279.501 53.2484 281.938 53.4899 284.309 53.9093C284.564 53.9562 284.829 53.7527 284.898 53.4575C284.9 53.4496 284.901 53.4456 284.902 53.4378Z" fill="#A088BF"/>
<path d="M284.318 50.5503C284.318 50.5503 284.32 50.5389 284.322 50.5313C284.377 50.2464 284.21 49.9948 283.951 49.9726C280.628 49.6587 277.224 49.8171 273.84 50.4376C273.576 50.485 273.374 50.7545 273.386 51.0365C273.399 51.3186 273.626 51.5079 273.889 51.4606C277.193 50.8529 280.514 50.7031 283.758 51.0067C284.013 51.0323 284.261 50.8272 284.321 50.5507L284.318 50.5503Z" fill="#A088BF"/>
<path d="M261.391 35.2073C261.404 35.1502 261.406 35.0919 261.398 35.0358C261.367 34.7751 261.134 34.6138 260.875 34.6767C256.742 35.7004 252.642 37.1465 248.69 38.9781C248.443 39.0939 248.309 39.3817 248.392 39.6269C248.475 39.8722 248.737 39.9784 248.985 39.8626C252.879 38.0569 256.915 36.6321 260.989 35.6231C261.19 35.5749 261.347 35.4036 261.391 35.2073Z" fill="#A088BF"/>
<path d="M251.911 36.4091C251.922 36.3627 251.925 36.3154 251.922 36.2674C251.906 36.0011 251.684 35.8227 251.428 35.8713C249.553 36.2129 247.689 36.7834 245.89 37.5713C245.641 37.6796 245.503 37.9706 245.579 38.2151C245.655 38.4632 245.917 38.5731 246.166 38.4648C247.891 37.7117 249.681 37.1614 251.48 36.8324C251.693 36.7929 251.864 36.6162 251.911 36.4091Z" fill="#A088BF"/>
<path d="M256.966 33.7834C256.978 33.733 256.982 33.6817 256.977 33.6291C256.957 33.3599 256.729 33.1867 256.471 33.2394C252.185 34.1003 247.892 35.3232 243.712 36.8752C243.459 36.9693 243.301 37.2532 243.362 37.5091C243.422 37.7649 243.677 37.897 243.931 37.803C248.065 36.2711 252.307 35.0602 256.541 34.2078C256.752 34.1676 256.917 33.9883 256.964 33.7794L256.966 33.7834Z" fill="#A088BF"/>
<path d="M251.284 33.2134C251.297 33.1529 251.301 33.0911 251.29 33.0312C251.253 32.7703 251.015 32.6162 250.757 32.6864C247.655 33.5246 244.575 34.6473 241.601 36.0175C241.355 36.1295 241.22 36.4201 241.303 36.6647C241.382 36.9088 241.648 37.0152 241.895 36.8997C244.819 35.5525 247.847 34.4489 250.894 33.6258C251.088 33.5733 251.24 33.4056 251.284 33.2134Z" fill="#A088BF"/>
<path d="M252.393 31.4986C252.401 31.4629 252.406 31.4267 252.405 31.3862C252.406 31.1184 252.198 30.9234 251.939 30.9533C247.677 31.4403 243.386 32.9333 239.529 35.2738C239.293 35.4168 239.194 35.7165 239.305 35.947C239.415 36.1775 239.694 36.2454 239.929 36.106C243.661 33.8417 247.811 32.397 251.933 31.9293C252.157 31.9022 252.342 31.7235 252.392 31.5021L252.393 31.4986Z" fill="#A088BF"/>
<path d="M244.469 31.6386C244.486 31.5645 244.487 31.4847 244.469 31.4135C244.405 31.1624 244.152 31.0366 243.904 31.1326C241.628 31.9888 239.358 32.9726 237.152 34.0551C236.909 34.1736 236.785 34.463 236.871 34.7024C236.958 34.9419 237.225 35.0368 237.468 34.9183C239.644 33.8501 241.886 32.881 244.129 32.0353C244.305 31.9701 244.43 31.8115 244.469 31.6386Z" fill="#A088BF"/>
<path d="M246.871 29.7472C246.882 29.6971 246.887 29.6462 246.881 29.594C246.861 29.3304 246.633 29.1585 246.372 29.2104C242.275 30.061 238.225 31.4215 234.329 33.2534C234.081 33.3695 233.95 33.6619 234.034 33.9041C234.117 34.1498 234.384 34.2532 234.628 34.1367C238.451 32.3396 242.429 31.0034 246.451 30.1689C246.658 30.125 246.825 29.951 246.871 29.7472Z" fill="#A088BF"/>
<path d="M244.202 28.0887C244.214 28.0359 244.217 27.9783 244.213 27.9233C244.186 27.6628 243.954 27.5035 243.697 27.5621C239.849 28.467 236.06 30.2417 232.742 32.698C232.522 32.8627 232.45 33.1653 232.585 33.3741C232.719 33.5829 233.006 33.6221 233.225 33.4574C236.425 31.0842 240.083 29.3694 243.801 28.4989C244 28.4512 244.159 28.2825 244.203 28.0852L244.202 28.0887Z" fill="#A088BF"/>
<path d="M238.795 27.7952C238.813 27.7145 238.811 27.6313 238.788 27.5527C238.717 27.3094 238.459 27.1945 238.21 27.2969C235.345 28.5023 232.529 29.9554 229.843 31.6194C229.612 31.7638 229.514 32.0582 229.628 32.2815C229.741 32.5047 230.017 32.5715 230.248 32.4271C232.886 30.7932 235.652 29.3627 238.468 28.1801C238.634 28.1106 238.754 27.9596 238.791 27.7947L238.795 27.7952Z" fill="#A088BF"/>
<path d="M238.057 42.5689C238.088 42.4342 238.062 42.296 237.978 42.1897C235.43 38.9848 233.204 35.4754 231.353 31.7567C231.244 31.5372 230.969 31.4711 230.742 31.6098C230.515 31.7486 230.418 32.0421 230.527 32.2616C232.4 36.0328 234.66 39.5889 237.242 42.8371C237.394 43.0265 237.678 43.0369 237.884 42.8565C237.973 42.7787 238.033 42.6761 238.057 42.5689Z" fill="#A088BF"/>
<path d="M239.757 42.3329C239.785 42.2123 239.767 42.0825 239.7 41.9785C237.748 39.0642 235.964 35.9724 234.398 32.7943C234.29 32.5753 234.016 32.5094 233.79 32.6478C233.564 32.7862 233.464 33.0785 233.575 33.2978C235.157 36.5098 236.958 39.6321 238.93 42.5737C239.066 42.7749 239.348 42.8063 239.56 42.6414C239.665 42.5623 239.732 42.4466 239.758 42.3294L239.757 42.3329Z" fill="#A088BF"/>
<path d="M239.914 39.3929C239.941 39.2728 239.926 39.1509 239.862 39.0477C238.963 37.637 238.234 36.0958 237.697 34.4692C237.62 34.2338 237.363 34.1312 237.125 34.2391C236.887 34.3471 236.757 34.6273 236.833 34.8627C237.392 36.5521 238.151 38.1569 239.087 39.6251C239.218 39.8284 239.496 39.8667 239.711 39.7028C239.819 39.621 239.889 39.5062 239.916 39.3861L239.914 39.3929Z" fill="#A088BF"/>
<path d="M246.999 47.5176C247.022 47.4146 247.013 47.3076 246.968 47.2103L241.229 35.5899C241.121 35.3718 240.849 35.3061 240.624 35.444C240.399 35.5818 240.303 35.8734 240.41 36.0915L246.15 47.7119C246.258 47.9299 246.53 47.9956 246.755 47.8578C246.883 47.7785 246.969 47.6515 247 47.5142L246.999 47.5176Z" fill="#A088BF"/>
<path d="M248.867 45.6875C248.895 45.5635 248.878 45.4338 248.807 45.3329C246.942 42.5903 245.286 39.6541 243.881 36.6005C243.778 36.3752 243.509 36.3028 243.277 36.4368C243.045 36.5709 242.943 36.8592 243.046 37.0845C244.472 40.1797 246.149 43.1574 248.039 45.9351C248.175 46.1361 248.457 46.1641 248.669 45.9992C248.771 45.9198 248.84 45.808 248.866 45.6909L248.867 45.6875Z" fill="#A088BF"/>
<path d="M251.835 46.8514C251.862 46.7309 251.846 46.6086 251.783 46.5051C250.071 43.8181 248.502 40.9789 247.119 38.0709C247.015 37.8492 246.742 37.7799 246.514 37.9143C246.285 38.0487 246.186 38.3407 246.29 38.5624C247.685 41.5038 249.272 44.37 251.001 47.0839C251.132 47.2878 251.412 47.3261 251.627 47.1618C251.736 47.0798 251.806 46.9646 251.833 46.8441L251.835 46.8514Z" fill="#A088BF"/>
<path d="M256.42 50.9244C256.45 50.794 256.427 50.6605 256.35 50.5557C253.89 47.2735 252.034 43.5511 250.837 39.4872C250.767 39.2491 250.515 39.1365 250.271 39.2403C250.031 39.341 249.892 39.6167 249.961 39.8582C251.187 44.0175 253.087 47.8264 255.603 51.1862C255.746 51.3805 256.03 51.3947 256.236 51.2227C256.331 51.1427 256.391 51.0373 256.416 50.9275L256.42 50.9244Z" fill="#A088BF"/>
<path d="M257.914 49.8939C257.939 49.7808 257.926 49.6629 257.869 49.5641C256.229 46.7553 254.848 43.7427 253.764 40.6121C253.684 40.38 253.426 40.281 253.188 40.3922C252.953 40.5039 252.826 40.7841 252.906 41.0196C254.008 44.2018 255.411 47.263 257.077 50.1173C257.2 50.3264 257.475 50.3749 257.693 50.2223C257.808 50.1415 257.884 50.0242 257.913 49.8973L257.914 49.8939Z" fill="#A088BF"/>
<path d="M260.671 50.1837C260.699 50.0637 260.683 49.9418 260.62 49.8387C259.158 47.5298 257.972 45.0157 257.095 42.3636C257.018 42.1283 256.761 42.0257 256.523 42.1336C256.285 42.2415 256.155 42.5215 256.232 42.7568C257.131 45.4751 258.346 48.0494 259.842 50.4154C259.973 50.6186 260.251 50.6568 260.464 50.4964C260.572 50.4147 260.642 50.2999 260.669 50.1799L260.671 50.1837Z" fill="#A088BF"/>
<path d="M263.871 51.6246C263.899 51.4975 263.88 51.3644 263.803 51.2595C262.121 48.9307 260.802 46.3258 259.886 43.5203C259.809 43.2847 259.551 43.1819 259.313 43.29C259.074 43.3981 258.944 43.6785 259.021 43.9142C259.964 46.8043 261.32 49.4844 263.054 51.8797C263.196 52.0776 263.48 52.0952 263.685 51.9265C263.784 51.8469 263.845 51.738 263.87 51.6281L263.871 51.6246Z" fill="#A088BF"/>
<path d="M268.155 54.694C268.185 54.5632 268.165 54.4297 268.084 54.3242C265.996 51.5088 264.263 48.3977 262.941 45.0723C262.85 44.8414 262.584 44.7553 262.351 44.8786C262.116 45.0015 262 45.288 262.093 45.5154C263.443 48.9081 265.208 52.0833 267.338 54.9535C267.482 55.1483 267.766 55.166 267.973 54.9935C268.068 54.9133 268.129 54.8076 268.154 54.6975L268.155 54.694Z" fill="#A088BF"/>
<path d="M270.252 53.4456C270.285 53.3002 270.252 53.1465 270.154 53.0418C268.242 50.9986 266.632 48.6688 265.363 46.1178C265.254 45.8977 264.978 45.8314 264.75 45.9705C264.523 46.1096 264.426 46.4038 264.534 46.6239C265.835 49.2465 267.492 51.6391 269.455 53.7385C269.621 53.9158 269.912 53.902 270.104 53.7087C270.179 53.6325 270.231 53.5392 270.253 53.4422L270.252 53.4456Z" fill="#A088BF"/>
<path d="M277.042 58.6877C277.072 58.5563 277.049 58.4182 276.968 58.3122C274.574 55.2078 272.363 51.8948 270.398 48.4595C270.278 48.2453 269.999 48.1964 269.775 48.35C269.552 48.5002 269.471 48.7962 269.595 49.0107C271.576 52.4765 273.806 55.8239 276.225 58.9562C276.373 59.149 276.661 59.1599 276.867 58.9826C276.959 58.9017 277.02 58.7989 277.045 58.6882L277.042 58.6877Z" fill="#A088BF"/>
<path d="M277.88 56.5911C277.913 56.4459 277.88 56.2925 277.782 56.1879C276.251 54.5504 275.009 52.6537 274.089 50.5552C273.988 50.3293 273.719 50.2497 273.487 50.3809C273.255 50.5121 273.145 50.8007 273.246 51.0266C274.204 53.2115 275.496 55.1856 277.09 56.8878C277.256 57.0648 277.546 57.051 277.738 56.858C277.813 56.7819 277.864 56.6888 277.886 56.5954L277.88 56.5911Z" fill="#A088BF"/>
<path d="M281.123 57.6419C281.156 57.4966 281.126 57.347 281.026 57.2385C279.773 55.8771 278.74 54.3155 277.956 52.5998C277.852 52.3735 277.581 52.3007 277.348 52.4354C277.115 52.5701 277.012 52.8596 277.116 53.0859C277.937 54.8809 279.017 56.5125 280.325 57.9339C280.49 58.111 280.78 58.1007 280.971 57.9111C281.049 57.8354 281.097 57.7418 281.119 57.6449L281.123 57.6419Z" fill="#A088BF"/>
<path d="M233.113 40.0804C233.139 39.9641 233.126 39.8429 233.062 39.7434C231.438 37.0667 230.19 34.1344 229.347 31.0274C229.281 30.787 229.032 30.6714 228.794 30.7684C228.553 30.865 228.411 31.1393 228.477 31.3763C229.339 34.5596 230.621 37.563 232.284 40.3043C232.41 40.5101 232.687 40.5516 232.901 40.3989C233.012 40.3178 233.085 40.2002 233.113 40.0804Z" fill="#A088BF"/>
</svg>
