<svg width="239" height="113" viewBox="0 0 239 113" fill="none" xmlns="http://www.w3.org/2000/svg">
<path d="M30.295 80.032C30.3186 80.2051 30.4194 80.3807 30.5761 80.5056C30.8639 80.7351 31.2368 80.7175 31.4142 80.4663C45.3103 60.7915 61.3372 42.6302 79.0415 26.4861C79.2652 26.2827 79.2475 25.8974 78.9931 25.627C78.7448 25.3591 78.3586 25.304 78.1348 25.5075C60.3835 41.6932 44.3145 59.9046 30.3785 79.6336C30.3013 79.7462 30.2759 79.8832 30.294 80.022L30.295 80.032Z" fill="#C7C0F3"/>
<path d="M35.5458 51.9425C35.5524 51.9869 35.5627 52.0296 35.5791 52.0749C35.7003 52.4103 36.0486 52.6298 36.3666 52.5735C42.4702 51.4193 48.8487 51.0424 55.3322 51.4601C55.666 51.4809 55.9024 51.2242 55.8598 50.8856C55.8211 50.5454 55.5131 50.2556 55.1792 50.2348C48.6047 49.8153 42.1276 50.1936 35.9351 51.366C35.662 51.4182 35.5095 51.6642 35.5482 51.9466L35.5458 51.9425Z" fill="#C7C0F3"/>
<path d="M43.7473 52.6789C43.7473 52.6789 43.7516 52.7026 43.7526 52.7124C43.8175 53.0427 44.1387 53.3071 44.4614 53.2992C47.0461 53.2501 49.6905 53.3849 52.3173 53.6915C52.6487 53.731 52.8992 53.4933 52.8736 53.1663C52.8504 52.8433 52.5622 52.5389 52.2331 52.5035C49.5511 52.1903 46.8538 52.053 44.2162 52.0996C43.901 52.1043 43.6993 52.3616 43.7449 52.6748L43.7473 52.6789Z" fill="#C7C0F3"/>
<path d="M35.5754 56.0654C35.5754 56.0654 35.5822 56.0937 35.5856 56.1078C35.6576 56.4463 35.9835 56.7096 36.3069 56.6977L50.1584 56.2815C50.488 56.2721 50.6931 55.9889 50.6198 55.6562C50.5478 55.3176 50.2219 55.0543 49.8985 55.0662L36.0469 55.4825C35.7311 55.4911 35.5314 55.751 35.5778 56.0695L35.5754 56.0654Z" fill="#C7C0F3"/>
<path d="M32.4752 61.4226C32.4854 61.4827 32.5018 61.5454 32.5282 61.609C32.6765 61.9468 33.0418 62.1446 33.3497 62.0556C37.8783 60.7396 42.623 59.8388 47.4534 59.3846C47.7791 59.3523 47.969 59.0467 47.8738 58.7014C47.7785 58.3561 47.4371 58.0991 47.1114 58.1314C42.2141 58.594 37.4025 59.5031 32.8104 60.842C32.5608 60.9158 32.43 61.1573 32.4714 61.4243L32.4752 61.4226Z" fill="#C7C0F3"/>
<path d="M35.8048 63.1029C35.8114 63.148 35.8243 63.1958 35.8409 63.2418C35.9671 63.581 36.3218 63.8027 36.6358 63.7432L44.6444 62.1429C44.9598 62.0775 45.1158 61.757 44.9934 61.4161C44.8672 61.0768 44.5125 60.8552 44.1985 60.9147L36.1899 62.5149C35.9174 62.572 35.7679 62.8201 35.8048 63.1029Z" fill="#C7C0F3"/>
<path d="M26.6437 67.5635C26.6479 67.6046 26.6584 67.6483 26.6726 67.6903C26.7892 68.0306 27.1459 68.2639 27.4629 68.2085L41.9251 65.629C42.2422 65.5736 42.406 65.248 42.2894 64.9076C42.1728 64.5673 41.8162 64.334 41.4991 64.3894L27.0369 66.9689C26.759 67.0176 26.5979 67.2722 26.6437 67.5635Z" fill="#C7C0F3"/>
<path d="M28.9462 70.408C28.9505 70.4492 28.9648 70.4914 28.979 70.5335C29.0958 70.8747 29.449 71.1104 29.7702 71.0532C32.7857 70.5312 35.3123 70.0066 38.6018 69.0066C38.9073 68.9133 39.0313 68.567 38.8792 68.2307C38.727 67.8945 38.3579 67.6983 38.0524 67.7916C34.7997 68.7805 32.392 69.279 29.3436 69.8103C29.0654 69.859 28.9041 70.1143 28.9462 70.408Z" fill="#C7C0F3"/>
<path d="M23.7461 79.9319C23.762 80.0469 23.8083 80.1647 23.8854 80.2685C24.1066 80.5792 24.499 80.6955 24.7589 80.5221C27.19 78.919 29.7784 77.4945 32.4534 76.2862C32.7418 76.1553 32.8282 75.7828 32.6406 75.4458C32.4554 75.1133 32.0701 74.9493 31.7817 75.0802C29.0605 76.3094 26.426 77.7549 23.9575 79.386C23.7839 79.4981 23.713 79.7081 23.7436 79.9274L23.7461 79.9319Z" fill="#C7C0F3"/>
<path d="M22.9945 76.3926C23.0069 76.4932 23.046 76.5985 23.1082 76.6932C23.3132 77.0194 23.7009 77.1617 23.9774 77.0077C27.4481 75.0962 31.2367 73.7056 35.2416 72.8878C35.5613 72.8205 35.7159 72.4815 35.5865 72.1264C35.4571 71.7713 35.0964 71.5385 34.7767 71.6058C30.6732 72.4461 26.795 73.8664 23.2368 75.829C23.044 75.9336 22.9562 76.1582 22.9907 76.3943L22.9945 76.3926Z" fill="#C7C0F3"/>
<path d="M41.7106 48.1407C41.7136 48.1706 41.7228 48.203 41.732 48.2354C41.8351 48.5704 42.1739 48.8069 42.4903 48.7667C47.5385 48.1404 52.7639 48.0352 58.0221 48.4627C58.3532 48.489 58.5972 48.241 58.5588 47.9036C58.5194 47.5563 58.2251 47.2742 57.8903 47.2496C52.549 46.817 47.2453 46.9254 42.1211 47.559C41.8296 47.5934 41.6588 47.8457 41.7044 48.1382L41.7106 48.1407Z" fill="#C7C0F3"/>
<path d="M53.0832 45.2814C53.0896 45.3254 53.0999 45.3677 53.1162 45.4125C53.2366 45.7447 53.5868 45.9602 53.901 45.9001C56.0729 45.4812 58.3393 45.3329 60.6479 45.4628C60.9801 45.4832 61.2131 45.2247 61.171 44.8894C61.171 44.8894 61.1662 44.8811 61.17 44.8794C61.1203 44.5474 60.8187 44.2689 60.4926 44.251C58.0911 44.1152 55.7266 44.2649 53.4661 44.7019C53.1943 44.7538 53.0424 44.9975 53.0845 45.2756L53.0832 45.2814Z" fill="#C7C0F3"/>
<path d="M46.1019 44.5283C46.106 44.5687 46.1201 44.6099 46.1305 44.6528C46.2458 44.9871 46.5958 45.2176 46.9144 45.1612C52.0701 44.2589 57.4165 43.7895 62.807 43.7703C63.137 43.7669 63.3517 43.4873 63.2877 43.1514C63.2212 42.8114 62.9022 42.5355 62.5722 42.5389C57.1166 42.5605 51.7076 43.0364 46.4917 43.9495C46.2157 43.9977 46.0554 44.248 46.1005 44.5341L46.1019 44.5283Z" fill="#C7C0F3"/>
<path d="M52.2893 41.2769C52.2961 41.3051 52.2967 41.3307 52.3073 41.3572C52.4002 41.69 52.7392 41.9355 53.0597 41.9037C56.8689 41.5228 60.7993 41.483 64.7478 41.7933C65.0782 41.8195 65.3194 41.5682 65.2836 41.2363C65.2501 40.9086 64.9469 40.611 64.6165 40.5849C60.5987 40.2687 56.5953 40.3042 52.7226 40.6974C52.4294 40.7276 52.2489 40.9781 52.293 41.2753L52.2893 41.2769Z" fill="#C7C0F3"/>
<path d="M50.2095 39.7847C50.2194 39.8429 50.2331 39.8995 50.2604 39.9553C50.3998 40.2798 50.7644 40.4791 51.067 40.3982C55.8929 39.0935 61.2519 38.9621 66.5708 40.0164C66.9061 40.0826 67.1792 39.8686 67.1829 39.5385C67.1865 39.2084 66.9178 38.8886 66.5825 38.8223C61.0867 37.7312 55.5413 37.8664 50.5565 39.2149C50.3077 39.2826 50.1744 39.5186 50.2133 39.7831L50.2095 39.7847Z" fill="#C7C0F3"/>
<path d="M59.3057 36.3749C59.3057 36.3749 59.309 36.3888 59.3077 36.3946C59.3688 36.7267 59.6827 36.9944 60.0064 36.9963C62.935 37.0072 65.9179 37.1687 68.885 37.4806C69.2141 37.516 69.4647 37.2783 69.4367 36.947C69.4145 36.6338 69.1214 36.3211 68.7886 36.2872C65.7859 35.9704 62.7599 35.8073 59.7906 35.7988C59.4706 35.7952 59.2553 36.0535 59.3057 36.3749Z" fill="#C7C0F3"/>
<path d="M55.6641 35.2713C55.6682 35.3113 55.6798 35.348 55.6939 35.3889C55.8047 35.7215 56.1529 35.9495 56.4725 35.8976C61.3729 35.0826 66.4871 34.8944 71.668 35.3403C72.002 35.3709 72.2463 35.1222 72.2078 34.7839C72.1778 34.4523 71.8735 34.1527 71.542 34.1262C66.2654 33.6701 61.053 33.8598 56.0638 34.6931C55.7867 34.7367 55.6232 34.9863 55.6679 35.2697L55.6641 35.2713Z" fill="#C7C0F3"/>
<path d="M57.8866 32.1098C57.892 32.1433 57.8974 32.1768 57.9125 32.2111C58.0143 32.5403 58.3533 32.7708 58.668 32.7254C63.2407 32.103 68.1812 32.5278 72.9592 33.9553C73.2865 34.0528 73.5858 33.8758 73.6239 33.5623C73.6621 33.2487 73.4252 32.9121 73.0979 32.8146C68.1489 31.3339 63.028 30.8959 58.2899 31.5393C58.0074 31.5758 57.838 31.8239 57.8829 32.1114L57.8866 32.1098Z" fill="#C7C0F3"/>
<path d="M63.901 29.3331C63.9496 29.6576 64.2492 29.9336 64.5745 29.9492C68.3076 30.1146 72.1116 30.5947 75.8789 31.3807C76.2078 31.4506 76.4834 31.244 76.4934 30.9244C76.5011 30.6007 76.2404 30.2875 75.9115 30.2175C72.0748 29.4161 68.206 28.9286 64.4069 28.7616C64.0815 28.746 63.8538 29.003 63.8987 29.3291L63.901 29.3331Z" fill="#C7C0F3"/>
<path d="M72.2129 46.1853C72.2475 46.4146 72.4215 46.637 72.6611 46.7331C72.9708 46.8572 73.2798 46.7177 73.3458 46.4299C74.502 41.4584 75.1514 36.2628 75.273 30.9842C75.2805 30.673 75.0294 30.3718 74.7088 30.3062C74.3882 30.2405 74.1262 30.4377 74.1187 30.749C73.9953 35.9549 73.3558 41.0827 72.2189 45.9871C72.2031 46.0527 72.2027 46.1213 72.2116 46.1907L72.2129 46.1853Z" fill="#C7C0F3"/>
<path d="M70.1082 46.6804C70.1446 46.9277 70.3376 47.1603 70.5931 47.239C70.9068 47.341 71.1974 47.1802 71.2433 46.8824C71.8929 42.5397 72.2648 38.0647 72.3561 33.5755C72.36 33.2668 72.1098 32.9665 71.7964 32.9033C71.4794 32.8417 71.2184 33.0383 71.2123 33.3432C71.122 37.788 70.7512 42.2187 70.1121 46.5179C70.1026 46.5707 70.1025 46.6244 70.1118 46.6788L70.1082 46.6804Z" fill="#C7C0F3"/>
<path d="M68.3381 43.3424C68.3766 43.5924 68.5742 43.8264 68.8316 43.9032C69.1446 43.9994 69.4289 43.8316 69.4651 43.5344C69.7366 41.3925 69.7498 39.1646 69.5028 36.924C69.4578 36.6089 69.1862 36.3393 68.875 36.3151C68.5638 36.2909 68.3364 36.526 68.3699 36.8365C68.6083 38.9934 68.595 41.1293 68.3336 43.1891C68.3277 43.2402 68.3289 43.2882 68.3359 43.3385L68.3381 43.3424Z" fill="#C7C0F3"/>
<path d="M64.3848 55.958C64.4251 56.2265 64.6536 56.4757 64.9346 56.5324C65.2492 56.5938 65.5082 56.3983 65.5177 56.0935L65.8703 39.8664C65.8763 39.5632 65.6292 39.259 65.3123 39.1938C64.9977 39.1324 64.7388 39.3279 64.7292 39.6327L64.3766 55.8598C64.3782 55.893 64.3775 55.9224 64.3825 55.9541L64.3848 55.958Z" fill="#C7C0F3"/>
<path d="M61.3042 54.6812C61.3383 54.9245 61.5311 55.157 61.7886 55.2395C62.102 55.3414 62.3946 55.1846 62.4405 54.887C63.0827 50.7741 63.3984 46.5212 63.3788 42.2439C63.3769 41.9331 63.1198 41.6361 62.804 41.5839C62.486 41.5277 62.2298 41.732 62.2353 42.0413C62.255 46.2649 61.9431 50.4627 61.3116 54.5173C61.3044 54.574 61.3043 54.6276 61.3135 54.682L61.3042 54.6812Z" fill="#C7C0F3"/>
<path d="M58.4817 57.3638C58.5203 57.6147 58.7188 57.8493 58.9774 57.9264C59.2895 58.0189 59.5774 57.8545 59.6138 57.5563C60.1158 53.5897 60.3813 49.5072 60.411 45.4253C60.4126 45.1132 60.158 44.8202 59.8415 44.7587C59.5251 44.6972 59.2692 44.9013 59.2653 45.2096C59.239 49.251 58.9746 53.2892 58.4759 57.2155C58.47 57.2667 58.4712 57.3149 58.4782 57.3654L58.4817 57.3638Z" fill="#C7C0F3"/>
<path d="M55.28 64.1502C55.3129 64.3831 55.4931 64.61 55.7349 64.6984C56.0438 64.8108 56.3436 64.6702 56.4007 64.3785C57.4299 59.307 57.5608 53.9779 56.7935 48.5367C56.7472 48.2272 56.4617 47.9639 56.1516 47.9489C55.8416 47.934 55.6245 48.1791 55.6673 48.4902C56.4201 53.8068 56.2897 59.0144 55.2854 63.9683C55.2712 64.0279 55.272 64.0906 55.2822 64.154L55.28 64.1502Z" fill="#C7C0F3"/>
<path d="M52.99 63.6351C53.0271 63.89 53.2355 64.128 53.5026 64.2C53.8148 64.2814 54.0899 64.1079 54.118 63.8052C54.4809 59.7064 54.457 55.4814 54.0449 51.2422C54.0185 50.9294 53.7364 50.6558 53.4241 50.6277C53.1118 50.5996 52.8831 50.8303 52.913 51.1416C53.3197 55.3105 53.3405 59.4691 52.9839 63.5022C52.9793 63.5478 52.9818 63.5903 52.9878 63.6312L52.99 63.6351Z" fill="#C7C0F3"/>
<path d="M49.9514 65.2027C49.9898 65.4524 50.1871 65.6861 50.4475 65.7613C50.7599 65.8574 51.0436 65.6899 51.0775 65.3891C51.5062 61.9406 51.5219 58.3672 51.1256 54.7704C51.0863 54.458 50.8096 54.1864 50.499 54.1622C50.1884 54.138 49.9614 54.3728 49.9949 54.6829C50.3827 58.1962 50.3678 61.6869 49.9469 65.0496C49.941 65.1006 49.9422 65.1486 49.9492 65.1988L49.9514 65.2027Z" fill="#C7C0F3"/>
<path d="M47.0199 68.3239C47.0552 68.561 47.2357 68.7881 47.4872 68.8774C47.8001 68.9884 48.0936 68.8359 48.1473 68.5455C48.81 64.9548 48.9285 61.1986 48.4923 57.374C48.461 57.0672 48.1754 56.7889 47.8604 56.7662C47.5453 56.7435 47.3212 56.9773 47.357 57.2918C47.7818 61.005 47.6658 64.6581 47.0241 68.1473C47.0134 68.2054 47.012 68.2643 47.0222 68.3278L47.0199 68.3239Z" fill="#C7C0F3"/>
<path d="M43.6801 73.8037C43.7154 74.0414 43.8943 74.2652 44.1409 74.3523C44.4515 74.4651 44.7506 74.32 44.808 74.0273C45.6636 69.7018 45.9713 65.1772 45.7223 60.5839C45.7052 60.2702 45.435 59.9889 45.1204 59.946C44.8059 59.9031 44.5648 60.125 44.5796 60.4349C44.8237 64.9428 44.5216 69.3773 43.6834 73.6173C43.669 73.6771 43.6699 73.74 43.6801 73.8037Z" fill="#C7C0F3"/>
<path d="M40.6326 73.3032C40.6641 73.52 40.8189 73.7322 41.0415 73.8363C41.3486 73.9773 41.6677 73.8678 41.7587 73.583C42.8271 70.2388 43.4101 66.6793 43.4934 63.0037C43.5032 62.6954 43.2488 62.3893 42.9268 62.3234C42.6049 62.2576 42.3418 62.4555 42.3342 62.7678C42.2521 66.3447 41.6834 69.8048 40.6456 73.0621C40.6212 73.1365 40.6168 73.2218 40.6267 73.3008L40.6326 73.3032Z" fill="#C7C0F3"/>
<path d="M35.4913 82.4368C35.5282 82.6705 35.7026 82.8933 35.9463 82.9879C36.2581 83.1068 36.5619 82.9647 36.6258 82.6724C37.6626 77.9067 38.3865 72.9737 38.7789 68.0037C38.8041 67.699 38.5644 67.3871 38.2471 67.3049C37.9297 67.2228 37.6544 67.4063 37.6293 67.7111C37.2415 72.6349 36.5187 77.5234 35.496 82.2438C35.4838 82.3079 35.481 82.3727 35.4913 82.4368Z" fill="#C7C0F3"/>
<path d="M33.4049 80.3765C33.4363 80.5929 33.5908 80.8047 33.813 80.9087C34.1194 81.0495 34.4378 80.9402 34.5286 80.6558C35.3962 77.9425 35.7988 75.0399 35.7285 72.0347C35.7194 71.7253 35.457 71.4283 35.139 71.3758C34.8209 71.3233 34.5674 71.5366 34.5729 71.8476C34.6389 74.7371 34.2509 77.5256 33.4178 80.1358C33.3935 80.2101 33.3891 80.2952 33.399 80.3741L33.4049 80.3765Z" fill="#C7C0F3"/>
<path d="M30.1737 83.0449C30.2051 83.2615 30.3597 83.4734 30.5879 83.5798C30.8946 83.7207 31.2145 83.6058 31.3019 83.3229C31.9992 81.0644 32.3463 78.6596 32.3273 76.1742C32.3276 75.8654 32.0628 75.5643 31.7481 75.5103C31.4276 75.4539 31.1716 75.6633 31.1771 75.9745C31.1963 78.352 30.8648 80.652 30.1947 82.8104C30.1705 82.8847 30.1673 82.9644 30.1773 83.0434L30.1737 83.0449Z" fill="#C7C0F3"/>
<path d="M76.5425 41.069C76.5772 41.3196 76.7851 41.5572 77.0443 41.6322C77.3543 41.7188 77.6308 41.5495 77.6645 41.2497C78.083 37.2883 77.9575 33.1783 77.2885 29.0501C77.2366 28.7394 76.9457 28.4801 76.6385 28.4744C76.3312 28.4687 76.1245 28.7283 76.1732 29.0258C76.8214 33.0569 76.9493 37.0644 76.5398 40.9349C76.5353 40.9804 76.5365 41.0282 76.5412 41.0744L76.5425 41.069Z" fill="#C7C0F3"/>
<path d="M32.9473 42.0288C32.9056 42.1286 32.9079 42.2447 32.9591 42.3437C33.0529 42.5256 33.2754 42.5878 33.4591 42.4838C47.845 34.3332 62.9852 27.427 78.4548 21.955C78.6502 21.8862 78.7633 21.6706 78.7019 21.4727C78.6434 21.2773 78.4364 21.1724 78.2411 21.2413C62.7308 26.7271 47.5499 33.6528 33.1235 41.8255C33.0425 41.8726 32.9838 41.9432 32.9499 42.023L32.9473 42.0288Z" fill="#A088BF"/>
<path d="M44.9858 27.0503C44.9754 27.076 44.9677 27.1015 44.9628 27.1296C44.9261 27.3374 45.0583 27.5253 45.2611 27.5557C49.1775 28.0991 53.0052 29.123 56.6398 30.6041C56.8272 30.68 57.0466 30.5844 57.1302 30.39C57.2164 30.1955 57.13 29.9767 56.9426 29.9008C53.2557 28.4011 49.3702 27.359 45.3964 26.8085C45.221 26.7845 45.0537 26.8903 44.9859 27.0531L44.9858 27.0503Z" fill="#A088BF"/>
<path d="M49.5533 29.2196C49.5533 29.2196 49.5481 29.2336 49.5455 29.2393C49.4758 29.4357 49.5779 29.6448 49.7695 29.7027C51.2998 30.1741 52.8052 30.7595 54.2443 31.4371C54.4255 31.523 54.6498 31.4391 54.7414 31.2521C54.8331 31.0679 54.7634 30.8429 54.5822 30.7596C53.1129 30.0678 51.5774 29.4708 50.0169 28.9877C49.8307 28.9295 49.6286 29.0338 49.5532 29.2169L49.5533 29.2196Z" fill="#A088BF"/>
<path d="M43.8947 29.3331C43.8947 29.3331 43.8896 29.35 43.887 29.3585C43.82 29.5592 43.9252 29.7673 44.1174 29.8231L52.3194 32.265C52.5144 32.3233 52.725 32.2066 52.7893 32.0089C52.8563 31.8082 52.7511 31.6 52.5589 31.5442L44.3569 29.1024C44.1701 29.0462 43.9702 29.1511 43.8947 29.3358L43.8947 29.3331Z" fill="#A088BF"/>
<path d="M40.6348 31.6472C40.6218 31.6819 40.6117 31.7193 40.607 31.7591C40.5869 31.972 40.7361 32.1508 40.9419 32.1622C43.9718 32.3251 46.9965 32.7564 49.9309 33.4476C50.1292 33.4933 50.3348 33.3637 50.3879 33.157C50.4411 32.9503 50.3243 32.7439 50.1259 32.6982C47.1503 31.9985 44.0842 31.5588 41.0105 31.396C40.8431 31.3877 40.6918 31.4939 40.6321 31.6474L40.6348 31.6472Z" fill="#A088BF"/>
<path d="M42.1411 33.3104C42.1307 33.3364 42.1231 33.3649 42.1182 33.3933C42.0842 33.603 42.2197 33.7928 42.4202 33.8211L47.5619 34.4981C47.7651 34.5234 47.9565 34.3786 47.9932 34.1687C48.0271 33.9589 47.8917 33.7692 47.6912 33.7409L42.5495 33.0639C42.3738 33.0423 42.2089 33.1488 42.1411 33.3104Z" fill="#A088BF"/>
<path d="M35.6244 33.8038C35.6139 33.827 35.6062 33.8529 35.6013 33.8786C35.5619 34.0868 35.6949 34.2833 35.8956 34.3146L45.0683 35.716C45.269 35.7474 45.466 35.6016 45.5054 35.3934C45.5448 35.1852 45.4118 34.9887 45.2111 34.9574L36.0384 33.5559C35.8624 33.5285 35.6893 33.6361 35.6244 33.8038Z" fill="#A088BF"/>
<path d="M36.2147 35.8902C36.2042 35.9135 36.1993 35.9392 36.1943 35.9649C36.155 36.1736 36.2853 36.3707 36.4888 36.4019C38.3951 36.7037 40.0198 36.909 42.2342 37.0036C42.4399 37.0121 42.6201 36.8475 42.6375 36.6347C42.6548 36.4219 42.503 36.2433 42.2972 36.2347C40.1075 36.1413 38.5598 35.9448 36.6315 35.6417C36.4555 35.6142 36.2823 35.722 36.2147 35.8902Z" fill="#A088BF"/>
<path d="M30.6088 40.0681C30.5828 40.1336 30.5736 40.2066 30.5862 40.2782C30.6188 40.4904 30.809 40.6312 31.0115 40.5887C32.8994 40.2016 34.8233 39.9424 36.7312 39.8176C36.9371 39.8039 37.1004 39.6191 37.0952 39.3993C37.0901 39.1823 36.9185 39.0171 36.7126 39.0309C34.7718 39.1579 32.8149 39.4192 30.897 39.8141C30.7629 39.8405 30.658 39.9402 30.6087 40.0652L30.6088 40.0681Z" fill="#A088BF"/>
<path d="M31.1508 37.8999C31.1275 37.957 31.118 38.0219 31.1251 38.0857C31.1441 38.3036 31.324 38.4582 31.5296 38.4299C34.1043 38.0861 36.7039 38.0884 39.2544 38.4447C39.4586 38.472 39.6502 38.319 39.6834 38.1005C39.7166 37.8821 39.5797 37.6837 39.3755 37.6564C36.7616 37.2927 34.1014 37.2886 31.4609 37.6426C31.3183 37.6608 31.1998 37.7651 31.1481 37.9001L31.1508 37.8999Z" fill="#A088BF"/>
<path d="M49.5931 26.2775C49.5853 26.2946 49.5802 26.3143 49.5751 26.334C49.5273 26.5388 49.6486 26.7347 49.8459 26.7735C52.9888 27.4014 56.0671 28.3511 58.9931 29.6012C59.1776 29.6796 59.3996 29.5897 59.4858 29.3961C59.5746 29.1967 59.494 28.9842 59.3068 28.906C56.334 27.6371 53.209 26.674 50.0195 26.0356C49.8387 25.9984 49.6579 26.1047 49.5903 26.275L49.5931 26.2775Z" fill="#A088BF"/>
<path d="M56.9361 27.1696C56.9257 27.1952 56.918 27.2205 56.9131 27.2484C56.8763 27.4551 57.0109 27.6416 57.2134 27.669C58.6144 27.8564 59.9832 28.2114 61.287 28.7282C61.4741 28.8036 61.6932 28.7057 61.7767 28.5124C61.7767 28.5124 61.7766 28.5069 61.7793 28.5067C61.8573 28.3138 61.7713 28.1019 61.587 28.0291C60.2309 27.4911 58.8044 27.1179 57.346 26.9235C57.1709 26.8997 57.0038 27.005 56.9388 27.1667L56.9361 27.1696Z" fill="#A088BF"/>
<path d="M53.0908 25.2362C53.0803 25.2592 53.0753 25.2845 53.0677 25.3101C53.0281 25.5158 53.1578 25.71 53.3608 25.7405C56.6416 26.2411 59.8951 27.016 63.0307 28.0466C63.2234 28.1085 63.4372 27.9965 63.507 27.7997C63.5767 27.6003 63.4794 27.3872 63.2867 27.3254C60.1126 26.2835 56.8206 25.5 53.5015 24.9938C53.3259 24.9669 53.1531 25.0734 53.0881 25.2392L53.0908 25.2362Z" fill="#A088BF"/>
<path d="M57.5578 24.7742C57.5527 24.791 57.5448 24.8054 57.5424 24.8221C57.4891 25.024 57.6076 25.2252 57.8049 25.2694C60.1499 25.7934 62.4555 26.5293 64.6586 27.4625C64.8428 27.5406 65.0647 27.4482 65.1509 27.2577C65.2372 27.0699 65.1564 26.8469 64.9722 26.7687C62.7305 25.819 60.3837 25.0666 57.9977 24.5372C57.8169 24.4974 57.6308 24.6011 57.5605 24.774L57.5578 24.7742Z" fill="#A088BF"/>
<path d="M56.7502 23.4959C56.7372 23.53 56.727 23.5638 56.725 23.5999C56.7018 23.8058 56.85 23.9862 57.0523 23.9998C60.283 24.2106 63.4467 25.1717 66.2056 26.7794C66.3796 26.8806 66.6076 26.8152 66.7159 26.6337C66.8242 26.4523 66.7705 26.224 66.5965 26.1227C63.7464 24.4606 60.4728 23.4657 57.1356 23.2484C56.9689 23.2378 56.8154 23.3423 56.7529 23.4957L56.7502 23.4959Z" fill="#A088BF"/>
<path d="M62.9385 23.5712C62.9385 23.5712 62.9359 23.5796 62.9333 23.5826C62.8609 23.7792 62.9575 23.9888 63.1465 24.0524C64.8583 24.6237 66.5529 25.2894 68.1892 26.0357C68.3704 26.119 68.5946 26.035 68.6862 25.8453C68.7753 25.6666 68.7055 25.436 68.5215 25.3529C66.866 24.597 65.1467 23.9221 63.4103 23.3442C63.224 23.2805 63.0138 23.3826 62.9385 23.5712Z" fill="#A088BF"/>
<path d="M61.101 22.1926C61.0906 22.2154 61.0856 22.2379 61.0806 22.2631C61.0383 22.4679 61.1677 22.6608 61.3705 22.6938C64.485 23.1897 67.5225 24.0724 70.3953 25.3177C70.5799 25.3989 70.802 25.309 70.8882 25.115C70.9773 24.9264 70.8964 24.7025 70.7119 24.624C67.7867 23.3547 64.6914 22.4538 61.5194 21.9508C61.3441 21.9215 61.1687 22.0276 61.1038 22.1924L61.101 22.1926Z" fill="#A088BF"/>
<path d="M63.2747 20.8983C63.2669 20.918 63.2592 20.9377 63.2569 20.9597C63.2091 21.1627 63.3326 21.3566 63.5318 21.392C66.4148 21.9282 69.1717 23.1188 71.5063 24.8365C71.6664 24.9539 71.8995 24.9132 72.0241 24.7459C72.1488 24.5786 72.1198 24.3453 71.9597 24.2278C69.5423 22.4475 66.6839 21.2148 63.6972 20.6584C63.5197 20.6242 63.3395 20.7297 63.272 20.8985L63.2747 20.8983Z" fill="#A088BF"/>
<path d="M67.5033 20.6735C67.4254 20.8643 67.511 21.0765 67.6971 21.1482C69.8366 21.9624 71.9147 22.9664 73.8709 24.1343C74.0413 24.237 74.271 24.1747 74.3817 23.9979C74.4923 23.8185 74.4418 23.5929 74.2714 23.4902C72.2794 22.3003 70.1658 21.2797 67.9879 20.4517C67.8018 20.3801 67.5837 20.4797 67.5032 20.6708L67.5033 20.6735Z" fill="#A088BF"/>
<path d="M67.2276 32.1825C67.1714 32.3207 67.2013 32.4824 67.3129 32.5847C67.4573 32.717 67.6897 32.6982 67.8259 32.5465C70.1891 29.9284 72.3232 27.0819 74.1681 24.0836C74.2771 23.9069 74.2273 23.6848 74.0568 23.5839C73.8863 23.4829 73.6627 23.5441 73.5538 23.7208C71.7322 26.6772 69.6268 29.4868 67.2977 32.0703C67.2663 32.1047 67.2429 32.1439 67.225 32.1854L67.2276 32.1825Z" fill="#A088BF"/>
<path d="M65.9595 31.9496C65.8983 32.0987 65.9363 32.2704 66.0637 32.3662C66.2182 32.4869 66.4472 32.4523 66.5749 32.2905C68.4254 29.928 70.1532 27.4344 71.7169 24.8772C71.823 24.7008 71.7733 24.479 71.6058 24.3806C71.4357 24.2824 71.2126 24.3435 71.1064 24.5171C69.5583 27.0492 67.8461 29.5175 66.0165 31.8572C65.993 31.8856 65.9749 31.9164 65.9622 31.9495L65.9595 31.9496Z" fill="#A088BF"/>
<path d="M66.073 29.5814C66.012 29.7329 66.0527 29.9069 66.1823 30.0023C66.339 30.1201 66.5671 30.0801 66.6891 29.9164C67.5739 28.7383 68.3317 27.4591 68.9366 26.121C69.0154 25.9307 68.9421 25.7215 68.7623 25.6456C68.5825 25.5697 68.366 25.6597 68.2817 25.8449C67.6998 27.1333 66.9729 28.3594 66.1218 29.4923C66.1011 29.5205 66.0857 29.5484 66.0729 29.5787L66.073 29.5814Z" fill="#A088BF"/>
<path d="M60.0427 35.9341C59.9767 36.0967 60.0309 36.2857 60.1816 36.3743C60.3511 36.4724 60.5734 36.4115 60.6818 36.238L66.3572 26.9687C66.4629 26.7954 66.416 26.571 66.2464 26.4703C66.0769 26.3723 65.8546 26.4332 65.7462 26.6067L60.0708 35.8759C60.0606 35.8954 60.0503 35.9122 60.0426 35.9314L60.0427 35.9341Z" fill="#A088BF"/>
<path d="M58.7278 34.4493C58.6666 34.5957 58.7046 34.7673 58.8319 34.8658C58.9864 34.9865 59.2153 34.9545 59.343 34.7928C61.1123 32.5597 62.7321 30.1815 64.1581 27.7228C64.2614 27.544 64.2064 27.3226 64.0338 27.2299C63.8612 27.1346 63.6382 27.201 63.5376 27.3796C62.1296 29.8076 60.5307 32.1549 58.7874 34.3567C58.764 34.3878 58.7459 34.4185 58.7332 34.4516L58.7278 34.4493Z" fill="#A088BF"/>
<path d="M56.3937 35.3183C56.3326 35.47 56.3733 35.6441 56.5032 35.7397C56.6602 35.8548 56.8889 35.8175 57.0111 35.6535C58.6473 33.4757 60.1799 31.1844 61.5702 28.8467C61.6761 28.6678 61.6212 28.4491 61.4512 28.3509C61.2813 28.2528 61.0584 28.3192 60.9524 28.4954C59.5777 30.8106 58.0607 33.0767 56.4401 35.232C56.4193 35.2602 56.4038 35.2881 56.391 35.3185L56.3937 35.3183Z" fill="#A088BF"/>
<path d="M52.5904 38.4686C52.532 38.6092 52.5645 38.7757 52.6808 38.8747C52.8296 39.001 53.0581 38.9798 53.1907 38.8234C55.5196 36.1101 57.3925 33.0696 58.7603 29.7855C58.8365 29.5981 58.7526 29.3897 58.5703 29.3193C58.388 29.2489 58.1743 29.3467 58.0955 29.5343C56.7608 32.7438 54.9292 35.7145 52.655 38.365C52.6263 38.3965 52.6057 38.4327 52.5905 38.4713L52.5904 38.4686Z" fill="#A088BF"/>
<path d="M51.5179 37.6141C51.4545 37.7684 51.5004 37.9472 51.6378 38.042C51.7993 38.1513 52.0243 38.1063 52.1432 37.9375C53.7431 35.6484 55.1514 33.2093 56.3295 30.6845C56.4189 30.499 56.3403 30.285 56.1608 30.2064C55.9812 30.1278 55.7651 30.2151 55.6784 30.4004C54.5207 32.8836 53.1329 35.2838 51.5589 37.5363C51.5408 37.5617 51.528 37.5866 51.5178 37.6114L51.5179 37.6141Z" fill="#A088BF"/>
<path d="M49.4165 37.7867C49.3556 37.9381 49.3962 38.112 49.5284 38.2073C49.6849 38.3249 49.9128 38.2851 50.0346 38.1187C51.4548 36.2187 52.6673 34.1644 53.6386 32.0144C53.72 31.8267 53.6441 31.6151 53.4645 31.5392C53.2848 31.4633 53.0685 31.5532 52.9844 31.7384C52.0361 33.8387 50.8519 35.8455 49.4653 37.6976C49.4446 37.7258 49.4292 37.7537 49.4165 37.784L49.4165 37.7867Z" fill="#A088BF"/>
<path d="M46.8452 38.8868C46.7867 39.0301 46.8192 39.1966 46.941 39.298C47.0926 39.4242 47.3211 39.3949 47.4512 39.2386C49.0596 37.3056 50.395 35.1692 51.4187 32.8829C51.503 32.7003 51.4242 32.4834 51.2417 32.4076C51.0591 32.3319 50.8451 32.4217 50.7609 32.6097C49.768 34.8295 48.4686 36.9072 46.9072 38.786C46.8811 38.8173 46.8605 38.8509 46.8452 38.8894L46.8452 38.8868Z" fill="#A088BF"/>
<path d="M43.3591 41.2562C43.3005 41.3997 43.333 41.5636 43.4523 41.6626C43.6015 41.789 43.8305 41.7651 43.9635 41.6084C45.9333 39.2948 47.64 36.7582 49.0343 34.0716C49.1295 33.8881 49.0613 33.6729 48.8862 33.5859C48.7111 33.4988 48.4912 33.5784 48.3959 33.7593C47.0274 36.3958 45.3544 38.8819 43.4237 41.1498C43.395 41.1813 43.3743 41.2176 43.3591 41.2562Z" fill="#A088BF"/>
<path d="M41.8299 40.2363C41.7761 40.3664 41.7977 40.5181 41.8962 40.6215C42.0329 40.7626 42.2608 40.7629 42.4109 40.618C44.1718 38.9179 45.7142 36.999 46.996 34.9154C47.1053 34.7411 47.0554 34.5161 46.8846 34.415C46.7138 34.314 46.4898 34.3752 46.3806 34.5521C45.1325 36.5796 43.632 38.4446 41.9184 40.1011C41.8789 40.1388 41.8477 40.1867 41.8271 40.2338L41.8299 40.2363Z" fill="#A088BF"/>
<path d="M36.2512 44.2846C36.195 44.4255 36.2248 44.5874 36.3393 44.6896C36.4864 44.8191 36.7163 44.7978 36.8527 44.6432C39.0731 42.1222 41.1619 39.4436 43.0643 36.6787C43.1816 36.5093 43.1424 36.2837 42.9796 36.1741C42.8168 36.0645 42.5901 36.1151 42.4728 36.2845C40.5887 39.024 38.5155 41.6772 36.3187 44.1752C36.2899 44.2094 36.2665 44.2459 36.2512 44.2846Z" fill="#A088BF"/>
<path d="M35.8063 42.5816C35.7526 42.7116 35.7742 42.8633 35.8726 42.9666C36.0092 43.1076 36.2369 43.1079 36.3868 42.9632C37.8173 41.5824 39.0325 40.0016 39.9983 38.2689C40.0967 38.0902 40.0389 37.8685 39.8657 37.7757C39.6925 37.683 39.4689 37.7549 39.3679 37.9339C38.4383 39.5996 37.2701 41.118 35.8948 42.4465C35.8554 42.4842 35.8241 42.532 35.8036 42.5791L35.8063 42.5816Z" fill="#A088BF"/>
<path d="M33.2818 43.3469C33.228 43.4769 33.2497 43.6286 33.3508 43.7344C33.4875 43.8754 33.7178 43.8729 33.8651 43.7283C35.0406 42.5746 36.0551 41.2681 36.8772 39.8433C36.981 39.6668 36.9231 39.4424 36.7526 39.3494C36.5793 39.254 36.3555 39.3232 36.2545 39.5022C35.4688 40.8654 34.4987 42.1151 33.3731 43.217C33.3336 43.2546 33.305 43.2996 33.2845 43.3467L33.2818 43.3469Z" fill="#A088BF"/>
<path d="M71.2307 30.2494C71.1673 30.4008 71.2133 30.5795 71.3451 30.6747C71.5038 30.7868 71.7285 30.7445 71.8499 30.5783C73.438 28.377 74.7464 25.9811 75.7316 23.4658C75.8048 23.2762 75.7158 23.0684 75.5315 23.0035C75.3472 22.9387 75.1345 23.047 75.0638 23.2284C74.0987 25.6835 72.8262 28.0208 71.2743 30.1715C71.2562 30.1968 71.2408 30.2246 71.2281 30.2522L71.2307 30.2494Z" fill="#A088BF"/>
<path d="M205.056 84.56C205.196 84.3444 205.201 84.0671 205.044 83.8698C189.345 63.7295 171.564 45.0382 152.184 28.32C151.938 28.1091 151.546 28.1477 151.308 28.4097C151.07 28.6717 151.074 29.0559 151.32 29.2668C170.647 45.9386 188.384 64.5779 204.036 84.664C204.234 84.9173 204.623 84.9469 204.9 84.7287C204.963 84.679 205.015 84.6227 205.054 84.5639L205.056 84.56Z" fill="#C7C0F3"/>
<path d="M197.774 55.7596C197.807 55.7092 197.835 55.6506 197.853 55.5915C197.953 55.2651 197.77 54.9473 197.445 54.8786C191.056 53.5366 184.428 52.9694 177.761 53.1889C177.419 53.2013 177.13 53.4785 177.114 53.8103C177.092 54.1438 177.353 54.405 177.691 54.3905C184.264 54.1752 190.787 54.7363 197.086 56.0588C197.353 56.1152 197.628 55.9847 197.774 55.7596Z" fill="#C7C0F3"/>
<path d="M189.38 56.4354C189.43 56.3583 189.465 56.2667 189.479 56.1743C189.525 55.8457 189.29 55.5635 188.958 55.5484C186.251 55.4256 183.49 55.4788 180.754 55.7209C180.417 55.7511 180.14 56.0429 180.14 56.3713C180.14 56.6996 180.414 56.9458 180.75 56.9156C183.431 56.6793 186.136 56.6258 188.79 56.7445C189.029 56.7539 189.254 56.6283 189.38 56.4354Z" fill="#C7C0F3"/>
<path d="M197.784 59.8904C197.834 59.8129 197.87 59.7269 197.882 59.6379C197.934 59.3062 197.705 59.0209 197.368 59.0036L183.194 58.1803C182.859 58.1591 182.548 58.417 182.498 58.7449C182.446 59.0766 182.679 59.364 183.012 59.3792L197.185 60.2025C197.426 60.218 197.659 60.0901 197.787 59.8925L197.784 59.8904Z" fill="#C7C0F3"/>
<path d="M201.02 65.3032C201.043 65.2681 201.065 65.2269 201.082 65.1836C201.208 64.8642 201.057 64.5259 200.738 64.4291C195.995 62.9932 191.056 61.9599 186.054 61.3565C185.72 61.3151 185.395 61.5524 185.322 61.8859C185.25 62.2193 185.463 62.518 185.797 62.5594C190.727 63.1539 195.597 64.1745 200.276 65.5899C200.552 65.6729 200.856 65.5469 201.016 65.301L201.02 65.3032Z" fill="#C7C0F3"/>
<path d="M197.595 66.9872C197.628 66.9365 197.653 66.8816 197.671 66.8223C197.775 66.4966 197.594 66.1735 197.27 66.1007L189.028 64.2876C188.705 64.2148 188.358 64.4229 188.254 64.7487C188.15 65.0744 188.331 65.3975 188.655 65.4703L196.897 67.2833C197.164 67.3399 197.444 67.2111 197.591 66.985L197.595 66.9872Z" fill="#C7C0F3"/>
<path d="M207.052 71.5248C207.088 71.4702 207.116 71.4112 207.134 71.3519C207.23 71.0216 207.044 70.7061 206.715 70.641L191.874 67.6855C191.545 67.6204 191.205 67.833 191.109 68.1633C191.012 68.4936 191.199 68.8092 191.527 68.8743L206.369 71.8297C206.633 71.8842 206.909 71.7532 207.056 71.5269L207.052 71.5248Z" fill="#C7C0F3"/>
<path d="M204.717 74.3774C204.752 74.3227 204.78 74.2638 204.797 74.1983C204.891 73.8716 204.703 73.5498 204.378 73.4867C201.246 72.8774 198.779 72.3166 195.413 71.2574C195.097 71.1567 194.735 71.3405 194.606 71.6578C194.474 71.979 194.625 72.3175 194.941 72.4182C198.346 73.4889 200.945 74.077 204.035 74.6787C204.302 74.7293 204.572 74.5999 204.717 74.3774Z" fill="#C7C0F3"/>
<path d="M210.212 83.9841C210.399 83.6952 210.333 83.3311 210.063 83.1598C207.44 81.5207 204.666 80.0502 201.818 78.7817C201.515 78.6456 201.136 78.7867 200.972 79.105C200.806 79.4171 200.922 79.7771 201.225 79.9132C204.027 81.1554 206.753 82.6037 209.331 84.2166C209.608 84.3923 209.999 84.2964 210.199 84.0039C210.204 83.996 210.206 83.9921 210.212 83.9841Z" fill="#C7C0F3"/>
<path d="M210.899 80.3786C210.899 80.3786 210.907 80.3668 210.912 80.3589C211.096 80.0597 211.009 79.691 210.718 79.5402C206.995 77.5715 202.979 76.1033 198.789 75.1729C198.463 75.0993 198.114 75.3092 198.01 75.6379C197.905 75.9665 198.088 76.2926 198.413 76.3661C202.504 77.2724 206.421 78.7104 210.057 80.6292C210.341 80.7818 210.716 80.6678 210.903 80.3807L210.899 80.3786Z" fill="#C7C0F3"/>
<path d="M191.386 51.8966C191.426 51.8346 191.456 51.7663 191.471 51.6954C191.551 51.3688 191.351 51.0629 191.02 51.0121C185.745 50.2292 180.32 49.9669 174.897 50.2369C174.557 50.2553 174.273 50.5341 174.261 50.8673C174.248 51.2005 174.508 51.4551 174.847 51.4368C180.192 51.1696 185.533 51.4266 190.733 52.1985C190.989 52.2384 191.247 52.1096 191.386 51.8966Z" fill="#C7C0F3"/>
<path d="M179.704 48.9744C179.737 48.924 179.762 48.8694 179.78 48.8105C179.88 48.4847 179.7 48.1636 179.379 48.0973C177.041 47.5955 174.614 47.3723 172.166 47.4403C171.827 47.4488 171.537 47.7293 171.517 48.0583C171.495 48.3912 171.752 48.6497 172.09 48.6413C174.437 48.5792 176.769 48.7907 179.013 49.2709C179.279 49.3271 179.557 49.199 179.704 48.9744Z" fill="#C7C0F3"/>
<path d="M186.87 48.2512C186.905 48.1968 186.933 48.1381 186.95 48.073C187.046 47.744 186.856 47.4276 186.533 47.365C181.163 46.3091 175.623 45.6789 170.071 45.4946C169.734 45.4832 169.425 45.744 169.383 46.0771C169.34 46.4102 169.579 46.6907 169.916 46.7021C175.406 46.8879 180.88 47.5075 186.187 48.5489C186.45 48.6032 186.722 48.4705 186.868 48.2451L186.87 48.2512Z" fill="#C7C0F3"/>
<path d="M180.467 44.9539C180.509 44.8881 180.541 44.8159 180.555 44.7391C180.628 44.4085 180.419 44.1085 180.087 44.0676C176.094 43.5644 172 43.4124 167.919 43.6082C167.582 43.6227 167.296 43.905 167.283 44.238C167.267 44.5688 167.53 44.8252 167.87 44.8069C171.881 44.6143 175.906 44.7636 179.828 45.2581C180.079 45.2898 180.33 45.1628 180.467 44.9539Z" fill="#C7C0F3"/>
<path d="M182.593 43.465C182.618 43.4262 182.639 43.3854 182.656 43.3363C182.777 43.0173 182.621 42.6832 182.305 42.5933C177.119 41.1065 171.451 40.8066 165.914 41.7299C165.575 41.786 165.326 42.0961 165.353 42.425C165.379 42.7539 165.674 42.9702 166.01 42.9179C171.369 42.0253 176.85 42.3138 181.865 43.756C182.138 43.8324 182.434 43.709 182.59 43.4688L182.593 43.465Z" fill="#C7C0F3"/>
<path d="M173.248 39.9863C173.301 39.9053 173.338 39.8098 173.349 39.7153C173.387 39.3825 173.147 39.1079 172.814 39.1027C169.77 39.026 166.675 39.1055 163.61 39.3347C163.273 39.3589 162.998 39.6468 162.992 39.9769C162.986 40.307 163.256 40.5511 163.593 40.5269C166.616 40.3 169.672 40.2249 172.672 40.2979C172.908 40.3052 173.125 40.1753 173.248 39.9863Z" fill="#C7C0F3"/>
<path d="M176.951 38.9135C176.987 38.8593 177.015 38.8007 177.031 38.7358C177.125 38.4115 176.936 38.0959 176.609 38.0312C171.454 37.0578 166.129 36.7158 160.774 37.0107C160.433 37.029 160.15 37.314 160.14 37.6436C160.128 37.9771 160.394 38.2302 160.73 38.2097C165.985 37.9207 171.216 38.2571 176.274 39.2127C176.535 39.2608 176.807 39.1344 176.951 38.9135Z" fill="#C7C0F3"/>
<path d="M174.631 35.7041C174.669 35.6463 174.698 35.5782 174.717 35.5098C174.802 35.183 174.603 34.8786 174.276 34.8242C169.368 34.0414 164.141 34.3351 159.157 35.6784C158.827 35.7701 158.607 36.0994 158.67 36.4163C158.734 36.7331 159.051 36.9196 159.381 36.8279C164.19 35.5271 169.238 35.2421 173.977 36.0025C174.232 36.0422 174.493 35.9161 174.633 35.7002L174.631 35.7041Z" fill="#C7C0F3"/>
<path d="M168.436 32.8948C168.493 32.8063 168.529 32.7051 168.537 32.5989C168.563 32.2704 168.313 32.006 167.975 32.0085C164.076 32.0677 160.123 32.4504 156.228 33.1511C155.892 33.2128 155.645 33.5207 155.678 33.8456C155.71 34.1704 156.003 34.3852 156.339 34.3235C160.164 33.6359 164.049 33.2564 167.88 33.2003C168.106 33.1974 168.314 33.0734 168.432 32.8926L168.436 32.8948Z" fill="#C7C0F3"/>
<path d="M160.5 50.3184C160.597 50.1695 160.629 49.9886 160.579 49.8182C159.025 44.6687 157.989 39.3065 157.49 33.8735C157.461 33.5531 157.167 33.3378 156.836 33.3953C156.505 33.4528 156.258 33.7622 156.286 34.0826C156.787 39.5902 157.841 45.0255 159.415 50.2443C159.509 50.5497 159.84 50.7017 160.165 50.5833C160.305 50.532 160.423 50.4368 160.5 50.3184Z" fill="#C7C0F3"/>
<path d="M162.614 50.7618C162.701 50.6284 162.739 50.4617 162.707 50.302C161.722 45.7925 161.016 41.1494 160.608 36.5081C160.579 36.1882 160.285 35.9732 159.955 36.0306C159.624 36.088 159.373 36.3949 159.406 36.7169C159.818 41.4072 160.529 46.0956 161.526 50.6486C161.596 50.9603 161.914 51.1371 162.24 51.0404C162.4 50.9959 162.532 50.8877 162.616 50.758L162.614 50.7618Z" fill="#C7C0F3"/>
<path d="M164.194 47.2025C164.281 47.0694 164.318 46.9128 164.289 46.7556C163.864 44.5908 163.699 42.3504 163.802 40.101C163.818 39.7758 163.56 39.5237 163.228 39.538C162.896 39.5522 162.614 39.8298 162.598 40.155C162.493 42.4921 162.663 44.8244 163.107 47.0777C163.17 47.3904 163.483 47.5745 163.811 47.4801C163.977 47.434 164.112 47.3281 164.199 47.1949L164.194 47.2025Z" fill="#C7C0F3"/>
<path d="M168.636 60.2256C168.711 60.1115 168.749 59.9764 168.74 59.8356L167.214 42.8259C167.185 42.5068 166.892 42.2923 166.562 42.3495C166.233 42.4068 165.986 42.7151 166.014 43.0343L167.541 60.0439C167.569 60.3631 167.862 60.5776 168.192 60.5203C168.38 60.4868 168.539 60.374 168.639 60.2218L168.636 60.2256Z" fill="#C7C0F3"/>
<path d="M171.71 58.8113C171.799 58.674 171.838 58.5074 171.799 58.3495C170.839 54.0908 170.213 49.6986 169.938 45.287C169.918 44.9617 169.633 44.7413 169.298 44.7907C168.962 44.84 168.71 45.1409 168.73 45.4662C169.011 49.9386 169.643 54.3916 170.618 58.7057C170.687 59.0173 171.008 59.1902 171.334 59.0936C171.49 59.047 171.623 58.9447 171.707 58.8151L171.71 58.8113Z" fill="#C7C0F3"/>
<path d="M174.622 61.5095C174.71 61.3761 174.746 61.2193 174.718 61.0618C173.913 56.9452 173.345 52.7129 173.029 48.4886C173.007 48.1672 172.716 47.9486 172.384 48C172.053 48.0515 171.802 48.3582 171.825 48.6796C172.14 52.9508 172.716 57.2245 173.53 61.3824C173.593 61.6957 173.906 61.88 174.235 61.7855C174.402 61.7393 174.537 61.6332 174.624 61.4998L174.622 61.5095Z" fill="#C7C0F3"/>
<path d="M178.086 68.4798C178.181 68.3352 178.214 68.1609 178.171 67.9953C176.745 62.7776 176.236 57.321 176.663 51.7725C176.689 51.4476 176.442 51.1861 176.105 51.1924C175.774 51.1969 175.484 51.4645 175.456 51.7932C175.019 57.4721 175.54 63.0561 176.997 68.3959C177.079 68.7035 177.409 68.861 177.732 68.7527C177.881 68.702 178.001 68.6033 178.08 68.4815L178.086 68.4798Z" fill="#C7C0F3"/>
<path d="M180.323 67.8599C180.405 67.7345 180.443 67.5839 180.419 67.4349C179.749 63.1958 179.479 58.8361 179.615 54.4787C179.625 54.1555 179.364 53.9074 179.03 53.9254C178.7 53.9455 178.422 54.225 178.41 54.552C178.272 58.9815 178.546 63.4116 179.227 67.7193C179.277 68.0351 179.583 68.2304 179.911 68.1517C180.084 68.1098 180.229 68.0044 180.321 67.8637L180.323 67.8599Z" fill="#C7C0F3"/>
<path d="M183.398 69.3948C183.485 69.2617 183.521 69.1052 183.493 68.948C182.807 65.4085 182.543 61.7549 182.708 58.0851C182.724 57.76 182.466 57.508 182.134 57.5223C181.802 57.5365 181.521 57.814 181.505 58.1391C181.336 61.9004 181.607 65.6421 182.307 69.2679C182.37 69.5805 182.683 69.7645 183.009 69.674C183.175 69.6278 183.31 69.522 183.396 69.3889L183.398 69.3948Z" fill="#C7C0F3"/>
<path d="M186.452 72.5473C186.544 72.4065 186.581 72.2342 186.538 72.0685C185.602 68.3988 185.222 64.5714 185.412 60.6981C185.428 60.3728 185.169 60.1205 184.837 60.1348C184.505 60.149 184.223 60.4268 184.207 60.7522C184.012 64.7424 184.401 68.6794 185.368 72.4558C185.447 72.7673 185.775 72.9286 186.095 72.8241C186.248 72.7755 186.37 72.6729 186.45 72.5511L186.452 72.5473Z" fill="#C7C0F3"/>
<path d="M190.017 78.1579C190.112 78.013 190.148 77.8405 190.102 77.6726C188.909 73.2141 188.271 68.5704 188.218 63.8676C188.214 63.541 187.939 63.3054 187.607 63.3412C187.272 63.3749 187.006 63.6674 187.012 63.9901C187.069 68.7888 187.716 73.5268 188.932 78.0721C189.014 78.3803 189.342 78.5417 189.666 78.4333C189.815 78.3825 189.935 78.2836 190.014 78.1617L190.017 78.1579Z" fill="#C7C0F3"/>
<path d="M193.066 77.5518C193.171 77.3912 193.202 77.1885 193.134 77.0132C191.806 73.5936 190.964 69.9734 190.624 66.2514C190.595 65.9306 190.3 65.715 189.969 65.7725C189.638 65.8301 189.39 66.14 189.418 66.4608C189.763 70.2849 190.632 74.0042 191.994 77.5175C192.11 77.8142 192.458 77.9397 192.773 77.7992C192.895 77.7432 192.998 77.6551 193.068 77.548L193.066 77.5518Z" fill="#C7C0F3"/>
<path d="M198.537 86.9035C198.632 86.7583 198.668 86.5793 198.621 86.4109C197.205 81.4628 196.099 76.3504 195.339 71.2106C195.295 70.8913 194.988 70.695 194.654 70.772C194.323 70.8452 194.093 71.1654 194.142 71.4868C194.907 76.672 196.02 81.8355 197.452 86.8294C197.54 87.1366 197.874 87.2909 198.197 87.1763C198.343 87.1232 198.461 87.0279 198.541 86.9056L198.537 86.9035Z" fill="#C7C0F3"/>
<path d="M200.494 84.666C200.598 84.5055 200.629 84.303 200.562 84.1279C199.498 81.3857 198.892 78.4696 198.758 75.4662C198.742 75.1423 198.461 74.9137 198.127 74.9593C197.794 75.005 197.534 75.3024 197.55 75.6264C197.69 78.7534 198.319 81.788 199.428 84.6397C199.543 84.9362 199.891 85.0616 200.206 84.9212C200.328 84.8652 200.431 84.7772 200.498 84.674L200.494 84.666Z" fill="#C7C0F3"/>
<path d="M203.781 87.3366C203.886 87.1761 203.918 86.9795 203.849 86.7984C202.988 84.5284 202.478 82.1233 202.33 79.6521C202.31 79.326 202.024 79.105 201.688 79.1545C201.353 79.204 201.1 79.5056 201.12 79.8317C201.274 82.4168 201.809 84.9307 202.706 87.3002C202.821 87.5967 203.167 87.726 203.479 87.5893C203.605 87.5355 203.705 87.4453 203.775 87.3383L203.781 87.3366Z" fill="#C7C0F3"/>
<path d="M155.884 45.0958C155.968 44.9667 156.009 44.8124 155.978 44.6593C155.263 40.5859 155.112 36.3866 155.523 32.1745C155.555 31.8486 155.311 31.5838 154.983 31.5845C154.652 31.5831 154.359 31.8481 154.329 32.1703C153.906 36.4852 154.065 40.7879 154.796 44.9594C154.853 45.2733 155.163 45.4608 155.487 45.3801C155.657 45.3361 155.797 45.2287 155.884 45.0958Z" fill="#C7C0F3"/>
<path d="M120.614 76.646C120.503 76.634 120.402 76.5784 120.328 76.485C107.635 59.5016 96.4828 40.9232 87.189 21.264C87.0703 21.0152 87.1812 20.6773 87.4316 20.5132C87.683 20.3451 87.9824 20.414 88.0975 20.6624C97.3666 40.2701 108.483 58.7959 121.143 75.7349C121.302 75.9514 121.249 76.2915 121.024 76.5032C120.898 76.6198 120.748 76.6686 120.608 76.6535L120.614 76.646Z" fill="#A088BF"/>
<path d="M99.73 64.663C99.5329 64.6378 99.3914 64.45 99.3959 64.2076C99.5226 58.643 100.221 53.0127 101.471 47.4644C101.535 47.1833 101.77 46.9742 102.007 47.0238C102.241 47.0613 102.378 47.318 102.317 47.5995C101.084 53.0651 100.395 58.6157 100.269 64.0956C100.264 64.3764 100.061 64.632 99.8199 64.6629C99.7871 64.6664 99.7581 64.6666 99.7269 64.6626L99.73 64.663Z" fill="#A088BF"/>
<path d="M101.926 57.8354C101.7 57.8066 101.555 57.5721 101.599 57.296C101.962 54.9969 102.46 52.684 103.084 50.418C103.16 50.1384 103.407 49.9538 103.64 50.0105C103.87 50.0631 103.995 50.3336 103.915 50.6128C103.305 52.8303 102.816 55.0981 102.461 57.3521C102.416 57.6357 102.189 57.8535 101.951 57.8386C101.941 57.8374 101.935 57.8366 101.926 57.8354Z" fill="#A088BF"/>
<path d="M103.511 65.3529C103.29 65.3245 103.145 65.0938 103.184 64.8214L104.945 52.8223C104.986 52.5386 105.214 52.3173 105.451 52.3286C105.686 52.3394 105.848 52.58 105.806 52.8637L104.046 64.8628C104.004 65.1465 103.777 65.3678 103.539 65.3565C103.53 65.3553 103.521 65.3541 103.511 65.3529Z" fill="#A088BF"/>
<path d="M107.516 68.9619C107.326 68.9393 107.18 68.7739 107.169 68.5466C106.966 64.3233 107.086 60.006 107.527 55.7037C107.555 55.4187 107.785 55.1773 108.034 55.172C108.284 55.1666 108.467 55.391 108.436 55.6756C108.001 59.9164 107.879 64.179 108.081 68.3437C108.094 68.6257 107.901 68.8988 107.648 68.9543C107.602 68.9644 107.555 68.9666 107.512 68.9615L107.516 68.9619Z" fill="#A088BF"/>
<path d="M109.739 66.4098C109.533 66.3858 109.384 66.2002 109.386 65.9542L109.537 58.6968C109.542 58.4119 109.755 58.1514 110.014 58.1153C110.27 58.0787 110.473 58.2824 110.468 58.5711L110.317 65.8285C110.313 66.1134 110.1 66.3739 109.84 66.41C109.806 66.4138 109.772 66.4137 109.739 66.4098Z" fill="#A088BF"/>
<path d="M112.07 74.9795C111.865 74.9549 111.715 74.7657 111.725 74.5139L112.196 61.5582C112.207 61.2715 112.418 61.0204 112.673 60.9886C112.923 60.9601 113.12 61.1666 113.112 61.4537L112.64 74.4094C112.629 74.6961 112.418 74.9472 112.164 74.9791C112.133 74.9831 112.103 74.9834 112.07 74.9795Z" fill="#A088BF"/>
<path d="M115.1 73.5175C114.891 73.4932 114.739 73.2994 114.749 73.0501C114.865 70.3081 114.898 68.1318 114.725 65.1175C114.709 64.8338 114.905 64.5592 115.16 64.4989C115.419 64.4389 115.638 64.621 115.655 64.9009C115.827 67.9503 115.793 70.2399 115.678 72.9468C115.667 73.235 115.448 73.4875 115.193 73.5165C115.161 73.5207 115.13 73.521 115.1 73.5175Z" fill="#A088BF"/>
<path d="M122.595 79.672C122.436 79.6544 122.301 79.5479 122.251 79.3755C121.513 76.892 120.93 74.3025 120.513 71.6836C120.47 71.4044 120.644 71.1056 120.913 71.016C121.178 70.926 121.427 71.0769 121.47 71.356C121.878 73.9342 122.454 76.4791 123.18 78.9215C123.259 79.1847 123.116 79.5029 122.857 79.6293C122.769 79.6713 122.68 79.6893 122.597 79.6801L122.595 79.672Z" fill="#A088BF"/>
<path d="M119.217 79.6364C119.051 79.6176 118.915 79.4959 118.87 79.3096C118.096 75.8558 117.744 72.2295 117.823 68.538C117.828 68.2512 118.046 67.9886 118.307 67.9514C118.567 67.918 118.776 68.1188 118.771 68.4057C118.697 72.0111 119.041 75.546 119.795 78.9188C119.857 79.1895 119.699 79.4944 119.443 79.5992C119.367 79.6299 119.292 79.641 119.217 79.6326L119.217 79.6364Z" fill="#A088BF"/>
<path d="M97.4528 58.7479C97.2483 58.7214 97.1049 58.5179 97.1245 58.2625C97.4444 53.7225 98.151 49.1404 99.218 44.6474C99.284 44.3672 99.5145 44.17 99.7562 44.2168C99.9863 44.2583 100.118 44.5217 100.052 44.8019C98.9975 49.2311 98.3052 53.742 97.9889 58.217C97.9702 58.4995 97.7593 58.7416 97.5217 58.753C97.4992 58.754 97.4768 58.7549 97.4551 58.7521L97.4528 58.7479Z" fill="#A088BF"/>
<path d="M96.8071 48.6229C96.607 48.5986 96.4574 48.4134 96.4635 48.1657C96.5075 46.1134 96.77 44.0294 97.2416 41.9747C97.3042 41.695 97.5484 41.4956 97.7873 41.5246C97.7873 41.5246 97.7938 41.5254 97.797 41.5258C98.0383 41.559 98.1823 41.8172 98.1149 42.1041C97.6642 44.0759 97.4128 46.0759 97.3687 48.0506C97.3619 48.3332 97.1549 48.5914 96.9064 48.6233C96.8725 48.627 96.8394 48.6268 96.8071 48.6229Z" fill="#A088BF"/>
<path d="M94.8303 54.4158C94.6304 54.3909 94.484 54.2024 94.4936 53.9522C94.6594 49.2779 95.1485 44.5357 95.9517 39.8483C96.0008 39.5643 96.2341 39.3498 96.4752 39.3645C96.7091 39.3821 96.87 39.6266 96.824 39.9109C96.0294 44.5414 95.5449 49.23 95.3805 53.8503C95.3702 54.1352 95.1656 54.3843 94.9191 54.4115C94.8889 54.4154 94.8596 54.4156 94.831 54.4121L94.8303 54.4158Z" fill="#A088BF"/>
<path d="M93.1309 48.5912C92.9223 48.5643 92.7798 48.3533 92.8004 48.0939C93.1086 44.6656 93.6749 41.2089 94.4804 37.8177C94.5468 37.5373 94.7761 37.3357 95.0214 37.3865C95.2526 37.4279 95.3852 37.6877 95.3188 37.9682C94.5255 41.2993 93.9714 44.6959 93.666 48.0629C93.6408 48.3448 93.4264 48.583 93.1853 48.5905C93.1667 48.5881 93.1472 48.5894 93.1285 48.587L93.1309 48.5912Z" fill="#A088BF"/>
<path d="M91.3561 50.0952C91.171 50.0716 91.0317 49.9034 91.0237 49.6747C90.8486 45.0877 91.5823 40.2886 93.1393 35.791C93.2339 35.5175 93.4918 35.3574 93.7147 35.4321C93.9375 35.5068 94.0405 35.79 93.9459 36.0635C92.4393 40.4093 91.7308 45.0535 91.8983 49.489C91.9088 49.7681 91.7218 50.0376 91.4798 50.0878C91.436 50.0976 91.3945 50.0962 91.3568 50.0914L91.3561 50.0952Z" fill="#A088BF"/>
<path d="M89.9881 41.7963C89.7608 41.767 89.6181 41.5251 89.6643 41.2498C90.1125 38.6757 90.6789 36.086 91.3396 33.5509C91.4123 33.2712 91.6573 33.087 91.887 33.1359C92.1167 33.1847 92.2447 33.4517 92.1689 33.7309C91.515 36.2323 90.9586 38.7886 90.5149 41.3247C90.4641 41.6072 90.2355 41.8205 90.0005 41.7979C89.9943 41.7971 89.9912 41.7967 89.9849 41.7959L89.9881 41.7963Z" fill="#A088BF"/>
<path d="M88.2756 44.6803C88.0758 44.6547 87.9353 44.4632 87.9444 44.2138C88.1205 39.741 88.7605 35.2237 89.8447 30.7904C89.9145 30.5102 90.1594 30.3142 90.3866 30.3626C90.6177 30.4077 90.7506 30.6676 90.6808 30.9478C89.6165 35.2989 88.9871 39.7327 88.8146 44.1249C88.8049 44.409 88.6008 44.6565 88.3583 44.6832C88.3287 44.6871 88.2998 44.6873 88.2748 44.6841L88.2756 44.6803Z" fill="#A088BF"/>
<path d="M85.9291 42.2689C85.7255 42.2429 85.5799 42.043 85.5961 41.7905C85.865 37.5312 86.9405 33.178 88.7078 29.1986C88.8257 28.9359 89.0937 28.8042 89.3039 28.9081C89.514 29.0121 89.5911 29.3113 89.4732 29.574C87.7664 33.4145 86.7287 37.6143 86.4702 41.7284C86.451 42.0114 86.2406 42.2546 85.9988 42.2739C85.973 42.2745 85.9503 42.2755 85.9252 42.2723L85.9291 42.2689Z" fill="#A088BF"/>
<path d="M84.5167 36.7041C84.2792 36.6743 84.1344 36.4165 84.1961 36.1343C84.8961 32.847 85.8383 29.5669 86.9898 26.3903C87.0887 26.1166 87.3486 25.9597 87.576 26.0385C87.8002 26.1169 87.9 26.4039 87.8011 26.6775C86.6669 29.8022 85.7435 33.0228 85.0552 36.2535C84.9966 36.5362 84.7567 36.738 84.5191 36.7083L84.5167 36.7041Z" fill="#A088BF"/>
<path d="M100.902 33.4467C100.842 33.4398 100.785 33.4201 100.73 33.3876C96.7098 30.9585 92.4002 28.983 87.9187 27.523C87.6532 27.4356 87.5317 27.1147 87.6506 26.8038C87.7695 26.4929 88.0797 26.3091 88.3453 26.3965C92.8877 27.8766 97.2574 29.8765 101.336 32.3386C101.573 32.4841 101.635 32.8332 101.467 33.121C101.337 33.343 101.113 33.4665 100.907 33.4429L100.902 33.4467Z" fill="#A088BF"/>
<path d="M101.033 35.193C100.984 35.1873 100.937 35.1731 100.891 35.1502C97.2762 33.3667 93.4911 31.8288 89.6388 30.5791C89.3725 30.4909 89.2506 30.1675 89.3696 29.8542C89.4887 29.541 89.7986 29.3603 90.0659 29.4442C93.9549 30.7025 97.7785 32.2582 101.432 34.0593C101.684 34.1812 101.766 34.5266 101.619 34.8277C101.495 35.0741 101.256 35.2144 101.037 35.1891L101.033 35.193Z" fill="#A088BF"/>
<path d="M97.7821 35.7103C97.7368 35.705 97.6935 35.6911 97.6511 35.6729C95.8973 34.8573 94.0291 34.2811 92.0957 33.9678C91.8158 33.922 91.6569 33.6242 91.7355 33.3008C91.8178 32.9778 92.1196 32.7646 92.391 32.7961C94.4027 33.1229 96.3471 33.7212 98.1716 34.5672C98.4241 34.6852 98.5151 35.0283 98.3715 35.3309C98.2506 35.5829 98.0092 35.7322 97.783 35.7059L97.7821 35.7103Z" fill="#A088BF"/>
<path d="M108.48 41.8161C108.449 41.8125 108.423 41.8094 108.394 41.797L94.173 37.0628C93.905 36.9722 93.7818 36.6418 93.9011 36.3222C94.0203 36.0027 94.3357 35.8192 94.6009 35.9049L108.822 40.6391C109.09 40.7297 109.213 41.0601 109.094 41.3797C108.99 41.665 108.726 41.8455 108.48 41.8161Z" fill="#A088BF"/>
<path d="M106.69 44.0106C106.641 44.0049 106.594 43.9906 106.545 43.9673C103.133 42.2486 99.5348 40.8314 95.8544 39.7544C95.5861 39.6746 95.4555 39.3541 95.5671 39.0395C95.6786 38.7249 95.984 38.5301 96.2561 38.6103C99.9873 39.7021 103.631 41.1379 107.093 42.88C107.343 43.0064 107.422 43.3518 107.27 43.653C107.147 43.8998 106.908 44.0359 106.69 44.0106Z" fill="#A088BF"/>
<path d="M108.643 46.8532C108.598 46.848 108.555 46.8341 108.512 46.8159C105.183 45.2726 101.712 43.9389 98.1926 42.8567C97.925 42.7724 97.7982 42.4519 97.9135 42.1373C98.0288 41.8228 98.3372 41.6325 98.6047 41.7168C102.16 42.812 105.667 44.1587 109.031 45.7193C109.283 45.8373 109.374 46.1802 109.231 46.4826C109.11 46.7345 108.869 46.8838 108.642 46.8575L108.643 46.8532Z" fill="#A088BF"/>
<path d="M114.242 50.9519C114.185 50.9451 114.13 50.9296 114.079 50.8965C109.916 48.4969 105.361 46.9649 100.535 46.342C100.251 46.3082 100.079 46.0085 100.154 45.6797C100.225 45.3504 100.51 45.1231 100.8 45.1486C105.74 45.7806 110.404 47.3525 114.663 49.8085C114.908 49.9503 114.975 50.3094 114.814 50.6055C114.685 50.8424 114.455 50.9727 114.243 50.9475L114.242 50.9519Z" fill="#A088BF"/>
<path d="M113.402 52.6059C113.364 52.6013 113.323 52.5919 113.284 52.5737C109.793 51.0964 106.115 49.9996 102.357 49.3097C102.077 49.258 101.917 48.9492 102.004 48.6201C102.09 48.2909 102.376 48.0626 102.668 48.1157C106.489 48.8177 110.225 49.9306 113.774 51.4328C114.034 51.541 114.135 51.888 114.001 52.2024C113.886 52.4692 113.634 52.6292 113.403 52.6015L113.402 52.6059Z" fill="#A088BF"/>
<path d="M114.281 55.3546C114.236 55.3492 114.192 55.3351 114.15 55.3166C111.27 53.9688 108.206 53.0216 105.035 52.4977C104.754 52.451 104.594 52.1489 104.673 51.8212C104.755 51.4939 105.048 51.2724 105.331 51.3104C108.58 51.848 111.72 52.8177 114.67 54.2008C114.924 54.3207 115.016 54.6686 114.872 54.9752C114.754 55.2309 114.508 55.3815 114.281 55.3546Z" fill="#A088BF"/>
<path d="M116.54 58.4191C116.488 58.4129 116.433 58.3975 116.385 58.3696C113.453 56.762 110.272 55.6789 106.933 55.1442C106.652 55.0979 106.489 54.7974 106.572 54.4722C106.654 54.147 106.94 53.9172 107.228 53.9644C110.665 54.5149 113.939 55.6314 116.954 57.2844C117.199 57.4204 117.274 57.7729 117.116 58.0714C116.99 58.3111 116.756 58.4443 116.54 58.4191Z" fill="#A088BF"/>
<path d="M120.877 62.3573C120.82 62.3507 120.766 62.3354 120.715 62.3029C117.181 60.3126 113.367 58.8399 109.386 57.9157C109.11 57.8526 108.966 57.5386 109.066 57.2219C109.164 56.9005 109.465 56.6915 109.74 56.759C113.802 57.6971 117.686 59.2045 121.294 61.23C121.538 61.3693 121.608 61.7191 121.447 62.0153C121.322 62.2493 121.088 62.3818 120.877 62.3573Z" fill="#A088BF"/>
<path d="M119.794 64.6976C119.723 64.6896 119.652 64.6642 119.593 64.6186C117.002 62.7454 114.138 61.3008 111.089 60.3206C110.825 60.2345 110.704 59.9176 110.823 59.6104C110.941 59.3031 111.253 59.126 111.515 59.2074C114.649 60.2146 117.591 61.7027 120.256 63.6275C120.48 63.7913 120.516 64.142 120.331 64.4201C120.198 64.6217 119.987 64.7237 119.797 64.7022L119.794 64.6976Z" fill="#A088BF"/>
<path d="M127.131 70.888C127.075 70.8816 127.018 70.862 126.963 70.8339C123.091 68.5832 119.02 66.6065 114.852 64.9592C114.595 64.8558 114.491 64.5255 114.624 64.2221C114.757 63.9187 115.074 63.754 115.332 63.8575C119.538 65.5222 123.651 67.5168 127.556 69.7888C127.798 69.9297 127.859 70.277 127.695 70.5638C127.568 70.7893 127.341 70.9119 127.131 70.888Z" fill="#A088BF"/>
<path d="M124.987 71.9544C124.916 71.9464 124.845 71.921 124.786 71.8753C122.704 70.369 120.381 69.2738 117.884 68.6102C117.612 68.5405 117.483 68.2265 117.586 67.9171C117.69 67.6077 117.995 67.4121 118.267 67.4819C120.865 68.1699 123.282 69.3105 125.446 70.8781C125.67 71.0422 125.707 71.3934 125.522 71.6719C125.389 71.8738 125.178 71.9759 124.987 71.9544Z" fill="#A088BF"/>
<path d="M126.854 75.0767C126.783 75.0687 126.716 75.0439 126.656 75.0026C124.931 73.7843 123.024 72.8697 120.979 72.2942C120.713 72.2167 120.583 71.9082 120.691 71.5961C120.802 71.2887 121.109 71.0984 121.375 71.1758C123.509 71.7787 125.508 72.7337 127.308 74.008C127.532 74.1673 127.571 74.5218 127.388 74.7952C127.254 74.9964 127.043 75.1023 126.849 75.0805L126.854 75.0767Z" fill="#A088BF"/>
<path d="M97.2531 28.667C97.2113 28.6619 97.1704 28.6524 97.1277 28.6336C93.7786 27.1327 90.2098 26.1709 86.501 25.7761C86.197 25.7392 86.0361 25.4506 86.1032 25.1165C86.1741 24.7829 86.4569 24.5343 86.7428 24.5644C90.5276 24.9684 94.2009 25.952 97.6308 27.4946C97.8902 27.6128 97.9875 27.9622 97.8473 28.2737C97.7288 28.5376 97.4811 28.6946 97.2493 28.6666L97.2531 28.667Z" fill="#A088BF"/>
<path d="M194.71 41.8377C194.725 41.6953 194.659 41.5595 194.535 41.5058C182.041 35.9583 168.901 31.6746 155.476 28.7794C155.306 28.7432 155.127 28.8677 155.077 29.0589C155.027 29.25 155.123 29.4355 155.293 29.4717C168.681 32.3586 181.787 36.6288 194.245 42.1629C194.402 42.2326 194.597 42.142 194.676 41.9617C194.695 41.9204 194.706 41.8791 194.71 41.8403L194.71 41.8377Z" fill="#A088BF"/>
<path d="M183.989 30.176C183.992 30.1436 183.991 30.1086 183.986 30.0761C183.954 29.8959 183.789 29.7942 183.616 29.8472C180.222 30.8941 176.903 32.3688 173.757 34.2252C173.596 34.3208 173.525 34.5274 173.598 34.6881C173.668 34.8512 173.857 34.9057 174.016 34.81C177.118 32.9807 180.386 31.5303 183.732 30.4979C183.873 30.4545 183.973 30.3207 183.989 30.176Z" fill="#A088BF"/>
<path d="M180.181 32.6417C180.186 32.5927 180.18 32.5411 180.165 32.4942C180.107 32.3292 179.926 32.2586 179.764 32.338C178.439 32.9854 177.131 33.7287 175.88 34.5536C175.727 34.6552 175.665 34.8632 175.745 35.0163C175.825 35.1693 176.015 35.2129 176.169 35.1113C177.394 34.3034 178.675 33.5746 179.974 32.9392C180.09 32.8815 180.167 32.7644 180.181 32.6417Z" fill="#A088BF"/>
<path d="M185.095 32.1557C185.101 32.106 185.097 32.0563 185.081 32.0114C185.025 31.8419 184.846 31.7679 184.68 31.8482L177.682 35.1752C177.517 35.2529 177.43 35.4557 177.486 35.6228C177.541 35.7923 177.723 35.8663 177.887 35.786L184.884 32.459C185.004 32.4031 185.084 32.2823 185.098 32.1557L185.095 32.1557Z" fill="#A088BF"/>
<path d="M188.029 33.8849C188.032 33.862 188.032 33.8366 188.03 33.8111C188.012 33.625 187.857 33.5034 187.68 33.5419C185.048 34.1173 182.421 34.9371 179.869 35.9794C179.698 36.0485 179.6 36.2484 179.647 36.4272C179.693 36.606 179.869 36.6922 180.04 36.6231C182.555 35.5956 185.146 34.7881 187.742 34.2199C187.895 34.1862 188.01 34.0451 188.027 33.8849L188.029 33.8849Z" fill="#A088BF"/>
<path d="M186.849 35.5668C186.853 35.534 186.852 35.501 186.846 35.468C186.816 35.2852 186.65 35.1794 186.477 35.2305L182.073 36.5526C181.899 36.6037 181.783 36.7949 181.813 36.9776C181.843 37.1604 182.009 37.2663 182.182 37.2152L186.586 35.893C186.729 35.8491 186.831 35.7136 186.847 35.5668L186.849 35.5668Z" fill="#A088BF"/>
<path d="M192.545 35.327C192.548 35.2915 192.548 35.2559 192.542 35.2228C192.507 35.0394 192.341 34.9382 192.167 34.9945L184.309 37.5273C184.136 37.5836 184.024 37.7753 184.059 37.9587C184.093 38.1422 184.26 38.2433 184.434 38.1871L192.291 35.6543C192.431 35.6103 192.532 35.4743 192.547 35.3271L192.545 35.327Z" fill="#A088BF"/>
<path d="M192.172 37.2871C192.176 37.2514 192.175 37.2157 192.167 37.1799C192.132 36.9985 191.963 36.8943 191.791 36.9508C190.136 37.4932 188.813 37.8817 186.936 38.2709C186.759 38.3069 186.63 38.4914 186.645 38.6777C186.661 38.8665 186.816 38.9884 186.993 38.9524C188.892 38.5584 190.285 38.1478 191.918 37.6127C192.059 37.5661 192.157 37.4322 192.172 37.2871Z" fill="#A088BF"/>
<path d="M197.29 40.4814C197.309 40.2815 197.186 40.1144 197.014 40.1025C195.347 40.0018 193.65 40.0293 191.967 40.1806C191.787 40.1961 191.64 40.3741 191.64 40.5826C191.638 40.7883 191.783 40.9395 191.962 40.924C193.617 40.7721 195.286 40.7467 196.924 40.8469C197.101 40.8588 197.265 40.7004 197.289 40.4951C197.289 40.4896 197.29 40.4869 197.29 40.4814Z" fill="#A088BF"/>
<path d="M196.669 38.57C196.669 38.57 196.669 38.5621 196.67 38.5568C196.685 38.3596 196.552 38.2021 196.375 38.2072C194.1 38.2522 191.807 38.6236 189.562 39.3064C189.387 39.3589 189.271 39.5571 189.302 39.7472C189.332 39.9373 189.5 40.0479 189.675 39.9955C191.866 39.3276 194.104 38.9685 196.325 38.9226C196.499 38.9201 196.652 38.7619 196.671 38.57L196.669 38.57Z" fill="#A088BF"/>
<path d="M179.961 29.9551C179.965 29.9154 179.963 29.8757 179.953 29.8384C179.912 29.6641 179.741 29.573 179.57 29.6357C176.85 30.6497 174.185 31.9473 171.65 33.4944C171.492 33.5921 171.423 33.7974 171.499 33.9571C171.574 34.1167 171.76 34.1684 171.919 34.0707C174.416 32.5455 177.04 31.2674 179.721 30.2679C179.854 30.2196 179.946 30.0915 179.961 29.9551Z" fill="#A088BF"/>
<path d="M173.63 31.5055C173.634 31.4733 173.632 31.441 173.627 31.4086C173.595 31.2295 173.431 31.1259 173.261 31.1788C172.018 31.5555 170.799 32.0865 169.642 32.7597C169.482 32.8524 169.411 33.0603 169.481 33.2199C169.551 33.3821 169.738 33.4362 169.898 33.3436C171.008 32.6997 172.178 32.188 173.371 31.8256C173.512 31.7824 173.614 31.6494 173.63 31.5055Z" fill="#A088BF"/>
<path d="M176.843 29.3346C176.846 29.2996 176.846 29.2645 176.838 29.2293C176.804 29.0485 176.636 28.9489 176.465 29.0046C173.629 29.9201 170.815 31.0814 168.105 32.457C167.94 32.5403 167.855 32.7449 167.916 32.9135C167.977 33.0821 168.16 33.1518 168.325 33.0684C171.006 31.7101 173.785 30.5609 176.588 29.6551C176.727 29.6115 176.825 29.4773 176.841 29.3321L176.843 29.3346Z" fill="#A088BF"/>
<path d="M172.956 29.3894C172.961 29.3474 172.958 29.3053 172.947 29.2655C172.901 29.0917 172.728 29.0058 172.559 29.0733C170.523 29.8817 168.523 30.8811 166.615 32.0399C166.457 32.1348 166.388 32.3421 166.463 32.5013C166.536 32.6606 166.724 32.712 166.883 32.6146C168.759 31.4753 170.724 30.4929 172.724 29.699C172.852 29.6483 172.942 29.523 172.956 29.3894Z" fill="#A088BF"/>
<path d="M173.562 28.1428C173.564 28.118 173.565 28.0931 173.561 28.0657C173.541 27.8842 173.385 27.7683 173.212 27.8087C170.363 28.4691 167.572 29.8132 165.141 31.6978C164.992 31.8129 164.948 32.0236 165.041 32.1712C165.134 32.3187 165.327 32.3431 165.476 32.2304C167.829 30.4072 170.527 29.1068 173.283 28.4702C173.433 28.4345 173.545 28.2991 173.561 28.1452L173.562 28.1428Z" fill="#A088BF"/>
<path d="M168.214 28.8505C168.219 28.799 168.214 28.7449 168.196 28.6981C168.133 28.5329 167.952 28.4673 167.791 28.5516C166.316 29.308 164.855 30.1505 163.445 31.0549C163.289 31.154 163.227 31.3597 163.305 31.5152C163.382 31.6706 163.57 31.7142 163.726 31.6151C165.117 30.7228 166.56 29.8924 168.014 29.1456C168.128 29.0878 168.2 28.9707 168.214 28.8505Z" fill="#A088BF"/>
<path d="M169.699 27.3824C169.702 27.3476 169.701 27.3128 169.694 27.2779C169.66 27.1009 169.492 27.0021 169.319 27.0575C166.61 27.9515 163.972 29.1871 161.475 30.7302C161.316 30.828 161.25 31.0363 161.325 31.1938C161.401 31.3539 161.59 31.4032 161.746 31.3053C164.196 29.7915 166.788 28.5778 169.447 27.7007C169.584 27.6549 169.683 27.5241 169.699 27.3824Z" fill="#A088BF"/>
<path d="M167.758 26.4658C167.762 26.429 167.759 26.3898 167.752 26.3529C167.713 26.1785 167.544 26.0886 167.375 26.1482C164.838 27.0597 162.409 28.5556 160.352 30.4769C160.216 30.6054 160.191 30.816 160.298 30.947C160.405 31.078 160.602 31.0824 160.738 30.9538C162.722 29.098 165.067 27.6527 167.517 26.7747C167.649 26.727 167.743 26.6004 167.758 26.4633L167.758 26.4658Z" fill="#A088BF"/>
<path d="M164.081 26.6868C164.087 26.6308 164.079 26.5746 164.057 26.5231C163.99 26.3639 163.807 26.306 163.646 26.3947C161.798 27.4334 160.004 28.6361 158.313 29.9716C158.168 30.0873 158.125 30.2943 158.219 30.4368C158.313 30.5792 158.505 30.603 158.65 30.4873C160.31 29.1759 162.073 27.9924 163.889 26.9729C163.996 26.9129 164.066 26.8014 164.078 26.6868L164.081 26.6868Z" fill="#A088BF"/>
<path d="M164.723 36.7517C164.733 36.6581 164.705 36.5665 164.64 36.5009C162.665 34.5277 160.885 32.3232 159.342 29.9478C159.252 29.8075 159.06 29.7841 158.917 29.8957C158.774 30.0073 158.732 30.2136 158.822 30.3539C160.384 32.7631 162.19 34.9967 164.191 36.9966C164.309 37.1131 164.502 37.0982 164.628 36.96C164.681 36.9004 164.714 36.8262 164.723 36.7517Z" fill="#A088BF"/>
<path d="M165.852 36.4609C165.861 36.3771 165.839 36.2906 165.786 36.2253C164.238 34.4026 162.789 32.4467 161.482 30.4153C161.392 30.2754 161.201 30.252 161.059 30.3633C160.916 30.4746 160.871 30.6803 160.964 30.8203C162.284 32.8733 163.746 34.8486 165.31 36.6882C165.418 36.8139 165.611 36.8134 165.742 36.6852C165.807 36.6235 165.843 36.5399 165.852 36.4585L165.852 36.4609Z" fill="#A088BF"/>
<path d="M165.726 34.4584C165.735 34.3749 165.715 34.2935 165.664 34.2286C164.945 33.3428 164.332 32.3554 163.842 31.2952C163.772 31.1417 163.589 31.0921 163.437 31.1837C163.284 31.2753 163.217 31.4752 163.287 31.6287C163.797 32.7297 164.435 33.758 165.183 34.6798C165.288 34.8074 165.479 34.8117 165.612 34.6841C165.679 34.6203 165.717 34.5371 165.726 34.4536L165.726 34.4584Z" fill="#A088BF"/>
<path d="M171.156 39.4112C171.164 39.3396 171.149 39.2678 171.111 39.2054L166.322 31.7792C166.232 31.6398 166.043 31.6164 165.901 31.7273C165.759 31.8381 165.717 32.043 165.806 32.1824L170.596 39.6086C170.686 39.748 170.875 39.7713 171.017 39.6605C171.097 39.5968 171.146 39.5042 171.156 39.4088L171.156 39.4112Z" fill="#A088BF"/>
<path d="M172.288 38.0247C172.298 37.9386 172.276 37.8521 172.22 37.7893C170.744 36.0761 169.394 34.2157 168.206 32.2562C168.119 32.1116 167.931 32.0834 167.784 32.1922C167.638 32.301 167.591 32.5042 167.678 32.6488C168.884 34.6348 170.251 36.5218 171.747 38.2567C171.854 38.3823 172.047 38.3794 172.178 38.2513C172.241 38.1896 172.279 38.1085 172.288 38.0271L172.288 38.0247Z" fill="#A088BF"/>
<path d="M174.375 38.5852C174.384 38.5015 174.364 38.4199 174.313 38.3547C172.945 36.6674 171.662 34.8659 170.499 33.0034C170.412 32.8612 170.222 32.8354 170.077 32.9442C169.933 33.0529 169.888 33.2584 169.976 33.4006C171.149 35.2848 172.446 37.1032 173.828 38.8074C173.933 38.9354 174.125 38.9396 174.258 38.8116C174.326 38.7476 174.364 38.6641 174.373 38.5804L174.375 38.5852Z" fill="#A088BF"/>
<path d="M177.798 40.9879C177.808 40.8972 177.782 40.8086 177.722 40.7435C175.801 38.711 174.255 36.3336 173.129 33.6736C173.063 33.5177 172.884 33.461 172.727 33.5502C172.572 33.6371 172.499 33.8346 172.564 33.9929C173.717 36.7152 175.3 39.1479 177.264 41.2286C177.376 41.3491 177.57 41.3367 177.696 41.2042C177.754 41.1427 177.787 41.0666 177.795 40.9902L177.798 40.9879Z" fill="#A088BF"/>
<path d="M178.737 40.1728C178.746 40.0942 178.727 40.0153 178.681 39.9528C177.352 38.1774 176.183 36.2439 175.206 34.2073C175.134 34.0564 174.952 34.0093 174.799 34.1031C174.648 34.197 174.584 34.3966 174.656 34.5499C175.65 36.62 176.838 38.5848 178.187 40.389C178.287 40.5211 178.477 40.5326 178.613 40.4123C178.684 40.3487 178.727 40.2633 178.737 40.1751L178.737 40.1728Z" fill="#A088BF"/>
<path d="M180.628 40.1567C180.638 40.0732 180.617 39.9919 180.567 39.927C179.397 38.4764 178.399 36.8653 177.599 35.1369C177.529 34.9835 177.347 34.9339 177.194 35.0255C177.041 35.117 176.975 35.3168 177.045 35.4702C177.865 37.2418 178.888 38.8913 180.084 40.3779C180.189 40.5054 180.38 40.5097 180.512 40.3846C180.579 40.3208 180.617 40.2377 180.627 40.1543L180.628 40.1567Z" fill="#A088BF"/>
<path d="M182.921 40.8831C182.93 40.7948 182.906 40.7061 182.846 40.641C181.526 39.1941 180.431 37.5319 179.593 35.7025C179.522 35.5489 179.34 35.4993 179.187 35.591C179.034 35.6827 178.967 35.8827 179.037 36.0364C179.901 37.921 181.026 39.6313 182.387 41.1192C182.499 41.2422 182.692 41.2322 182.818 41.102C182.879 41.0404 182.912 40.9619 182.92 40.8855L182.921 40.8831Z" fill="#A088BF"/>
<path d="M186.044 42.6306C186.054 42.5396 186.03 42.4508 185.967 42.3855C184.334 40.6404 182.919 38.6675 181.766 36.5174C181.686 36.3682 181.499 36.3304 181.351 36.432C181.201 36.5335 181.145 36.7365 181.226 36.8834C182.403 39.0768 183.845 41.0907 185.51 42.8697C185.623 42.9905 185.817 42.9804 185.944 42.8475C186.002 42.7858 186.035 42.7095 186.043 42.633L186.044 42.6306Z" fill="#A088BF"/>
<path d="M187.373 41.6215C187.384 41.5204 187.35 41.4188 187.275 41.3555C185.821 40.1198 184.55 38.6665 183.492 37.037C183.401 36.8964 183.21 36.8728 183.066 36.9847C182.923 37.0966 182.88 37.3035 182.97 37.4441C184.055 39.1197 185.363 40.6118 186.856 41.8816C186.982 41.9889 187.177 41.957 187.293 41.8111C187.338 41.7537 187.365 41.6865 187.373 41.6191L187.373 41.6215Z" fill="#A088BF"/>
<path d="M192.378 44.647C192.388 44.5556 192.362 44.4639 192.299 44.3983C190.437 42.4811 188.682 40.4085 187.085 38.2339C186.987 38.0981 186.794 38.0867 186.654 38.2081C186.515 38.3271 186.483 38.5338 186.583 38.6696C188.194 40.8636 189.964 42.958 191.845 44.8922C191.961 45.0113 192.157 44.9963 192.282 44.8603C192.339 44.7983 192.372 44.7239 192.38 44.647L192.378 44.647Z" fill="#A088BF"/>
<path d="M192.785 43.1612C192.796 43.0602 192.762 42.9589 192.688 42.8956C191.523 41.9052 190.535 40.7168 189.748 39.3666C189.663 39.2215 189.475 39.1884 189.328 39.2952C189.18 39.4021 189.129 39.6061 189.214 39.7513C190.033 41.1571 191.061 42.394 192.273 43.4234C192.399 43.5304 192.594 43.4986 192.71 43.353C192.754 43.2956 192.782 43.2285 192.789 43.1636L192.785 43.1612Z" fill="#A088BF"/>
<path d="M195.066 43.6217C195.077 43.5207 195.045 43.4218 194.969 43.356C194.014 42.5311 193.194 41.5534 192.529 40.452C192.441 40.3068 192.253 40.2785 192.105 40.3878C191.958 40.4971 191.91 40.7012 191.998 40.8464C192.693 41.9986 193.552 43.02 194.548 43.8815C194.674 43.9886 194.869 43.9591 194.984 43.8158C195.031 43.7585 195.056 43.6914 195.064 43.6241L195.066 43.6217Z" fill="#A088BF"/>
<path d="M161.183 35.4507C161.192 35.3698 161.174 35.2887 161.123 35.2262C159.815 33.5391 158.742 31.6497 157.93 29.6105C157.867 29.4527 157.689 29.3937 157.536 29.4779C157.38 29.562 157.305 29.7589 157.368 29.9143C158.199 32.0037 159.3 33.9387 160.639 35.6666C160.741 35.7962 160.931 35.8029 161.065 35.6828C161.134 35.6192 161.174 35.5339 161.183 35.4507Z" fill="#A088BF"/>
</svg>
