<svg width="238" height="157" viewBox="0 0 238 157" fill="none" xmlns="http://www.w3.org/2000/svg">
<g opacity="0.4">
<path d="M5.57183 67.2738L18.8059 86.5039L0.751497 107.224L5.57183 67.2738Z" fill="#EDE2FF"/>
<path d="M42.6925 59.0918L20.8484 84.1613L7.70295 64.8294L42.6925 59.0918Z" fill="#D4B1FF"/>
<path d="M21.1037 87.9169L38.5451 106.368L2.75461 108.975L21.1037 87.9169Z" fill="#D099FB"/>
<path d="M43.8215 61.8446L39.2565 105.551L21.8366 87.0757L43.8215 61.8446Z" fill="#EAD9FF"/>
<path d="M36.6352 108.56L6.05344 143.657L0.333984 111.754L36.6352 108.56Z" fill="#D6B6FF"/>
<path d="M46.5705 60.7144L65.5971 77.346L42.0054 104.421L46.5705 60.7144Z" fill="#CAA1F3"/>
<path d="M39.5118 109.308L50.7826 155.086L8.05623 145.408L39.5118 109.308Z" fill="#B33FDC"/>
<path d="M42.3884 110.055L72.4304 136.315L53.1422 154.786L42.3884 110.055Z" fill="#A14CE4"/>
<path d="M99.7725 108.987L73.6806 135.643L43.2624 109.053L99.7725 108.987Z" fill="#A85BF6"/>
<path d="M102.089 156.942L54.955 156.371L73.2827 138.983L102.089 156.942Z" fill="#9123B8"/>
<path d="M214.059 22.6108H186.573L180.808 0L214.059 22.6108Z" fill="#853AE5"/>
<path d="M183.468 22.6108H150.217L177.561 0L183.468 22.6108Z" fill="#BB9AFF"/>
<path d="M214.059 25.2709L188.541 50.5419L186.128 25.2709H214.059Z" fill="#BA8BDF"/>
<path d="M186.128 50.5419L150.217 25.2709H183.682L186.128 50.5419Z" fill="#D3B0FF"/>
<path d="M236.67 50.5419H190.118L216.414 25.2709L236.67 50.5419Z" fill="#895BEB"/>
<path d="M183.468 51.8719H147.557V26.601L183.468 51.8719Z" fill="#F0DDFF"/>
<path d="M238 53.202L217.165 93.1035L190.118 53.202H238Z" fill="#9236DA"/>
<path d="M215.389 93.3556L188.788 95.7635V55.8621L215.389 93.3556Z" fill="#A14CE4"/>
<path d="M146.227 53.202V97.0936L108.985 53.202H146.227Z" fill="#BA89F9"/>
<path d="M184.798 53.202L147.557 97.0936V53.202H184.798Z" fill="#BA89F9"/>
<path d="M187.458 55.8621V97.5258L150.217 99.7537L187.458 55.8621Z" fill="#A85BF6"/>
<path d="M215.389 95.7635L183.468 131.675L189.146 98.1584L215.389 95.7635Z" fill="#7017B5"/>
<path d="M144.897 100.616L113.455 133.005L107.655 98.4236L144.897 100.616Z" fill="#8F3BE3"/>
<path d="M186.128 98.4236L180.328 133.005L148.887 100.616L186.128 98.4236Z" fill="#8F3BE3"/>
<path d="M146.227 102.414V156.946L114.306 135.605L146.227 102.414Z" fill="#9123B8"/>
<path d="M179.478 135.605L147.557 156.946V102.414L179.478 135.605Z" fill="#771FAE"/>
</g>
</svg>
