<svg width="156" height="103" viewBox="0 0 156 103" fill="none" xmlns="http://www.w3.org/2000/svg">
<g opacity="0.2">
<path d="M140.109 14.8227H122.09L118.311 0L140.109 14.8227Z" fill="#853AE5"/>
<path d="M120.055 14.8227H98.2567L116.183 0L120.055 14.8227Z" fill="#BB9AFF"/>
<path d="M140.109 16.5665L123.38 33.133L121.799 16.5665H140.109Z" fill="#BA8BDF"/>
<path d="M121.799 33.133L98.2567 16.5665H120.195L121.799 33.133Z" fill="#D3B0FF"/>
<path d="M154.932 33.133H124.414L141.653 16.5665L154.932 33.133Z" fill="#895BEB"/>
<path d="M120.055 34.0049H96.5131V17.4384L120.055 34.0049Z" fill="#F0DDFF"/>
<path d="M155.804 34.8769L142.145 61.0345L124.414 34.8769H155.804Z" fill="#9236DA"/>
<path d="M140.981 61.1998L123.542 62.7783V36.6207L140.981 61.1998Z" fill="#A14CE4"/>
<path d="M95.6414 34.8769V63.6503L71.2277 34.8769H95.6414Z" fill="#BA89F9"/>
<path d="M120.927 34.8769L96.5131 63.6503V34.8769H120.927Z" fill="#BA89F9"/>
<path d="M122.671 36.6207V63.9336L98.2567 65.3941L122.671 36.6207Z" fill="#A85BF6"/>
<path d="M140.981 62.7783L120.055 86.3202L123.777 64.3483L140.981 62.7783Z" fill="#7017B5"/>
<path d="M94.7693 65.9596L74.1577 87.1921L70.3555 64.5222L94.7693 65.9596Z" fill="#8F3BE3"/>
<path d="M121.798 64.5222L117.996 87.1921L97.3845 65.9596L121.798 64.5222Z" fill="#8F3BE3"/>
<path d="M95.6409 67.138V102.887L74.7148 88.8964L95.6409 67.138Z" fill="#9123B8"/>
<path d="M117.439 88.8964L96.5131 102.887V67.138L117.439 88.8964Z" fill="#771FAE"/>
<path d="M3.43345 44.1022L12.1091 56.7086L0.273454 70.2919L3.43345 44.1022Z" fill="#EDE2FF"/>
<path d="M27.7683 38.7384L13.4482 55.1728L4.83068 42.4997L27.7683 38.7384Z" fill="#D4B1FF"/>
<path d="M13.6153 57.6349L25.0491 69.7305L1.58648 71.4398L13.6153 57.6349Z" fill="#D099FB"/>
<path d="M28.5087 40.5431L25.516 69.1952L14.0964 57.0834L28.5087 40.5431Z" fill="#EAD9FF"/>
<path d="M23.7975 71.1677L3.74942 94.1759L0 73.2614L23.7975 71.1677Z" fill="#D6B6FF"/>
<path d="M30.3101 39.8022L42.7831 50.7051L27.3175 68.4543L30.3101 39.8022Z" fill="#CAA1F3"/>
<path d="M25.6826 71.6576L33.0712 101.668L5.06175 95.3232L25.6826 71.6576Z" fill="#B33FDC"/>
<path d="M27.5692 72.1477L47.2634 89.3628L34.6189 101.471L27.5692 72.1477Z" fill="#A14CE4"/>
<path d="M65.187 71.4472L48.0822 88.9217L28.1414 71.491L65.187 71.4472Z" fill="#A85BF6"/>
<path d="M66.7063 102.885L35.8071 102.511L47.822 91.1115L66.7063 102.885Z" fill="#9123B8"/>
</g>
</svg>
