<svg width="179" height="162" viewBox="0 0 179 162" fill="none" xmlns="http://www.w3.org/2000/svg">
<g opacity="0.4">
<path d="M52.7287 26.6247H26.5241L58.2285 4.54863L52.7287 26.6247Z" fill="#EDE2FF"/>
<path d="M120.771 4.54863L152.476 26.6247H126.271L120.771 4.54863Z" fill="#853AE5"/>
<path d="M60.55 3.99797L86.6593 26.6247H54.9131L60.55 3.99797Z" fill="#D4B1FF"/>
<path d="M118.45 3.99797L124.087 26.6247H92.3408L118.45 3.99797Z" fill="#BB9AFF"/>
<path d="M52.3927 28.7439L50.0857 53.2469L25.6977 28.7439H52.3927Z" fill="#D099FB"/>
<path d="M128.914 53.2469L126.607 28.7439H153.302L128.914 53.2469Z" fill="#BA8BDF"/>
<path d="M54.5217 28.7439H86.2283L52.2035 53.3661L54.5217 28.7439Z" fill="#EAD9FF"/>
<path d="M92.7718 28.7439H124.478L126.797 53.3661L92.7718 28.7439Z" fill="#D3B0FF"/>
<path d="M3.89672 54.5368L23.2517 29.2907L48.3793 54.5368H3.89672Z" fill="#D6B6FF"/>
<path d="M175.103 54.5368H130.621L155.748 29.2907L175.103 54.5368Z" fill="#895BEB"/>
<path d="M54.2007 54.5368L88.4403 29.7592V54.5368H54.2007Z" fill="#CAA1F3"/>
<path d="M90.5599 54.5368V29.7592L124.799 54.5368H90.5599Z" fill="#F0DDFF"/>
<path d="M3.48439 56.656H48.9491L23.2668 95.1846L3.48439 56.656Z" fill="#B33FDC"/>
<path d="M155.733 95.1846L130.051 56.656H175.516L155.733 95.1846Z" fill="#9236DA"/>
<path d="M25.0115 96.3884L49.8692 59.0969V98.7833L25.0115 96.3884Z" fill="#A14CE4"/>
<path d="M153.989 96.3884L129.131 98.7833V59.0969L153.989 96.3884Z" fill="#A14CE4"/>
<path d="M53.1777 56.656H88.4403V99.3764L53.1777 56.656Z" fill="#BA89F9"/>
<path d="M90.5599 99.3764V56.656H125.822L90.5599 99.3764Z" fill="#BA89F9"/>
<path d="M87.1292 101.117L51.9888 98.9536V58.545L87.1292 101.117Z" fill="#A85BF6"/>
<path d="M127.011 98.9536L91.8709 101.117L127.011 58.545V98.9536Z" fill="#A85BF6"/>
<path d="M55.2839 133.813L40.457 116.195L25.6302 98.577L50.0121 100.926L55.2839 133.813Z" fill="#9123B8"/>
<path d="M128.988 100.926L153.37 98.577L123.716 133.813L128.988 100.926Z" fill="#7017B5"/>
<path d="M57.638 135.106L52.1849 101.089L87.2008 103.245L57.638 135.106Z" fill="#8F3BE3"/>
<path d="M121.362 135.106L91.7993 103.245L126.815 101.089L121.362 135.106Z" fill="#8F3BE3"/>
<path d="M58.5437 137.246L88.4403 105.025V157.962L58.5437 137.246Z" fill="#9123B8"/>
<path d="M120.456 137.246L90.5599 157.962V105.025L120.456 137.246Z" fill="#771FAE"/>
</g>
</svg>
