<svg width="113" height="102" viewBox="0 0 113 102" fill="none" xmlns="http://www.w3.org/2000/svg">
<g opacity="0.2">
<path d="M33.0926 16.4099H16.4891L36.5774 2.42232L33.0926 16.4099Z" fill="#EDE2FF"/>
<path d="M76.2052 2.42232L96.2935 16.4099H79.6899L76.2052 2.42232Z" fill="#853AE5"/>
<path d="M38.0483 2.07341L54.5914 16.4099H34.4767L38.0483 2.07341Z" fill="#D4B1FF"/>
<path d="M74.7343 2.07341L78.3059 16.4099H58.1912L74.7343 2.07341Z" fill="#BB9AFF"/>
<path d="M32.8797 17.7527L31.418 33.278L15.9655 17.7527H32.8797Z" fill="#D099FB"/>
<path d="M81.3646 33.278L79.9029 17.7527H96.8171L81.3646 33.278Z" fill="#BA8BDF"/>
<path d="M34.2287 17.7527H54.3183L32.7598 33.3535L34.2287 17.7527Z" fill="#EAD9FF"/>
<path d="M58.4643 17.7527H78.5539L80.0228 33.3535L58.4643 17.7527Z" fill="#D3B0FF"/>
<path d="M2.15219 34.0953L14.4157 18.0991L30.3368 34.0953H2.15219Z" fill="#D6B6FF"/>
<path d="M110.63 34.0953H82.4458L98.3669 18.0991L110.63 34.0953Z" fill="#895BEB"/>
<path d="M34.0253 34.0953L55.7198 18.396V34.0953H34.0253Z" fill="#CAA1F3"/>
<path d="M57.0628 34.0953V18.396L78.7573 34.0953H57.0628Z" fill="#F0DDFF"/>
<path d="M1.89094 35.438H30.6978L14.4252 59.8502L1.89094 35.438Z" fill="#B33FDC"/>
<path d="M98.3573 59.8502L82.0848 35.438H110.892L98.3573 59.8502Z" fill="#9236DA"/>
<path d="M15.5307 60.6129L31.2808 36.9847V62.1304L15.5307 60.6129Z" fill="#A14CE4"/>
<path d="M97.2519 60.6129L81.5018 62.1304V36.9847L97.2519 60.6129Z" fill="#A14CE4"/>
<path d="M33.3771 35.438H55.7198V62.5061L33.3771 35.438Z" fill="#BA89F9"/>
<path d="M57.0628 62.5061V35.438H79.4055L57.0628 62.5061Z" fill="#BA89F9"/>
<path d="M54.8891 63.6093L32.6238 62.2382V36.635L54.8891 63.6093Z" fill="#A85BF6"/>
<path d="M80.1588 62.2382L57.8935 63.6093L80.1588 36.635V62.2382Z" fill="#A85BF6"/>
<path d="M34.7116 84.3252L25.3172 73.1624L15.9227 61.9997L31.3714 63.488L34.7116 84.3252Z" fill="#9123B8"/>
<path d="M81.4112 63.488L96.8599 61.9997L78.0709 84.3252L81.4112 63.488Z" fill="#7017B5"/>
<path d="M36.2032 85.1449L32.7481 63.5912L54.9345 64.9574L36.2032 85.1449Z" fill="#8F3BE3"/>
<path d="M76.5794 85.1449L57.8482 64.9574L80.0345 63.5912L76.5794 85.1449Z" fill="#8F3BE3"/>
<path d="M36.7771 86.5007L55.7198 66.0853V99.6265L36.7771 86.5007Z" fill="#9123B8"/>
<path d="M76.0055 86.5007L57.0628 99.6265V66.0853L76.0055 86.5007Z" fill="#771FAE"/>
</g>
</svg>
