
        <svg
            width="326"
            height="410"
            viewBox="0 0 326 410"
            xmlns="http://www.w3.org/2000/svg"
           
        >
            <g opacity="0.4" clipPath="url(#clip0_3316_17992)">
                <path
                    d="M264.654 60.1236H195.676L181.207 1.46484L264.654 60.1236Z"
                    fill="#E2576A"
                />
                <path
                    d="M189.932 60.1243H106.369L175.088 0L189.932 60.1243Z"
                    fill="#FF93A2"
                />
                <path
                    d="M266.828 65.7539L202.631 130.857L196.561 65.7539H266.828Z"
                    fill="#F97C8D"
                />
                <path
                    d="M197.06 131.178L107.504 65.7539H190.961L197.06 131.178Z"
                    fill="#FFA9B5"
                />
                <path
                    d="M324.213 134.291H207.123L273.263 67.2109L324.213 134.291Z"
                    fill="#E85D71"
                />
                <path
                    d="M191.798 134.293H101.674V68.457L191.798 134.293Z"
                    fill="#FFDDE2"
                />
                <path
                    d="M325.301 139.922L273.226 242.294L205.623 139.922H325.301Z"
                    fill="#D8455B"
                />
                <path
                    d="M268.637 245.496L203.209 251.859V146.406L268.637 245.496Z"
                    fill="#D94D61"
                />
                <path
                    d="M96.1047 139.922V253.425L3.28711 139.922H96.1047Z"
                    fill="#FF899A"
                />
                <path
                    d="M194.491 139.922L101.674 253.425V139.922H194.491Z"
                    fill="#FF93A2"
                />
                <path
                    d="M197.629 144.941V252.312L105.129 258.053L197.629 144.941Z"
                    fill="#FB7185"
                />
                <path
                    d="M267.001 251.309L188.951 344.928L202.833 257.552L267.001 251.309Z"
                    fill="#C91E37"
                />
                <path
                    d="M92.8333 263.712L15.0236 348.368L0.669922 257.98L92.8333 263.712Z"
                    fill="#EC5369"
                />
                <path
                    d="M197.109 257.98L182.755 348.368L104.945 263.712L197.109 257.98Z"
                    fill="#E03A52"
                />
                <path
                    d="M96.105 268.441V409.096L17.4102 354.051L96.105 268.441Z"
                    fill="#D4354C"
                />
                <path
                    d="M180.369 354.051L101.674 409.096V268.441L180.369 354.051Z"
                    fill="#CC1731"
                />
            </g>
            <defs>
                <clipPath id="clip0_3316_17992">
                    <rect
                        width="324.631"
                        height="409.096"
                        transform="translate(0.669922)"
                    />
                </clipPath>
            </defs>
        </svg>
   