<svg width="178" height="160" viewBox="0 0 178 160" fill="none" xmlns="http://www.w3.org/2000/svg">
<g clip-path="url(#clip0_16270_88048)">
<path d="M60.0637 1.91922L53.8112 24.4239L26.5385 24.9257L60.0637 1.91922Z" fill="#FFDDE2"/>
<path d="M89.1232 23.7759L56.0878 24.3837L62.4942 1.31688L89.1232 23.7759Z" fill="#FF93A3"/>
<path d="M53.4113 26.5826L50.4253 51.4868L25.6289 27.0938L53.4113 26.5826Z" fill="#FFBAC4"/>
<path d="M88.6198 25.9334L52.6222 51.5677L55.6225 26.5406L88.6198 25.9334Z" fill="#FFDDE2"/>
<path d="M88.6198 25.9334L52.6222 51.5677L55.6225 26.5406L88.6198 25.9334Z" fill="#FF93A2"/>
<path d="M48.6172 52.8297L2.32211 53.6815L23.0703 27.6957L48.6172 52.8297Z" fill="#FFA4B1"/>
<path d="M90.9028 26.9225L90.3103 52.0623L54.6771 52.718L90.9028 26.9225Z" fill="#FFB0BB"/>
<path d="M49.1582 54.9683L21.5082 94.5516L1.84375 55.8389L49.1582 54.9683Z" fill="#B33FDC"/>
<path d="M49.1582 54.9683L21.5082 94.5516L1.84375 55.8389L49.1582 54.9683Z" fill="#DB475D"/>
<path d="M50.0566 57.4264L49.1076 97.6946L23.2958 95.7405L50.0566 57.4264Z" fill="#DA5669"/>
<path d="M87.8322 99.3459L51.3111 97.8265L52.2773 56.8262L87.8322 99.3459Z" fill="#FB7185"/>
<path d="M53.9077 133.13L38.8972 115.541L23.8906 97.9482L49.2091 99.8654L53.9077 133.13Z" fill="#E25166"/>
</g>
<g clip-path="url(#clip1_16270_88048)">
<path d="M154.598 23.5141H127.982L122.398 0.572266L154.598 23.5141Z" fill="#E2576A"/>
<path d="M125.767 23.515H93.5234L120.039 0L125.767 23.515Z" fill="#FF93A2"/>
<path d="M155.438 25.7158L130.667 51.1779L128.324 25.7158H155.438Z" fill="#F97C8D"/>
<path d="M128.517 51.3036L93.9609 25.7158H126.164L128.517 51.3036Z" fill="#FFA9B5"/>
<path d="M177.579 52.5216H132.398L157.92 26.2861L177.579 52.5216Z" fill="#E85D71"/>
<path d="M126.487 52.5221H91.7109V26.7734L126.487 52.5221Z" fill="#FFDDE2"/>
<path d="M178 54.7236L157.906 94.7619L131.82 54.7236H178Z" fill="#9236DA"/>
<path d="M178 54.7236L157.906 94.7619L131.82 54.7236H178Z" fill="#D8455B"/>
<path d="M156.137 96.0143L130.891 98.5032V57.2598L156.137 96.0143Z" fill="#A14CE4"/>
<path d="M156.137 96.0143L130.891 98.5032V57.2598L156.137 96.0143Z" fill="#D94D61"/>
<path d="M89.5611 54.7236V99.1155L53.7461 54.7236H89.5611Z" fill="#FF899A"/>
<path d="M127.526 54.7236L91.7109 99.1155V54.7236H127.526Z" fill="#FF93A2"/>
<path d="M128.735 56.6865V98.6798L93.043 100.925L128.735 56.6865Z" fill="#FB7185"/>
<path d="M155.504 98.2881L125.387 134.903L130.743 100.73L155.504 98.2881Z" fill="#7017B5"/>
<path d="M155.504 98.2881L125.387 134.903L130.743 100.73L155.504 98.2881Z" fill="#C91E37"/>
<path d="M88.3008 103.139L58.2768 136.248L52.7383 100.897L88.3008 103.139Z" fill="#EC5369"/>
<path d="M128.535 100.897L122.997 136.248L92.9727 103.139L128.535 100.897Z" fill="#E03A52"/>
<path d="M89.5608 104.989V160L59.1953 138.472L89.5608 104.989Z" fill="#D4354C"/>
<path d="M122.076 138.472L91.7109 160V104.989L122.076 138.472Z" fill="#CC1731"/>
</g>
<defs>
<clipPath id="clip0_16270_88048">
<rect width="88.4287" height="131.75" fill="white" transform="matrix(0.999831 -0.0183969 -0.0235604 0.999722 3.10547 2.41016)"/>
</clipPath>
<clipPath id="clip1_16270_88048">
<rect width="125.263" height="160" fill="white" transform="translate(52.7383)"/>
</clipPath>
</defs>
</svg>
