<svg width="238" height="157" viewBox="0 0 238 157" fill="none" xmlns="http://www.w3.org/2000/svg">
<path d="M5.23784 67.2738L18.472 86.5039L0.417512 107.224L5.23784 67.2738Z" fill="#FFDDE2"/>
<path d="M42.3585 59.0918L20.5144 84.1613L7.36896 64.8294L42.3585 59.0918Z" fill="#FF93A3"/>
<path d="M20.7697 87.9169L38.2111 106.368L2.42063 108.975L20.7697 87.9169Z" fill="#FFBAC4"/>
<path d="M43.4876 61.8446L38.9225 105.551L21.5027 87.0757L43.4876 61.8446Z" fill="#FF93A2"/>
<path d="M36.3012 108.56L5.71946 143.657L-2.08342e-07 111.754L36.3012 108.56Z" fill="#FFA4B1"/>
<path d="M46.2365 60.7144L65.2631 77.346L41.6714 104.421L46.2365 60.7144Z" fill="#FFB0BB"/>
<path d="M39.1778 109.308L50.4486 155.086L7.72225 145.408L39.1778 109.308Z" fill="#DB475D"/>
<path d="M42.0544 110.055L72.0964 136.315L52.8082 154.786L42.0544 110.055Z" fill="#DA5669"/>
<path d="M99.4386 108.987L73.3466 135.643L42.9284 109.053L99.4386 108.987Z" fill="#FB7185"/>
<path d="M101.755 156.942L78.1882 156.657L54.621 156.371L72.9487 138.983L101.755 156.942Z" fill="#E25166"/>
<path d="M213.724 22.6108H186.239L180.473 0L213.724 22.6108Z" fill="#E2576A"/>
<path d="M183.133 22.6108H149.882L177.226 0L183.133 22.6108Z" fill="#FF93A2"/>
<path d="M213.724 25.2709L188.206 50.5419L185.793 25.2709H213.724Z" fill="#F97C8D"/>
<path d="M185.793 50.5419L167.838 37.9064L149.882 25.2709H183.347L185.793 50.5419Z" fill="#FFA9B5"/>
<path d="M236.335 50.5419H189.783L216.079 25.2709L236.335 50.5419Z" fill="#E85D71"/>
<path d="M183.133 51.8719H147.222V26.601L183.133 51.8719Z" fill="#FFDDE2"/>
<path d="M237.665 53.202L216.83 93.1035L189.783 53.202H237.665Z" fill="#D8455B"/>
<path d="M215.054 93.3556L188.453 95.7635V55.8621L215.054 93.3556Z" fill="#D94D61"/>
<path d="M145.892 53.202V97.0936L108.65 53.202H145.892Z" fill="#FF899A"/>
<path d="M184.463 53.202L147.222 97.0936V53.202H184.463Z" fill="#FF93A2"/>
<path d="M187.123 55.8621V97.5258L149.882 99.7537L187.123 55.8621Z" fill="#FB7185"/>
<path d="M215.054 95.7635L183.133 131.675L188.811 98.1584L215.054 95.7635Z" fill="#C91E37"/>
<path d="M144.562 100.616L113.12 133.005L107.32 98.4236L144.562 100.616Z" fill="#EC5369"/>
<path d="M185.793 98.4236L179.993 133.005L148.552 100.616L185.793 98.4236Z" fill="#E03A52"/>
<path d="M145.892 102.414V156.946L113.971 135.605L145.892 102.414Z" fill="#D4354C"/>
<path d="M179.143 135.605L147.222 156.946V102.414L179.143 135.605Z" fill="#CC1731"/>
</svg>
