<svg width="429" height="349" viewBox="0 0 429 349" fill="none" xmlns="http://www.w3.org/2000/svg">
<path d="M214.676 81.1476C207.034 58.7994 190.394 37.8073 171.368 21.914C128.494 -13.6696 60.8483 -3.47183 24.5865 35.4748C11.1983 49.9035 3.33886 67.9122 1.38755 89.1213C-0.563756 109.788 2.41741 130.075 10.3311 149.44C26.1583 188.441 58.3007 219.576 92.6113 250.658C118.195 273.82 209.365 344.77 214.731 349.001V81.1476H214.676Z" fill="url(#paint0_linear_16681_31535)"/>
<path d="M94.838 253.369C60.5275 222.288 28.4393 191.207 12.5578 152.152C4.69839 132.787 1.01258 111.415 2.96389 90.7482C4.96941 69.5933 12.2868 51.9643 25.7292 37.5356C61.991 -1.35679 130.775 -10.9036 173.649 24.7342C174.462 25.4394 175.275 26.1445 176.088 26.8497C174.245 25.1681 172.403 23.5408 170.505 22.022C127.685 -13.67 60.0397 -3.47227 23.7779 35.4744C10.3897 49.9031 2.53027 67.9118 0.57896 89.1209C-1.37235 109.788 1.60882 130.075 9.52246 149.439C25.3497 188.44 57.4921 219.576 91.8027 250.657C92.8325 251.579 93.9708 252.61 95.2175 253.695C95.109 253.586 95.0006 253.478 94.8922 253.369H94.838Z" fill="#E01D41"/>
<path d="M214.68 81.1474C222.322 58.7992 238.963 37.8071 257.988 21.9138C300.863 -13.724 368.508 -3.52625 404.77 35.4204C418.212 49.8491 426.017 67.8578 428.023 89.0669C429.974 109.734 426.993 130.021 419.079 149.385C403.252 188.386 371.11 219.522 336.799 250.603C311.215 273.765 220.046 344.715 214.68 348.946V81.1474Z" fill="url(#paint1_linear_16681_31535)"/>
<path d="M259.398 23.8118C299.075 -9.16812 360.92 -1.95377 398.537 30.104C361.3 -4.28623 298.045 -11.9345 257.23 21.9675C238.151 37.8065 221.565 58.8529 213.922 81.2011V83.5335C223.678 62.7584 242.649 37.7523 259.398 23.8118Z" fill="#E01D41"/>
<defs>
<linearGradient id="paint0_linear_16681_31535" x1="-63.6019" y1="108.812" x2="85.3643" y2="150.847" gradientUnits="userSpaceOnUse">
<stop stop-color="#FF9EB0"/>
<stop offset="1" stop-color="#D02138"/>
</linearGradient>
<linearGradient id="paint1_linear_16681_31535" x1="457.292" y1="128.827" x2="338.037" y2="156.669" gradientUnits="userSpaceOnUse">
<stop stop-color="#FF9EB0"/>
<stop offset="1" stop-color="#D02138"/>
</linearGradient>
</defs>
</svg>
