<svg width="48" height="10" viewBox="0 0 48 10" fill="none" xmlns="http://www.w3.org/2000/svg">
<path d="M21.7587 6.90209L20.5608 9.40041H20.0859L21.5159 6.40027L19.4492 2.07812H19.9996L21.7587 5.87686L23.5178 2.07812H24.0627L21.7587 6.90749V6.90209Z" fill="#1F0033"/>
<path d="M12.9258 2.07859H13.4114V2.2027C13.7136 1.91132 14.0751 1.76562 14.496 1.76562C14.9313 1.76562 15.3018 1.91851 15.6076 2.22428C15.6903 2.30702 15.7622 2.39695 15.8234 2.49408C15.8846 2.40055 15.9583 2.31061 16.0446 2.22428C16.3504 1.91851 16.7209 1.76562 17.1562 1.76562C17.5915 1.76562 17.962 1.91851 18.2678 2.22428C18.5591 2.51926 18.712 2.87359 18.7264 3.28728V7.3774H18.2408V3.28728H18.2462C18.2318 3.00669 18.1257 2.76747 17.9278 2.56962C17.712 2.35738 17.4548 2.25126 17.1562 2.25126C16.8576 2.25126 16.6004 2.35738 16.3846 2.56962C16.1723 2.78186 16.0662 3.04626 16.0662 3.36282V7.3774H15.5806V3.28728H15.586C15.5716 3.00669 15.4655 2.76747 15.2676 2.56962C15.0518 2.35738 14.7946 2.25126 14.496 2.25126C14.1974 2.25126 13.942 2.35738 13.7298 2.56962C13.5427 2.75308 13.4366 2.97791 13.4114 3.24411V7.3774H12.9258V2.07859Z" fill="#1F0033"/>
<path d="M4.57282 1.38143H2.98755L4.90553 0.0336196L4.57282 1.38143Z" fill="#EDE2FF"/>
<path d="M8.68911 0.0336194L10.6071 1.38143H9.02182L8.68911 0.0336194Z" fill="#853AE5"/>
<path d="M5.04598 0L6.62547 1.38143H4.70496L5.04598 0Z" fill="#BCB1FF"/>
<path d="M8.54867 0L8.88968 1.38143H6.96918L8.54867 0Z" fill="#CD9AFF"/>
<path d="M4.55249 1.51082L4.41293 3.00681L2.93756 1.51082H4.55249Z" fill="#E0B8FF"/>
<path d="M9.18172 3.00681L9.04216 1.51082H10.6571L9.18172 3.00681Z" fill="#A780FB"/>
<path d="M4.68128 1.51082H6.5994L4.54104 3.01408L4.68128 1.51082Z" fill="#BE9FFF"/>
<path d="M6.99525 1.51082H8.91336L9.0536 3.01408L6.99525 1.51082Z" fill="#D3B0FF"/>
<path d="M1.61869 3.08556L2.78959 1.5442L4.3097 3.08556H1.61869Z" fill="#C99EFF"/>
<path d="M11.976 3.08556H9.28495L10.8051 1.5442L11.976 3.08556Z" fill="#895BEB"/>
<path d="M4.66187 3.08556L6.73321 1.57281V3.08556H4.66187Z" fill="#D0B9FF"/>
<path d="M6.86144 3.08556V1.57281L8.93278 3.08556H6.86144Z" fill="#F0DDFF"/>
<path d="M1.59375 3.21494H4.34417L2.7905 5.56724L1.59375 3.21494Z" fill="#AA3FDC"/>
<path d="M10.8041 5.56724L9.25048 3.21494H12.0009L10.8041 5.56724Z" fill="#7E36DA"/>
<path d="M2.89605 5.64074L4.39983 3.36397V5.78695L2.89605 5.64074Z" fill="#A14CE4"/>
<path d="M10.6986 5.64074L9.19481 5.78695V3.36397L10.6986 5.64074Z" fill="#8F44EE"/>
<path d="M4.59998 3.21494H6.73321V5.82316L4.59998 3.21494Z" fill="#B489F9"/>
<path d="M6.86144 5.82316V3.21494H8.99466L6.86144 5.82316Z" fill="#AD89F9"/>
<path d="M6.6539 5.92946L4.52806 5.79735V3.33028L6.6539 5.92946Z" fill="#A85BF6"/>
<path d="M9.06659 5.79735L6.94075 5.92946L9.06659 3.33028V5.79735Z" fill="#9F5BF6"/>
<path d="M4.7274 7.9256L3.83044 6.84998L2.93347 5.77436L4.40848 5.91778L4.7274 7.9256Z" fill="#9C37CC"/>
<path d="M9.18617 5.91778L10.6612 5.77436L8.86725 7.9256L9.18617 5.91778Z" fill="#6F17B5"/>
<path d="M4.86981 8.00458L4.53992 5.92771L6.65823 6.05936L4.86981 8.00458Z" fill="#993BE3"/>
<path d="M8.72484 8.00458L6.93642 6.05936L9.05472 5.92771L8.72484 8.00458Z" fill="#8F3BE3"/>
<path d="M4.9246 8.13523L6.73321 6.16804V9.4L4.9246 8.13523Z" fill="#8823B8"/>
<path d="M8.67005 8.13523L6.86144 9.4V6.16804L8.67005 8.13523Z" fill="#6F1FAE"/>
<path d="M41.8665 2.16009C42.1411 1.9587 42.4579 1.85742 42.8137 1.85742C43.264 1.85742 43.6507 2.01687 43.9675 2.33364C44.0146 2.38079 44.0585 2.43026 44.099 2.48204C44.1398 2.43124 44.1844 2.38178 44.2325 2.33364C44.5493 2.01687 44.9361 1.85742 45.3864 1.85742C45.8367 1.85742 46.2234 2.01687 46.5402 2.33364L46.5407 2.33413C46.8421 2.63928 47.0015 3.00853 47.0164 3.43664L47.0164 3.43857V7.28833H46.3238V3.38063C46.2994 3.16539 46.21 2.98167 46.0541 2.82562C45.866 2.64076 45.6453 2.55005 45.3864 2.55005C45.1275 2.55005 44.9068 2.64076 44.7186 2.8256C44.5357 3.00866 44.4437 3.23535 44.4437 3.51357V7.28833H43.7511V3.38063C43.7267 3.16539 43.6373 2.98167 43.4814 2.82562C43.2933 2.64076 43.0726 2.55005 42.8137 2.55005C42.5546 2.55005 42.3359 2.64081 42.1515 2.82529L42.1511 2.82567L42.1507 2.82605C41.9902 2.98347 41.899 3.17459 41.8762 3.40415V7.28833H41.1836V2.16009H41.8665Z" fill="#A258FF"/>
<path fill-rule="evenodd" clip-rule="evenodd" d="M39.3052 6.71094C39.3415 6.67353 39.3768 6.63554 39.4111 6.59696V7.28774H40.1038V2.1595H39.4111V2.61503C39.3768 2.57645 39.3415 2.53845 39.3052 2.50104L39.3046 2.50041L39.304 2.49978C38.7229 1.91873 38.0179 1.62696 37.1952 1.62696C36.3758 1.62696 35.6725 1.91883 35.0916 2.49978C34.5105 3.08084 34.2188 3.78587 34.2188 4.6086C34.2188 5.428 34.5106 6.13125 35.0916 6.7122C35.6725 7.29315 36.3758 7.58503 37.1952 7.58503C38.0179 7.58503 38.7229 7.29325 39.304 6.7122L39.3046 6.71157L39.3052 6.71094ZM39.4111 4.15475C39.3273 3.72292 39.1218 3.34266 38.7915 3.0123C38.3497 2.57049 37.8196 2.3509 37.1952 2.3509C36.5707 2.3509 36.0407 2.57049 35.5989 3.0123C35.1571 3.45411 34.9375 3.98414 34.9375 4.6086C34.9375 5.233 35.157 5.76297 35.5987 6.20475C36.0404 6.64308 36.5705 6.86109 37.1952 6.86109C37.8196 6.86109 38.3497 6.64149 38.7915 6.19968C39.122 5.8692 39.3273 5.49061 39.4111 5.06237V4.15475Z" fill="#A258FF"/>
<path fill-rule="evenodd" clip-rule="evenodd" d="M31.1952 6.86109C30.6537 6.86109 30.1843 6.69486 29.7825 6.36162L33.467 2.67705L33.3972 2.59848C33.3678 2.56545 33.3368 2.53255 33.304 2.49978C33.2183 2.41411 33.1323 2.33527 33.046 2.26336L33.0452 2.26267L33.0444 2.26201C32.5158 1.83841 31.8978 1.62696 31.1952 1.62696C30.3758 1.62696 29.6725 1.91883 29.0916 2.49978C28.5106 3.08074 28.2188 3.78399 28.2188 4.60338C28.2188 5.42611 28.5105 6.13114 29.0916 6.7122C29.6725 7.29315 30.3758 7.58503 31.1952 7.58503C32.0179 7.58503 32.7229 7.29325 33.304 6.7122C33.4228 6.5934 33.5293 6.46887 33.6234 6.33857L33.7103 6.21831L33.0015 5.96465L32.9517 6.0245C32.9017 6.08446 32.8483 6.14286 32.7915 6.19968C32.3497 6.64149 31.8196 6.86109 31.1952 6.86109ZM29.6041 3.0123L29.6038 3.0126C29.1623 3.45082 28.9427 3.97894 28.9427 4.60338C28.9427 5.07408 29.0669 5.489 29.3144 5.85163L32.4434 2.72259C32.0808 2.47507 31.6659 2.3509 31.1952 2.3509C30.5744 2.3509 30.046 2.57037 29.6041 3.0123Z" fill="#A258FF"/>
<path fill-rule="evenodd" clip-rule="evenodd" d="M25.9421 0.376953H26.6348L26.6348 2.16069H27.6785V2.85332H26.6348L26.6348 7.28892H25.9421L25.9421 2.85332H24.8984V2.16069H25.9421L25.9421 0.376953Z" fill="#A258FF"/>
<path d="M0.727822 2.0625V7.36513H0.242188V2.0625H0.727822Z" fill="#1F0033"/>
<path d="M0.856072 0.300586C0.759087 0.20306 0.641587 0.154297 0.503571 0.154297C0.365556 0.154297 0.246191 0.20306 0.145476 0.300586C0.0484921 0.398112 0 0.516268 0 0.655055C0 0.797593 0.0484921 0.917625 0.145476 1.01515C0.246191 1.11268 0.365556 1.16144 0.503571 1.16144C0.641587 1.16144 0.759087 1.11268 0.856072 1.01515C0.956786 0.917625 1.00714 0.797593 1.00714 0.655055C1.00714 0.516268 0.956786 0.398112 0.856072 0.300586Z" fill="#1F0033"/>
</svg>
