<svg width="51" height="37" viewBox="0 0 51 37" fill="none" xmlns="http://www.w3.org/2000/svg">
<g style="mix-blend-mode:multiply" opacity="0.2">
<path d="M47.9872 35.0547C47.9872 34.3396 37.7532 33.7598 25.1225 33.7598C12.4918 33.7598 2.25781 34.3396 2.25781 35.0547C2.25781 35.7699 12.4918 36.3449 25.1225 36.3449C37.7532 36.3449 47.9872 35.7892 47.9872 35.0547Z" fill="#B66A13"/>
</g>
<path d="M47.9872 5.41016H2.25781L8.81475 33.1358C8.94018 33.6834 9.2472 34.1724 9.68585 34.5233C10.1245 34.8742 10.669 35.0664 11.2307 35.0686H39.0047C39.5664 35.0664 40.1109 34.8742 40.5495 34.5233C40.9882 34.1724 41.2952 33.6834 41.4206 33.1358L47.9872 5.41016Z" fill="#F5FD62"/>
<mask id="mask0_19549_82357" style="mask-type:luminance" maskUnits="userSpaceOnUse" x="2" y="5" width="46" height="31">
<path d="M47.9794 5.41016H2.25L8.80694 33.1358C8.93237 33.6834 9.23938 34.1724 9.67803 34.5233C10.1167 34.8742 10.6612 35.0664 11.2229 35.0686H38.9969C39.5586 35.0664 40.1031 34.8742 40.5417 34.5233C40.9804 34.1724 41.2874 33.6834 41.4128 33.1358L47.9794 5.41016Z" fill="white"/>
</mask>
<g mask="url(#mask0_19549_82357)">
<path d="M81.0145 41.1906L83.1875 39.0176L35.1249 -9.04504L32.9519 -6.87202L81.0145 41.1906Z" fill="#F49841"/>
<path d="M71.6004 41.1906L73.7734 39.0176L25.7108 -9.04504L23.5378 -6.87202L71.6004 41.1906Z" fill="#F49841"/>
<path d="M62.1864 41.1886L64.3594 39.0156L16.2968 -9.04699L14.1237 -6.87397L62.1864 41.1886Z" fill="#F49841"/>
<path d="M52.7723 41.1925L54.9453 39.0195L6.8827 -9.04308L4.70969 -6.87007L52.7723 41.1925Z" fill="#F49841"/>
<path d="M43.3504 41.1867L45.5234 39.0137L-2.53918 -9.04894L-4.71219 -6.87593L43.3504 41.1867Z" fill="#F49841"/>
<path d="M33.9364 41.1926L36.1094 39.0195L-11.9532 -9.04308L-14.1263 -6.87006L33.9364 41.1926Z" fill="#F49841"/>
<path d="M24.5223 41.1906L26.6953 39.0176L-21.3673 -9.04504L-23.5403 -6.87202L24.5223 41.1906Z" fill="#F49841"/>
<path d="M15.1004 41.1906L17.2734 39.0176L-30.7892 -9.04504L-32.9622 -6.87202L15.1004 41.1906Z" fill="#F49841"/>
<path d="M17.2746 -6.87191L15.1016 -9.04492L-32.9611 39.0177L-30.788 41.1907L17.2746 -6.87191Z" fill="#FFDE17"/>
<path d="M26.6964 -6.87191L24.5234 -9.04492L-23.5392 39.0177L-21.3662 41.1907L26.6964 -6.87191Z" fill="#FFDE17"/>
<path d="M36.1105 -6.8719L33.9375 -9.04492L-14.1251 39.0177L-11.9521 41.1907L36.1105 -6.8719Z" fill="#FFDE17"/>
<path d="M45.5324 -6.86996L43.3594 -9.04297L-4.70324 39.0196L-2.53023 41.1927L45.5324 -6.86996Z" fill="#FFDE17"/>
<path d="M54.9464 -6.87386L52.7734 -9.04688L4.71082 39.0157L6.88383 41.1888L54.9464 -6.87386Z" fill="#FFDE17"/>
<path d="M64.3605 -6.87385L62.1875 -9.04688L14.1249 39.0157L16.2979 41.1888L64.3605 -6.87385Z" fill="#FFDE17"/>
<path d="M73.7824 -6.87386L71.6094 -9.04688L23.5468 39.0157L25.7198 41.1888L73.7824 -6.87386Z" fill="#FFDE17"/>
<path d="M83.1964 -6.87191L81.0234 -9.04492L32.9608 39.0177L35.1338 41.1907L83.1964 -6.87191Z" fill="#FFDE17"/>
</g>
<path d="M47.9859 0.912109H2.24685C1.00595 0.912109 0 1.91806 0 3.15896V3.16379C0 4.40469 1.00595 5.41064 2.24685 5.41064H47.9859C49.2268 5.41064 50.2328 4.40469 50.2328 3.16379V3.15896C50.2328 1.91806 49.2268 0.912109 47.9859 0.912109Z" fill="#F5FD62"/>
<g style="mix-blend-mode:multiply" opacity="0.7">
<path d="M47.3126 8.23684L47.9842 5.41016H2.25L2.91681 8.23684H47.3126Z" fill="#B66A13"/>
</g>
<g opacity="0.1">
<path d="M26.4366 1.53906H2.95821C2.81597 1.53906 2.67955 1.59557 2.57896 1.69615C2.47838 1.79673 2.42188 1.93317 2.42188 2.07541C2.42188 2.21766 2.47838 2.35408 2.57896 2.45466C2.67955 2.55525 2.81597 2.61175 2.95821 2.61175H26.4366C26.5788 2.61175 26.7152 2.55525 26.8158 2.45466C26.9164 2.35408 26.9729 2.21766 26.9729 2.07541C26.9729 1.93317 26.9164 1.79673 26.8158 1.69615C26.7152 1.59557 26.5788 1.53906 26.4366 1.53906Z" fill="white"/>
<path d="M34.664 1.53906H29.3488C29.2066 1.53906 29.0702 1.59557 28.9696 1.69615C28.869 1.79673 28.8125 1.93317 28.8125 2.07541C28.8125 2.21766 28.869 2.35408 28.9696 2.45466C29.0702 2.55525 29.2066 2.61175 29.3488 2.61175H34.664C34.8062 2.61175 34.9426 2.55525 35.0432 2.45466C35.1438 2.35408 35.2003 2.21766 35.2003 2.07541C35.2003 1.93317 35.1438 1.79673 35.0432 1.69615C34.9426 1.59557 34.8062 1.53906 34.664 1.53906Z" fill="white"/>
</g>
</svg>
