<svg width="179" height="169" viewBox="0 0 179 169" fill="none" xmlns="http://www.w3.org/2000/svg">
<g clip-path="url(#clip0_19298_109916)">
<path d="M56.4008 153.04C50.4862 146.231 44.1964 139.758 37.5608 133.65C31.9172 128.731 26.8483 123.189 22.4508 117.13C18.8208 111.83 15.2008 106.34 13.4508 101.98C11.7008 97.62 8.80078 90.6901 8.80078 90.6901L8.05078 92.1301C8.05078 92.1301 11.8608 102.45 14.9008 108.36C17.9408 114.27 24.9008 123.07 26.6008 125.01C28.3008 126.95 36.8508 135.28 38.9208 137.01C42.7512 140.561 46.3865 144.316 49.8108 148.26C51.5008 150.41 55.4708 154.08 56.7508 156.26C58.0308 158.44 61.2308 162.92 61.2308 162.92L62.3408 165.5L64.1208 164.82C62.0787 160.57 59.4828 156.609 56.4008 153.04Z" fill="#5F3F87"/>
<path d="M81.9796 153.87C78.8996 146.95 76.5596 143.62 73.3196 137.87C70.0796 132.12 65.9996 125.08 61.1696 119.87C56.3396 114.66 49.4196 107.25 44.4096 102.41C39.3996 97.5701 30.6896 90.6601 26.9496 87.5901C23.2096 84.5201 10.2996 78.17 10.2996 78.17L9.09961 79.42C10.2199 79.6691 11.3122 80.0309 12.3596 80.5001C13.3596 81.0601 22.0096 85.5601 24.2896 87.5001C26.5696 89.4401 39.0196 99.2001 41.7496 102.12C44.4796 105.04 55.3396 115.68 58.9096 119.76C62.4796 123.84 68.4096 131.47 70.1796 135.63C71.9496 139.79 78.5496 149.39 80.1096 153.35C81.6696 157.31 85.8096 165.8 85.8096 165.8L87.1996 165.35C87.1996 165.35 85.0996 160.8 81.9796 153.87Z" fill="#5F3F87"/>
<path d="M64.6496 147.9C61.8196 142.17 54.6496 127.76 51.2296 123.07C47.8096 118.38 43.0596 109.07 39.6096 102.99C36.1596 96.91 32.2496 84.17 30.6996 80.4C29.1496 76.63 22.6296 58.59 21.3096 55.62C20.85 54.3416 20.1919 53.1436 19.3596 52.0699L18.5996 53.31C18.5996 53.31 22.5996 63.42 23.4996 65.59C24.3996 67.76 29.3096 80.86 30.8196 83.59C32.3296 86.32 36.9196 101.06 38.6296 103.81C40.3396 106.56 47.2896 119.81 48.9996 122.52C50.7096 125.23 55.4596 133.52 56.9996 135.69C58.5396 137.86 63.5696 149.92 66.3996 155.45C69.2296 160.98 71.1896 165.12 71.1896 165.12L73.1896 164.84C73.1896 164.84 67.4896 153.62 64.6496 147.9Z" fill="#5F3F87"/>
<path d="M87.6609 123.69C84.8609 118.77 74.1209 100.87 69.4509 94.41C64.7809 87.95 56.7609 72.97 53.4509 69.28C50.1409 65.59 39.4509 56.14 39.4509 56.14L38.8809 56.96C38.8809 56.96 50.3709 68.19 52.2709 70.53C54.1709 72.87 64.2709 88.78 65.5209 91.14C66.7709 93.5 77.5209 109.39 79.6409 113.14C81.7609 116.89 87.3808 126.32 88.9308 129.89C90.4808 133.46 94.1509 145.58 95.3009 149.35C96.4509 153.12 100.021 167.68 100.021 167.68C100.021 167.68 101.221 167.02 101.551 167.39C101.031 165.39 98.2109 151.79 96.1709 145.7C93.8809 138.99 90.4709 128.61 87.6609 123.69Z" fill="#5F3F87"/>
<path d="M101.609 167.61C101.613 167.568 101.607 167.526 101.594 167.487C101.58 167.447 101.558 167.411 101.529 167.38C101.579 167.6 101.609 167.69 101.609 167.61Z" fill="#5F3F87"/>
<path d="M87.0997 139.99C84.6097 132.65 79.4397 113.13 79.1797 106.3C78.9197 99.47 80.3797 74.68 81.3797 69.21C82.3797 63.74 83.7997 48.21 85.2197 43.32C86.6397 38.43 92.9797 20.09 92.9797 20.09L91.3598 19.75C91.3598 19.75 82.9697 42.2 82.2797 50.47C81.5897 58.74 79.6597 71.47 79.1697 74.52C78.6797 77.57 78.1698 95.08 77.8298 97.3C77.4898 99.52 77.7197 110.38 78.6797 114.37C79.6397 118.36 81.7298 130.94 83.2998 135.31C84.6451 138.734 85.7216 142.258 86.5198 145.85C86.7998 147.85 88.9297 161.65 88.9297 161.65L89.4797 165.45L91.0997 165.99L90.8397 164.39C90.8397 164.39 89.5697 147.35 87.0997 139.99Z" fill="#5F3F87"/>
<path d="M105.54 165.24C105.54 165.24 104.96 155.24 104.25 147.19C103.54 139.14 102.6 119.9 102.43 115.28C102.26 110.66 98.89 85.8501 97.68 80.4601C96.47 75.0701 90.27 55.0001 87.82 48.6601C85.37 42.3201 76.5 20.9301 76.5 20.9301L75.5 21.17L79.55 32.28C79.55 32.28 86.19 48.12 87.55 51.48C88.91 54.84 93.61 73.1801 95.65 79.1301C97.69 85.0801 100.11 106.32 100.78 113.33C101.45 120.34 101.91 143.06 102.46 147.06C103.01 151.06 104.46 167.7 104.46 167.7L105.86 167.45L105.54 165.24Z" fill="#5F3F87"/>
<path d="M123.8 55.9301C121.71 48.7701 114.49 25.5101 112.8 19.8501C111.386 15.6488 109.613 11.5771 107.5 7.68005L105.75 9.25005C105.75 9.25005 112.05 24.1 113.75 29.16C115.45 34.22 121.08 55.1601 122.11 58.4101C123.14 61.6601 124.8 81.4101 125.22 84.4101C125.64 87.4101 124.93 97.9001 125.02 100.31C125.11 102.72 123.02 112.96 121.92 116.62C120.82 120.28 116.92 136.42 116.42 138.55C115.92 140.68 113 151.66 111.62 155.03C110.24 158.4 105.86 167.42 105.86 167.42L108.77 167.2C108.77 167.2 114.54 152.5 117.22 143.65C119.9 134.8 126.1 109.25 126.95 98.9901C127.8 88.73 125.88 63.0901 123.8 55.9301Z" fill="#5F3F87"/>
<path d="M169.45 47.99C169.45 47.99 157.04 54.69 149.84 61.2C142.64 67.71 127.59 89.41 123.99 95.2C120.39 100.99 112.93 116.34 111.55 122.42C110.17 128.5 106.21 140.73 105.19 145.6C104.17 150.47 97.7305 166.2 97.7305 166.2L99.1505 166.54C99.1505 166.54 103.81 156.71 105.07 152.84C106.33 148.97 111.88 131.06 112.57 128.02C113.868 122.176 115.668 116.455 117.95 110.92C120.72 104.57 125.95 94.72 128.1 92.22C130.25 89.72 138.37 76.75 142.23 72.58C146.09 68.41 148.92 63.47 153.42 60.08C157.92 56.69 170.51 49.37 170.51 49.37L169.45 47.99Z" fill="#5F3F87"/>
<path d="M172.02 57.11C172.02 57.11 167.64 68.99 166.1 71.82C164.56 74.65 156.17 90.9 155.44 92.94C154.71 94.98 145.1 115.46 144.1 116.71C143.1 117.96 132.71 134.64 131.39 136.71C130.07 138.78 126.03 143.96 123.8 148.71C121.57 153.46 116.8 165.47 116.8 165.47L115.9 168.12L117.9 168.04C117.9 168.04 124.18 153.52 127.54 146.55C130.9 139.58 138.99 130.43 147.21 114.02C155.43 97.61 164.21 79.02 167.94 72.2C170.405 67.5401 172.311 62.6061 173.62 57.5L172.02 57.11Z" fill="#5F3F87"/>
<path d="M169.41 82.99C169.322 82.6972 169.14 82.4413 168.893 82.2609C168.645 82.0805 168.346 81.9854 168.04 81.99H167.75C167.492 81.8787 167.202 81.8597 166.931 81.9361C166.66 82.0126 166.423 82.1799 166.26 82.41L166.1 82.47C164.76 82.8694 163.538 83.5903 162.54 84.5699C162.194 84.9242 161.913 85.3373 161.71 85.7899C160.71 86.7899 159 88.72 160 90.28C160.61 91.23 161.74 91.1299 162.68 90.8499C163.486 90.6066 164.262 90.271 164.99 89.8499L165.46 89.5399C165.771 89.3827 166.072 89.2056 166.36 89.0099C167.718 88.1019 168.765 86.8003 169.36 85.28C169.448 85.0505 169.512 84.8125 169.55 84.5699C169.655 84.3145 169.697 84.0378 169.672 83.763C169.648 83.4881 169.558 83.2231 169.41 82.99Z" fill="#C7C0F3"/>
<path d="M178.381 42.5201C178.12 42.1323 177.739 41.8397 177.298 41.6865C176.856 41.5332 176.376 41.5274 175.931 41.67C174.184 41.9606 172.579 42.8138 171.361 44.1C170.762 44.7261 170.275 45.4499 169.921 46.2401C169.732 46.6509 169.598 47.0846 169.521 47.5301L169.391 47.7701C169.201 48.1768 169.144 48.6327 169.226 49.0739C169.309 49.515 169.527 49.9193 169.851 50.23C169.984 50.4198 170.178 50.5576 170.401 50.6201C171.721 51.3101 173.161 50.5501 174.311 49.7101C174.984 49.3168 175.591 48.8208 176.111 48.2401C177.076 47.4235 177.842 46.3974 178.351 45.2401C178.548 44.8145 178.652 44.3521 178.657 43.8833C178.662 43.4145 178.568 42.9498 178.381 42.5201Z" fill="#C7C0F3"/>
<path d="M149.1 56.7C149.077 56.0806 148.885 55.4793 148.545 54.9611C148.204 54.4429 147.729 54.0276 147.17 53.76C145.81 53.31 144.56 54.25 143.81 55.29C143.051 56.3131 142.538 57.497 142.31 58.75C142.076 60.0115 142.124 61.3091 142.45 62.55C142.524 62.8602 142.645 63.1571 142.81 63.43C142.927 64.0351 143.101 64.6278 143.33 65.2C143.378 65.3421 143.458 65.4715 143.563 65.5786C143.668 65.6857 143.796 65.7677 143.937 65.8186C144.079 65.8695 144.229 65.888 144.379 65.8726C144.528 65.8573 144.672 65.8085 144.8 65.73C145.03 65.59 145.25 65.44 145.47 65.28C145.952 65.1111 146.395 64.847 146.773 64.5035C147.151 64.1599 147.456 63.7438 147.67 63.28C147.932 62.8188 148.14 62.3289 148.29 61.82C148.548 61.2916 148.752 60.7389 148.9 60.17C149.202 59.039 149.27 57.8582 149.1 56.7Z" fill="#C7C0F3"/>
<path d="M163.259 70.5699C162.759 69.5699 161.95 68.4699 160.69 68.5699C159.43 68.6699 158.689 69.82 158.429 70.89C158.148 72.0208 158.08 73.1942 158.229 74.3499C158.169 74.9718 158.169 75.5981 158.229 76.22C158.217 77.1974 158.466 78.1605 158.949 79.0099C159.048 79.2119 159.172 79.4001 159.319 79.5699C159.516 79.7467 159.746 79.8827 159.996 79.9699C160.246 80.0571 160.511 80.0939 160.775 80.0781C161.039 80.0623 161.298 79.9942 161.535 79.8778C161.773 79.7614 161.985 79.599 162.159 79.4C162.296 79.2617 162.42 79.111 162.529 78.95C163.016 78.4418 163.388 77.8347 163.619 77.17C164.005 76.1247 164.175 75.0125 164.119 73.9C164.06 72.7434 163.767 71.6107 163.259 70.5699Z" fill="#C7C0F3"/>
<path d="M153.509 94.99C153.509 94.68 153.509 94.36 153.429 94.05C153.454 93.9112 153.454 93.769 153.429 93.6301C153.395 93.5147 153.355 93.4012 153.309 93.29C153.309 93.18 153.309 93.07 153.239 92.96C153.182 92.7265 153.034 92.5252 152.829 92.4001C152.769 92.2701 152.709 92.1301 152.639 92.0001C152.499 91.7834 152.28 91.6293 152.029 91.57L151.869 91.45L151.629 91.36C151.573 91.3503 151.515 91.3503 151.459 91.36C151.152 91.2137 150.809 91.1594 150.472 91.2038C150.135 91.2481 149.818 91.3893 149.559 91.61C148.963 91.7749 148.434 92.1251 148.049 92.61C147.671 93.2321 147.43 93.9271 147.34 94.6493C147.25 95.3715 147.315 96.1045 147.529 96.8C147.529 96.97 147.589 97.15 147.629 97.33C147.648 98.1012 147.762 98.867 147.969 99.61C148.066 100.137 148.317 100.624 148.689 101.01C148.75 101.307 148.855 101.593 148.999 101.86C149.151 102.112 149.372 102.316 149.636 102.447C149.9 102.578 150.196 102.631 150.489 102.6C150.785 102.563 151.068 102.46 151.319 102.299C151.57 102.138 151.782 101.923 151.939 101.67C152.035 101.509 152.102 101.333 152.139 101.15C152.667 100.652 153.063 100.03 153.289 99.3401C153.56 98.4322 153.619 97.474 153.459 96.54C153.521 96.0258 153.538 95.5072 153.509 94.99Z" fill="#C7C0F3"/>
<path d="M141.97 83.72C141.907 83.1994 141.679 82.7126 141.32 82.33C141.237 82.1591 141.125 82.0035 140.99 81.87C140.24 81.17 138.9 81.4 137.99 81.55C136.992 81.7004 136.031 82.0398 135.16 82.55C134.317 83.0446 133.608 83.7378 133.094 84.5691C132.579 85.4004 132.276 86.3447 132.21 87.32C132.15 88.38 132.46 89.62 133.66 89.85H134.02C134.308 89.9571 134.613 90.008 134.92 90C135.936 89.9406 136.93 89.6752 137.84 89.22C139.37 88.52 140.97 87.42 141.48 85.78C141.86 85.1635 142.032 84.4414 141.97 83.72Z" fill="#C7C0F3"/>
<path d="M132.291 54.05C131.971 53.05 131.291 52.05 130.051 52.35C129.108 52.7504 128.327 53.4544 127.831 54.35C126.635 55.9511 125.769 57.7727 125.281 59.71C125.018 60.6875 124.9 61.6983 124.931 62.71C124.921 63.7436 125.32 64.7391 126.041 65.48C126.206 65.6188 126.404 65.712 126.616 65.7506C126.829 65.7892 127.047 65.7717 127.251 65.7C127.426 65.7506 127.612 65.7522 127.788 65.7046C127.965 65.657 128.124 65.562 128.251 65.43C128.798 64.8646 129.316 64.2704 129.801 63.65C130.11 63.2889 130.401 62.9117 130.671 62.52C131.279 61.6243 131.761 60.6483 132.101 59.62C132.791 57.8381 132.858 55.8749 132.291 54.05Z" fill="#C7C0F3"/>
<path d="M123.101 31.16C123.003 30.4594 122.839 29.7697 122.611 29.1C122.505 28.7705 122.332 28.4663 122.103 28.2065C121.874 27.9467 121.594 27.7369 121.281 27.59C120.934 27.4548 120.56 27.4067 120.191 27.45C120.041 27.4348 119.89 27.4348 119.741 27.45C119.061 27.5684 118.428 27.8761 117.915 28.3377C117.402 28.7994 117.03 29.3963 116.841 30.06C116.605 30.7681 116.537 31.5211 116.641 32.26C116.596 32.3816 116.576 32.5107 116.581 32.64C116.667 34.1798 117.073 35.6848 117.771 37.06C117.913 37.5244 118.152 37.9536 118.471 38.32C118.736 38.59 119.072 38.7794 119.44 38.8661C119.808 38.9528 120.193 38.9334 120.551 38.81C120.951 38.669 121.311 38.4321 121.598 38.1201C121.886 37.8081 122.093 37.4304 122.201 37.02C122.893 36.0181 123.282 34.8375 123.321 33.62C123.343 32.7943 123.269 31.9687 123.101 31.16Z" fill="#C7C0F3"/>
<path d="M107.98 5.51003C107.366 3.98665 106.42 2.61989 105.21 1.51003C104.665 0.901844 103.964 0.455142 103.183 0.218801C102.401 -0.0175402 101.57 -0.0344256 100.78 0.170019C100.084 0.446003 99.5 0.945702 99.1197 1.59029C98.7395 2.23488 98.5846 2.9877 98.6796 3.73003C98.9242 5.88248 99.9702 7.86391 101.61 9.28002C101.952 9.75729 102.359 10.1847 102.82 10.55C104.19 11.55 106.06 11.78 107.21 10.29C107.714 9.61471 108.048 8.82713 108.182 7.9947C108.316 7.16226 108.247 6.30973 107.98 5.51003Z" fill="#C7C0F3"/>
<path d="M119.271 53.1L118.931 52.8C118.505 52.2587 118.011 51.7747 117.461 51.36C117.081 50.9636 116.58 50.7052 116.036 50.6255C115.493 50.5458 114.939 50.6495 114.461 50.92C114.093 50.9328 113.732 51.0233 113.401 51.1855C113.071 51.3478 112.778 51.5782 112.543 51.8615C112.308 52.1449 112.135 52.4748 112.037 52.8296C111.938 53.1843 111.916 53.5559 111.971 53.92C112.341 55.4954 113.165 56.9278 114.341 58.04C114.719 58.718 115.256 59.2942 115.906 59.7192C116.555 60.1442 117.298 60.4052 118.071 60.48C118.353 60.4874 118.634 60.464 118.911 60.41C119.332 60.4486 119.755 60.3689 120.133 60.1798C120.511 59.9908 120.829 59.6999 121.051 59.34C121.246 58.9905 121.356 58.5999 121.371 58.2C121.424 58.0545 121.461 57.9036 121.481 57.75C121.701 55.87 120.591 54.32 119.271 53.1Z" fill="#C7C0F3"/>
<path d="M146.91 126.24C146.775 126.089 146.616 125.96 146.44 125.86C146.322 125.709 146.169 125.589 145.996 125.509C145.822 125.429 145.631 125.391 145.44 125.4C145.161 125.4 144.885 125.457 144.63 125.57H144.53C143.533 125.706 142.556 125.961 141.62 126.33C140.714 126.646 139.887 127.155 139.196 127.821C138.506 128.488 137.968 129.296 137.62 130.19C137.542 130.436 137.479 130.687 137.43 130.94C137.209 131.195 137.045 131.493 136.946 131.815C136.848 132.137 136.819 132.476 136.86 132.81C136.827 133.145 136.85 133.483 136.93 133.81C137.064 134.285 137.359 134.698 137.763 134.981C138.168 135.263 138.658 135.397 139.15 135.36C140.124 135.213 141.058 134.873 141.9 134.36C142.763 133.956 143.569 133.442 144.3 132.83C145.388 131.945 146.197 130.764 146.63 129.43C147.4 128.42 147.8 127.22 146.91 126.24Z" fill="#C7C0F3"/>
<path d="M111.101 123.99C110.975 123.035 110.687 122.108 110.251 121.25C110.191 121.13 110.121 120.99 110.041 120.86C109.928 120.546 109.783 120.245 109.611 119.96C109.37 119.509 108.992 119.147 108.532 118.926C108.072 118.704 107.553 118.636 107.051 118.73C106.584 118.886 106.165 119.16 105.835 119.524C105.504 119.888 105.272 120.331 105.161 120.81C104.892 121.711 104.817 122.658 104.941 123.59C105.051 125.475 105.787 127.269 107.031 128.69C107.336 129.127 107.754 129.473 108.241 129.69C108.386 129.736 108.538 129.763 108.691 129.77L108.791 129.82C109.003 129.868 109.226 129.845 109.425 129.755C109.623 129.665 109.787 129.512 109.891 129.32C110.921 127.746 111.35 125.854 111.101 123.99Z" fill="#C7C0F3"/>
<path d="M108.89 100.24C108.776 100.068 108.629 99.9211 108.458 99.8072C108.286 99.6932 108.094 99.6148 107.891 99.5766C107.689 99.5383 107.481 99.5411 107.28 99.5846C107.079 99.6282 106.888 99.7116 106.72 99.83L106.5 99.89C105.705 100.176 105.01 100.687 104.5 101.36C104.167 101.779 103.872 102.228 103.62 102.7C102.878 103.754 102.361 104.948 102.1 106.21C101.81 107.67 101.68 109.68 102.68 110.93C102.948 111.287 103.331 111.541 103.765 111.649C104.198 111.756 104.656 111.711 105.06 111.52C105.813 111.099 106.459 110.51 106.95 109.8C108.537 107.812 109.401 105.344 109.4 102.8C109.479 101.915 109.302 101.027 108.89 100.24Z" fill="#C7C0F3"/>
<path d="M96.5491 81.43C96.4807 81.1916 96.3972 80.9578 96.2991 80.73C96.3038 80.6667 96.3038 80.6032 96.2991 80.54C96.1892 80.0537 95.9842 79.5939 95.6959 79.1872C95.4075 78.7804 95.0416 78.4347 94.6191 78.17C94.4163 78.0317 94.206 77.9048 93.9891 77.79L93.6391 77.55C92.9621 77.1134 92.209 76.8081 91.4191 76.65C91.2514 76.6163 91.0778 76.6261 90.9149 76.6787C90.7521 76.7312 90.6055 76.8246 90.4891 76.95C90.0441 77.0072 89.6135 77.1462 89.2191 77.36C88.777 77.6063 88.4138 77.9728 88.1714 78.417C87.9289 78.8612 87.8172 79.365 87.8491 79.87C87.9568 80.8827 88.4468 81.8161 89.2191 82.48C89.8691 83.1 90.6091 83.66 91.3191 84.22C92.0536 84.8872 92.975 85.313 93.9591 85.44C94.4601 85.4862 94.9637 85.3849 95.4079 85.1486C95.852 84.9123 96.2174 84.5513 96.4591 84.11C96.8184 83.2583 96.8504 82.3039 96.5491 81.43Z" fill="#C7C0F3"/>
<path d="M96.9502 50.22C95.3402 49.97 94.2802 51.32 93.5202 52.53C91.8902 55.12 90.7801 58.23 91.6501 61.29C91.8298 62.1055 92.2352 62.854 92.8202 63.45C92.9169 63.5322 93.0206 63.6058 93.1302 63.67C94.5002 64.72 96.1301 63.41 96.9001 62.3C97.6999 61.1119 98.2635 59.7811 98.5601 58.38C99.0431 56.7798 99.3055 55.1211 99.3401 53.45C99.3763 52.7184 99.158 51.9968 98.7223 51.408C98.2866 50.8191 97.6604 50.3994 96.9502 50.22Z" fill="#C7C0F3"/>
<path d="M81.7399 35.89C80.7556 34.5227 79.3161 33.5512 77.6798 33.15C77.2632 33.042 76.8385 32.9684 76.4098 32.93C75.469 32.4968 74.4457 32.2717 73.4098 32.27C72.5938 32.2674 71.7981 32.5247 71.1382 33.0048C70.4783 33.4849 69.9885 34.1628 69.7399 34.94C69.2999 36.63 70.4899 38.09 71.7399 39.06C73.0556 40.0627 74.5855 40.7472 76.2098 41.06C77.8598 41.39 79.7898 41.43 81.1598 40.29C81.7983 39.7681 82.2137 39.0225 82.3215 38.2049C82.4292 37.3874 82.2213 36.5595 81.7399 35.89Z" fill="#C7C0F3"/>
<path d="M89.7792 111.67C89.6218 110.889 89.3309 110.142 88.9192 109.46C88.8228 109.316 88.7122 109.182 88.5892 109.06C88.4263 108.629 88.2114 108.219 87.9492 107.84C87.2892 106.92 86.3592 107.03 85.4692 107.54C84.7376 107.968 84.1681 108.625 83.8492 109.41C83.7721 109.616 83.7086 109.826 83.6592 110.04C83.0353 111.328 82.9002 112.8 83.2792 114.18C83.3611 114.486 83.4613 114.786 83.5792 115.08C83.5792 115.18 83.5792 115.28 83.5792 115.38C83.5895 116.164 83.728 116.941 83.9892 117.68C84.1362 118.078 84.3754 118.436 84.6873 118.724C84.9992 119.012 85.3748 119.223 85.7835 119.338C86.1922 119.453 86.6223 119.469 87.0387 119.386C87.4551 119.303 87.8459 119.123 88.1791 118.86C88.8572 118.31 89.3929 117.605 89.741 116.804C90.0891 116.004 90.2394 115.131 90.1791 114.26C90.1463 113.384 90.012 112.515 89.7792 111.67Z" fill="#C7C0F3"/>
<path d="M81.0192 125.44C81.0468 124.484 80.7586 123.546 80.1992 122.77C79.308 121.562 78.1864 120.542 76.8991 119.77C76.3146 119.388 75.6544 119.138 74.9639 119.036C74.2733 118.934 73.5689 118.983 72.8991 119.18C72.2402 119.414 71.6687 119.845 71.2612 120.413C70.8537 120.981 70.6297 121.661 70.6191 122.36C70.618 123.061 70.7643 123.755 71.0486 124.395C71.3328 125.036 71.7487 125.61 72.2692 126.08C73.2997 127.071 74.4768 127.898 75.7592 128.53C77.0492 129.18 78.7591 129.62 80.1191 128.86C81.4791 128.1 81.2992 126.67 81.0192 125.44Z" fill="#C7C0F3"/>
<path d="M69.3 97.64C67.7198 96.6165 65.9148 95.9919 64.04 95.82C63.7726 95.7845 63.5011 95.8409 63.27 95.98C63.0436 95.9653 62.8164 95.9653 62.59 95.98C62.1808 95.9554 61.7711 96.0176 61.3877 96.1625C61.0042 96.3073 60.6557 96.5315 60.3649 96.8204C60.0741 97.1093 59.8476 97.4564 59.7003 97.8389C59.553 98.2214 59.4881 98.6307 59.51 99.04C59.67 100.74 61.04 101.89 62.41 102.71C63.8052 103.554 65.3827 104.052 67.01 104.16C67.7989 104.251 68.5972 104.11 69.3075 103.755C70.0179 103.4 70.6094 102.846 71.01 102.16C71.87 100.3 70.77 98.64 69.3 97.64Z" fill="#C7C0F3"/>
<path d="M71.5905 82.83C71.2814 82.1598 70.9098 81.5203 70.4805 80.92C70.4178 80.5718 70.2865 80.2395 70.0942 79.9426C69.9019 79.6456 69.6525 79.3898 69.3606 79.19C68.9491 78.9774 68.4712 78.9327 68.0274 79.0651C67.5835 79.1975 67.2083 79.4967 66.9805 79.9C64.8405 82.83 63.8105 88.65 67.5605 90.81C67.9725 91.0575 68.4304 91.2189 68.9065 91.2842C69.3827 91.3495 69.8672 91.3175 70.3306 91.19C70.7835 90.9967 71.1819 90.6949 71.4906 90.3112C71.7992 89.9276 72.0087 89.4738 72.1005 88.99C72.6931 86.9437 72.5116 84.7509 71.5905 82.83Z" fill="#C7C0F3"/>
<path d="M60.3605 65.78C60.0684 64.9975 59.7034 64.2442 59.2705 63.53C59.1864 63.3708 59.0539 63.2424 58.8922 63.1633C58.7304 63.0842 58.5477 63.0586 58.3704 63.09C58.1436 62.9633 57.8918 62.8878 57.6326 62.8688C57.3735 62.8498 57.1133 62.8877 56.8704 62.98C56.1675 63.3756 55.626 64.0056 55.3404 64.76C55.0163 65.4522 54.8037 66.1913 54.7104 66.95C54.5417 68.5151 54.7297 70.098 55.2605 71.58C55.7905 73.08 56.8604 74.58 58.6304 74.58C59.0548 74.5722 59.4691 74.4501 59.8299 74.2266C60.1907 74.0031 60.4845 73.6865 60.6804 73.31C61.0154 72.5168 61.1757 71.6607 61.1504 70.8C61.2218 69.0909 60.9533 67.3846 60.3605 65.78Z" fill="#C7C0F3"/>
<path d="M50.1602 68.63C49.6988 67.5279 48.8224 66.6514 47.7202 66.19C46.4631 65.7629 45.1763 65.4287 43.8702 65.19C43.7594 65.1571 43.6432 65.1464 43.5283 65.1584C43.4133 65.1704 43.3018 65.2049 43.2002 65.26C42.3137 65.0455 41.381 65.1335 40.5502 65.51C40.3704 65.6136 40.2137 65.7532 40.0902 65.92C39.777 65.9611 39.4766 66.0703 39.2102 66.24C37.2102 67.6 39.4602 70.4 40.7002 71.39C42.3005 72.6792 44.3309 73.3119 46.3802 73.16C47.5418 73.1071 48.6486 72.6509 49.5102 71.87C49.9239 71.4529 50.206 70.9236 50.3215 70.3476C50.4371 69.7716 50.381 69.1744 50.1602 68.63Z" fill="#C7C0F3"/>
<path d="M40.6403 53.99C40.4726 53.3838 40.2655 52.7892 40.0203 52.21C39.5173 50.9576 38.6587 49.88 37.5503 49.11C37.4353 49.0316 37.2994 48.9898 37.1602 48.99C36.9525 48.6407 36.6645 48.3459 36.3202 48.13C36.1637 48.0273 35.9874 47.9582 35.8027 47.9273C35.618 47.8963 35.4289 47.9041 35.2474 47.9502C35.0659 47.9963 34.8959 48.0796 34.7484 48.195C34.6008 48.3103 34.4789 48.455 34.3903 48.62C34.1549 49.1128 33.9835 49.6337 33.8802 50.17C33.667 51.2626 33.6758 52.387 33.906 53.4762C34.1362 54.5654 34.5831 55.5971 35.2202 56.51C35.9235 57.6142 36.9815 58.4465 38.2202 58.87C38.5977 58.9534 38.9898 58.9447 39.3632 58.8447C39.7366 58.7447 40.0805 58.5563 40.3658 58.2955C40.6512 58.0347 40.8696 57.7091 41.0026 57.3461C41.1357 56.9831 41.1794 56.5934 41.1302 56.21C41.0565 55.453 40.892 54.7077 40.6403 53.99Z" fill="#C7C0F3"/>
<path d="M48.5309 98.46C48.0439 97.387 47.3663 96.4111 46.5309 95.58C46.3816 95.431 46.1891 95.333 45.9809 95.3C45.8809 95.21 45.8009 95.11 45.7009 95.03C45.2824 94.6878 44.7654 94.4886 44.2255 94.4617C43.6857 94.4347 43.1513 94.5813 42.7009 94.88C42.4955 94.9917 42.3161 95.1457 42.1748 95.3319C42.0334 95.5181 41.9332 95.7322 41.8809 95.96C41.8752 96.0366 41.8752 96.1135 41.8809 96.19C41.7735 96.5704 41.7263 96.9651 41.7409 97.36C41.7806 98.3255 41.9522 99.281 42.2509 100.2C42.5266 101.217 43.0526 102.149 43.7809 102.91C44.1773 103.316 44.6545 103.634 45.1816 103.844C45.7086 104.054 46.2739 104.152 46.8409 104.13C47.4783 104.109 48.0853 103.852 48.5436 103.408C49.002 102.965 49.279 102.366 49.3209 101.73C49.3318 100.591 49.0603 99.468 48.5309 98.46Z" fill="#C7C0F3"/>
<path d="M65.5094 113.84C64.7224 111.43 63.3477 109.255 61.5094 107.51C61.2804 107.251 61.0101 107.031 60.7093 106.86C60.4427 106.721 60.1499 106.639 59.8497 106.619C59.5495 106.6 59.2486 106.643 58.9662 106.747C58.6838 106.85 58.4261 107.012 58.2097 107.221C57.9932 107.43 57.8228 107.681 57.7093 107.96C57.2342 109.111 57.0621 110.364 57.2093 111.6C57.2792 112.875 57.5387 114.132 57.9794 115.33C58.7594 117.41 60.3693 119.68 62.8993 119.4C63.515 119.341 64.0998 119.102 64.5801 118.713C65.0604 118.323 65.415 117.8 65.5994 117.21C65.9092 116.103 65.8778 114.929 65.5094 113.84Z" fill="#C7C0F3"/>
<path d="M53.3307 131.21C53.2107 131.16 53.0807 131.13 52.9507 131.09C52.3141 130.616 51.6049 130.248 50.8507 130C50.1091 129.772 49.3443 129.628 48.5707 129.57C47.8672 129.475 47.1542 129.475 46.4507 129.57C46.0694 129.625 45.7134 129.793 45.4297 130.054C45.1459 130.314 44.9476 130.655 44.8607 131.03C44.7712 131.713 44.8788 132.407 45.1707 133.03C45.6927 134.221 46.5165 135.255 47.5607 136.03C48.6238 136.855 49.7862 137.544 51.0207 138.08C51.6719 138.432 52.4005 138.616 53.1407 138.616C53.8809 138.616 54.6095 138.432 55.2607 138.08C58.1007 136.25 55.7607 132.2 53.3307 131.21Z" fill="#C7C0F3"/>
<path d="M67.8209 135.76C67.8251 135.73 67.8251 135.7 67.8209 135.67C67.8227 134.955 67.6216 134.254 67.241 133.649C66.8605 133.043 66.316 132.558 65.6709 132.25C63.4009 131.34 61.7909 133.56 61.0409 135.41C60.2624 137.277 60.1355 139.352 60.6809 141.3C60.7892 141.891 61.0851 142.43 61.5247 142.839C61.9643 143.248 62.5241 143.505 63.1209 143.57C64.2397 143.61 65.3465 143.329 66.3109 142.76C66.7837 142.413 67.1704 141.962 67.4409 141.442C67.7114 140.922 67.8585 140.346 67.8709 139.76C68.0543 138.432 68.0374 137.083 67.8209 135.76Z" fill="#C7C0F3"/>
<path d="M32.55 97.19C31.9047 96.8752 31.1842 96.747 30.47 96.82C30.3338 96.8421 30.2021 96.886 30.08 96.95C29.7966 96.9629 29.521 97.0466 29.2782 97.1933C29.0354 97.34 28.8332 97.5451 28.69 97.79C28.4518 98.4052 28.4064 99.0784 28.56 99.72C28.6495 100.326 28.8281 100.916 29.09 101.47C29.6089 102.577 30.4624 103.494 31.53 104.09C32.582 104.67 33.7838 104.921 34.98 104.81C35.6059 104.779 36.2156 104.6 36.76 104.29C37.0579 104.074 37.2923 103.782 37.4383 103.444C37.5843 103.106 37.6367 102.735 37.59 102.37C37.42 99.68 34.78 98.12 32.55 97.19Z" fill="#C7C0F3"/>
<path d="M36.9408 74.39C36.9937 73.9408 36.9295 73.4854 36.7542 73.0683C36.579 72.6513 36.2987 72.2867 35.9408 72.01C35.4166 71.7765 34.8429 71.6763 34.2706 71.7181C33.6984 71.76 33.1453 71.9428 32.6608 72.2501C31.7596 72.8141 31.0137 73.5944 30.4908 74.5201C29.7699 75.4301 29.3818 76.5592 29.3908 77.7201C29.4608 78.7261 29.7293 79.7083 30.1808 80.61C30.4523 81.1133 30.862 81.5285 31.3616 81.8066C31.8613 82.0848 32.43 82.2143 33.0008 82.1801C33.5655 82.1481 34.1158 81.9895 34.6108 81.716C35.1059 81.4425 35.5331 81.0611 35.8608 80.6C36.4574 79.6945 36.8611 78.6758 37.0469 77.6074C37.2327 76.539 37.1966 75.4439 36.9408 74.39Z" fill="#C7C0F3"/>
<path d="M21.1005 62.45C20.5919 61.8361 19.9439 61.3526 19.2105 61.04C18.7357 60.8049 18.2003 60.721 17.6763 60.7997C17.1524 60.8784 16.6652 61.1158 16.2805 61.48C15.9939 61.83 15.7901 62.2403 15.6845 62.6802C15.5789 63.12 15.5741 63.5781 15.6705 64.0201C16.0753 65.7776 17.1522 67.3067 18.6705 68.2801C19.4523 69.0231 20.4735 69.4627 21.5505 69.5201C22.123 69.4454 22.6464 69.1582 23.017 68.7154C23.3875 68.2727 23.5779 67.7068 23.5505 67.1301C23.5501 66.2102 23.327 65.3041 22.9003 64.4891C22.4737 63.6742 21.8562 62.9745 21.1005 62.45Z" fill="#C7C0F3"/>
<path d="M19.6792 46.86C19.6164 46.7353 19.5193 46.6312 19.3992 46.56C18.8292 45.33 17.8592 44.03 16.3992 44.75C15.1292 45.36 14.5492 47.04 14.3992 48.35C14.2316 49.7491 14.4748 51.1668 15.0992 52.43C15.3811 53.0636 15.7943 53.6301 16.3115 54.0921C16.8286 54.5541 17.438 54.901 18.0992 55.11C18.5113 55.2272 18.9474 55.2305 19.3612 55.1196C19.775 55.0087 20.151 54.7876 20.4492 54.48C20.9687 53.8361 21.2131 53.0131 21.1292 52.19C21.0108 50.3337 20.5175 48.5205 19.6792 46.86Z" fill="#C7C0F3"/>
<path d="M10.2007 77.84C10.1033 77.0536 9.80356 76.3059 9.33072 75.67C8.906 75.0504 8.37031 74.5148 7.7507 74.09C7.61006 73.938 7.48291 73.7741 7.3707 73.6C7.30834 73.4914 7.22424 73.3969 7.12366 73.3222C7.02307 73.2476 6.90819 73.1946 6.78616 73.1664C6.66414 73.1383 6.5376 73.1356 6.41449 73.1586C6.29138 73.1816 6.17435 73.2297 6.07071 73.3L5.5607 73.18C4.75979 73.0139 3.93185 73.0291 3.1376 73.2247C2.34336 73.4202 1.60295 73.7911 0.970703 74.31C0.665284 74.5653 0.418025 74.883 0.245544 75.2418C0.0730641 75.6005 -0.0206443 75.9921 -0.0292969 76.39C0.058244 77.2498 0.448044 78.0507 1.07071 78.65C2.01201 79.6683 3.2703 80.338 4.64072 80.55C6.07051 80.816 7.54748 80.5069 8.7507 79.69L8.8107 79.63C9.224 79.559 9.59579 79.3359 9.853 79.0047C10.1102 78.6735 10.2342 78.2581 10.2007 77.84Z" fill="#C7C0F3"/>
<path d="M26.5009 89.33C26.5009 89.27 26.4109 89.22 26.3709 89.17V89.11C25.8112 88.3336 24.9916 87.7837 24.0609 87.56C22.1183 87.1094 20.0826 87.2915 18.2509 88.08C17.3109 88.47 16.4009 89.01 16.2509 90.08C16.201 90.5552 16.2796 91.035 16.4784 91.4695C16.6771 91.9039 16.9888 92.2771 17.3809 92.55C19.2665 93.7375 21.5384 94.1496 23.7209 93.7C24.2609 93.615 24.7928 93.4846 25.3109 93.31C25.8937 93.1618 26.4388 92.8926 26.9109 92.52C27.7809 91.69 27.0309 90.18 26.5009 89.33Z" fill="#C7C0F3"/>
<path d="M10.0991 87.45C9.68199 87.0911 9.17764 86.8485 8.6369 86.7467C8.09617 86.6449 7.53817 86.6874 7.0191 86.87C6.6595 86.9308 6.31792 87.0709 6.0191 87.28C5.6186 87.5848 5.28625 87.97 5.04343 88.4109C4.8006 88.8518 4.65268 89.3386 4.6091 89.84C4.43315 90.2656 4.31542 90.7129 4.25909 91.17C4.20766 91.8206 4.30929 92.4743 4.55588 93.0786C4.80246 93.6829 5.18713 94.221 5.67908 94.65C6.0066 95.4964 6.57722 96.2271 7.31909 96.75C7.62162 96.9393 7.9609 97.0622 8.31448 97.1105C8.66806 97.1588 9.02786 97.1315 9.37009 97.0303C9.71232 96.9292 10.0292 96.7565 10.2997 96.5237C10.5701 96.2909 10.7881 96.0033 10.9391 95.68C11.2296 95.0482 11.4122 94.3721 11.4791 93.68C11.5974 92.9088 11.6609 92.1301 11.6691 91.35C11.7062 90.6249 11.585 89.9004 11.3139 89.2269C11.0428 88.5534 10.6282 87.9471 10.0991 87.45Z" fill="#C7C0F3"/>
<path d="M17.2896 112.99C16.8153 112.689 16.3045 112.451 15.7696 112.28C15.6514 112.242 15.5261 112.231 15.4031 112.248C15.2801 112.266 15.1626 112.311 15.0596 112.38C14.1908 112.089 13.2651 112.01 12.3596 112.15C11.7198 112.199 11.1024 112.407 10.5642 112.757C10.0261 113.106 9.58433 113.585 9.27958 114.15C9.05549 114.77 9.00695 115.44 9.13929 116.086C9.27163 116.731 9.5797 117.328 10.0296 117.81C10.8233 118.78 11.8245 119.559 12.9596 120.09C14.1821 120.547 15.5056 120.664 16.7896 120.43C17.9896 120.28 19.1996 119.96 19.6996 118.73C20.6096 116.49 19.0996 114.17 17.2896 112.99Z" fill="#C7C0F3"/>
<path d="M32.7009 120.05C32.766 119.505 32.766 118.955 32.7009 118.41C32.3909 116.28 30.8509 113.31 28.2409 113.85C27.731 113.998 27.273 114.287 26.9193 114.683C26.5656 115.079 26.3306 115.567 26.2409 116.09C25.9315 117.297 25.8101 118.545 25.8809 119.79C25.9167 121.087 26.3226 122.346 27.0509 123.42C27.3973 123.969 27.877 124.421 28.4454 124.734C29.0137 125.047 29.6521 125.21 30.3009 125.21C30.9131 125.123 31.4823 124.845 31.9276 124.416C32.3728 123.987 32.6714 123.429 32.7809 122.82C32.9646 121.903 32.9373 120.955 32.7009 120.05Z" fill="#C7C0F3"/>
<path d="M42.0992 139.83C42.0992 138.04 39.6492 137.37 38.0992 137.16C37.0747 137.01 36.0337 137.01 35.0092 137.16C34.1627 137.229 33.3492 137.519 32.6492 138C32.2524 138.279 31.9512 138.674 31.7865 139.13C31.6219 139.586 31.6019 140.082 31.7292 140.55C32.0943 141.483 32.8131 142.234 33.7292 142.64C34.6954 143.13 35.7422 143.442 36.8192 143.56C37.9357 143.735 39.0727 143.735 40.1892 143.56C40.7447 143.48 41.2625 143.232 41.6734 142.849C42.0843 142.467 42.3689 141.968 42.4892 141.42C42.5357 141.142 42.5251 140.858 42.4581 140.585C42.391 140.311 42.2689 140.055 42.0992 139.83Z" fill="#C7C0F3"/>
<path d="M139.32 113.09C139.167 112.899 138.962 112.757 138.73 112.68C138.629 112.482 138.461 112.327 138.255 112.243C138.05 112.158 137.821 112.15 137.61 112.22C137.441 112.276 137.28 112.354 137.13 112.45C136.541 112.758 136.044 113.217 135.69 113.78C135.641 113.856 135.607 113.941 135.59 114.03C135.085 114.765 134.736 115.596 134.564 116.472C134.392 117.347 134.401 118.248 134.59 119.12C134.84 120.83 135.28 123.18 137.42 123.34C138.587 123.401 139.734 123.019 140.63 122.27C141.018 121.893 141.316 121.434 141.502 120.927C141.689 120.42 141.76 119.878 141.71 119.34C141.576 117.06 140.741 114.878 139.32 113.09Z" fill="#C7C0F3"/>
<path d="M126.489 126.99C124.629 126.53 122.209 127.15 121.219 128.9C121.137 128.996 121.06 129.096 120.989 129.2C120.499 130.057 120.196 131.008 120.099 131.99C119.959 132.565 119.959 133.165 120.099 133.74C120.212 134.051 120.397 134.331 120.638 134.556C120.88 134.782 121.171 134.948 121.489 135.04C122.058 135.138 122.641 135.112 123.198 134.964C123.756 134.815 124.275 134.548 124.719 134.18C125.584 133.624 126.368 132.951 127.049 132.18C127.901 131.401 128.429 130.33 128.529 129.18C128.481 128.64 128.254 128.132 127.884 127.735C127.515 127.339 127.024 127.077 126.489 126.99Z" fill="#C7C0F3"/>
<path d="M125.23 85.64C125.133 85.2365 125.002 84.8418 124.84 84.4601C124.559 83.7879 124.196 83.153 123.76 82.57C123.667 82.444 123.548 82.3388 123.412 82.2613C123.276 82.1838 123.125 82.1357 122.97 82.1201C122.704 81.8094 122.409 81.5247 122.09 81.27C121.524 80.765 120.833 80.4198 120.09 80.27C119.702 80.2183 119.307 80.2613 118.94 80.3954C118.572 80.5295 118.243 80.7507 117.98 81.04C116.86 82.24 117.16 83.96 117.85 85.29C118.452 86.4146 119.37 87.339 120.49 87.95C121.61 88.57 123.17 89.05 124.36 88.36C124.791 88.0723 125.112 87.6464 125.271 87.1523C125.429 86.6581 125.414 86.1249 125.23 85.64Z" fill="#C7C0F3"/>
</g>
<defs>
<clipPath id="clip0_19298_109916">
<rect width="178.66" height="168.06" fill="white"/>
</clipPath>
</defs>
</svg>
