<svg width="247" height="90" viewBox="0 0 247 90" fill="none" xmlns="http://www.w3.org/2000/svg">
<path d="M153.387 -1.0346C153.387 -1.0346 143.114 3.24646 134.935 6.94759C126.755 10.6487 106.926 18.701 102.145 20.5762C97.3629 22.4513 72.5867 35.0973 67.3796 38.3457C62.1725 41.5941 43.4058 55.4665 37.658 60.364C31.9102 65.2615 12.7401 82.4183 12.7401 82.4183L13.3591 83.3787L23.5206 75.0515C23.5206 75.0515 37.6905 62.2714 40.714 59.6113C43.7375 56.9512 61.2412 45.2871 66.7307 40.9627C72.2201 36.6383 93.602 26.2997 100.706 23.0224C107.81 19.7452 131.464 10.9181 135.456 8.87222C139.448 6.82636 231.878 -33.5322 231.878 -33.5322L231.101 -34.9084L153.387 -1.0346Z" fill="#5C4E6D"/>
<path d="M84.0025 19.3264C83.8642 19.5086 83.7639 19.7167 83.7074 19.9383C83.6509 20.16 83.6394 20.3907 83.6736 20.6169C83.7079 20.843 83.7871 21.06 83.9067 21.2551C84.0262 21.4501 84.1836 21.6192 84.3697 21.7523L84.5134 21.9609C85.1056 22.689 85.8961 23.2299 86.7893 23.518C87.3512 23.7135 87.9296 23.8577 88.5175 23.9486C89.8947 24.3392 91.3373 24.4429 92.7561 24.2531C94.3935 24.021 96.5488 23.419 97.4922 21.9114C97.7684 21.499 97.8938 21.0039 97.8472 20.5098C97.8007 20.0156 97.585 19.5527 97.2366 19.1992C96.5181 18.5644 95.6637 18.1025 94.739 17.8492C92.0718 16.9151 89.1662 16.9158 86.4995 17.8514C85.5429 18.0934 84.6762 18.6054 84.0025 19.3264Z" fill="#BFB4FF"/>
<path d="M68.8156 39.1743C68.5907 39.3336 68.3762 39.507 68.1734 39.6935C68.1054 39.7119 68.0388 39.7352 67.9742 39.7633C67.5047 40.0572 67.0979 40.441 66.7773 40.8927C66.4567 41.3444 66.2287 41.8551 66.1063 42.3954C66.0357 42.6587 65.9799 42.9259 65.9392 43.1955L65.8161 43.6506C65.607 44.5208 65.5635 45.4226 65.6879 46.3089C65.7141 46.4972 65.7882 46.6755 65.9031 46.827C66.018 46.9784 66.1698 47.0978 66.344 47.1738C66.5674 47.6194 66.8713 48.0198 67.2403 48.3549C67.661 48.7279 68.1787 48.9742 68.7335 49.0652C69.2883 49.1563 69.8575 49.0884 70.3753 48.8695C71.3976 48.3845 72.1963 47.5279 72.6088 46.4744C73.0201 45.5651 73.3355 44.5835 73.6619 43.6334C74.0917 42.6182 74.1997 41.4957 73.9715 40.4172C73.8359 39.8749 73.5448 39.3841 73.1338 39.0051C72.7229 38.6262 72.2102 38.3756 71.6587 38.2844C70.6337 38.2205 69.6212 38.5374 68.8156 39.1743Z" fill="#BFB4FF"/>
<path d="M35.9439 50.2172C36.2731 51.9972 38.0779 52.6128 39.6258 52.9652C42.9401 53.723 46.6087 53.7447 49.4977 51.7085C50.2868 51.2207 50.9227 50.5206 51.3328 49.6884C51.3834 49.5568 51.4225 49.421 51.4496 49.2826C52.0473 47.4604 50.0751 46.2325 48.6284 45.8328C47.089 45.4306 45.4866 45.3285 43.9085 45.532C42.0533 45.6134 40.2177 45.9474 38.4528 46.5249C37.6724 46.7557 36.996 47.2497 36.5386 47.9228C36.0812 48.5959 35.8711 49.4067 35.9439 50.2172Z" fill="#BFB4FF"/>
<path d="M26.5004 71.4287C25.4282 72.9629 24.9383 74.8291 25.1186 76.6921C25.1584 77.1686 25.2372 77.641 25.3544 78.1045C25.2457 79.2502 25.3855 80.4058 25.7643 81.4925C26.0612 82.3491 26.6233 83.0889 27.3691 83.6045C28.1148 84.1201 29.0055 84.3847 29.9118 84.3599C31.8454 84.2005 32.9392 82.4165 33.4971 80.7496C34.0651 79.0018 34.221 77.1462 33.9524 75.3282C33.6924 73.4769 33.0254 71.4385 31.3269 70.4208C30.5452 69.943 29.6108 69.7813 28.714 69.9686C27.8172 70.1559 27.0256 70.678 26.5004 71.4287Z" fill="#BFB4FF"/>
</svg>
