<svg width="47" height="246" viewBox="0 0 47 246" fill="none" xmlns="http://www.w3.org/2000/svg">
<path d="M40.1125 161.055C40.1125 161.055 39.4682 149.945 38.6794 141.002C37.8905 132.058 36.8462 110.683 36.6573 105.55C36.4685 100.417 32.7244 72.8533 31.3801 66.865C30.0358 60.8767 23.1477 38.5791 20.4257 31.5354C17.7038 24.4917 7.84928 0.727539 7.84928 0.727539L6.73828 0.994167L11.2378 13.3373C11.2378 13.3373 18.6148 30.9354 20.1258 34.6684C21.6367 38.4013 26.8584 58.777 29.1248 65.3874C31.3912 71.9978 34.0798 95.5953 34.8242 103.383C35.5686 111.171 36.0796 136.413 36.6907 140.857C37.3017 145.301 44.8341 245.876 44.8341 245.876L46.3895 245.598L40.1125 161.055Z" fill="#5C4E6D"/>
<path d="M43.8347 88.841C43.7084 88.6502 43.5452 88.4867 43.3547 88.3601C43.1642 88.2335 42.9502 88.1464 42.7255 88.104C42.5007 88.0615 42.2697 88.0645 42.0461 88.1129C41.8225 88.1613 41.6109 88.2539 41.4238 88.3855L41.1794 88.4522C40.2964 88.7703 39.5246 89.3376 38.9574 90.0853C38.5871 90.551 38.2599 91.0492 37.9797 91.574C37.1558 92.7446 36.581 94.0719 36.291 95.4736C35.9688 97.0957 35.8244 99.3288 36.9354 100.718C37.2332 101.115 37.659 101.397 38.1408 101.516C38.6225 101.635 39.1307 101.585 39.5795 101.373C40.4162 100.905 41.1345 100.251 41.6793 99.4621C43.4427 97.2537 44.4026 94.5112 44.4012 91.6852C44.4891 90.7024 44.2924 89.7151 43.8347 88.841Z" fill="#BFB4FF"/>
<path d="M30.1208 67.9466C30.0449 67.6817 29.9521 67.422 29.8431 67.1689C29.8482 67.0986 29.8482 67.0281 29.8431 66.9578C29.721 66.4175 29.4932 65.9067 29.1729 65.4548C28.8525 65.0029 28.4459 64.6189 27.9766 64.3248C27.7513 64.1711 27.5177 64.0301 27.2767 63.9026L26.8878 63.636C26.1357 63.1509 25.299 62.8117 24.4214 62.6361C24.2351 62.5986 24.0422 62.6095 23.8613 62.6679C23.6804 62.7263 23.5175 62.83 23.3882 62.9693C22.8938 63.0329 22.4154 63.1874 21.9772 63.4249C21.4861 63.6986 21.0825 64.1057 20.8132 64.5992C20.5438 65.0927 20.4197 65.6524 20.4551 66.2135C20.5749 67.3385 21.1192 68.3756 21.9772 69.1131C22.6993 69.802 23.5215 70.4241 24.3103 71.0463C25.1263 71.7875 26.15 72.2606 27.2433 72.4017C27.7999 72.4531 28.3594 72.3405 28.8529 72.078C29.3464 71.8155 29.7523 71.4144 30.0208 70.9241C30.42 69.9778 30.4556 68.9175 30.1208 67.9466Z" fill="#BFB4FF"/>
<path d="M30.5664 33.2718C28.7777 32.9941 27.6 34.4939 26.7557 35.8382C24.9447 38.7157 23.7115 42.1709 24.6781 45.5705C24.8776 46.4765 25.3281 47.3081 25.978 47.9702C26.0854 48.0616 26.2007 48.1434 26.3224 48.2147C27.8444 49.3812 29.6553 47.9258 30.5108 46.6926C31.3993 45.3727 32.0254 43.8941 32.355 42.3375C32.8916 40.5597 33.1832 38.7169 33.2216 36.8603C33.2618 36.0475 33.0193 35.2458 32.5352 34.5916C32.0511 33.9374 31.3554 33.4711 30.5664 33.2718Z" fill="#BFB4FF"/>
<path d="M13.67 17.347C12.5766 15.828 10.9772 14.7486 9.15937 14.3029C8.69655 14.1829 8.22465 14.1011 7.74842 14.0585C6.70311 13.5772 5.56625 13.327 4.41544 13.3252C3.5088 13.3222 2.62478 13.6082 1.89163 14.1416C1.15848 14.675 0.614351 15.428 0.338113 16.2916C-0.150724 18.1691 1.17136 19.7912 2.5601 20.8689C4.02187 21.9828 5.72156 22.7433 7.52621 23.0909C9.35935 23.4575 11.5036 23.5019 13.0256 22.2354C13.7349 21.6556 14.1965 20.8271 14.3162 19.9189C14.4359 19.0106 14.2049 18.0908 13.67 17.347Z" fill="#BFB4FF"/>
</svg>
