<svg width="102" height="277" viewBox="0 0 102 277" fill="none" xmlns="http://www.w3.org/2000/svg">
<path d="M75.1406 105.688C71.2665 98.8807 56.4066 74.1142 49.9452 65.1761C43.4838 56.238 32.3873 35.5117 27.8076 30.4062C23.2278 25.3007 8.4371 12.2256 8.4371 12.2256L7.64844 13.3602C7.64844 13.3602 23.5461 28.898 26.1749 32.1357C28.8038 35.3733 42.7781 57.3864 44.5077 60.6517C46.2372 63.917 61.1109 85.9025 64.0441 91.091C66.9774 96.2795 74.7532 109.327 76.8978 114.266C79.0424 119.206 84.1202 135.975 85.7114 141.191C87.3025 146.407 99.7117 276.603 99.7117 276.603C99.7117 276.603 101.372 275.689 101.829 276.201C101.109 273.434 89.7376 144.567 86.9151 136.141C83.7466 126.857 79.0285 112.495 75.1406 105.688Z" fill="#5C4E6D"/>
<path d="M78.0741 89.0586C77.8564 87.9785 77.4539 86.9441 76.8843 86.0009C76.7509 85.8017 76.5979 85.6163 76.4276 85.4475C76.2023 84.8508 75.905 84.284 75.5422 83.7595C74.629 82.4865 73.3422 82.6387 72.1108 83.3444C71.0987 83.9359 70.3106 84.8456 69.8694 85.9317C69.7627 86.2162 69.6749 86.5073 69.6065 86.8034C68.7433 88.586 68.5565 90.6215 69.0807 92.5315C69.194 92.9545 69.3327 93.3703 69.4958 93.7767C69.4958 93.9151 69.4958 94.0535 69.4958 94.1918C69.5102 95.2764 69.7018 96.3514 70.0631 97.3741C70.2666 97.9252 70.5975 98.4203 71.029 98.8189C71.4605 99.2176 71.9803 99.5084 72.5457 99.6676C73.1112 99.8269 73.7063 99.85 74.2824 99.7352C74.8585 99.6203 75.3992 99.3707 75.8604 99.0068C76.7985 98.2458 77.5397 97.2702 78.0213 96.1624C78.503 95.0547 78.7109 93.8472 78.6276 92.6422C78.5821 91.4303 78.3964 90.2278 78.0741 89.0586Z" fill="#BFB4FF"/>
<path d="M49.7387 69.6458C47.5524 68.2297 45.0549 67.3655 42.461 67.1276C42.091 67.0785 41.7154 67.1566 41.3956 67.349C41.0823 67.3287 40.768 67.3287 40.4547 67.349C39.8886 67.315 39.3217 67.4011 38.7912 67.6015C38.2606 67.8019 37.7784 68.1121 37.3761 68.5118C36.9737 68.9115 36.6604 69.3917 36.4565 69.9209C36.2527 70.4502 36.163 71.0165 36.1932 71.5828C36.4146 73.9349 38.3101 75.5261 40.2057 76.6606C42.1361 77.8291 44.3188 78.5171 46.5703 78.6669C47.6618 78.7927 48.7664 78.5981 49.7491 78.1067C50.7319 77.6153 51.5504 76.8484 52.1047 75.8997C53.2946 73.3262 51.7726 71.0294 49.7387 69.6458Z" fill="#BFB4FF"/>
<path d="M52.9048 49.1524C52.4771 48.2251 51.9629 47.3403 51.369 46.5097C51.2822 46.0279 51.1005 45.5682 50.8345 45.1573C50.5684 44.7464 50.2234 44.3925 49.8194 44.1161C49.2501 43.822 48.5889 43.76 47.9748 43.9432C47.3607 44.1264 46.8416 44.5405 46.5264 45.0984C43.5655 49.1524 42.1404 57.2049 47.3289 60.1935C47.8989 60.536 48.5324 60.7592 49.1912 60.8496C49.85 60.94 50.5203 60.8957 51.1615 60.7193C51.7882 60.4519 52.3394 60.0343 52.7665 59.5035C53.1936 58.9726 53.4834 58.3448 53.6105 57.6754C54.4303 54.8441 54.1791 51.8102 52.9048 49.1524Z" fill="#BFB4FF"/>
<path d="M37.3692 25.5629C36.9651 24.4803 36.4602 23.438 35.8611 22.4498C35.7448 22.2295 35.5615 22.0518 35.3377 21.9424C35.1139 21.833 34.8611 21.7975 34.6158 21.841C34.302 21.6657 33.9535 21.5612 33.595 21.5349C33.2365 21.5086 32.8765 21.5611 32.5404 21.6888C31.5679 22.2362 30.8186 23.1079 30.4235 24.1516C29.975 25.1094 29.6808 26.132 29.5518 27.1817C29.3183 29.3471 29.5785 31.5373 30.3128 33.5878C31.0461 35.6632 32.5266 37.7386 34.9756 37.7386C35.5627 37.7278 36.136 37.5589 36.6351 37.2496C37.1343 36.9404 37.5408 36.5023 37.8119 35.9814C38.2754 34.8839 38.4972 33.6994 38.4622 32.5086C38.5609 30.1438 38.1894 27.783 37.3692 25.5629Z" fill="#BFB4FF"/>
<path d="M23.252 29.5051C22.6136 27.9801 21.401 26.7675 19.876 26.1291C18.1367 25.5381 16.3562 25.0756 14.5491 24.7455C14.3958 24.6999 14.2351 24.6851 14.076 24.7017C13.917 24.7183 13.7627 24.766 13.6222 24.8423C12.3956 24.5455 11.105 24.6673 9.95562 25.1882C9.70673 25.3315 9.49004 25.5246 9.31913 25.7555C8.88578 25.8122 8.47015 25.9634 8.10155 26.1982C5.33435 28.0799 8.44748 31.954 10.1632 33.3238C12.3773 35.1074 15.1866 35.9829 18.022 35.7728C19.6292 35.6995 21.1606 35.0683 22.3527 33.9879C22.925 33.4108 23.3153 32.6784 23.4752 31.8815C23.6351 31.0846 23.5575 30.2583 23.252 29.5051Z" fill="#BFB4FF"/>
<path d="M10.0814 9.25299C9.84943 8.41424 9.56288 7.59156 9.2236 6.79018C8.52773 5.0574 7.33968 3.56631 5.8061 2.501C5.64708 2.39252 5.45897 2.33465 5.26647 2.33497C4.97901 1.85171 4.58062 1.44385 4.10425 1.14509C3.88761 1.00294 3.64376 0.907382 3.38821 0.864555C3.13266 0.821728 2.87101 0.832545 2.61986 0.896308C2.36871 0.96007 2.13358 1.0754 1.92941 1.23495C1.72524 1.39449 1.5565 1.59476 1.43391 1.82304C1.1083 2.50493 0.871148 3.22561 0.728256 3.96761C0.43322 5.47938 0.445338 7.03506 0.763851 8.54206C1.08236 10.0491 1.70076 11.4766 2.58228 12.7397C3.55538 14.2675 5.01911 15.419 6.73309 16.005C7.25539 16.1203 7.79779 16.1083 8.31447 15.9699C8.83115 15.8316 9.30695 15.571 9.70175 15.2101C10.0965 14.8492 10.3987 14.3987 10.5828 13.8965C10.7669 13.3943 10.8274 12.8551 10.7594 12.3246C10.6573 11.2773 10.4297 10.246 10.0814 9.25299Z" fill="#BFB4FF"/>
</svg>
