<svg width="177" height="83" viewBox="0 0 177 83" fill="none" xmlns="http://www.w3.org/2000/svg">
<path d="M82.9263 15.2878C74.3808 21.9574 66.2139 29.0986 58.4639 36.6781C52.2033 43.1416 45.2315 48.8762 37.6816 53.7723C31.091 57.795 24.2729 61.7937 18.9292 63.6191C13.5855 65.4446 5.08443 68.4882 5.08443 68.4882L6.76554 69.4793C6.76554 69.4793 19.393 65.5573 26.6786 62.2812C33.9642 59.0052 44.9659 51.2063 47.4018 49.2882C49.8376 47.3701 60.3755 37.6331 62.5827 35.2576C67.0862 30.8839 71.8232 26.7574 76.7731 22.8962C79.4604 21.0033 84.116 16.4697 86.8134 15.0708C89.5108 13.672 95.09 10.1137 95.09 10.1137L176.227 -34.9252L175.523 -37.1046C170.292 -34.9217 87.4043 11.8135 82.9263 15.2878Z" fill="#5C4E6D"/>
<path d="M1.27831 66.7256C0.821243 67.2036 0.498254 67.7936 0.341914 68.4362C0.185575 69.0789 0.201429 69.7513 0.387829 70.3859C0.438176 70.8213 0.584727 71.2402 0.816864 71.612C1.1575 72.112 1.5989 72.5352 2.11275 72.8545C2.6266 73.1738 3.20155 73.382 3.80067 73.466C4.30039 73.704 4.82992 73.8736 5.37497 73.97C6.1527 74.0728 6.94368 73.992 7.68459 73.7342C8.42549 73.4764 9.09574 73.0486 9.64162 72.4852C10.6783 72.1454 11.5913 71.5066 12.2657 70.6492C12.512 70.298 12.6809 69.8985 12.7612 69.4771C12.8416 69.0558 12.8315 68.6222 12.7317 68.205C12.6318 67.7879 12.4445 67.3967 12.1822 67.0573C11.9198 66.718 11.5884 66.4382 11.2098 66.2366C10.4698 65.848 9.66985 65.5862 8.84326 65.4622C7.92506 65.2715 6.99447 65.1462 6.05853 65.0871C5.19057 64.9968 4.31337 65.0966 3.48786 65.3795C2.66236 65.6625 1.90837 66.1218 1.27831 66.7256Z" fill="#BFB4FF"/>
<path d="M32.3869 59.7062C31.9962 60.2566 31.6776 60.8546 31.4388 61.4859C31.3855 61.6253 31.3645 61.7751 31.3776 61.9238C31.3906 62.0725 31.4373 62.2164 31.514 62.3444C31.1103 63.3689 30.9572 64.4751 31.0676 65.5707C31.0856 66.3418 31.2971 67.0959 31.6826 67.7639C32.0681 68.432 32.6153 68.9924 33.2739 69.3938C34.0039 69.7019 34.8048 69.8024 35.5883 69.6843C36.3718 69.5662 37.1075 69.2341 37.7143 68.7245C38.9283 67.8331 39.9267 66.6804 40.6358 65.3515C41.2614 63.9129 41.486 62.3317 41.2856 60.7758C41.1812 59.326 40.8735 57.8534 39.4286 57.1757C36.7974 55.9421 33.9174 57.6081 32.3869 59.7062Z" fill="#BFB4FF"/>
<path d="M41.8336 41.653C41.1838 41.5404 40.523 41.5057 39.8651 41.5495C37.2889 41.7872 33.6268 43.4483 34.1103 46.6151C34.2559 47.2365 34.5735 47.8045 35.0266 48.254C35.4797 48.7035 36.0502 49.0164 36.6728 49.157C38.1027 49.6046 39.5929 49.8291 41.0912 49.8226C42.65 49.8615 44.1875 49.4537 45.5221 48.6473C46.2025 48.2661 46.7752 47.7188 47.1868 47.0564C47.5984 46.394 47.8354 45.638 47.8757 44.8592C47.8099 44.1189 47.5124 43.4182 47.0255 42.8567C46.5386 42.2952 45.887 41.9016 45.1634 41.7317C44.0738 41.4533 42.9351 41.4264 41.8336 41.653Z" fill="#BFB4FF"/>
<path d="M66.1653 31.6211C64.0167 31.5082 63.058 34.4066 62.7081 36.2538C62.4635 37.4741 62.3978 38.7235 62.5132 39.9628C62.5431 40.9831 62.8393 41.978 63.3725 42.8485C63.6823 43.3424 64.1368 43.7288 64.6741 43.9552C65.2114 44.1816 65.8054 44.2369 66.3752 44.1136C67.5182 43.7343 68.4652 42.9189 69.01 41.8449C69.6593 40.7161 70.0995 39.4793 70.3093 38.194C70.5898 36.8649 70.6615 35.5002 70.5219 34.149C70.4603 33.4772 70.1953 32.8401 69.7623 32.3227C69.3293 31.8053 68.7488 31.4323 68.0983 31.2533C67.768 31.1799 67.4263 31.1747 67.0939 31.238C66.7615 31.3012 66.4455 31.4316 66.1653 31.6211Z" fill="#BFB4FF"/>
</svg>
