<svg width="287" height="112" viewBox="0 0 287 112" fill="none" xmlns="http://www.w3.org/2000/svg">
<path d="M157.762 31.8364C165.58 32.3074 194.443 33.38 205.459 32.8467C216.475 32.3134 239.898 34.3331 246.676 33.2837C253.454 32.2344 272.483 26.9815 272.483 26.9815L271.964 25.7013C271.964 25.7013 250.266 30.5369 246.118 30.9716C241.971 31.4063 215.898 31.0952 212.218 30.7614C208.538 30.4276 181.998 30.885 176.05 30.5096C170.101 30.1342 154.925 29.5251 149.616 28.6249C144.307 27.7248 127.485 22.8232 122.246 21.3083C117.007 19.7934 1.15517 -40.8947 1.15517 -40.8947C1.15517 -40.8947 1.01375 -39.0051 0.335567 -38.9021C3.04672 -37.994 117.219 22.8383 125.82 25.0741C135.328 27.4885 149.936 31.377 157.762 31.8364Z" fill="#5C4E6D"/>
<path d="M170.093 43.3728C171.117 43.7801 172.203 44.0077 173.304 44.0454C173.544 44.0425 173.783 44.0155 174.017 43.9651C174.64 44.102 175.278 44.1624 175.915 44.1448C177.48 44.0748 178.055 42.9136 178.136 41.4967C178.193 40.3258 177.861 39.1688 177.192 38.2062C177.012 37.9615 176.816 37.7289 176.606 37.51C175.583 35.8135 173.98 34.5457 172.094 33.9421C171.677 33.806 171.253 33.6952 170.824 33.6099C170.708 33.5344 170.592 33.4588 170.476 33.3833C169.56 32.8031 168.554 32.3768 167.5 32.1211C166.927 31.9907 166.332 31.9976 165.762 32.1415C165.193 32.2854 164.665 32.562 164.223 32.9488C163.781 33.3356 163.437 33.8215 163.218 34.3669C163 34.9123 162.914 35.5016 162.967 36.0866C163.093 37.288 163.505 38.4417 164.17 39.45C164.835 40.4583 165.733 41.2918 166.789 41.8799C167.829 42.5035 168.938 43.0045 170.093 43.3728Z" fill="#BFB4FF"/>
<path d="M201.827 30.2336C204.207 29.1751 206.295 27.5546 207.91 25.5112C208.154 25.2281 208.293 24.8708 208.307 24.4978C208.495 24.2464 208.666 23.9831 208.82 23.7096C209.158 23.2538 209.395 22.7319 209.517 22.178C209.639 21.6241 209.642 21.0507 209.527 20.4954C209.412 19.9401 209.181 19.4154 208.849 18.9557C208.516 18.4959 208.091 18.1116 207.6 17.8277C205.509 16.7289 203.141 17.4483 201.155 18.4169C199.122 19.3962 197.354 20.8492 195.999 22.6537C195.298 23.4995 194.858 24.5312 194.733 25.6228C194.608 26.7145 194.804 27.8189 195.296 28.8013C196.802 31.2033 199.558 31.1822 201.827 30.2336Z" fill="#BFB4FF"/>
<path d="M217.267 44.0769C218.277 44.2248 219.3 44.2771 220.32 44.2331C220.771 44.4234 221.255 44.5221 221.745 44.5236C222.234 44.5251 222.719 44.4292 223.171 44.2417C223.728 43.9253 224.141 43.4051 224.323 42.7907C224.505 42.1762 224.441 41.5152 224.146 40.9465C222.366 36.2525 216.398 30.6619 211.061 33.3771C210.463 33.6676 209.93 34.0766 209.495 34.5792C209.059 35.0817 208.731 35.6675 208.528 36.301C208.41 36.972 208.459 37.6618 208.671 38.3095C208.882 38.9571 209.25 39.5428 209.741 40.0147C211.666 42.2473 214.345 43.6934 217.267 44.0769Z" fill="#BFB4FF"/>
<path d="M245.513 43.9381C246.641 44.1906 247.79 44.3367 248.945 44.3743C249.193 44.3971 249.442 44.3406 249.656 44.2128C249.87 44.0851 250.037 43.8927 250.135 43.6634C250.453 43.4962 250.731 43.2614 250.949 42.9753C251.166 42.6893 251.319 42.359 251.396 42.0078C251.468 40.8941 251.147 39.7905 250.488 38.8896C249.93 37.9909 249.234 37.1861 248.425 36.5049C246.739 35.127 244.762 34.1492 242.643 33.6449C240.504 33.1261 237.957 33.2333 236.62 35.285C236.308 35.7828 236.137 36.3553 236.123 36.9424C236.11 37.5294 236.255 38.1092 236.543 38.6207C237.21 39.6082 238.081 40.4407 239.098 41.0616C241.025 42.4354 243.206 43.4131 245.513 43.9381Z" fill="#BFB4FF"/>
<path d="M249.917 29.9597C251.543 30.2575 253.222 29.9036 254.589 28.9746C256.034 27.84 257.393 26.6009 258.657 25.2672C258.778 25.1636 258.879 25.037 258.952 24.8947C259.024 24.7524 259.069 24.5971 259.082 24.4377C260 23.5721 260.602 22.4244 260.794 21.177C260.809 20.8902 260.766 20.6033 260.666 20.3341C260.855 19.94 260.955 19.5093 260.96 19.0722C260.894 15.7265 255.949 16.2195 253.864 16.909C251.161 17.7901 248.894 19.6658 247.522 22.156C246.706 23.5425 246.398 25.1701 246.653 26.7587C246.824 27.5533 247.224 28.2802 247.805 28.8493C248.385 29.4183 249.12 29.8044 249.917 29.9597Z" fill="#BFB4FF"/>
<path d="M274.076 29.983C274.905 30.2465 275.751 30.4556 276.607 30.6089C278.439 30.972 280.337 30.7908 282.067 30.0876C282.244 30.0136 282.396 29.8876 282.5 29.7261C283.062 29.7491 283.621 29.6381 284.132 29.4021C284.369 29.2982 284.582 29.1461 284.758 28.9554C284.933 28.7646 285.067 28.5395 285.151 28.2943C285.234 28.0491 285.266 27.7891 285.244 27.531C285.222 27.2728 285.146 27.0221 285.022 26.7947C284.628 26.1496 284.154 25.5575 283.61 25.0326C282.505 23.9601 281.195 23.1208 279.758 22.5649C278.322 22.0089 276.788 21.7476 275.249 21.7965C273.438 21.7776 271.674 22.3752 270.247 23.4912C269.865 23.8659 269.579 24.3269 269.413 24.8353C269.247 25.3437 269.205 25.8846 269.292 26.4124C269.379 26.9402 269.591 27.4393 269.912 27.8677C270.232 28.2961 270.65 28.6413 271.132 28.8739C272.065 29.3602 273.053 29.7326 274.076 29.983Z" fill="#BFB4FF"/>
</svg>
