<svg width="107" height="194" viewBox="0 0 107 194" fill="none" xmlns="http://www.w3.org/2000/svg">
<path fill-rule="evenodd" clip-rule="evenodd" d="M54.2617 164.801L71.6639 183.326L54.2617 186.133V164.801Z" fill="black"/>
<path d="M54.2617 164.801L71.6639 183.326L54.2617 186.133V164.801Z" fill="black"/>
<path d="M77.4165 142.423L72.6415 182.137L54.5898 162.92L77.4165 142.423Z" fill="black"/>
<path d="M78.9516 142.439L94.6766 162.789L74.2109 181.868L78.9516 142.439Z" fill="black"/>
<path d="M76.424 141.264L54.2617 161.165V141.264H76.424Z" fill="black"/>
<path d="M79.9688 141.264H102.872L95.4657 161.319L79.9688 141.264Z" fill="black"/>
<path d="M79.6523 139.738L95.4491 108.318L102.999 139.738H79.6523Z" fill="black"/>
<path d="M77.0195 139.738H54.2617V104.266L77.0195 139.738Z" fill="black"/>
<path d="M77.6555 137.899L54.9766 102.55L77.6555 104.401V137.899Z" fill="black"/>
<path d="M79.1797 104.575L94.5462 106.722L79.1797 137.285V104.575Z" fill="black"/>
<path d="M94.1318 105.123L79.0915 103.022L75.3867 76.9229L94.1318 105.123Z" fill="black"/>
<path d="M54.9297 101.016L73.6664 75.6494L77.529 102.861L54.9297 101.016Z" fill="black"/>
<path d="M54.2617 99.3481V63.1904L73.0337 73.9338L54.2617 99.3481Z" fill="black"/>
<g clip-path="url(#clip0_19549_79333)">
<path d="M92.4982 47.2914C84.3896 70.7009 71.8101 87.5845 64.3958 85.0853C56.9814 82.5861 57.5645 61.4815 65.7009 38.0443C73.8373 14.6071 86.389 -2.2766 93.8589 0.250401C101.329 2.7774 100.607 23.8542 92.4982 47.2914Z" fill="url(#paint0_radial_19549_79333)"/>
<path d="M88.0829 47.2082C81.4739 66.2301 71.8657 80.1702 66.5896 78.3375C61.3134 76.5047 62.3964 59.6488 68.9777 40.6269C75.559 21.605 86.6389 8.58123 90.4711 9.49761C94.3032 10.414 94.6642 28.1863 88.0829 47.2082Z" fill="#FEC5DE"/>
<path d="M90.3066 9.46923C89.4379 9.38377 88.568 9.621 87.863 10.1357C90.6399 13.8568 90.3622 29.9907 84.4196 47.0965C78.8657 63.1193 71.1459 75.5599 65.7031 77.9759C65.9322 78.1181 66.1739 78.239 66.4251 78.3369C71.7013 80.1696 81.3094 66.2017 87.9185 47.2076C94.5276 28.2134 94.1666 10.3856 90.3066 9.46923Z" fill="#FEB1D3"/>
<path d="M40.9307 35.2674C39.6115 30.5633 38.0544 25.9291 36.2655 21.3828C35.6823 22.2437 35.0992 23.1323 34.4605 23.9653C33.8218 24.7984 32.6277 26.2147 31.6836 27.2977C29.6532 29.518 27.4729 31.5963 25.1578 33.518C21.4798 36.5645 17.5185 39.2519 13.3281 41.5433C13.3281 41.9598 13.578 42.4041 13.6891 42.8484C20.3537 66.7022 31.878 84.5022 39.4312 82.2807C46.9844 80.0592 47.5953 59.1489 40.9307 35.2674Z" fill="url(#paint1_radial_19549_79333)"/>
<path d="M37.4924 37.5996C36.3338 33.4744 34.9052 29.4299 33.2159 25.4922C32.7161 26.1031 32.1885 26.714 31.6609 27.2972C29.6305 29.5175 27.4502 31.5958 25.1351 33.5175C22.5885 35.628 19.8976 37.5581 17.082 39.2935C17.3597 40.5153 17.693 41.7649 18.0262 43.0146C23.58 62.453 32.1885 76.893 37.4646 75.3935C42.7408 73.8939 42.9074 57.038 37.4924 37.5996Z" fill="url(#paint2_linear_19549_79333)"/>
<path d="M37.5467 37.3783C36.3969 33.2448 34.9777 29.1911 33.298 25.2432C32.7981 25.8541 32.2705 26.465 31.7151 27.0482C29.7013 29.2749 27.5296 31.3537 25.2171 33.2685C22.6639 35.3788 19.9737 37.3177 17.1641 39.0722C17.4418 40.2941 17.7472 41.5159 18.1082 42.7655C23.5232 62.204 32.2705 76.644 37.5467 75.1722C42.8228 73.7004 42.9617 56.7612 37.5467 37.3783Z" fill="#FEC5DE"/>
<path d="M38.3277 38.9882C37.1736 34.8617 35.7449 30.8169 34.0513 26.8809C33.5514 27.4918 33.0238 28.0749 32.4962 28.6859L31.4688 29.7689C32.7584 32.9822 33.8708 36.2639 34.8011 39.5992C39.7162 57.2048 40.1883 72.9222 36.1895 76.5877C36.8787 76.8951 37.6508 76.9635 38.3833 76.7821C43.6872 75.2826 43.6594 58.3711 38.3277 38.9882Z" fill="#FEB1D3"/>
<path d="M37.4081 24.9091C37.5303 28.2202 37.3817 31.5358 36.9638 34.8227C35.0199 54.8443 27.2723 70.4783 19.6635 69.7286C12.0548 68.9788 7.50064 52.2062 9.44448 32.1846C9.77771 28.6579 10.0276 27.4638 10.9718 22.1044C11.9159 16.7449 38.5466 14.6067 37.4081 24.9091Z" fill="url(#paint3_radial_19549_79333)"/>
</g>
<path fill-rule="evenodd" clip-rule="evenodd" d="M54.2617 164.8L71.6639 183.325L54.2617 186.132V164.8Z" fill="#6F1FAE"/>
<path d="M54.2617 164.8L71.6639 183.325L54.2617 186.132V164.8Z" fill="#6F1FAE"/>
<path d="M77.4165 142.423L72.6415 182.137L54.5898 162.92L77.4165 142.423Z" fill="#882EE3"/>
<path d="M78.9516 142.44L94.6766 162.79L74.2109 181.869L78.9516 142.44Z" fill="#6F17B5"/>
<path d="M76.424 141.264L54.2617 161.165V141.264H76.424Z" fill="#9147EF"/>
<path d="M79.9688 141.264H102.872L95.4657 161.319L79.9688 141.264Z" fill="#822BEE"/>
<path d="M79.6523 139.738L95.4491 108.318L102.999 139.738H79.6523Z" fill="#8B3DED"/>
<path d="M77.0195 139.738H54.2617V104.266L77.0195 139.738Z" fill="#AD89F9"/>
<path d="M77.6516 137.899L54.9727 102.55L77.6516 104.401V137.899Z" fill="#B283FF"/>
<path d="M79.1797 104.575L94.5462 106.722L79.1797 137.285V104.575Z" fill="#9563FE"/>
<path d="M94.1279 105.124L79.0876 103.023L75.3828 76.9238L94.1279 105.124Z" fill="#A47AFF"/>
<path d="M54.9258 101.016L73.6624 75.6494L77.5251 102.861L54.9258 101.016Z" fill="#C5A8FF"/>
<path d="M54.2617 99.3481V63.1904L73.0337 73.9338L54.2617 99.3481Z" fill="#CBB6F9"/>
<path fill-rule="evenodd" clip-rule="evenodd" d="M52.7344 164.8L35.3322 183.325L52.7344 186.132V164.8Z" fill="#8823B8"/>
<path d="M52.7344 164.8L35.3322 183.325L52.7344 186.132V164.8Z" fill="#8823B8"/>
<path d="M29.5796 142.423L34.3546 182.137L52.4062 162.92L29.5796 142.423Z" fill="#9835E6"/>
<path d="M28.0445 142.44L12.3195 162.79L32.7852 181.869L28.0445 142.44Z" fill="#9C37CC"/>
<path d="M30.5721 141.264L52.7344 161.165V141.264H30.5721Z" fill="#A85BF6"/>
<path d="M27.0273 141.264H4.12378L11.5304 161.319L27.0273 141.264Z" fill="#A450E5"/>
<path d="M27.3438 139.738L11.547 108.318L3.99701 139.738H27.3438Z" fill="#AF58F2"/>
<path d="M29.9766 139.738H52.7344V104.266L29.9766 139.738Z" fill="#B489F9"/>
<path d="M29.3445 137.899L52.0234 102.55L29.3445 104.401V137.899Z" fill="#D3B6FF"/>
<path d="M27.8203 104.575L12.4538 106.722L27.8203 137.285V104.575Z" fill="#D09EFF"/>
<path d="M12.8643 105.124L27.9046 103.023L31.6094 76.9238L12.8643 105.124Z" fill="#DFC6FF"/>
<path d="M52.0703 101.016L33.3336 75.6494L29.471 102.861L52.0703 101.016Z" fill="#F0DDFF"/>
<path d="M52.7344 99.3481V63.1904L33.9624 73.9338L52.7344 99.3481Z" fill="#E6D2FF"/>
<path d="M49.4975 170.692C52.0346 176.679 55.2172 190.255 46.315 193.348C37.4128 196.442 31.4483 183.845 29.7124 177.569C28.3103 172.45 25.4839 157.539 32.9172 155.024C40.3505 152.509 47.4055 165.818 49.4975 170.692Z" fill="url(#paint4_radial_19549_79333)"/>
<path d="M45.005 189.564C44.4573 189.768 43.8709 189.845 43.2892 189.791C42.7075 189.738 42.1453 189.553 41.6444 189.253C38.1948 187.45 34.9678 181.441 33.5879 176.456C32.5978 172.827 32.067 169.089 32.0078 165.328C32.0078 163.592 32.2749 159.43 34.2334 158.652C36.1918 157.873 38.996 161.211 40.0865 162.546C42.3943 165.527 44.3161 168.787 45.8062 172.25C47.8314 177.012 49.0555 183.689 47.4531 187.272C47.2347 187.801 46.902 188.275 46.4787 188.659C46.0554 189.044 45.5521 189.33 45.005 189.498V189.564Z" fill="#F9B0CB"/>
<path d="M45.0728 184.155C43.7196 184.679 42.2198 184.679 40.8666 184.155C37.5237 182.452 34.9079 179.599 33.5 176.121C33.5 176.255 33.5 176.366 33.5 176.477C34.8798 181.462 38.1069 187.471 41.5565 189.274C42.0608 189.567 42.6247 189.744 43.2064 189.79C43.788 189.836 44.3727 189.751 44.917 189.541C45.4642 189.374 45.9674 189.088 46.3907 188.703C46.814 188.318 47.1468 187.844 47.3651 187.316C48.018 185.608 48.2545 183.769 48.0551 181.952C47.3031 183.011 46.2239 183.793 44.9838 184.178L45.0728 184.155Z" fill="#EF97B7"/>
<path d="M36.3445 161.634C36.436 161.897 36.4194 162.185 36.2984 162.436C36.1773 162.686 35.9618 162.878 35.6991 162.97C35.4365 163.061 35.1482 163.044 34.8978 162.923C34.6474 162.802 34.4553 162.587 34.3638 162.324C34.3181 162.194 34.2986 162.056 34.3063 161.919C34.3141 161.781 34.3489 161.646 34.4089 161.522C34.4689 161.398 34.5528 161.287 34.6558 161.196C34.7588 161.104 34.8789 161.034 35.0092 160.989C35.272 160.903 35.5581 160.922 35.8071 161.042C36.0562 161.162 36.2488 161.375 36.3445 161.634Z" fill="#EF97B7"/>
<path d="M38.7508 163.86C38.8423 164.122 38.8257 164.411 38.7046 164.661C38.5836 164.912 38.368 165.104 38.1054 165.195C37.8427 165.287 37.5545 165.27 37.304 165.149C37.0536 165.028 36.8615 164.812 36.77 164.55C36.7244 164.42 36.7048 164.282 36.7126 164.144C36.7203 164.007 36.7552 163.872 36.8152 163.748C36.8751 163.624 36.959 163.513 37.0621 163.421C37.1651 163.33 37.2852 163.259 37.4155 163.214C37.6783 163.128 37.9643 163.147 38.2134 163.268C38.4624 163.388 38.6551 163.6 38.7508 163.86Z" fill="#EF97B7"/>
<path d="M35.8113 164.905C35.857 165.035 35.8765 165.173 35.8688 165.311C35.861 165.448 35.8262 165.583 35.7662 165.707C35.7062 165.831 35.6223 165.942 35.5193 166.034C35.4163 166.125 35.2962 166.196 35.1659 166.241C34.903 166.321 34.6193 166.3 34.3716 166.18C34.124 166.06 33.9308 165.851 33.8306 165.595C33.7443 165.332 33.7634 165.046 33.8838 164.797C34.0042 164.548 34.2165 164.356 34.476 164.26C34.6058 164.211 34.7442 164.189 34.8828 164.195C35.0213 164.202 35.1571 164.236 35.282 164.296C35.4069 164.357 35.5182 164.442 35.6092 164.546C35.7002 164.651 35.7689 164.773 35.8113 164.905Z" fill="#EF97B7"/>
<path d="M55.4839 171.448C53.5922 177.658 51.9008 191.478 61.0701 193.704C70.2393 195.929 74.8239 182.576 75.8699 176.256C76.7379 171.003 77.9619 155.936 70.2838 154.156C62.6057 152.375 57.0196 166.33 55.4839 171.448Z" fill="url(#paint5_radial_19549_79333)"/>
<path d="M61.9585 189.697C62.5228 189.846 63.1131 189.867 63.6866 189.759C64.2601 189.651 64.8024 189.417 65.2745 189.074C68.5238 186.849 71.0832 180.595 71.9512 175.499C72.5511 171.821 72.6782 168.081 72.3295 164.371C72.1292 162.635 71.417 158.54 69.414 158.072C67.411 157.605 64.9629 160.966 63.9837 162.524C62.0097 165.721 60.4611 169.163 59.3768 172.761C57.8635 177.702 57.3516 184.49 59.3768 187.873C59.6457 188.383 60.0248 188.828 60.4867 189.175C60.9486 189.521 61.4817 189.76 62.0475 189.876L61.9585 189.697Z" fill="#F9B0CB"/>
<path d="M61.3161 184.311C62.6982 184.69 64.1719 184.548 65.4556 183.91C68.6141 181.868 70.9173 178.741 71.9319 175.119V175.497C71.1085 180.594 68.5491 186.915 65.2553 189.073C64.7832 189.416 64.2408 189.65 63.6673 189.758C63.0939 189.866 62.5036 189.845 61.9392 189.696C61.3734 189.581 60.8403 189.342 60.3784 188.996C59.9165 188.649 59.5374 188.204 59.2686 187.693C58.4396 186.066 58.005 184.267 58 182.441C58.8636 183.408 60.0208 184.065 61.2938 184.311H61.3161Z" fill="#EF97B7"/>
<path d="M67.6826 161.01C67.6206 161.282 67.669 161.567 67.8172 161.803C67.9654 162.039 68.2011 162.206 68.4727 162.268C68.7442 162.33 69.0292 162.281 69.265 162.133C69.5008 161.985 69.6681 161.749 69.7301 161.478C69.7902 161.209 69.7422 160.928 69.5964 160.695C69.4506 160.461 69.2188 160.295 68.9511 160.231C68.8167 160.198 68.677 160.192 68.5402 160.214C68.4033 160.235 68.2721 160.283 68.1541 160.356C68.0361 160.428 67.9336 160.523 67.8527 160.636C67.7718 160.748 67.7139 160.875 67.6826 161.01Z" fill="#EF97B7"/>
<path d="M65.456 163.48C65.423 163.615 65.4169 163.755 65.4383 163.891C65.4596 164.028 65.508 164.16 65.5804 164.278C65.6529 164.396 65.7481 164.498 65.8604 164.579C65.9728 164.66 66.1001 164.718 66.235 164.749C66.5093 164.809 66.7962 164.759 67.0336 164.609C67.271 164.459 67.4398 164.221 67.5035 163.948C67.5655 163.676 67.5171 163.391 67.3689 163.155C67.2207 162.92 66.985 162.752 66.7135 162.69C66.442 162.628 66.1569 162.677 65.9211 162.825C65.6853 162.973 65.518 163.209 65.456 163.48Z" fill="#EF97B7"/>
<path d="M68.4594 164.192C68.3987 164.464 68.4461 164.748 68.5915 164.985C68.737 165.222 68.969 165.392 69.2383 165.461C69.5126 165.521 69.7995 165.47 70.0369 165.321C70.2743 165.171 70.4432 164.933 70.5069 164.66C70.5689 164.388 70.5205 164.103 70.3723 163.867C70.2241 163.632 69.9883 163.464 69.7168 163.402C69.4453 163.34 69.1603 163.389 68.9245 163.537C68.6887 163.685 68.5214 163.921 68.4594 164.192Z" fill="#EF97B7"/>
<path d="M6.49386 127.744C7.171 128.124 7.72831 128.686 8.10272 129.366C8.47712 130.046 8.65366 130.818 8.6124 131.593C8.57115 132.368 8.31372 133.117 7.86924 133.753C7.42476 134.39 6.81098 134.89 6.09735 135.195C5.38371 135.501 4.59871 135.601 3.83116 135.484C3.0636 135.367 2.34415 135.038 1.75418 134.533C1.16422 134.028 0.727291 133.368 0.492855 132.628C0.258418 131.888 0.235838 131.097 0.427639 130.344C0.905418 129.21 1.8046 128.305 2.93601 127.82C4.06741 127.335 5.3428 127.308 6.49386 127.744Z" fill="url(#paint6_radial_19549_79333)"/>
<path d="M9.27902 116.969C9.95616 117.349 10.5135 117.911 10.8879 118.591C11.2623 119.271 11.4388 120.042 11.3976 120.818C11.3563 121.593 11.0989 122.341 10.6544 122.978C10.2099 123.615 9.59614 124.114 8.8825 124.42C8.16887 124.726 7.38386 124.826 6.61631 124.709C5.84876 124.592 5.12931 124.262 4.53934 123.757C3.94938 123.253 3.51245 122.593 3.27801 121.853C3.04357 121.112 3.02099 120.321 3.2128 119.569C3.69057 118.435 4.58976 117.53 5.72116 117.045C6.85256 116.56 8.12796 116.533 9.27902 116.969Z" fill="url(#paint7_radial_19549_79333)"/>
<path d="M13.3061 127.762C13.9238 125.371 11.5503 122.69 8.00462 121.774C4.45899 120.858 1.0839 122.054 0.466168 124.446C-0.151569 126.838 2.22196 129.519 5.7676 130.435C9.31324 131.35 12.6883 130.154 13.3061 127.762Z" fill="url(#paint8_radial_19549_79333)"/>
<path d="M100.182 126.469C99.5048 126.849 98.9475 127.411 98.5731 128.091C98.1987 128.771 98.0221 129.542 98.0634 130.318C98.1046 131.093 98.3621 131.841 98.8065 132.478C99.251 133.115 99.8648 133.614 100.578 133.92C101.292 134.226 102.077 134.326 102.845 134.209C103.612 134.092 104.332 133.762 104.922 133.257C105.512 132.753 105.948 132.093 106.183 131.353C106.417 130.612 106.44 129.821 106.248 129.069C105.77 127.935 104.871 127.03 103.74 126.545C102.608 126.06 101.333 126.033 100.182 126.469Z" fill="url(#paint9_radial_19549_79333)"/>
<path d="M97.3968 115.693C96.7196 116.073 96.1623 116.635 95.7879 117.315C95.4135 117.996 95.237 118.767 95.2782 119.542C95.3195 120.318 95.5769 121.066 96.0214 121.703C96.4659 122.339 97.0796 122.839 97.7933 123.145C98.5069 123.451 99.2919 123.551 100.059 123.433C100.827 123.316 101.546 122.987 102.136 122.482C102.726 121.977 103.163 121.317 103.398 120.577C103.632 119.837 103.655 119.046 103.463 118.294C102.985 117.159 102.086 116.254 100.955 115.769C99.8232 115.284 98.5478 115.257 97.3968 115.693Z" fill="url(#paint10_radial_19549_79333)"/>
<path d="M93.3697 126.487C92.752 124.095 95.1255 121.414 98.6712 120.498C102.217 119.583 105.592 120.779 106.21 123.171C106.827 125.562 104.454 128.243 100.908 129.159C97.3625 130.075 93.9875 128.879 93.3697 126.487Z" fill="url(#paint11_radial_19549_79333)"/>
<defs>
<radialGradient id="paint0_radial_19549_79333" cx="0" cy="0" r="1" gradientUnits="userSpaceOnUse" gradientTransform="translate(71.5127 69.0186) rotate(1.71836) scale(72.5936 72.5936)">
<stop stop-color="white"/>
<stop offset="0.34" stop-color="#FDFDFC"/>
<stop offset="0.58" stop-color="#F8F5F3"/>
<stop offset="0.8" stop-color="#EFE7E3"/>
<stop offset="0.99" stop-color="#E3D4CD"/>
<stop offset="1" stop-color="#E2D3CC"/>
</radialGradient>
<radialGradient id="paint1_radial_19549_79333" cx="0" cy="0" r="1" gradientUnits="userSpaceOnUse" gradientTransform="translate(46.0075 75.1743) rotate(1.71836) scale(48.229)">
<stop stop-color="white"/>
<stop offset="0.34" stop-color="#FDFDFC"/>
<stop offset="0.58" stop-color="#F8F5F3"/>
<stop offset="0.8" stop-color="#EFE7E3"/>
<stop offset="0.99" stop-color="#E3D4CD"/>
<stop offset="1" stop-color="#E2D3CC"/>
</radialGradient>
<linearGradient id="paint2_linear_19549_79333" x1="44.2639" y1="50.0499" x2="23.7677" y2="56.3631" gradientUnits="userSpaceOnUse">
<stop stop-color="#FAE6ED"/>
<stop offset="0.55" stop-color="#F3C0D3"/>
<stop offset="1" stop-color="#EFCDDB"/>
</linearGradient>
<radialGradient id="paint3_radial_19549_79333" cx="0" cy="0" r="1" gradientUnits="userSpaceOnUse" gradientTransform="translate(21.6027 50.344) rotate(30.4395) scale(35.8369 35.8369)">
<stop stop-color="white"/>
<stop offset="0.34" stop-color="#FDFDFC"/>
<stop offset="0.58" stop-color="#F8F5F3"/>
<stop offset="0.8" stop-color="#EFE7E3"/>
<stop offset="0.99" stop-color="#E3D4CD"/>
<stop offset="1" stop-color="#E2D3CC"/>
</radialGradient>
<radialGradient id="paint4_radial_19549_79333" cx="0" cy="0" r="1" gradientUnits="userSpaceOnUse" gradientTransform="translate(40.4669 170.46) rotate(-19.1556) scale(28.6265 28.3576)">
<stop stop-color="white"/>
<stop offset="0.34" stop-color="#FDFDFC"/>
<stop offset="0.58" stop-color="#F8F5F3"/>
<stop offset="0.8" stop-color="#EFE7E3"/>
<stop offset="0.99" stop-color="#E3D4CD"/>
<stop offset="1" stop-color="#E2D3CC"/>
</radialGradient>
<radialGradient id="paint5_radial_19549_79333" cx="0" cy="0" r="1" gradientUnits="userSpaceOnUse" gradientTransform="translate(66.6402 171.417) rotate(-166.792) scale(28.6534 28.3763)">
<stop stop-color="white"/>
<stop offset="0.34" stop-color="#FDFDFC"/>
<stop offset="0.58" stop-color="#F8F5F3"/>
<stop offset="0.8" stop-color="#EFE7E3"/>
<stop offset="0.99" stop-color="#E3D4CD"/>
<stop offset="1" stop-color="#E2D3CC"/>
</radialGradient>
<radialGradient id="paint6_radial_19549_79333" cx="0" cy="0" r="1" gradientUnits="userSpaceOnUse" gradientTransform="translate(5.32942 132.127) rotate(-75.5175) scale(4.66021 4.66021)">
<stop stop-color="white"/>
<stop offset="0.34" stop-color="#FDFDFC"/>
<stop offset="0.58" stop-color="#F8F5F3"/>
<stop offset="0.8" stop-color="#EFE7E3"/>
<stop offset="0.99" stop-color="#E3D4CD"/>
<stop offset="1" stop-color="#E2D3CC"/>
</radialGradient>
<radialGradient id="paint7_radial_19549_79333" cx="0" cy="0" r="1" gradientUnits="userSpaceOnUse" gradientTransform="translate(8.10676 121.382) rotate(-75.5175) scale(4.66022 4.66021)">
<stop stop-color="white"/>
<stop offset="0.34" stop-color="#FDFDFC"/>
<stop offset="0.58" stop-color="#F8F5F3"/>
<stop offset="0.8" stop-color="#EFE7E3"/>
<stop offset="0.99" stop-color="#E3D4CD"/>
<stop offset="1" stop-color="#E2D3CC"/>
</radialGradient>
<radialGradient id="paint8_radial_19549_79333" cx="0" cy="0" r="1" gradientUnits="userSpaceOnUse" gradientTransform="translate(6.76657 126.298) rotate(-75.5175) scale(5.21944 5.91847)">
<stop stop-color="white"/>
<stop offset="0.34" stop-color="#FDFDFC"/>
<stop offset="0.58" stop-color="#F8F5F3"/>
<stop offset="0.8" stop-color="#EFE7E3"/>
<stop offset="0.99" stop-color="#E3D4CD"/>
<stop offset="1" stop-color="#E2D3CC"/>
</radialGradient>
<radialGradient id="paint9_radial_19549_79333" cx="0" cy="0" r="1" gradientUnits="userSpaceOnUse" gradientTransform="translate(101.346 130.852) rotate(-104.482) scale(4.66021 4.66021)">
<stop stop-color="white"/>
<stop offset="0.34" stop-color="#FDFDFC"/>
<stop offset="0.58" stop-color="#F8F5F3"/>
<stop offset="0.8" stop-color="#EFE7E3"/>
<stop offset="0.99" stop-color="#E3D4CD"/>
<stop offset="1" stop-color="#E2D3CC"/>
</radialGradient>
<radialGradient id="paint10_radial_19549_79333" cx="0" cy="0" r="1" gradientUnits="userSpaceOnUse" gradientTransform="translate(98.569 120.107) rotate(-104.482) scale(4.66022 4.66021)">
<stop stop-color="white"/>
<stop offset="0.34" stop-color="#FDFDFC"/>
<stop offset="0.58" stop-color="#F8F5F3"/>
<stop offset="0.8" stop-color="#EFE7E3"/>
<stop offset="0.99" stop-color="#E3D4CD"/>
<stop offset="1" stop-color="#E2D3CC"/>
</radialGradient>
<radialGradient id="paint11_radial_19549_79333" cx="0" cy="0" r="1" gradientUnits="userSpaceOnUse" gradientTransform="translate(99.9092 125.023) rotate(-104.482) scale(5.21944 5.91847)">
<stop stop-color="white"/>
<stop offset="0.34" stop-color="#FDFDFC"/>
<stop offset="0.58" stop-color="#F8F5F3"/>
<stop offset="0.8" stop-color="#EFE7E3"/>
<stop offset="0.99" stop-color="#E3D4CD"/>
<stop offset="1" stop-color="#E2D3CC"/>
</radialGradient>
<clipPath id="clip0_19549_79333">
<rect width="90" height="83" fill="white" transform="translate(9)"/>
</clipPath>
</defs>
</svg>
