<svg width="73" height="93" viewBox="0 0 73 93" fill="none" xmlns="http://www.w3.org/2000/svg">
<g clip-path="url(#clip0_19746_53966)">
<path d="M4.9231 41.4502C11.4053 61.0933 21.6934 75.4819 27.9301 73.3702C34.1668 71.2586 33.9458 53.7272 27.4636 34.0841C20.9813 14.441 10.7669 0.126097 4.4566 2.0904C-1.8537 4.05471 -1.51 21.758 4.9231 41.4502Z" fill="url(#paint0_radial_19746_53966)"/>
<path d="M8.60597 41.4515C13.8851 57.4361 21.7423 69.2465 26.162 67.7978C30.5817 66.3491 29.9187 52.2061 24.6642 36.197C19.4097 20.1879 10.3248 9.18773 7.10818 9.85068C3.89167 10.5136 3.40057 25.4424 8.60597 41.4515Z" fill="#FEC5DE"/>
<path d="M7.25429 9.94783C7.97429 9.89736 8.68849 10.1064 9.26769 10.5371C6.81229 13.6064 6.81229 27.111 11.7231 41.4995C16.1673 55.0041 22.4531 65.5132 26.971 67.6003C26.779 67.7229 26.5729 67.8218 26.3572 67.8949C21.9129 69.3436 14.0803 57.5332 8.8012 41.5486C3.5221 25.5641 4.01319 10.5617 7.25429 9.94783Z" fill="#FEB1D3"/>
<path d="M64.3947 39.4123C59.4839 59.5219 50.1043 74.5489 43.7449 72.9529C37.3854 71.3569 36.3787 53.7763 41.2895 33.6667C46.2003 13.5571 55.7026 -1.5435 62.062 0.126165C68.421 1.79583 69.477 19.2291 64.3947 39.4123Z" fill="url(#paint1_radial_19746_53966)"/>
<path d="M60.7147 39.608C56.6142 55.9364 49.6163 68.2378 45.0984 67.1083C40.5805 65.9789 40.1876 51.8359 44.3372 35.5076C48.4868 19.1792 56.6878 7.49161 59.8798 7.98269C63.0718 8.47376 64.7906 23.2552 60.7147 39.608Z" fill="#FEC5DE"/>
<path d="M59.8763 7.983C59.1441 7.96835 58.4335 8.23154 57.8874 8.71962C60.4901 11.617 61.3986 25.0725 57.7156 39.7802C54.2535 53.5549 48.7288 64.4569 44.3828 66.7895C44.5704 66.914 44.7781 67.0054 44.9967 67.0596C49.5146 68.189 56.5124 55.863 60.6375 39.5347C64.7625 23.2064 63.1174 8.44953 59.8763 7.983Z" fill="#FEB1D3"/>
<path d="M72.721 107.081C73.654 133.084 58.3567 154.741 38.5909 155.453C18.825 156.165 2.00567 135.638 1.09717 109.635C0.188668 83.6326 15.4366 61.9761 35.3252 61.264C55.2138 60.5519 71.788 81.1526 72.721 107.081Z" fill="url(#paint2_radial_19746_53966)"/>
<path d="M40.4767 74.6222C40.4719 75.0371 40.5907 75.4439 40.8182 75.7909C41.0457 76.1379 41.3713 76.4092 41.7537 76.5702C42.136 76.7312 42.5577 76.7745 42.9648 76.6948C43.372 76.6151 43.7461 76.4158 44.0394 76.1224C44.3328 75.8291 44.5321 75.455 44.6118 75.0478C44.6915 74.6407 44.6481 74.219 44.4871 73.8367C44.3261 73.4543 44.0548 73.1287 43.7079 72.9012C43.3609 72.6737 42.9541 72.5549 42.5392 72.5597C41.9922 72.5597 41.4676 72.777 41.0808 73.1638C40.694 73.5506 40.4767 74.0752 40.4767 74.6222Z" fill="black"/>
<path d="M42.6875 73.7877C42.6875 74.1069 42.8839 74.377 43.0804 74.377C43.2768 74.377 43.4732 74.1069 43.4487 73.7631C43.4241 73.4194 43.2768 73.1738 43.0558 73.1738C42.8348 73.1738 42.6875 73.5421 42.6875 73.7877Z" fill="white"/>
<path d="M27.4928 74.794C27.483 75.2097 27.5977 75.619 27.8221 75.9691C28.0465 76.3193 28.3704 76.5944 28.7523 76.7592C29.1341 76.924 29.5565 76.9709 29.9652 76.894C30.3739 76.8171 30.7504 76.6199 31.0462 76.3275C31.342 76.0352 31.5438 75.6612 31.6256 75.2534C31.7074 74.8457 31.6655 74.4227 31.5053 74.039C31.345 73.6552 31.0738 73.328 30.7264 73.0994C30.379 72.8708 29.9712 72.7512 29.5553 72.756C29.2856 72.7528 29.0179 72.8031 28.7678 72.904C28.5177 73.005 28.2902 73.1546 28.0983 73.3442C27.9065 73.5337 27.7542 73.7595 27.6502 74.0084C27.5463 74.2572 27.4927 74.5243 27.4928 74.794Z" fill="black"/>
<path d="M29.6484 74.0826C29.6484 74.4018 29.8449 74.6718 30.0413 74.6718C30.2377 74.6718 30.4342 74.4017 30.4096 74.0579C30.3851 73.7142 30.2377 73.4688 30.0413 73.4688C29.8449 73.4688 29.6484 73.788 29.6484 74.0826Z" fill="white"/>
<path d="M29.3363 84.1254C29.3413 84.7674 29.5368 85.3935 29.8981 85.9243C30.2594 86.4551 30.7701 86.8666 31.3657 87.1066C31.9612 87.3466 32.6145 87.4044 33.2429 87.2725C33.8713 87.1407 34.4463 86.8251 34.8951 86.366C35.3439 85.9068 35.6462 85.3247 35.7637 84.6935C35.8812 84.0623 35.8086 83.4104 35.555 82.8206C35.3014 82.2307 34.8784 81.7294 34.3396 81.3803C33.8007 81.0312 33.1703 80.85 32.5283 80.8597C32.1038 80.8629 31.6841 80.9501 31.2935 81.1163C30.9029 81.2824 30.549 81.5243 30.2522 81.8279C29.9555 82.1314 29.7218 82.4907 29.5646 82.8851C29.4074 83.2794 29.3298 83.7009 29.3363 84.1254Z" fill="white"/>
<path d="M35.7423 84.0268C35.7472 84.6688 35.9427 85.2949 36.304 85.8257C36.6653 86.3564 37.1761 86.7679 37.7716 87.008C38.3671 87.248 39.0205 87.3057 39.6489 87.1739C40.2772 87.042 40.8523 86.7265 41.3011 86.2674C41.7499 85.8082 42.0522 85.2261 42.1697 84.5949C42.2872 83.9637 42.2145 83.3118 41.961 82.7219C41.7074 82.1321 41.2844 81.6308 40.7455 81.2817C40.2067 80.9326 39.5763 80.7514 38.9343 80.7611C38.079 80.774 37.2634 81.1246 36.6655 81.7363C36.0676 82.3481 35.7357 83.1714 35.7423 84.0268Z" fill="white"/>
<path d="M39.3751 78.0849C39.3801 78.7217 39.5726 79.3429 39.9285 79.8709C40.2844 80.399 40.788 80.8105 41.3763 81.0541C41.9647 81.2977 42.6118 81.3625 43.2368 81.2406C43.8619 81.1186 44.4371 80.8152 44.8908 80.3683C45.3444 79.9214 45.6563 79.3507 45.7876 78.7276C45.9189 78.1045 45.8637 77.4565 45.6289 76.8645C45.3941 76.2726 44.9902 75.7629 44.4675 75.3992C43.9448 75.0354 43.3265 74.8337 42.6899 74.8192C42.256 74.8093 41.8246 74.8867 41.4212 75.0467C41.0178 75.2067 40.6506 75.4461 40.3415 75.7506C40.0323 76.0552 39.7875 76.4187 39.6215 76.8197C39.4555 77.2207 39.3717 77.6509 39.3751 78.0849Z" fill="white"/>
<path d="M26.3829 78.2817C26.3878 78.9237 26.5834 79.5498 26.9447 80.0806C27.306 80.6113 27.8167 81.0228 28.4122 81.2628C29.0077 81.5029 29.6611 81.5606 30.2895 81.4288C30.9179 81.2969 31.4929 80.9814 31.9417 80.5223C32.3905 80.0631 32.6928 79.481 32.8103 78.8498C32.9278 78.2186 32.8551 77.5667 32.6016 76.9768C32.348 76.3869 31.925 75.8857 31.3862 75.5366C30.8473 75.1875 30.2169 75.0063 29.5749 75.016C28.7196 75.0289 27.9041 75.3795 27.3061 75.9912C26.7082 76.6029 26.3763 77.4263 26.3829 78.2817Z" fill="white"/>
<path d="M36.0346 84.9602C35.7859 85.6334 35.353 86.2231 34.7854 86.6623C34.2178 87.1014 33.5382 87.3722 32.8241 87.4439C32.11 87.5156 31.3902 87.3852 30.7466 87.0676C30.1031 86.75 29.5616 86.258 29.1841 85.6477C28.9877 85.4022 29.4051 85.083 29.6015 85.3531C29.9222 85.8933 30.3909 86.3304 30.9522 86.6128C31.5135 86.8951 32.1439 87.0108 32.7688 86.9462C33.3938 86.8817 33.9872 86.6395 34.4789 86.2484C34.9706 85.8573 35.34 85.3336 35.5435 84.7392C35.6909 84.4446 36.1819 84.7392 36.0346 84.9602Z" fill="#808080"/>
<path d="M36.034 84.7623C36.279 85.3188 36.6547 85.8081 37.1292 86.1885C37.6037 86.5689 38.1629 86.8293 38.7594 86.9476C39.4098 86.9617 40.0524 86.8032 40.6217 86.4884C41.191 86.1736 41.6667 85.7135 42.0005 85.1551C42.197 84.885 42.5898 85.1551 42.3934 85.4743C42.0551 86.1244 41.533 86.6604 40.8921 87.0157C40.2511 87.3709 39.5198 87.5297 38.7893 87.4721C38.0588 87.4144 37.3614 87.1431 36.7841 86.6917C36.2068 86.2404 35.7751 85.6292 35.5429 84.9341C35.3956 84.6395 35.8866 84.4676 36.034 84.7623Z" fill="#808080"/>
<path style="mix-blend-mode:multiply" d="M42.6877 81.3014C42.6976 82.4738 43.0555 83.6168 43.7161 84.5854C44.3766 85.554 45.31 86.3046 46.3978 86.7419C47.4856 87.1792 48.6788 87.2835 49.826 87.0416C50.9732 86.7997 52.0226 86.2224 52.8412 85.3831C53.6598 84.5438 54.2107 83.4802 54.4238 82.3274C54.637 81.1745 54.5029 79.9843 54.0385 78.9077C53.5742 77.8312 52.8005 76.9169 51.8157 76.2807C50.8308 75.6446 49.6792 75.3154 48.507 75.3348C46.9461 75.3607 45.4587 76.0022 44.3687 77.1198C43.2787 78.2374 42.6745 79.7404 42.6877 81.3014Z" fill="url(#paint3_radial_19746_53966)"/>
<path style="mix-blend-mode:multiply" d="M17.2274 81.6941C17.2421 82.8654 17.6041 84.0059 18.2676 84.9713C18.9311 85.9366 19.8661 86.6833 20.9543 87.1169C22.0424 87.5504 23.2348 87.6512 24.3803 87.4066C25.5258 87.1619 26.573 86.5828 27.3891 85.7426C28.2053 84.9023 28.7537 83.8388 28.9649 82.6866C29.1761 81.5345 29.0406 80.3455 28.5756 79.2705C28.1106 78.1954 27.3369 77.2824 26.3527 76.6474C25.3684 76.0123 24.2178 75.6836 23.0466 75.703C22.2707 75.7125 21.5042 75.8753 20.7913 76.1819C20.0784 76.4885 19.4331 76.9329 18.8924 77.4896C18.3517 78.0463 17.9262 78.7042 17.6405 79.4258C17.3548 80.1473 17.2144 80.9182 17.2274 81.6941Z" fill="url(#paint4_radial_19746_53966)"/>
<path d="M33.2866 80.393C32.7218 82.0135 34.6125 82.6028 35.7419 82.5783C36.8714 82.5537 38.8112 81.9153 38.1973 80.3193C37.8536 79.3617 36.7732 78.134 35.7419 78.1586C34.7107 78.1831 33.6058 79.4354 33.2866 80.393Z" fill="url(#paint5_linear_19746_53966)"/>
<path d="M24.1792 79.7552C18.9493 70.8176 10.1344 68.5586 0.386601 67.9939C0.0428007 67.9939 0.141001 67.4782 0.386601 67.5028C10.2081 68.0675 19.2194 70.4002 24.523 79.436C24.6949 79.7306 24.2775 80.0253 24.1056 79.7552H24.1792Z" fill="#808080"/>
<path d="M23.5893 81.4976C17.991 76.4149 10.723 76.5868 3.65149 76.7587C3.30779 76.7587 3.25869 76.2676 3.65149 76.243C10.8704 76.243 18.3839 75.9238 23.9821 81.1538C24.2277 81.3993 23.9821 81.7922 23.6629 81.5712L23.5893 81.4976Z" fill="#808080"/>
<path d="M23.0462 83.6093C17.6789 83.2931 12.2983 83.9418 7.1599 85.5245C7.1293 85.5374 7.0964 85.5441 7.0632 85.5443C7.0299 85.5445 6.997 85.5382 6.9662 85.5256C6.9354 85.5131 6.9074 85.4946 6.8838 85.4712C6.8601 85.4479 6.8413 85.4201 6.8284 85.3894C6.8155 85.3588 6.8088 85.3259 6.8086 85.2927C6.8084 85.2595 6.8148 85.2265 6.8273 85.1957C6.8398 85.165 6.8583 85.137 6.8817 85.1133C6.9051 85.0897 6.9328 85.0709 6.9635 85.058C12.1389 83.4487 17.5616 82.7834 22.9726 83.0937C23.3163 83.0937 23.3654 83.6093 22.9726 83.6093H23.0462Z" fill="#808080"/>
<path d="M46.4223 81.2764C51.6277 72.0932 60.197 69.4905 70.24 68.582C70.295 68.5992 70.343 68.6335 70.377 68.6798C70.411 68.7262 70.429 68.7823 70.429 68.8398C70.429 68.8974 70.411 68.9535 70.377 68.9999C70.343 69.0462 70.295 69.0805 70.24 69.0977C60.418 69.9816 51.9469 72.4124 46.8397 81.3746C46.6679 81.6692 46.2013 81.3746 46.3487 81.1781L46.4223 81.2764Z" fill="#808080"/>
<path d="M47.2062 82.8483C52.8291 77.6183 59.9988 77.5201 67.316 77.4219C67.66 77.4219 67.709 77.9375 67.316 77.9375C60.1216 77.9375 53.0255 78.0848 47.4518 83.2657C47.2062 83.4867 46.9116 83.0938 47.1326 82.8483H47.2062Z" fill="#808080"/>
<path d="M48.0427 84.8363C53.4649 84.3383 58.9324 84.8376 64.1746 86.3095C64.4938 86.3095 64.1746 86.8988 63.9782 86.7761C58.8228 85.3334 53.4462 84.8507 48.1164 85.3519C47.7726 85.3519 47.7235 84.8363 48.1164 84.8363H48.0427Z" fill="#808080"/>
</g>
<defs>
<radialGradient id="paint0_radial_19746_53966" cx="0" cy="0" r="1" gradientUnits="userSpaceOnUse" gradientTransform="translate(16.5113 69.065) rotate(179.427) scale(60.7247 60.7247)">
<stop stop-color="white"/>
<stop offset="0.34" stop-color="#FDFDFC"/>
<stop offset="0.58" stop-color="#F8F5F3"/>
<stop offset="0.8" stop-color="#EFE7E3"/>
<stop offset="0.99" stop-color="#E3D4CD"/>
<stop offset="1" stop-color="#E2D3CC"/>
</radialGradient>
<radialGradient id="paint1_radial_19746_53966" cx="0" cy="0" r="1" gradientUnits="userSpaceOnUse" gradientTransform="translate(50.2183 61.7038) rotate(-3.43363) scale(60.8309 60.8309)">
<stop stop-color="white"/>
<stop offset="0.34" stop-color="#FDFDFC"/>
<stop offset="0.58" stop-color="#F8F5F3"/>
<stop offset="0.8" stop-color="#EFE7E3"/>
<stop offset="0.99" stop-color="#E3D4CD"/>
<stop offset="1" stop-color="#E2D3CC"/>
</radialGradient>
<radialGradient id="paint2_radial_19746_53966" cx="0" cy="0" r="1" gradientUnits="userSpaceOnUse" gradientTransform="translate(36.5873 92.2006) rotate(-2.91455) scale(33.456 38.0258)">
<stop stop-color="white"/>
<stop offset="0.34" stop-color="#FDFDFC"/>
<stop offset="0.58" stop-color="#F8F5F3"/>
<stop offset="0.8" stop-color="#EFE7E3"/>
<stop offset="0.99" stop-color="#E3D4CD"/>
<stop offset="1" stop-color="#FFEBF4"/>
</radialGradient>
<radialGradient id="paint3_radial_19746_53966" cx="0" cy="0" r="1" gradientUnits="userSpaceOnUse" gradientTransform="translate(43.7865 90.402) rotate(179.427) scale(5.89322 5.89321)">
<stop offset="0.03" stop-color="#FEC5DE"/>
<stop offset="0.11" stop-color="#FECCE2"/>
<stop offset="0.46" stop-color="#FFE8F2"/>
<stop offset="0.77" stop-color="#FFF9FC"/>
<stop offset="1" stop-color="white"/>
</radialGradient>
<radialGradient id="paint4_radial_19746_53966" cx="0" cy="0" r="1" gradientUnits="userSpaceOnUse" gradientTransform="translate(18.4244 90.6555) rotate(179.427) scale(5.89322)">
<stop offset="0.03" stop-color="#FEC5DE"/>
<stop offset="0.11" stop-color="#FECCE2"/>
<stop offset="0.46" stop-color="#FFE8F2"/>
<stop offset="0.77" stop-color="#FFF9FC"/>
<stop offset="1" stop-color="white"/>
</radialGradient>
<linearGradient id="paint5_linear_19746_53966" x1="39.8503" y1="89.4573" x2="34.6449" y2="89.5093" gradientUnits="userSpaceOnUse">
<stop stop-color="#FAE6ED"/>
<stop offset="0.55" stop-color="#F3C0D3"/>
<stop offset="1" stop-color="#EFCDDB"/>
</linearGradient>
<clipPath id="clip0_19746_53966">
<rect width="73" height="93" fill="white"/>
</clipPath>
</defs>
</svg>
