<svg width="28" height="118" viewBox="0 0 28 118" fill="none" xmlns="http://www.w3.org/2000/svg">
<path d="M27.1833 58.8604C27.272 72.2311 27.5715 85.7085 26.6016 99.0631C26.2525 103.848 25.9632 116.303 20.4836 117.705C14.6826 119.191 9.36591 106.465 7.63973 102.158C2.1616 88.4846 0.0994907 73.462 0.00351081 59.0388C-0.092469 44.6156 1.76751 29.5681 7.06094 15.8246C8.73041 11.4944 13.877 -1.30022 19.6968 0.107601C25.1953 1.43794 25.6505 13.8876 26.062 18.6739C27.2167 32.0095 27.0946 45.4898 27.1833 58.8604Z" fill="#FFEBF4"/>
<path d="M21.021 67.5319C21.085 77.2302 21.242 87.009 20.8407 96.6956C20.6952 100.166 20.5949 109.201 18.1983 110.207C15.6607 111.272 13.3092 102.032 12.5457 98.9045C10.1215 88.9752 9.18639 78.0737 9.12094 67.6108C9.0555 57.1479 9.83643 46.2347 12.1298 36.2747C12.8569 33.1374 15.0804 23.866 17.6312 24.8981C20.0408 25.8732 20.2633 34.9049 20.4538 38.374C20.9832 48.0548 20.957 57.8365 21.021 67.5319Z" fill="#FB7185"/>
</svg>
