<svg width="42" height="116" viewBox="0 0 42 116" fill="none" xmlns="http://www.w3.org/2000/svg">
<path d="M11.1731 55.8857C7.82838 68.8324 4.25822 81.8317 1.95034 95.024C1.12434 99.7504 -1.62708 111.902 3.34496 114.593C8.61077 117.444 16.8694 106.395 19.5888 102.636C28.2328 90.707 33.8913 76.6361 37.4963 62.6704C41.1014 48.7047 42.9599 33.6543 41.1697 19.0352C40.6055 14.4302 38.7295 0.761282 32.7352 0.718887C27.0796 0.672106 23.6054 12.6379 22.0421 17.1727C17.6809 29.8387 14.515 42.9389 11.1731 55.8857Z" fill="#FFEBF4"/>
<path d="M15.0411 65.8014C12.6169 75.1927 10.0836 84.6381 8.11454 94.1318C7.40778 97.5322 5.30786 106.321 7.38742 107.874C9.58769 109.524 14.1191 101.133 15.6228 98.2851C20.3912 89.2446 23.9498 78.8972 26.5645 68.7661C29.1792 58.6351 31.0726 47.8608 31.2777 37.6405C31.3417 34.4243 31.4362 24.8868 28.7109 25.2669C26.1369 25.628 23.7215 34.3308 22.6919 37.6522C19.8212 46.912 17.4653 56.4042 15.0411 65.8014Z" fill="#FB7185"/>
</svg>
