<svg width="300" height="97" viewBox="0 0 300 97" fill="none" xmlns="http://www.w3.org/2000/svg">
<g clip-path="url(#clip0_19675_53320)">
<path d="M6.50181 48.1675C14.6104 24.7581 27.1899 7.87444 34.6042 10.3737C42.0186 12.8729 41.4355 33.9775 33.2991 57.4147C25.1627 80.8519 12.611 97.7356 5.14112 95.2086C-2.3288 92.6816 -1.6068 71.6048 6.50181 48.1675Z" fill="url(#paint0_radial_19675_53320)"/>
<path d="M10.9171 48.2518C17.5261 29.2299 27.1343 15.2897 32.4104 17.1225C37.6866 18.9553 36.6036 35.8112 30.0223 54.8331C23.441 73.855 12.3611 86.8787 8.5289 85.9623C4.69675 85.046 4.33575 67.2737 10.9171 48.2518Z" fill="#FEC5DE"/>
<path d="M8.69336 85.9907C9.56212 86.0762 10.432 85.839 11.137 85.3243C8.36013 81.6032 8.63782 65.4693 14.5804 48.3635C20.1343 32.3406 27.8541 19.9 33.2969 17.4841C33.0678 17.3418 32.8261 17.221 32.5749 17.1231C27.2987 15.2903 17.6906 29.2582 11.0815 48.2524C4.47244 67.2465 4.83344 85.0743 8.69336 85.9907Z" fill="#FEB1D3"/>
<path d="M58.0693 60.1916C59.3885 64.8957 60.9456 69.5299 62.7345 74.0762C63.3177 73.2153 63.9008 72.3267 64.5395 71.4936C65.1782 70.6606 66.3723 69.2443 67.3164 68.1613C69.3468 65.941 71.5271 63.8627 73.8422 61.941C77.5202 58.8945 81.4815 56.2071 85.6719 53.9157C85.6719 53.4992 85.422 53.0549 85.3109 52.6106C78.6463 28.7568 67.122 10.9568 59.5688 13.1783C52.0156 15.3998 51.4047 36.31 58.0693 60.1916Z" fill="url(#paint1_radial_19675_53320)"/>
<path d="M61.5076 57.8594C62.6662 61.9846 64.0948 66.0291 65.7841 69.9668C66.2839 69.3559 66.8115 68.7449 67.3391 68.1618C69.3695 65.9415 71.5498 63.8631 73.8649 61.9415C76.4115 59.831 79.1024 57.9009 81.918 56.1655C81.6403 54.9437 81.307 53.694 80.9738 52.4444C75.42 33.006 66.8115 18.566 61.5354 20.0655C56.2592 21.5651 56.0926 38.421 61.5076 57.8594Z" fill="url(#paint2_linear_19675_53320)"/>
<path d="M61.4533 58.0817C62.6031 62.2151 64.0223 66.2689 65.702 70.2168C66.2019 69.6059 66.7295 68.9949 67.2849 68.4118C69.2987 66.1851 71.4704 64.1063 73.7829 62.1915C76.3361 60.0811 79.0263 58.1423 81.8359 56.3877C81.5582 55.1659 81.2528 53.944 80.8918 52.6944C75.4768 33.256 66.7295 18.816 61.4533 20.2878C56.1772 21.7595 56.0383 38.6987 61.4533 58.0817Z" fill="#FEC5DE"/>
<path d="M60.6723 56.4707C61.8264 60.5973 63.2551 64.6421 64.9487 68.5781C65.4486 67.9672 65.9762 67.384 66.5038 66.7731L67.5312 65.6901C66.2416 62.4767 65.1292 59.195 64.1989 55.8598C59.2838 38.2541 58.8117 22.5368 62.8105 18.8712C62.1213 18.5639 61.3492 18.4955 60.6167 18.6769C55.3128 20.1764 55.3406 37.0878 60.6723 56.4707Z" fill="#FEB1D3"/>
<path d="M61.5919 70.5499C61.4697 67.2388 61.6183 63.9232 62.0362 60.6363C63.9801 40.6147 71.7277 24.9807 79.3365 25.7304C86.9452 26.4802 91.4994 43.2528 89.5555 63.2744C89.2223 66.8011 88.9724 67.9952 88.0282 73.3546C87.0841 78.7141 60.4534 80.8523 61.5919 70.5499Z" fill="url(#paint3_radial_19675_53320)"/>
<path d="M13.8852 -5.67722C14.4406 -24.0604 29.0472 -38.5282 46.514 -38.0006C63.9808 -37.473 77.6433 -22.1166 77.0601 -3.76115C76.477 14.5943 61.8981 29.0898 44.4313 28.5622C26.9645 28.0346 13.3298 12.706 13.8852 -5.67722Z" fill="url(#paint4_radial_19675_53320)"/>
<path d="M49.7633 6.40369C49.7635 5.90589 49.9125 5.41953 50.1909 5.00692C50.4694 4.59431 50.8648 4.27426 51.3263 4.0878C51.7879 3.90133 52.2946 3.85695 52.7815 3.96033C53.2685 4.06371 53.7134 4.31015 54.0594 4.66806C54.4054 5.02596 54.6366 5.47903 54.7234 5.96919C54.8102 6.45935 54.7487 6.96427 54.5467 7.41924C54.3447 7.8742 54.0114 8.25848 53.5896 8.52282C53.1678 8.78715 52.6767 8.9195 52.1792 8.90291C51.5285 8.88833 50.9099 8.61771 50.4576 8.14979C50.0053 7.68187 49.7558 7.05444 49.7633 6.40369Z" fill="black"/>
<path d="M52.3414 7.29125C52.3414 6.90248 52.5636 6.59702 52.8135 6.59702C53.0634 6.59702 53.2578 6.93024 53.2578 7.31901C53.2578 7.70778 53.0357 8.04102 52.7857 8.04102C52.5358 8.04102 52.3414 7.70778 52.3414 7.29125Z" fill="white"/>
<path d="M34.2389 5.93039C34.2573 5.26755 34.5382 4.63917 35.02 4.1835C35.5017 3.72782 36.1447 3.48217 36.8075 3.50058C37.4703 3.51899 38.0987 3.79996 38.5544 4.28167C39.0101 4.76339 39.2557 5.40639 39.2373 6.06923C39.2282 6.39743 39.1545 6.72063 39.0205 7.02036C38.8865 7.3201 38.6947 7.59049 38.4562 7.81612C38.2177 8.04175 37.9371 8.21819 37.6304 8.33536C37.3237 8.45254 36.9969 8.50815 36.6687 8.49904C36.3405 8.48992 36.0173 8.41625 35.7175 8.28223C35.4178 8.14821 35.1474 7.95646 34.9218 7.71794C34.6961 7.47942 34.5197 7.19879 34.4025 6.89208C34.2854 6.58537 34.2297 6.25859 34.2389 5.93039Z" fill="black"/>
<path d="M36.818 6.81859C36.818 6.42982 37.0679 6.12436 37.3178 6.12436C37.5678 6.12436 37.7344 6.4576 37.7344 6.84636C37.7344 7.23513 37.5122 7.56836 37.2623 7.56836C37.0124 7.56836 36.818 7.23513 36.818 6.81859Z" fill="white"/>
<path d="M48.5138 2.32133C48.5083 1.54891 48.7331 0.792367 49.1595 0.148235C49.5858 -0.495898 50.1943 -0.998423 50.9075 -1.29525C51.6206 -1.59207 52.406 -1.66973 53.1634 -1.51832C53.9209 -1.3669 54.6161 -0.993272 55.1603 -0.445107C55.7045 0.103059 56.0731 0.8009 56.219 1.55943C56.365 2.31796 56.2817 3.10277 55.9797 3.81374C55.6777 4.52471 55.1708 5.12962 54.5236 5.55128C53.8764 5.97295 53.1183 6.19226 52.3459 6.18125C51.327 6.17391 50.3524 5.76401 49.6345 5.04093C48.9166 4.31785 48.5138 3.34025 48.5138 2.32133Z" fill="white"/>
<path d="M32.9052 1.73643C32.922 0.96662 33.1671 0.21915 33.6092 -0.411222C34.0514 -1.04159 34.6708 -1.52647 35.3889 -1.80436C36.107 -2.08226 36.8914 -2.14066 37.6428 -1.97216C38.3941 -1.80366 39.0785 -1.41586 39.6091 -0.857912C40.1397 -0.299963 40.4927 0.403003 40.6233 1.16183C40.754 1.92066 40.6563 2.70118 40.3427 3.40444C40.0292 4.10769 39.5139 4.702 38.8621 5.11201C38.2103 5.52201 37.4515 5.72924 36.6818 5.70742C36.1725 5.69664 35.6704 5.58514 35.2043 5.37935C34.7383 5.17357 34.3176 4.87757 33.9666 4.50842C33.6155 4.13927 33.3409 3.70428 33.1588 3.22852C32.9766 2.75276 32.8905 2.24565 32.9052 1.73643Z" fill="white"/>
<path style="mix-blend-mode:multiply" d="M52.5116 -1.56759C52.5453 -2.96984 52.9947 -4.3305 53.8027 -5.477C54.6108 -6.6235 55.7412 -7.50417 57.0504 -8.00736C58.3597 -8.51054 59.789 -8.61356 61.1569 -8.30333C62.5248 -7.9931 63.7698 -7.28361 64.7339 -6.26483C65.698 -5.24606 66.3379 -3.96392 66.5723 -2.58099C66.8067 -1.19807 66.6251 0.223316 66.0506 1.5029C65.4761 2.78249 64.5345 3.86264 63.3452 4.60634C62.1559 5.35003 60.7726 5.72377 59.3706 5.68017C57.5022 5.62206 55.7325 4.82749 54.4476 3.46974C53.1626 2.11199 52.4667 0.301226 52.5116 -1.56759Z" fill="url(#paint5_radial_19675_53320)"/>
<path style="mix-blend-mode:multiply" d="M22.1061 -2.51135C22.1452 -3.91224 22.5992 -5.27003 23.4105 -6.41277C24.2217 -7.55552 25.3539 -8.43182 26.6635 -8.93076C27.9731 -9.42969 29.4013 -9.52882 30.7673 -9.21556C32.1333 -8.90231 33.3756 -8.19076 34.3369 -7.17103C35.2983 -6.1513 35.9354 -4.86925 36.1677 -3.48719C36.4 -2.10513 36.2169 -0.685236 35.6417 0.592727C35.0665 1.87069 34.1251 2.94924 32.9365 3.69182C31.748 4.43439 30.3659 4.8076 28.9651 4.76418C28.0352 4.74272 27.1188 4.53681 26.269 4.1584C25.4193 3.77999 24.6532 3.23662 24.0151 2.5598C23.3771 1.88299 22.8798 1.0862 22.552 0.215675C22.2243 -0.65485 22.0728 -1.58178 22.1061 -2.51135Z" fill="url(#paint6_radial_19675_53320)"/>
<path d="M41.2376 -0.650652C40.5989 -2.5945 42.876 -3.26096 44.2922 -3.23319C45.7084 -3.20542 47.93 -2.37234 47.0691 -0.456269C46.6248 0.6545 45.3474 2.12628 44.0145 2.07074C42.6816 2.0152 41.6541 0.515654 41.2376 -0.650652Z" fill="url(#paint7_linear_19675_53320)"/>
<path d="M30.408 0.0164309C27.6506 4.88681 23.3382 8.6907 18.1618 10.8187C12.8981 12.6691 7.35736 13.6082 1.77792 13.5956C1.44469 13.5956 1.44469 14.1232 1.77792 14.0954C7.49661 14.1498 13.1813 13.2102 18.5783 11.3185C23.7784 9.14725 28.1001 5.29485 30.8523 0.377444C31.0467 0.0997515 30.5746 -0.150182 30.408 0.12751V0.0164309Z" fill="#58595B"/>
<path d="M29.7139 -2.09477C23.1048 3.95892 14.0798 3.45906 5.74906 3.18137C5.41582 3.18137 5.41582 3.68121 5.74906 3.70898C14.2464 3.95891 23.3547 4.43098 30.0749 -1.84486C30.3248 -2.06701 30.0749 -2.42801 29.7139 -2.20585V-2.09477Z" fill="#58595B"/>
<path d="M57.0661 -1.45548C59.5454 3.6301 63.6495 7.74394 68.7292 10.2354C74.0079 12.5109 79.65 13.8274 85.3907 14.123C85.7239 14.123 85.7239 13.6232 85.3907 13.5954C79.7526 13.2699 74.2115 11.9833 69.0069 9.79105C63.9917 7.35973 59.9417 3.30982 57.5104 -1.70539C57.3716 -2.01085 56.9273 -1.7054 57.0661 -1.45548Z" fill="#58595B"/>
<path d="M57.8954 -3.40042C64.199 3.15311 73.3628 3.23641 81.8325 3.48633C81.888 3.46807 81.9364 3.43274 81.9707 3.38537C82.005 3.33799 82.0234 3.28101 82.0234 3.22253C82.0234 3.16405 82.005 3.10705 81.9707 3.05968C81.9364 3.01231 81.888 2.97698 81.8325 2.95872C73.5017 2.70879 64.4767 2.68102 58.2564 -3.76144C58.0342 -4.01136 57.6732 -3.76142 57.8954 -3.40042Z" fill="#58595B"/>
</g>
<g clip-path="url(#clip1_19675_53320)">
<path d="M216.502 49.1675C224.61 25.7581 237.19 8.87444 244.604 11.3737C252.019 13.8729 251.435 34.9775 243.299 58.4147C235.163 81.8519 222.611 98.7356 215.141 96.2086C207.671 93.6816 208.393 72.6048 216.502 49.1675Z" fill="url(#paint8_radial_19675_53320)"/>
<path d="M220.917 49.2518C227.526 30.2299 237.134 16.2897 242.41 18.1225C247.687 19.9553 246.604 36.8112 240.022 55.8331C233.441 74.855 222.361 87.8787 218.529 86.9623C214.697 86.046 214.336 68.2737 220.917 49.2518Z" fill="#FEC5DE"/>
<path d="M218.693 86.9907C219.562 87.0762 220.432 86.839 221.137 86.3243C218.36 82.6032 218.638 66.4693 224.58 49.3635C230.134 33.3406 237.854 20.9 243.297 18.4841C243.068 18.3418 242.826 18.221 242.575 18.1231C237.299 16.2903 227.691 30.2582 221.082 49.2524C214.472 68.2465 214.833 86.0743 218.693 86.9907Z" fill="#FEB1D3"/>
<path d="M268.069 61.1916C269.388 65.8957 270.946 70.5299 272.735 75.0762C273.318 74.2153 273.901 73.3267 274.54 72.4936C275.178 71.6606 276.372 70.2443 277.316 69.1613C279.347 66.941 281.527 64.8627 283.842 62.941C287.52 59.8945 291.482 57.2071 295.672 54.9157C295.672 54.4992 295.422 54.0549 295.311 53.6106C288.646 29.7568 277.122 11.9568 269.569 14.1783C262.016 16.3998 261.405 37.31 268.069 61.1916Z" fill="url(#paint9_radial_19675_53320)"/>
<path d="M271.508 58.8594C272.666 62.9846 274.095 67.0291 275.784 70.9668C276.284 70.3559 276.812 69.7449 277.339 69.1618C279.369 66.9415 281.55 64.8631 283.865 62.9415C286.411 60.831 289.102 58.9009 291.918 57.1655C291.64 55.9437 291.307 54.694 290.974 53.4444C285.42 34.006 276.812 19.566 271.535 21.0655C266.259 22.5651 266.093 39.421 271.508 58.8594Z" fill="url(#paint10_linear_19675_53320)"/>
<path d="M271.453 59.0817C272.603 63.2151 274.022 67.2689 275.702 71.2168C276.202 70.6059 276.729 69.9949 277.285 69.4118C279.299 67.1851 281.47 65.1063 283.783 63.1915C286.336 61.0811 289.026 59.1423 291.836 57.3877C291.558 56.1659 291.253 54.944 290.892 53.6944C285.477 34.256 276.729 19.816 271.453 21.2878C266.177 22.7595 266.038 39.6987 271.453 59.0817Z" fill="#FEC5DE"/>
<path d="M270.672 57.4707C271.826 61.5973 273.255 65.6421 274.949 69.5781C275.449 68.9672 275.976 68.384 276.504 67.7731L277.531 66.6901C276.242 63.4767 275.129 60.195 274.199 56.8598C269.284 39.2541 268.812 23.5368 272.81 19.8712C272.121 19.5639 271.349 19.4955 270.617 19.6769C265.313 21.1764 265.341 38.0878 270.672 57.4707Z" fill="#FEB1D3"/>
<path d="M271.592 71.5499C271.47 68.2388 271.618 64.9232 272.036 61.6363C273.98 41.6147 281.728 25.9807 289.336 26.7304C296.945 27.4802 301.499 44.2528 299.556 64.2744C299.222 67.8011 298.972 68.9952 298.028 74.3546C297.084 79.7141 270.453 81.8523 271.592 71.5499Z" fill="url(#paint11_radial_19675_53320)"/>
<path d="M223.885 -4.67722C224.441 -23.0604 239.047 -37.5282 256.514 -37.0006C273.981 -36.473 287.643 -21.1166 287.06 -2.76115C286.477 15.5943 271.898 30.0898 254.431 29.5622C236.964 29.0346 223.33 13.706 223.885 -4.67722Z" fill="url(#paint12_radial_19675_53320)"/>
<path d="M259.763 7.40369C259.764 6.90589 259.912 6.41953 260.191 6.00692C260.469 5.59431 260.865 5.27426 261.326 5.0878C261.788 4.90133 262.295 4.85695 262.782 4.96033C263.268 5.06371 263.713 5.31015 264.059 5.66806C264.405 6.02596 264.637 6.47903 264.723 6.96919C264.81 7.45935 264.749 7.96427 264.547 8.41924C264.345 8.8742 264.011 9.25848 263.59 9.52282C263.168 9.78715 262.677 9.9195 262.179 9.90291C261.529 9.88833 260.91 9.61771 260.458 9.14979C260.005 8.68187 259.756 8.05444 259.763 7.40369Z" fill="black"/>
<path d="M262.341 8.29125C262.341 7.90248 262.564 7.59702 262.814 7.59702C263.063 7.59702 263.258 7.93024 263.258 8.31901C263.258 8.70778 263.036 9.04102 262.786 9.04102C262.536 9.04102 262.341 8.70778 262.341 8.29125Z" fill="white"/>
<path d="M244.239 6.93039C244.257 6.26755 244.538 5.63917 245.02 5.1835C245.502 4.72782 246.145 4.48217 246.808 4.50058C247.47 4.51899 248.099 4.79996 248.554 5.28167C249.01 5.76339 249.256 6.40639 249.237 7.06923C249.228 7.39743 249.155 7.72063 249.021 8.02036C248.886 8.3201 248.695 8.59049 248.456 8.81612C248.218 9.04175 247.937 9.21819 247.63 9.33536C247.324 9.45254 246.997 9.50815 246.669 9.49904C246.34 9.48992 246.017 9.41625 245.718 9.28223C245.418 9.14821 245.147 8.95646 244.922 8.71794C244.696 8.47942 244.52 8.19879 244.403 7.89208C244.285 7.58537 244.23 7.25859 244.239 6.93039Z" fill="black"/>
<path d="M246.818 7.81859C246.818 7.42982 247.068 7.12436 247.318 7.12436C247.568 7.12436 247.734 7.4576 247.734 7.84636C247.734 8.23513 247.512 8.56836 247.262 8.56836C247.012 8.56836 246.818 8.23513 246.818 7.81859Z" fill="white"/>
<path d="M254.294 -3.95497C254.316 -4.71793 254.564 -5.45716 255.006 -6.07921C255.448 -6.70126 256.065 -7.1782 256.779 -7.44974C257.492 -7.72129 258.27 -7.77522 259.014 -7.60476C259.758 -7.43431 260.435 -7.04709 260.959 -6.49206C261.483 -5.93704 261.83 -5.23913 261.958 -4.48655C262.085 -3.73398 261.986 -2.96052 261.674 -2.26397C261.362 -1.56742 260.851 -0.979033 260.204 -0.573205C259.558 -0.167378 258.805 0.0376659 258.042 0.0160259C257.534 0.00531574 257.033 -0.106344 256.569 -0.312466C256.104 -0.518589 255.685 -0.815053 255.337 -1.1846C254.988 -1.55414 254.716 -1.98939 254.537 -2.46501C254.358 -2.94062 254.275 -3.4471 254.294 -3.95497Z" fill="white"/>
<path d="M258.514 3.32133C258.508 2.54891 258.733 1.79237 259.159 1.14823C259.586 0.504102 260.194 0.00157738 260.907 -0.295246C261.621 -0.59207 262.406 -0.669729 263.163 -0.518316C263.921 -0.366903 264.616 0.00672817 265.16 0.554893C265.705 1.10306 266.073 1.8009 266.219 2.55943C266.365 3.31796 266.282 4.10277 265.98 4.81374C265.678 5.52471 265.171 6.12962 264.524 6.55128C263.876 6.97295 263.118 7.19226 262.346 7.18125C261.327 7.17391 260.352 6.76401 259.634 6.04093C258.917 5.31785 258.514 4.34025 258.514 3.32133Z" fill="white"/>
<path d="M242.905 2.73643C242.922 1.96662 243.167 1.21915 243.609 0.588778C244.051 -0.041594 244.671 -0.526469 245.389 -0.804365C246.107 -1.08226 246.891 -1.14066 247.643 -0.972159C248.394 -0.803658 249.078 -0.415862 249.609 0.142088C250.14 0.700037 250.493 1.403 250.623 2.16183C250.754 2.92066 250.656 3.70118 250.343 4.40444C250.029 5.10769 249.514 5.702 248.862 6.11201C248.21 6.52201 247.452 6.72924 246.682 6.70742C246.173 6.69664 245.67 6.58514 245.204 6.37935C244.738 6.17357 244.318 5.87757 243.967 5.50842C243.615 5.13927 243.341 4.70428 243.159 4.22852C242.977 3.75276 242.89 3.24565 242.905 2.73643Z" fill="white"/>
<path style="mix-blend-mode:multiply" d="M262.512 -0.567594C262.545 -1.96984 262.995 -3.3305 263.803 -4.477C264.611 -5.6235 265.741 -6.50417 267.05 -7.00736C268.36 -7.51054 269.789 -7.61356 271.157 -7.30333C272.525 -6.9931 273.77 -6.28361 274.734 -5.26483C275.698 -4.24606 276.338 -2.96392 276.572 -1.58099C276.807 -0.19807 276.625 1.22332 276.051 2.5029C275.476 3.78249 274.534 4.86264 273.345 5.60634C272.156 6.35003 270.773 6.72377 269.371 6.68017C267.502 6.62206 265.732 5.82749 264.448 4.46974C263.163 3.11199 262.467 1.30123 262.512 -0.567594Z" fill="url(#paint13_radial_19675_53320)"/>
<path style="mix-blend-mode:multiply" d="M232.106 -1.51135C232.145 -2.91224 232.599 -4.27003 233.41 -5.41277C234.222 -6.55552 235.354 -7.43182 236.663 -7.93076C237.973 -8.42969 239.401 -8.52882 240.767 -8.21556C242.133 -7.90231 243.376 -7.19076 244.337 -6.17103C245.298 -5.1513 245.935 -3.86925 246.168 -2.48719C246.4 -1.10513 246.217 0.314764 245.642 1.59273C245.067 2.87069 244.125 3.94924 242.937 4.69182C241.748 5.43439 240.366 5.8076 238.965 5.76418C238.035 5.74272 237.119 5.53681 236.269 5.1584C235.419 4.77999 234.653 4.23662 234.015 3.5598C233.377 2.88299 232.88 2.0862 232.552 1.21568C232.224 0.34515 232.073 -0.581782 232.106 -1.51135Z" fill="url(#paint14_radial_19675_53320)"/>
<path d="M251.238 0.349348C250.599 -1.5945 252.876 -2.26096 254.292 -2.23319C255.708 -2.20542 257.93 -1.37234 257.069 0.543731C256.625 1.6545 255.347 3.12628 254.014 3.07074C252.682 3.0152 251.654 1.51565 251.238 0.349348Z" fill="url(#paint15_linear_19675_53320)"/>
<path d="M240.408 1.01643C237.651 5.88681 233.338 9.6907 228.162 11.8187C222.898 13.6691 217.357 14.6082 211.778 14.5956C211.445 14.5956 211.445 15.1232 211.778 15.0954C217.497 15.1498 223.181 14.2102 228.578 12.3185C233.778 10.1472 238.1 6.29485 240.852 1.37744C241.047 1.09975 240.575 0.849818 240.408 1.12751V1.01643Z" fill="#58595B"/>
<path d="M239.714 -1.09477C233.105 4.95892 224.08 4.45906 215.749 4.18137C215.416 4.18137 215.416 4.68121 215.749 4.70898C224.246 4.95891 233.355 5.43098 240.075 -0.844859C240.325 -1.06701 240.075 -1.42801 239.714 -1.20585V-1.09477Z" fill="#58595B"/>
<path d="M267.066 -0.455481C269.545 4.6301 273.65 8.74394 278.729 11.2354C284.008 13.5109 289.65 14.8274 295.391 15.123C295.724 15.123 295.724 14.6232 295.391 14.5954C289.753 14.2699 284.212 12.9833 279.007 10.791C273.992 8.35973 269.942 4.30982 267.51 -0.705393C267.372 -1.01085 266.927 -0.705403 267.066 -0.455481Z" fill="#58595B"/>
<path d="M267.895 -2.40042C274.199 4.15311 283.363 4.23641 291.832 4.48633C291.888 4.46807 291.936 4.43274 291.971 4.38537C292.005 4.33799 292.023 4.28101 292.023 4.22253C292.023 4.16405 292.005 4.10705 291.971 4.05968C291.936 4.01231 291.888 3.97698 291.832 3.95872C283.502 3.70879 274.477 3.68102 268.256 -2.76144C268.034 -3.01136 267.673 -2.76142 267.895 -2.40042Z" fill="#58595B"/>
</g>
<path d="M182.725 52.1318C176.243 32.4887 165.955 18.1002 159.718 20.2118C153.482 22.3234 153.703 39.8549 160.185 59.498C166.667 79.141 176.881 93.4559 183.192 91.4916C189.502 89.5273 189.158 71.824 182.725 52.1318Z" fill="url(#paint16_radial_19675_53320)"/>
<path d="M179.042 52.1305C173.763 36.146 165.906 24.3356 161.486 25.7843C157.067 27.2329 157.73 41.376 162.984 57.3851C168.239 73.3942 177.324 84.3943 180.54 83.7313C183.757 83.0684 184.248 68.1396 179.042 52.1305Z" fill="#FEC5DE"/>
<path d="M180.394 83.6352C179.674 83.6856 178.96 83.4766 178.381 83.0459C180.836 79.9767 180.836 66.472 175.925 52.0835C171.481 38.5789 165.195 28.0698 160.677 25.9827C160.869 25.8601 161.076 25.7612 161.291 25.6881C165.736 24.2394 173.568 36.0498 178.847 52.0344C184.126 68.0189 183.635 83.0213 180.394 83.6352Z" fill="#FEB1D3"/>
<path d="M123.254 54.1697C128.165 34.0601 137.544 19.0332 143.904 20.6292C150.263 22.2252 151.27 39.8057 146.359 59.9153C141.448 80.0249 131.946 95.1255 125.586 93.4559C119.227 91.7862 118.171 74.353 123.254 54.1697Z" fill="url(#paint17_radial_19675_53320)"/>
<path d="M126.934 53.973C131.034 37.6447 138.032 25.3432 142.55 26.4727C147.068 27.6022 147.461 41.7452 143.311 58.0735C139.162 74.4018 130.961 86.0894 127.769 85.5984C124.577 85.1073 122.858 70.3259 126.934 53.973Z" fill="#FEC5DE"/>
<path d="M127.772 85.599C128.504 85.6137 129.215 85.3505 129.761 84.8624C127.158 81.9651 126.25 68.5095 129.933 53.8018C133.395 40.0271 138.92 29.1252 143.266 26.7926C143.078 26.668 142.87 26.5767 142.652 26.5225C138.134 25.393 131.136 37.719 127.011 54.0473C122.886 70.3756 124.531 85.1325 127.772 85.599Z" fill="#FEB1D3"/>
<path d="M114.928 -13.4995C113.995 -39.502 129.292 -61.1585 149.058 -61.8705C168.823 -62.5826 185.643 -42.0556 186.551 -16.0531C187.46 9.94947 172.212 31.606 152.323 32.318C132.435 33.0301 115.861 12.4294 114.928 -13.4995Z" fill="url(#paint18_radial_19675_53320)"/>
<path d="M147.172 18.9588C147.177 18.544 147.058 18.1371 146.83 17.7902C146.603 17.4432 146.277 17.1719 145.895 17.0109C145.512 16.8499 145.091 16.8065 144.684 16.8863C144.276 16.966 143.902 17.1653 143.609 17.4586C143.316 17.752 143.116 18.1261 143.037 18.5332C142.957 18.9404 143 19.362 143.161 19.7444C143.322 20.1267 143.594 20.4524 143.941 20.6799C144.287 20.9073 144.694 21.0262 145.109 21.0213C145.656 21.0213 146.181 20.804 146.568 20.4172C146.954 20.0304 147.172 19.5058 147.172 18.9588Z" fill="black"/>
<path d="M144.961 19.7944C144.961 19.4752 144.765 19.2051 144.568 19.2051C144.372 19.2051 144.175 19.4752 144.2 19.8189C144.224 20.1627 144.372 20.4082 144.593 20.4082C144.814 20.4082 144.961 20.0399 144.961 19.7944Z" fill="white"/>
<path d="M160.156 18.7881C160.165 18.3723 160.051 17.9631 159.826 17.6129C159.602 17.2628 159.278 16.9877 158.896 16.8229C158.514 16.6581 158.092 16.6111 157.683 16.688C157.275 16.7649 156.898 16.9622 156.602 17.2545C156.306 17.5468 156.105 17.9208 156.023 18.3286C155.941 18.7364 155.983 19.1593 156.143 19.5431C156.303 19.9269 156.575 20.2541 156.922 20.4826C157.269 20.7112 157.677 20.8308 158.093 20.826C158.363 20.8293 158.63 20.779 158.881 20.678C159.131 20.577 159.358 20.4274 159.55 20.2379C159.742 20.0483 159.894 19.8225 159.998 19.5737C160.102 19.3248 160.156 19.0578 160.156 18.7881Z" fill="black"/>
<path d="M158 19.4994C158 19.1802 157.804 18.9101 157.607 18.9101C157.411 18.9101 157.214 19.1802 157.239 19.524C157.263 19.8677 157.411 20.1133 157.607 20.1133C157.804 20.1133 158 19.7941 158 19.4994Z" fill="white"/>
<path d="M158.312 9.45663C158.307 8.81459 158.112 8.18848 157.75 7.65773C157.389 7.12697 156.878 6.71547 156.283 6.47544C155.687 6.23541 155.034 6.17767 154.406 6.30952C153.777 6.44137 153.202 6.75689 152.753 7.21604C152.305 7.67519 152.002 8.25729 151.885 8.88851C151.767 9.51973 151.84 10.1716 152.093 10.7615C152.347 11.3513 152.77 11.8526 153.309 12.2017C153.848 12.5508 154.478 12.732 155.12 12.7223C155.545 12.7191 155.964 12.6319 156.355 12.4658C156.746 12.2996 157.099 12.0578 157.396 11.7542C157.693 11.4506 157.927 11.0913 158.084 10.697C158.241 10.3026 158.319 9.88109 158.312 9.45663Z" fill="white"/>
<path d="M151.906 9.55624C151.901 8.9142 151.706 8.28809 151.344 7.75734C150.983 7.22658 150.472 6.81508 149.877 6.57505C149.281 6.33502 148.628 6.27728 148 6.40913C147.371 6.54098 146.796 6.8565 146.347 7.31565C145.899 7.7748 145.596 8.35688 145.479 8.9881C145.361 9.61932 145.434 10.2712 145.687 10.8611C145.941 11.451 146.364 11.9522 146.903 12.3013C147.442 12.6504 148.072 12.8316 148.714 12.8219C149.569 12.809 150.385 12.4584 150.983 11.8467C151.581 11.2349 151.913 10.4116 151.906 9.55624Z" fill="white"/>
<path d="M148.273 15.4972C148.268 14.8604 148.076 14.2392 147.72 13.7111C147.364 13.183 146.86 12.7715 146.272 12.5279C145.684 12.2843 145.037 12.2195 144.412 12.3414C143.787 12.4634 143.211 12.7668 142.758 13.2137C142.304 13.6606 141.992 14.2313 141.861 14.8544C141.73 15.4775 141.785 16.1255 142.02 16.7175C142.254 17.3094 142.658 17.8191 143.181 18.1829C143.704 18.5466 144.322 18.7483 144.959 18.7628C145.392 18.7727 145.824 18.6954 146.227 18.5354C146.631 18.3754 146.998 18.136 147.307 17.8314C147.616 17.5268 147.861 17.1633 148.027 16.7623C148.193 16.3614 148.277 15.9311 148.273 15.4972Z" fill="white"/>
<path d="M161.266 15.3004C161.261 14.6583 161.065 14.0322 160.704 13.5015C160.342 12.9707 159.832 12.5592 159.236 12.3192C158.641 12.0792 157.987 12.0214 157.359 12.1533C156.731 12.2851 156.156 12.6006 155.707 13.0598C155.258 13.5189 154.956 14.101 154.838 14.7323C154.721 15.3635 154.793 16.0154 155.047 16.6052C155.3 17.1951 155.723 17.6964 156.262 18.0455C156.801 18.3946 157.432 18.5757 158.074 18.566C158.929 18.5531 159.744 18.2026 160.342 17.5908C160.94 16.9791 161.272 16.1558 161.266 15.3004Z" fill="white"/>
<path d="M151.614 8.62183C151.863 7.94865 152.295 7.35889 152.863 6.91976C153.431 6.48063 154.11 6.20979 154.824 6.13812C155.538 6.06646 156.258 6.19686 156.902 6.51443C157.545 6.83201 158.087 7.32399 158.464 7.93433C158.661 8.17986 158.243 8.49907 158.047 8.22898C157.726 7.68873 157.257 7.2516 156.696 6.96927C156.135 6.68695 155.505 6.57122 154.88 6.63579C154.255 6.70035 153.661 6.94249 153.17 7.33359C152.678 7.7247 152.308 8.24842 152.105 8.84283C151.958 9.13747 151.466 8.84282 151.614 8.62183Z" fill="#808080"/>
<path d="M151.614 8.81976C151.369 8.26319 150.994 7.77394 150.519 7.39352C150.045 7.01309 149.486 6.75271 148.889 6.63447C148.239 6.62037 147.596 6.77879 147.027 7.09364C146.457 7.40848 145.982 7.86851 145.648 8.42691C145.451 8.697 145.059 8.4269 145.255 8.1077C145.593 7.45767 146.115 6.92161 146.756 6.56636C147.397 6.2111 148.129 6.05238 148.859 6.10998C149.59 6.16758 150.287 6.43898 150.864 6.89029C151.442 7.3416 151.873 7.95287 152.106 8.64788C152.253 8.94253 151.762 9.11441 151.614 8.81976Z" fill="#808080"/>
<path style="mix-blend-mode:multiply" d="M144.961 12.2806C144.951 11.1083 144.593 9.96526 143.932 8.99663C143.272 8.02801 142.338 7.27744 141.251 6.84014C140.163 6.40283 138.97 6.29853 137.822 6.54044C136.675 6.78236 135.626 7.35958 134.807 8.1989C133.989 9.03822 133.438 10.1018 133.225 11.2547C133.011 12.4075 133.146 13.5978 133.61 14.6743C134.074 15.7508 134.848 16.6652 135.833 17.3013C136.818 17.9374 137.969 18.2667 139.141 18.2472C140.702 18.2214 142.19 17.5798 143.28 16.4622C144.37 15.3447 144.974 13.8417 144.961 12.2806Z" fill="url(#paint19_radial_19675_53320)"/>
<path style="mix-blend-mode:multiply" d="M170.421 11.887C170.406 10.7157 170.044 9.57514 169.381 8.60978C168.717 7.64443 167.782 6.89771 166.694 6.46417C165.606 6.03063 164.414 5.92981 163.268 6.17446C162.123 6.41911 161.075 6.99823 160.259 7.83847C159.443 8.67871 158.895 9.74226 158.684 10.8944C158.472 12.0466 158.608 13.2355 159.073 14.3106C159.538 15.3857 160.311 16.2986 161.296 16.9337C162.28 17.5688 163.431 17.8974 164.602 17.8781C165.378 17.8685 166.144 17.7057 166.857 17.3991C167.57 17.0925 168.215 16.6481 168.756 16.0915C169.297 15.5348 169.722 14.8768 170.008 14.1553C170.294 13.4337 170.434 12.6629 170.421 11.887Z" fill="url(#paint20_radial_19675_53320)"/>
<path d="M154.362 13.1891C154.927 11.5685 153.036 10.9792 151.906 11.0038C150.777 11.0283 148.837 11.6667 149.451 13.2627C149.795 14.2203 150.875 15.448 151.906 15.4235C152.938 15.3989 154.043 14.1467 154.362 13.1891Z" fill="url(#paint21_linear_19675_53320)"/>
<path d="M163.469 13.8269C168.699 22.7645 177.514 25.0234 187.262 25.5881C187.606 25.5881 187.507 26.1038 187.262 26.0792C177.44 25.5145 168.429 23.1819 163.125 14.1461C162.954 13.8514 163.371 13.5568 163.543 13.8269H163.469Z" fill="#808080"/>
<path d="M164.059 12.0855C169.657 17.1681 176.925 16.9962 183.997 16.8243C184.341 16.8243 184.39 17.3154 183.997 17.34C176.778 17.34 169.265 17.6592 163.666 12.4292C163.421 12.1837 163.666 11.7908 163.986 12.0118L164.059 12.0855Z" fill="#808080"/>
<path d="M164.602 9.97274C169.97 10.2889 175.35 9.64024 180.489 8.05754C180.519 8.04465 180.552 8.0379 180.585 8.03771C180.619 8.03751 180.651 8.04388 180.682 8.05642C180.713 8.06896 180.741 8.08744 180.765 8.1108C180.788 8.13417 180.807 8.16196 180.82 8.19259C180.833 8.22322 180.84 8.25609 180.84 8.28933C180.84 8.32257 180.834 8.35551 180.821 8.38629C180.809 8.41707 180.79 8.44508 180.767 8.46872C180.743 8.49236 180.716 8.51118 180.685 8.52407C175.51 10.1333 170.087 10.7986 164.676 10.4884C164.332 10.4884 164.283 9.97274 164.676 9.97274H164.602Z" fill="#808080"/>
<path d="M141.226 12.3057C136.021 21.4888 127.451 24.0915 117.409 25C117.354 24.9828 117.306 24.9486 117.272 24.9022C117.238 24.8558 117.219 24.7998 117.219 24.7422C117.219 24.6846 117.238 24.6286 117.272 24.5822C117.306 24.5358 117.354 24.5015 117.409 24.4844C127.23 23.6004 135.701 21.1696 140.809 12.2074C140.981 11.9128 141.447 12.2075 141.3 12.4039L141.226 12.3057Z" fill="#808080"/>
<path d="M140.442 10.7338C134.819 15.9637 127.65 16.0619 120.333 16.1602C119.989 16.1602 119.94 15.6445 120.333 15.6445C127.527 15.6445 134.623 15.4972 140.197 10.3163C140.442 10.0954 140.737 10.4882 140.516 10.7338H140.442Z" fill="#808080"/>
<path d="M139.606 8.74475C134.184 9.24275 128.716 8.74344 123.474 7.27153C123.155 7.27153 123.474 6.68223 123.67 6.805C128.826 8.24767 134.202 8.7304 139.532 8.22913C139.876 8.22913 139.925 8.74475 139.532 8.74475H139.606Z" fill="#808080"/>
<defs>
<radialGradient id="paint0_radial_19675_53320" cx="0" cy="0" r="1" gradientUnits="userSpaceOnUse" gradientTransform="translate(27.4873 26.4404) rotate(-178.282) scale(72.5936 72.5936)">
<stop stop-color="white"/>
<stop offset="0.34" stop-color="#FDFDFC"/>
<stop offset="0.58" stop-color="#F8F5F3"/>
<stop offset="0.8" stop-color="#EFE7E3"/>
<stop offset="0.99" stop-color="#E3D4CD"/>
<stop offset="1" stop-color="#E2D3CC"/>
</radialGradient>
<radialGradient id="paint1_radial_19675_53320" cx="0" cy="0" r="1" gradientUnits="userSpaceOnUse" gradientTransform="translate(52.9925 20.2847) rotate(-178.282) scale(48.229)">
<stop stop-color="white"/>
<stop offset="0.34" stop-color="#FDFDFC"/>
<stop offset="0.58" stop-color="#F8F5F3"/>
<stop offset="0.8" stop-color="#EFE7E3"/>
<stop offset="0.99" stop-color="#E3D4CD"/>
<stop offset="1" stop-color="#E2D3CC"/>
</radialGradient>
<linearGradient id="paint2_linear_19675_53320" x1="54.7361" y1="45.4091" x2="75.2323" y2="39.0958" gradientUnits="userSpaceOnUse">
<stop stop-color="#FAE6ED"/>
<stop offset="0.55" stop-color="#F3C0D3"/>
<stop offset="1" stop-color="#EFCDDB"/>
</linearGradient>
<radialGradient id="paint3_radial_19675_53320" cx="0" cy="0" r="1" gradientUnits="userSpaceOnUse" gradientTransform="translate(77.3973 45.115) rotate(-178.282) scale(43.0061 43.0061)">
<stop stop-color="white"/>
<stop offset="0.34" stop-color="#FDFDFC"/>
<stop offset="0.58" stop-color="#F8F5F3"/>
<stop offset="0.8" stop-color="#EFE7E3"/>
<stop offset="0.99" stop-color="#E3D4CD"/>
<stop offset="1" stop-color="#E2D3CC"/>
</radialGradient>
<radialGradient id="paint4_radial_19675_53320" cx="0" cy="0" r="1" gradientUnits="userSpaceOnUse" gradientTransform="translate(46.323 8.32318) rotate(-178.282) scale(57.6192 53.5895)">
<stop stop-color="white"/>
<stop offset="0.34" stop-color="#FDFDFC"/>
<stop offset="0.58" stop-color="#F8F5F3"/>
<stop offset="0.8" stop-color="#EFE7E3"/>
<stop offset="0.99" stop-color="#E3D4CD"/>
<stop offset="1" stop-color="#E2D3CC"/>
</radialGradient>
<radialGradient id="paint5_radial_19675_53320" cx="0" cy="0" r="1" gradientUnits="userSpaceOnUse" gradientTransform="translate(60.7499 -1.24574) rotate(-178.282) scale(7.05655 7.05655)">
<stop offset="0.03" stop-color="#FEC5DE"/>
<stop offset="0.11" stop-color="#FECCE2"/>
<stop offset="0.46" stop-color="#FFE8F2"/>
<stop offset="0.77" stop-color="#FFF9FC"/>
<stop offset="1" stop-color="white"/>
</radialGradient>
<radialGradient id="paint6_radial_19675_53320" cx="0" cy="0" r="1" gradientUnits="userSpaceOnUse" gradientTransform="translate(30.4277 -2.15508) rotate(-178.282) scale(7.05655 7.05655)">
<stop offset="0.03" stop-color="#FEC5DE"/>
<stop offset="0.11" stop-color="#FECCE2"/>
<stop offset="0.46" stop-color="#FFE8F2"/>
<stop offset="0.77" stop-color="#FFF9FC"/>
<stop offset="1" stop-color="white"/>
</radialGradient>
<linearGradient id="paint7_linear_19675_53320" x1="46.9669" y1="-0.350462" x2="40.7466" y2="-0.537071" gradientUnits="userSpaceOnUse">
<stop stop-color="#FAE6ED"/>
<stop offset="0.55" stop-color="#F3C0D3"/>
<stop offset="1" stop-color="#EFCDDB"/>
</linearGradient>
<radialGradient id="paint8_radial_19675_53320" cx="0" cy="0" r="1" gradientUnits="userSpaceOnUse" gradientTransform="translate(237.487 27.4404) rotate(-178.282) scale(72.5936 72.5936)">
<stop stop-color="white"/>
<stop offset="0.34" stop-color="#FDFDFC"/>
<stop offset="0.58" stop-color="#F8F5F3"/>
<stop offset="0.8" stop-color="#EFE7E3"/>
<stop offset="0.99" stop-color="#E3D4CD"/>
<stop offset="1" stop-color="#E2D3CC"/>
</radialGradient>
<radialGradient id="paint9_radial_19675_53320" cx="0" cy="0" r="1" gradientUnits="userSpaceOnUse" gradientTransform="translate(262.993 21.2847) rotate(-178.282) scale(48.229)">
<stop stop-color="white"/>
<stop offset="0.34" stop-color="#FDFDFC"/>
<stop offset="0.58" stop-color="#F8F5F3"/>
<stop offset="0.8" stop-color="#EFE7E3"/>
<stop offset="0.99" stop-color="#E3D4CD"/>
<stop offset="1" stop-color="#E2D3CC"/>
</radialGradient>
<linearGradient id="paint10_linear_19675_53320" x1="264.736" y1="46.4091" x2="285.232" y2="40.0958" gradientUnits="userSpaceOnUse">
<stop stop-color="#FAE6ED"/>
<stop offset="0.55" stop-color="#F3C0D3"/>
<stop offset="1" stop-color="#EFCDDB"/>
</linearGradient>
<radialGradient id="paint11_radial_19675_53320" cx="0" cy="0" r="1" gradientUnits="userSpaceOnUse" gradientTransform="translate(287.397 46.115) rotate(-178.282) scale(43.0061 43.0061)">
<stop stop-color="white"/>
<stop offset="0.34" stop-color="#FDFDFC"/>
<stop offset="0.58" stop-color="#F8F5F3"/>
<stop offset="0.8" stop-color="#EFE7E3"/>
<stop offset="0.99" stop-color="#E3D4CD"/>
<stop offset="1" stop-color="#E2D3CC"/>
</radialGradient>
<radialGradient id="paint12_radial_19675_53320" cx="0" cy="0" r="1" gradientUnits="userSpaceOnUse" gradientTransform="translate(256.323 9.32318) rotate(-178.282) scale(57.6192 53.5895)">
<stop stop-color="white"/>
<stop offset="0.34" stop-color="#FDFDFC"/>
<stop offset="0.58" stop-color="#F8F5F3"/>
<stop offset="0.8" stop-color="#EFE7E3"/>
<stop offset="0.99" stop-color="#E3D4CD"/>
<stop offset="1" stop-color="#E2D3CC"/>
</radialGradient>
<radialGradient id="paint13_radial_19675_53320" cx="0" cy="0" r="1" gradientUnits="userSpaceOnUse" gradientTransform="translate(270.75 -0.245744) rotate(-178.282) scale(7.05655 7.05655)">
<stop offset="0.03" stop-color="#FEC5DE"/>
<stop offset="0.11" stop-color="#FECCE2"/>
<stop offset="0.46" stop-color="#FFE8F2"/>
<stop offset="0.77" stop-color="#FFF9FC"/>
<stop offset="1" stop-color="white"/>
</radialGradient>
<radialGradient id="paint14_radial_19675_53320" cx="0" cy="0" r="1" gradientUnits="userSpaceOnUse" gradientTransform="translate(240.428 -1.15508) rotate(-178.282) scale(7.05655 7.05655)">
<stop offset="0.03" stop-color="#FEC5DE"/>
<stop offset="0.11" stop-color="#FECCE2"/>
<stop offset="0.46" stop-color="#FFE8F2"/>
<stop offset="0.77" stop-color="#FFF9FC"/>
<stop offset="1" stop-color="white"/>
</radialGradient>
<linearGradient id="paint15_linear_19675_53320" x1="256.967" y1="0.649538" x2="250.747" y2="0.462929" gradientUnits="userSpaceOnUse">
<stop stop-color="#FAE6ED"/>
<stop offset="0.55" stop-color="#F3C0D3"/>
<stop offset="1" stop-color="#EFCDDB"/>
</linearGradient>
<radialGradient id="paint16_radial_19675_53320" cx="0" cy="0" r="1" gradientUnits="userSpaceOnUse" gradientTransform="translate(171.137 24.5171) rotate(-0.572939) scale(60.7247 60.7247)">
<stop stop-color="white"/>
<stop offset="0.34" stop-color="#FDFDFC"/>
<stop offset="0.58" stop-color="#F8F5F3"/>
<stop offset="0.8" stop-color="#EFE7E3"/>
<stop offset="0.99" stop-color="#E3D4CD"/>
<stop offset="1" stop-color="#E2D3CC"/>
</radialGradient>
<radialGradient id="paint17_radial_19675_53320" cx="0" cy="0" r="1" gradientUnits="userSpaceOnUse" gradientTransform="translate(137.43 31.8783) rotate(176.566) scale(60.8309 60.8309)">
<stop stop-color="white"/>
<stop offset="0.34" stop-color="#FDFDFC"/>
<stop offset="0.58" stop-color="#F8F5F3"/>
<stop offset="0.8" stop-color="#EFE7E3"/>
<stop offset="0.99" stop-color="#E3D4CD"/>
<stop offset="1" stop-color="#E2D3CC"/>
</radialGradient>
<radialGradient id="paint18_radial_19675_53320" cx="0" cy="0" r="1" gradientUnits="userSpaceOnUse" gradientTransform="translate(151.061 1.3814) rotate(178.047) scale(50.6988 57.6238)">
<stop stop-color="white"/>
<stop offset="0.34" stop-color="#FDFDFC"/>
<stop offset="0.58" stop-color="#F8F5F3"/>
<stop offset="0.8" stop-color="#EFE7E3"/>
<stop offset="0.99" stop-color="#E3D4CD"/>
<stop offset="1" stop-color="#E2D3CC"/>
</radialGradient>
<radialGradient id="paint19_radial_19675_53320" cx="0" cy="0" r="1" gradientUnits="userSpaceOnUse" gradientTransform="translate(143.862 3.18002) rotate(-0.572938) scale(5.89322 5.89321)">
<stop offset="0.03" stop-color="#FEC5DE"/>
<stop offset="0.11" stop-color="#FECCE2"/>
<stop offset="0.46" stop-color="#FFE8F2"/>
<stop offset="0.77" stop-color="#FFF9FC"/>
<stop offset="1" stop-color="white"/>
</radialGradient>
<radialGradient id="paint20_radial_19675_53320" cx="0" cy="0" r="1" gradientUnits="userSpaceOnUse" gradientTransform="translate(169.224 2.92555) rotate(-0.572939) scale(5.89322 5.89322)">
<stop offset="0.03" stop-color="#FEC5DE"/>
<stop offset="0.11" stop-color="#FECCE2"/>
<stop offset="0.46" stop-color="#FFE8F2"/>
<stop offset="0.77" stop-color="#FFF9FC"/>
<stop offset="1" stop-color="white"/>
</radialGradient>
<linearGradient id="paint21_linear_19675_53320" x1="147.798" y1="4.12475" x2="153.004" y2="4.07269" gradientUnits="userSpaceOnUse">
<stop stop-color="#FAE6ED"/>
<stop offset="0.55" stop-color="#F3C0D3"/>
<stop offset="1" stop-color="#EFCDDB"/>
</linearGradient>
<clipPath id="clip0_19675_53320">
<rect width="90" height="133.459" fill="white" transform="matrix(-1 0 0 -1 90 95.459)"/>
</clipPath>
<clipPath id="clip1_19675_53320">
<rect width="90" height="133.459" fill="white" transform="matrix(-1 0 0 -1 300 96.459)"/>
</clipPath>
</defs>
</svg>
