<svg width="301" height="268" viewBox="0 0 301 268" fill="none" xmlns="http://www.w3.org/2000/svg">
<g clip-path="url(#clip0_19644_76753)">
<path style="mix-blend-mode:multiply" d="M117.812 268.292C151.212 268.292 178.288 259.499 178.288 248.652C178.288 237.805 151.212 229.012 117.812 229.012C84.4119 229.012 57.3359 237.805 57.3359 248.652C57.3359 259.499 84.4119 268.292 117.812 268.292Z" fill="url(#paint0_radial_19644_76753)"/>
<path style="mix-blend-mode:multiply" d="M234.876 255.375C232.719 266.01 204.45 269.271 171.716 262.649C138.983 256.027 114.2 242.005 116.357 231.37C118.515 220.735 146.783 217.474 179.517 224.121C212.251 230.768 237.033 244.739 234.876 255.375Z" fill="url(#paint1_radial_19644_76753)"/>
<path d="M182.127 87.9934C181.901 114.858 188.598 136.705 197.177 136.755C205.755 136.806 212.653 115.108 212.879 88.2191C213.105 61.3298 206.382 39.5073 197.829 39.4571C189.275 39.407 182.327 61.104 182.127 87.9934Z" fill="url(#paint2_radial_19644_76753)"/>
<path d="M186.64 89.4986C186.49 111.321 191.23 129.055 197.25 129.105C203.27 129.155 208.312 111.547 208.488 89.6742C208.663 67.8015 202.092 50.5442 197.878 50.1679C193.664 49.7917 186.816 67.7263 186.64 89.4986Z" fill="#FEC5DE"/>
<path d="M198.154 50.1684C199.068 50.4017 199.868 50.9531 200.412 51.7236C196.198 54.5329 190.68 71.113 190.529 90.7532C190.529 109.164 193.74 124.666 198.43 129.081C198.144 129.159 197.849 129.201 197.552 129.206C191.532 129.206 186.767 111.422 186.942 89.5994C187.118 67.7769 193.79 49.6667 198.154 50.1684Z" fill="#FEB1D3"/>
<path d="M255.845 109.892C241.322 132.467 223.789 147.166 216.665 142.5C209.541 137.835 215.536 115.887 230.034 93.2618C244.533 70.6366 262.066 55.988 269.189 60.6535C276.313 65.319 270.343 87.2669 255.845 109.892Z" fill="url(#paint3_radial_19644_76753)"/>
<path d="M251.206 108.688C239.441 127.074 225.746 139.315 220.729 136.054C215.713 132.793 221.08 115.285 232.87 96.9243C244.659 78.5633 259.558 67.7273 263.371 69.5333C267.184 71.3393 262.995 90.3023 251.206 108.688Z" fill="#FEC5DE"/>
<path d="M263.172 69.4819C262.298 69.1571 261.337 69.1571 260.463 69.4819C262.445 74.1223 257.955 91.0535 247.42 107.558C237.386 123.06 226.199 134.222 219.828 135.376C220.021 135.594 220.24 135.788 220.48 135.953C225.497 139.188 239.218 126.948 251.007 108.562C262.796 90.1756 267.01 71.4133 263.172 69.4819Z" fill="#FEB1D3"/>
<path d="M238.013 196.556C228.406 228.863 200.663 249.181 176.232 241.882C151.801 234.582 139.636 202.476 149.243 170.168C158.85 137.861 186.516 117.493 211.023 124.818C235.529 132.142 247.619 164.224 238.013 196.556Z" fill="url(#paint4_radial_19644_76753)"/>
<path d="M211.95 143.377C211.771 143.885 211.748 144.435 211.884 144.957C212.02 145.478 212.308 145.947 212.711 146.304C213.115 146.661 213.616 146.89 214.15 146.96C214.684 147.031 215.228 146.941 215.71 146.701C216.193 146.462 216.593 146.084 216.86 145.616C217.126 145.147 217.247 144.61 217.207 144.073C217.167 143.536 216.968 143.023 216.634 142.599C216.301 142.176 215.849 141.861 215.336 141.696C215.004 141.582 214.652 141.535 214.301 141.558C213.95 141.581 213.607 141.674 213.292 141.83C212.978 141.986 212.697 142.203 212.466 142.469C212.236 142.734 212.06 143.043 211.95 143.377Z" fill="black"/>
<path d="M214.909 143.378C214.783 143.779 214.909 144.181 215.159 144.256C215.41 144.331 215.711 144.08 215.862 143.679C216.012 143.278 215.862 142.851 215.611 142.776C215.36 142.701 215.059 142.977 214.909 143.378Z" fill="white"/>
<path d="M195.976 138.261C195.796 138.77 195.771 139.321 195.907 139.844C196.042 140.367 196.33 140.838 196.735 141.196C197.14 141.553 197.642 141.782 198.178 141.852C198.713 141.922 199.258 141.831 199.741 141.589C200.224 141.347 200.624 140.967 200.889 140.496C201.154 140.026 201.273 139.487 201.23 138.948C201.186 138.41 200.983 137.897 200.646 137.475C200.308 137.053 199.853 136.741 199.337 136.58C199.008 136.447 198.654 136.386 198.299 136.4C197.944 136.415 197.596 136.504 197.278 136.663C196.96 136.822 196.68 137.047 196.455 137.322C196.231 137.598 196.067 137.917 195.976 138.261Z" fill="black"/>
<path d="M198.938 138.26C198.938 138.662 198.938 139.063 199.163 139.138C199.389 139.213 199.74 138.963 199.866 138.561C199.991 138.16 199.866 137.733 199.64 137.658C199.414 137.583 199.063 137.959 198.938 138.26Z" fill="white"/>
<path d="M194.396 150.501C194.142 151.29 194.129 152.136 194.357 152.933C194.585 153.729 195.044 154.44 195.676 154.976C196.308 155.512 197.084 155.848 197.907 155.942C198.731 156.037 199.563 155.885 200.3 155.506C201.037 155.127 201.645 154.538 202.047 153.814C202.449 153.089 202.627 152.262 202.559 151.436C202.491 150.61 202.179 149.823 201.664 149.175C201.148 148.526 200.452 148.045 199.663 147.792C198.605 147.453 197.456 147.548 196.468 148.056C195.481 148.564 194.735 149.443 194.396 150.501Z" fill="white"/>
<path d="M202.271 153.011C202.017 153.799 202.004 154.646 202.232 155.442C202.46 156.239 202.919 156.95 203.551 157.486C204.183 158.022 204.959 158.358 205.782 158.452C206.606 158.546 207.438 158.395 208.175 158.016C208.912 157.637 209.52 157.048 209.922 156.323C210.324 155.599 210.502 154.772 210.434 153.946C210.366 153.12 210.054 152.333 209.539 151.684C209.023 151.036 208.327 150.555 207.538 150.302C206.48 149.962 205.331 150.057 204.343 150.565C203.356 151.073 202.61 151.953 202.271 153.011Z" fill="white"/>
<path d="M209.169 147.192C208.916 147.981 208.902 148.827 209.13 149.623C209.358 150.42 209.817 151.131 210.449 151.667C211.081 152.203 211.858 152.539 212.681 152.633C213.504 152.728 214.337 152.576 215.073 152.197C215.81 151.818 216.418 151.229 216.82 150.505C217.222 149.78 217.401 148.953 217.332 148.127C217.264 147.301 216.953 146.514 216.437 145.866C215.922 145.217 215.226 144.736 214.437 144.483C213.379 144.15 212.233 144.249 211.247 144.756C210.261 145.263 209.514 146.138 209.169 147.192Z" fill="white"/>
<path d="M193.138 142.075C192.885 142.864 192.871 143.71 193.099 144.507C193.327 145.303 193.786 146.015 194.418 146.55C195.05 147.086 195.826 147.422 196.65 147.517C197.473 147.611 198.305 147.459 199.042 147.08C199.779 146.701 200.387 146.112 200.789 145.388C201.191 144.663 201.369 143.836 201.301 143.01C201.233 142.185 200.921 141.398 200.406 140.749C199.891 140.1 199.194 139.619 198.405 139.366C197.348 139.027 196.198 139.122 195.211 139.63C194.223 140.138 193.477 141.017 193.138 142.075Z" fill="white"/>
<path d="M202.246 154.239C201.653 154.939 200.88 155.463 200.011 155.754C199.141 156.046 198.208 156.093 197.313 155.892C196.419 155.69 195.596 155.247 194.936 154.61C194.275 153.974 193.802 153.169 193.567 152.282C193.562 152.204 193.584 152.126 193.629 152.061C193.674 151.997 193.739 151.949 193.814 151.926C193.889 151.903 193.97 151.905 194.044 151.934C194.117 151.962 194.179 152.014 194.219 152.081C194.393 152.872 194.789 153.596 195.359 154.169C195.93 154.743 196.652 155.143 197.441 155.322C198.23 155.5 199.053 155.451 199.815 155.179C200.577 154.908 201.246 154.425 201.744 153.787C202.045 153.486 202.547 153.938 202.246 154.239Z" fill="#808080"/>
<path d="M202.321 153.988C202.395 154.78 202.663 155.542 203.1 156.207C203.538 156.871 204.131 157.419 204.829 157.801C205.616 158.088 206.466 158.161 207.29 158.011C208.115 157.861 208.884 157.494 209.52 156.948C209.871 156.697 210.222 157.249 209.871 157.5C209.191 158.153 208.333 158.592 207.406 158.763C206.478 158.934 205.521 158.828 204.652 158.459C203.784 158.091 203.043 157.475 202.522 156.689C202 155.903 201.721 154.982 201.719 154.038C201.719 153.612 202.296 153.587 202.371 154.038L202.321 153.988Z" fill="#808080"/>
<path style="mix-blend-mode:multiply" d="M211.875 152.507C211.459 153.923 211.469 155.431 211.904 156.842C212.338 158.253 213.179 159.505 214.32 160.442C215.46 161.379 216.852 161.96 218.32 162.112C219.789 162.264 221.27 161.98 222.579 161.297C223.887 160.613 224.966 159.56 225.68 158.268C226.395 156.976 226.714 155.503 226.597 154.031C226.48 152.559 225.933 151.154 225.023 149.991C224.114 148.828 222.882 147.958 221.482 147.49C220.522 147.169 219.508 147.045 218.5 147.125C217.491 147.205 216.509 147.488 215.612 147.956C214.715 148.425 213.922 149.069 213.28 149.851C212.638 150.633 212.16 151.536 211.875 152.507Z" fill="url(#paint5_radial_19644_76753)"/>
<path style="mix-blend-mode:multiply" d="M180.597 142.475C180.147 143.919 180.134 145.463 180.561 146.914C180.988 148.364 181.835 149.656 182.995 150.625C184.156 151.595 185.577 152.198 187.081 152.361C188.584 152.523 190.101 152.236 191.442 151.536C192.782 150.836 193.885 149.754 194.611 148.428C195.337 147.102 195.654 145.59 195.521 144.084C195.389 142.578 194.813 141.145 193.867 139.966C192.921 138.786 191.646 137.914 190.204 137.459C189.245 137.138 188.23 137.014 187.222 137.094C186.213 137.174 185.231 137.457 184.334 137.925C183.437 138.393 182.644 139.038 182.002 139.82C181.36 140.601 180.882 141.505 180.597 142.475Z" fill="url(#paint6_radial_19644_76753)"/>
<path d="M200.665 147.492C199.31 149.248 201.367 150.753 202.822 151.229C204.277 151.706 206.86 151.681 206.785 149.449C206.935 148.671 206.794 147.866 206.39 147.186C205.986 146.505 205.347 145.996 204.593 145.755C203.839 145.514 203.023 145.558 202.299 145.878C201.575 146.198 200.994 146.772 200.665 147.492Z" fill="url(#paint7_linear_19644_76753)"/>
<path d="M189.879 142.976C187.17 129.882 177.338 123.461 165.599 118.745C165.197 118.595 165.599 117.993 165.9 118.143C177.814 122.909 187.772 129.456 190.632 142.75C190.632 143.151 190.08 143.377 189.98 142.951L189.879 142.976Z" fill="#808080"/>
<path d="M188.42 144.859C183.68 136.331 174.7 133.622 165.845 130.838C165.444 130.838 165.595 130.06 165.996 130.186C174.901 133.02 184.056 135.829 188.872 144.483C189.073 144.859 188.521 145.236 188.32 144.859H188.42Z" fill="#808080"/>
<path d="M186.993 147.24C180.346 145.083 173.849 142.725 166.75 143.051C166.676 143.031 166.611 142.986 166.564 142.925C166.517 142.864 166.492 142.789 166.492 142.712C166.492 142.635 166.517 142.561 166.564 142.499C166.611 142.438 166.676 142.394 166.75 142.374C173.899 142.073 180.471 144.431 187.168 146.588C187.595 146.713 187.444 147.365 187.168 147.24H186.993Z" fill="#808080"/>
<path d="M216.489 154.014C226.522 144.858 238.236 145.184 250.903 148.22C251.329 148.22 251.179 148.972 250.903 148.872C238.286 145.937 226.999 145.485 216.99 154.465C216.664 154.741 216.163 154.29 216.489 154.014Z" fill="#808080"/>
<path d="M216.793 156.27C225.848 152.132 234.652 154.991 243.657 157.901C244.059 157.901 243.933 158.678 243.657 158.553C234.828 155.693 226.099 152.809 217.144 156.897C216.743 157.073 216.542 156.446 216.919 156.27H216.793Z" fill="#808080"/>
<path d="M217.019 159.029C223.741 161.161 230.514 163.043 236.158 167.507C236.484 167.758 236.158 168.26 235.706 168.009C230.163 163.62 223.491 161.788 216.869 159.681C216.467 159.681 216.593 158.904 217.019 159.029Z" fill="#808080"/>
<path d="M27.5876 250.107C27.9445 244.954 29.299 239.919 31.5758 235.282C32.8762 232.384 34.5638 229.675 36.5925 227.231C33.17 226.054 29.5763 225.452 25.9572 225.45C21.6157 225.111 17.2547 225.78 13.2148 227.406C33.8333 206.437 52.6709 200.667 64.5855 199.564C78.2308 198.284 82.3194 202.323 83.2977 202.799L83.6488 227.657C83.6488 227.657 83.6488 229.639 82.3445 230.165C81.4465 230.448 80.4833 230.448 79.5853 230.165C74.8865 228.483 69.8363 228.025 64.9116 228.836C52.6709 230.341 40.1293 237.515 27.5876 250.107Z" fill="#5C2092"/>
<path d="M55.5312 224.648C55.5312 230.091 80.6146 222.917 83.6497 227.658V208.645L56.058 222.541L55.5312 224.648Z" fill="url(#paint8_linear_19644_76753)"/>
<path d="M268.841 250.257C268.486 245.107 267.14 240.073 264.878 235.433C263.583 232.539 261.894 229.838 259.861 227.406C263.289 226.212 266.891 225.593 270.521 225.575C274.861 225.241 279.219 225.901 283.264 227.506C262.47 206.587 243.758 200.893 231.743 199.915C218.223 198.56 214.084 202.599 213.206 203.176L212.805 228.033C212.805 228.033 212.805 230.015 214.084 230.542C214.99 230.828 215.962 230.828 216.868 230.542C221.56 228.87 226.598 228.404 231.517 229.187C243.783 230.542 256.349 237.69 268.841 250.257Z" fill="#4F197E"/>
<path d="M240.798 224.874C240.798 230.292 215.715 223.193 212.68 227.934L212.931 207.215L240.246 222.741L240.798 224.874Z" fill="url(#paint9_linear_19644_76753)"/>
<path d="M61.0506 85.2844C71.686 113.277 87.4885 133.294 96.3429 129.933C105.197 126.572 103.692 101.112 93.0319 73.0688C82.3715 45.0256 66.569 25.0844 57.6895 28.3452C48.81 31.6061 50.3902 57.166 61.0506 85.2844Z" fill="url(#paint10_radial_19644_76753)"/>
<path d="M66.3658 84.9596C75.0196 107.861 87.1348 124.265 93.4307 121.857C99.7267 119.449 97.8203 99.0815 89.1415 76.3058C80.4627 53.5302 66.6919 38.1541 62.0766 39.3832C57.4612 40.6122 57.687 62.1839 66.3658 84.9596Z" fill="#FEC5DE"/>
<path d="M62.2762 39.3577C63.3149 39.2703 64.3518 39.5451 65.211 40.1353C61.9501 44.7255 62.9284 64.2403 70.7042 84.7334C78.0035 103.947 87.786 118.721 94.433 121.43C94.1688 121.623 93.8825 121.783 93.5802 121.907C87.2843 124.415 75.169 107.76 66.5153 84.9843C57.8615 62.2086 57.686 40.6118 62.2762 39.3577Z" fill="#FEB1D3"/>
<path d="M146.63 78.1863C140.685 107.609 128.344 129.933 119.038 128.052C109.732 126.171 107.073 100.837 113.018 71.4138C118.963 41.9911 131.279 19.6669 140.61 21.5482C149.941 23.4294 152.549 48.7636 146.63 78.1863Z" fill="url(#paint11_radial_19644_76753)"/>
<path d="M141.316 78.7882C136.5 102.693 127.244 120.953 120.647 119.624C114.05 118.294 112.62 97.8265 117.436 73.9722C122.252 50.118 133.389 32.6098 138.105 33.1366C142.821 33.6633 146.157 54.9089 141.316 78.7882Z" fill="#FEC5DE"/>
<path d="M137.956 33.1621C136.909 33.2049 135.912 33.6234 135.147 34.341C139.11 38.3544 141.318 57.7689 136.978 79.2653C132.915 99.3319 125.691 115.561 119.57 119.399C119.861 119.555 120.174 119.665 120.498 119.725C127.095 121.054 136.351 102.768 141.167 78.889C145.983 55.0097 142.672 33.6136 137.956 33.1621Z" fill="#FEB1D3"/>
<path d="M163.04 175.585C166.1 213.21 145.481 245.442 117.087 247.775C88.6926 250.108 63.1578 221.563 60.198 184.038C57.2381 146.514 77.7563 114.181 106.151 111.849C134.545 109.516 160.055 137.96 163.04 175.585Z" fill="url(#paint12_radial_19644_76753)"/>
<path d="M114.504 130.787C114.53 131.383 114.733 131.959 115.086 132.44C115.44 132.921 115.929 133.286 116.491 133.488C117.053 133.691 117.662 133.721 118.241 133.577C118.82 133.432 119.344 133.118 119.744 132.675C120.144 132.232 120.404 131.68 120.49 131.089C120.576 130.498 120.484 129.895 120.226 129.356C119.968 128.818 119.556 128.368 119.042 128.065C118.527 127.761 117.935 127.617 117.338 127.651C116.946 127.671 116.562 127.767 116.207 127.935C115.852 128.103 115.534 128.34 115.271 128.631C115.007 128.922 114.804 129.263 114.673 129.633C114.541 130.003 114.484 130.395 114.504 130.787Z" fill="black"/>
<path d="M117.588 129.582C117.588 130.059 117.889 130.435 118.19 130.41C118.491 130.385 118.717 129.983 118.667 129.507C118.616 129.03 118.366 128.654 118.065 128.679C117.764 128.704 117.563 129.08 117.588 129.582Z" fill="white"/>
<path d="M95.7919 131.916C95.8128 132.514 96.0114 133.092 96.3624 133.577C96.7133 134.061 97.2007 134.43 97.7622 134.636C98.3238 134.842 98.9341 134.877 99.5152 134.735C100.096 134.592 100.622 134.28 101.025 133.838C101.428 133.396 101.69 132.844 101.778 132.252C101.865 131.66 101.775 131.056 101.517 130.516C101.26 129.976 100.847 129.525 100.332 129.22C99.8175 128.915 99.2235 128.771 98.6263 128.806C97.8388 128.845 97.0988 129.194 96.5677 129.777C96.0367 130.359 95.7578 131.128 95.7919 131.916Z" fill="black"/>
<path d="M98.8769 130.711C98.8769 131.187 99.1779 131.564 99.4789 131.564C99.7799 131.564 100.006 131.137 99.9806 130.661C99.9555 130.184 99.6796 129.783 99.3786 129.808C99.0776 129.833 98.8518 130.234 98.8769 130.711Z" fill="white"/>
<path d="M99.0784 145.26C99.149 146.176 99.4884 147.051 100.054 147.775C100.62 148.499 101.387 149.039 102.258 149.329C103.13 149.619 104.068 149.645 104.954 149.404C105.841 149.163 106.636 148.665 107.241 147.974C107.846 147.283 108.234 146.428 108.355 145.518C108.476 144.607 108.326 143.681 107.923 142.855C107.52 142.03 106.882 141.342 106.09 140.877C105.297 140.412 104.385 140.192 103.468 140.244C102.849 140.282 102.244 140.442 101.688 140.716C101.132 140.989 100.635 141.37 100.227 141.837C99.8188 142.303 99.5071 142.846 99.31 143.434C99.1128 144.021 99.0341 144.642 99.0784 145.26Z" fill="white"/>
<path d="M108.305 144.707C108.376 145.624 108.716 146.5 109.283 147.224C109.85 147.948 110.619 148.488 111.492 148.777C112.365 149.065 113.304 149.09 114.191 148.846C115.078 148.603 115.873 148.103 116.476 147.409C117.08 146.716 117.465 145.859 117.583 144.947C117.702 144.035 117.548 143.108 117.141 142.283C116.734 141.459 116.093 140.773 115.297 140.311C114.501 139.85 113.587 139.634 112.669 139.69C112.051 139.725 111.445 139.884 110.888 140.156C110.332 140.429 109.835 140.81 109.429 141.278C109.022 141.745 108.713 142.29 108.52 142.879C108.327 143.468 108.254 144.089 108.305 144.707Z" fill="white"/>
<path d="M113.149 135.878C113.219 136.793 113.559 137.668 114.124 138.392C114.69 139.116 115.457 139.656 116.329 139.946C117.2 140.236 118.138 140.262 119.025 140.021C119.911 139.78 120.707 139.283 121.312 138.591C121.916 137.9 122.304 137.045 122.425 136.135C122.546 135.224 122.396 134.298 121.993 133.473C121.59 132.647 120.952 131.959 120.16 131.494C119.367 131.03 118.455 130.809 117.538 130.861C116.92 130.899 116.315 131.06 115.758 131.333C115.202 131.606 114.705 131.987 114.297 132.454C113.889 132.92 113.577 133.463 113.38 134.051C113.183 134.638 113.104 135.259 113.149 135.878Z" fill="white"/>
<path d="M94.4339 137.032C94.5044 137.948 94.8439 138.822 95.4095 139.546C95.9752 140.27 96.742 140.811 97.6137 141.101C98.4854 141.39 99.4233 141.416 100.31 141.175C101.196 140.934 101.992 140.437 102.597 139.746C103.202 139.054 103.589 138.2 103.71 137.289C103.831 136.378 103.681 135.452 103.278 134.627C102.875 133.801 102.238 133.113 101.445 132.648C100.653 132.184 99.7406 131.964 98.8234 132.015C98.2048 132.053 97.5998 132.214 97.0435 132.487C96.4872 132.761 95.9906 133.142 95.5824 133.608C95.1743 134.075 94.8626 134.617 94.6654 135.205C94.4683 135.793 94.3896 136.414 94.4339 137.032Z" fill="white"/>
<path d="M108.783 146.012C108.473 146.998 107.893 147.878 107.108 148.55C106.322 149.223 105.364 149.661 104.342 149.815C103.319 149.97 102.274 149.834 101.326 149.423C100.377 149.012 99.5625 148.343 98.9756 147.492C98.6495 147.141 99.2264 146.664 99.5525 147.015C100.053 147.767 100.757 148.362 101.582 148.73C102.407 149.097 103.32 149.222 104.214 149.091C105.108 148.959 105.946 148.577 106.631 147.987C107.315 147.398 107.818 146.626 108.081 145.761C108.281 145.31 108.984 145.585 108.783 146.012Z" fill="#808080"/>
<path d="M108.783 145.736C109.17 146.527 109.745 147.211 110.458 147.727C111.171 148.243 112 148.576 112.872 148.696C113.803 148.67 114.711 148.399 115.504 147.911C116.296 147.422 116.946 146.732 117.387 145.912C117.45 145.852 117.532 145.816 117.619 145.81C117.706 145.804 117.792 145.828 117.863 145.879C117.934 145.929 117.985 146.002 118.008 146.086C118.031 146.17 118.024 146.259 117.989 146.338C117.506 147.22 116.81 147.966 115.964 148.509C115.119 149.053 114.15 149.376 113.148 149.449C112.086 149.37 111.063 149.013 110.183 148.415C109.302 147.816 108.595 146.996 108.131 146.037C107.906 145.636 108.583 145.335 108.834 145.736H108.783Z" fill="#808080"/>
<path style="mix-blend-mode:multiply" d="M118.117 140.318C118.22 142.003 118.82 143.619 119.841 144.962C120.863 146.305 122.26 147.315 123.856 147.864C125.451 148.413 127.174 148.476 128.806 148.046C130.437 147.615 131.904 146.711 133.022 145.446C134.139 144.181 134.856 142.613 135.082 140.941C135.307 139.269 135.032 137.567 134.29 136.051C133.549 134.536 132.374 133.274 130.915 132.426C129.456 131.578 127.778 131.182 126.094 131.288C123.84 131.43 121.734 132.461 120.238 134.154C118.743 135.847 117.98 138.064 118.117 140.318Z" fill="url(#paint13_radial_19644_76753)"/>
<path style="mix-blend-mode:multiply" d="M81.4439 142.549C81.5417 144.24 82.1391 145.863 83.1606 147.214C84.182 148.565 85.5815 149.582 87.1817 150.137C88.7819 150.692 90.5107 150.759 92.1491 150.33C93.7874 149.901 95.2616 148.996 96.3848 147.728C97.508 146.46 98.2297 144.888 98.4583 143.21C98.6869 141.532 98.4121 139.824 97.6689 138.302C96.9257 136.78 95.7475 135.513 94.2835 134.662C92.8196 133.81 91.1358 133.412 89.4455 133.519C87.1891 133.661 85.0808 134.691 83.5814 136.383C82.082 138.075 81.3135 140.292 81.4439 142.549Z" fill="url(#paint14_radial_19644_76753)"/>
<path d="M104.518 139.59C103.816 142.098 106.575 142.725 108.281 142.6C109.987 142.474 112.645 141.446 111.667 139.163C111.09 137.834 109.485 136.103 107.905 136.203C106.324 136.304 104.92 138.21 104.518 139.59Z" fill="url(#paint15_linear_19644_76753)"/>
<path d="M91.3548 139.29C83.2278 126.749 70.36 124.04 56.2381 123.889C55.7364 123.889 55.8368 123.137 56.2381 123.137C70.5607 123.312 83.5538 126.097 91.8063 138.814C92.0822 139.19 91.5053 139.692 91.2294 139.29H91.3548Z" fill="#808080"/>
<path d="M90.5978 141.848C82.2199 134.9 71.7602 135.703 61.5513 136.33C61.0747 136.33 60.9493 135.628 61.4258 135.603C71.8354 134.951 82.5209 134.173 91.0242 141.246C91.4004 141.547 91.0242 142.149 90.5978 141.848Z" fill="#808080"/>
<path d="M90.0718 144.907C82.296 145.359 74.5954 145.534 67.3212 148.745C66.8697 148.92 66.5687 148.243 67.0202 148.068C74.3195 144.832 82.0702 144.631 89.9715 144.18C90.4481 144.18 90.5484 144.882 89.9715 144.907H90.0718Z" fill="#808080"/>
<path d="M123.529 140.016C130.402 126.371 142.567 122.056 156.99 119.949C157.467 119.949 157.592 120.626 156.99 120.702C142.918 122.633 130.878 126.722 124.081 140.166C123.88 140.593 123.178 140.342 123.404 139.916L123.529 140.016Z" fill="#808080"/>
<path d="M124.76 142.249C132.511 134.272 142.82 133.67 153.38 133.043C153.832 133.043 153.957 133.77 153.38 133.795C143.046 134.397 132.812 134.924 125.137 142.825C124.811 143.152 124.334 142.575 124.66 142.249H124.76Z" fill="#808080"/>
<path d="M126.093 145.035C133.969 144.533 141.77 143.756 149.445 146.088C149.526 146.13 149.589 146.2 149.623 146.285C149.656 146.369 149.658 146.463 149.627 146.549C149.597 146.635 149.536 146.707 149.456 146.751C149.377 146.796 149.284 146.81 149.195 146.791C141.67 144.483 133.969 145.286 126.218 145.787C125.742 145.787 125.616 145.06 126.218 145.035H126.093Z" fill="#808080"/>
<path d="M240.997 191.538C221.907 178.881 200.328 170.457 177.712 166.831C155.26 163.475 132.365 164.626 110.363 170.217C91.2202 174.968 72.8208 182.328 55.6818 192.089L55.5312 224.698C73.8402 212.64 94.0841 203.816 115.38 198.611C161.659 187.499 203.849 196.354 240.797 224.924L240.997 191.538Z" fill="url(#paint16_linear_19644_76753)"/>
<path d="M76.7028 183.535C77.5054 186.545 74.9971 189.831 71.0841 190.859C67.1711 191.888 63.3584 190.333 62.5558 187.323C61.7531 184.313 64.2614 181.027 68.1744 179.998C72.0874 178.97 75.9001 180.6 76.7028 183.535Z" fill="url(#paint17_radial_19644_76753)"/>
<path d="M150.801 165.802C150.5 168.887 146.988 171.094 142.975 170.819C138.962 170.543 135.927 167.633 136.228 164.523C136.529 161.412 140.015 159.23 144.029 159.506C148.042 159.782 151.077 162.717 150.801 165.802Z" fill="url(#paint18_radial_19644_76753)"/>
<path d="M173.2 169.363C172.458 170.573 171.338 171.504 170.013 172.012C168.689 172.52 167.234 172.577 165.873 172.174C164.513 171.771 163.324 170.931 162.49 169.783C161.655 168.635 161.223 167.245 161.26 165.826C162.002 164.617 163.122 163.686 164.446 163.178C165.771 162.67 167.226 162.613 168.586 163.015C169.947 163.418 171.136 164.259 171.97 165.407C172.804 166.554 173.236 167.945 173.2 169.363Z" fill="url(#paint19_radial_19644_76753)"/>
<path d="M234.83 189.38C234.335 190.635 233.459 191.702 232.326 192.433C231.193 193.163 229.859 193.52 228.512 193.453C227.165 193.386 225.874 192.898 224.819 192.059C223.764 191.219 222.998 190.069 222.631 188.772C222.263 187.475 222.312 186.095 222.77 184.826C223.227 183.558 224.071 182.465 225.183 181.702C226.294 180.938 227.617 180.542 228.965 180.57C230.313 180.597 231.619 181.047 232.698 181.855C233.947 182.6 234.864 183.795 235.26 185.194C235.657 186.593 235.503 188.091 234.83 189.38Z" fill="url(#paint20_radial_19644_76753)"/>
<path d="M109.987 220.735C114.176 230.016 119.569 251.161 105.798 256.278C92.0272 261.395 82.2949 241.906 79.3852 232.148C77.0023 224.172 72.086 201.02 83.6243 196.706C95.1627 192.391 106.576 213.21 109.987 220.735Z" fill="url(#paint21_radial_19644_76753)"/>
<path d="M103.612 250.484C102.77 250.826 101.863 250.976 100.957 250.924C100.05 250.872 99.1661 250.619 98.3693 250.183C92.8008 247.449 87.7842 238.294 85.2758 230.417C83.5959 224.776 82.6434 218.943 82.4414 213.06C82.4414 210.301 82.6672 203.804 85.7022 202.675C88.7373 201.546 93.2272 206.287 94.958 208.394C98.6586 213.001 101.76 218.058 104.189 223.444C107.5 230.969 109.632 241.253 107.274 246.897C106.962 247.751 106.462 248.524 105.811 249.158C105.16 249.792 104.374 250.271 103.511 250.559L103.612 250.484Z" fill="#F9B0CB"/>
<path d="M103.541 242.006C101.457 242.87 99.128 242.942 96.9945 242.206C92.2789 240.551 88.0398 235.484 85.2305 229.865L85.381 230.417C87.6886 238.168 92.906 247.449 98.3741 250.183C99.1709 250.619 100.055 250.872 100.961 250.924C101.868 250.976 102.775 250.826 103.617 250.484C104.479 250.195 105.265 249.717 105.916 249.082C106.568 248.448 107.068 247.676 107.379 246.822C108.318 244.126 108.627 241.252 108.282 238.419C107.143 240.107 105.476 241.369 103.541 242.006Z" fill="#EF97B7"/>
<path d="M89.1934 207.039C89.3133 207.345 89.339 207.681 89.2674 208.002C89.1958 208.323 89.03 208.616 88.7913 208.843C88.5526 209.069 88.2517 209.219 87.9272 209.274C87.6026 209.329 87.2691 209.286 86.9692 209.15C86.6694 209.014 86.4167 208.793 86.2436 208.513C86.0705 208.233 85.9847 207.907 85.9973 207.579C86.0099 207.25 86.1202 206.932 86.3142 206.666C86.5082 206.4 86.7771 206.198 87.0864 206.086C87.4926 205.938 87.9403 205.955 88.3339 206.133C88.7276 206.312 89.0361 206.637 89.1934 207.039Z" fill="#EF97B7"/>
<path d="M93.0835 210.45C93.1962 210.752 93.2171 211.08 93.1434 211.394C93.0698 211.707 92.9049 211.992 92.6697 212.212C92.4344 212.432 92.1393 212.577 91.8215 212.629C91.5038 212.682 91.1776 212.639 90.8842 212.506C90.5908 212.374 90.3432 212.157 90.1728 211.884C90.0024 211.61 89.9167 211.293 89.9265 210.971C89.9364 210.649 90.0414 210.337 90.2283 210.075C90.4151 209.813 90.6755 209.611 90.9765 209.497C91.177 209.417 91.3916 209.378 91.6075 209.383C91.8233 209.388 92.0359 209.437 92.2327 209.526C92.4294 209.614 92.6061 209.742 92.7523 209.901C92.8985 210.06 93.0111 210.247 93.0835 210.45Z" fill="#EF97B7"/>
<path d="M88.4665 212.181C88.5747 212.484 88.591 212.812 88.5133 213.124C88.4357 213.436 88.2676 213.718 88.0302 213.934C87.7927 214.151 87.4966 214.293 87.1789 214.342C86.8612 214.39 86.5361 214.344 86.2446 214.209C85.9531 214.073 85.7081 213.855 85.5403 213.581C85.3726 213.307 85.2897 212.989 85.302 212.668C85.3143 212.347 85.4212 212.036 85.6094 211.776C85.7975 211.515 86.0585 211.316 86.3595 211.203C86.562 211.127 86.7775 211.093 86.9935 211.101C87.2095 211.109 87.4217 211.16 87.6178 211.251C87.8139 211.342 87.9899 211.471 88.1356 211.631C88.2813 211.791 88.3938 211.978 88.4665 212.181Z" fill="#EF97B7"/>
<path d="M119.342 220.109C116.583 229.917 114.326 251.614 128.799 254.624C143.272 257.634 149.894 236.89 151.374 226.806C152.528 218.579 153.882 194.95 141.892 192.417C129.903 189.884 121.575 212.082 119.342 220.109Z" fill="url(#paint22_radial_19644_76753)"/>
<path d="M130.078 248.503C130.942 248.695 131.838 248.698 132.704 248.512C133.57 248.326 134.385 247.955 135.095 247.424C140.111 243.913 143.849 233.954 144.977 225.928C145.802 220.109 145.878 214.208 145.203 208.369C144.827 205.635 143.598 199.239 140.437 198.587C137.277 197.935 133.69 203.177 132.26 205.686C129.308 210.743 127.007 216.154 125.412 221.789C123.23 229.59 122.678 240.225 125.864 245.443C126.302 246.238 126.912 246.926 127.65 247.455C128.387 247.985 129.234 248.343 130.128 248.503H130.078Z" fill="#F9B0CB"/>
<path d="M128.88 240.099C131.075 240.655 133.399 240.378 135.402 239.321C139.816 236.988 143.228 231.319 145.184 225.35V225.927C144.055 233.953 140.167 243.911 135.301 247.423C134.592 247.954 133.777 248.325 132.911 248.511C132.045 248.697 131.149 248.694 130.285 248.502C129.391 248.341 128.544 247.983 127.806 247.454C127.069 246.924 126.458 246.237 126.02 245.441C124.681 242.918 123.943 240.12 123.863 237.264C125.244 238.756 127.077 239.752 129.081 240.099H128.88Z" fill="#EF97B7"/>
<path d="M137.956 203.402C137.874 203.827 137.962 204.267 138.201 204.628C138.44 204.989 138.811 205.242 139.235 205.333C139.444 205.381 139.661 205.386 139.872 205.348C140.084 205.311 140.286 205.231 140.466 205.114C140.646 204.997 140.8 204.845 140.921 204.668C141.041 204.49 141.125 204.29 141.166 204.079C141.256 203.653 141.173 203.209 140.935 202.845C140.698 202.48 140.325 202.225 139.9 202.135C139.474 202.045 139.03 202.128 138.665 202.366C138.301 202.603 138.045 202.976 137.956 203.402Z" fill="#EF97B7"/>
<path d="M134.52 207.341C134.475 207.552 134.473 207.769 134.512 207.981C134.552 208.193 134.633 208.395 134.75 208.575C134.868 208.756 135.02 208.912 135.198 209.033C135.376 209.155 135.576 209.241 135.786 209.285C135.997 209.33 136.215 209.332 136.427 209.292C136.638 209.253 136.84 209.172 137.021 209.054C137.201 208.937 137.357 208.785 137.479 208.607C137.6 208.429 137.686 208.229 137.73 208.018C137.774 207.807 137.776 207.59 137.735 207.378C137.695 207.167 137.612 206.966 137.493 206.786C137.374 206.606 137.221 206.452 137.042 206.332C136.863 206.212 136.662 206.129 136.451 206.087C136.242 206.039 136.025 206.034 135.814 206.072C135.602 206.109 135.4 206.189 135.22 206.306C135.04 206.423 134.885 206.575 134.765 206.752C134.645 206.93 134.561 207.13 134.52 207.341Z" fill="#EF97B7"/>
<path d="M139.332 208.343C139.242 208.769 139.325 209.213 139.563 209.578C139.801 209.942 140.173 210.198 140.599 210.287C141.025 210.377 141.469 210.294 141.833 210.057C142.198 209.819 142.453 209.446 142.543 209.021C142.591 208.811 142.596 208.595 142.558 208.383C142.521 208.172 142.441 207.97 142.324 207.79C142.207 207.61 142.055 207.455 141.877 207.335C141.7 207.214 141.499 207.131 141.289 207.089C141.078 207.041 140.859 207.036 140.646 207.073C140.433 207.111 140.23 207.19 140.048 207.307C139.866 207.423 139.709 207.575 139.586 207.753C139.463 207.931 139.377 208.132 139.332 208.343Z" fill="#EF97B7"/>
<path d="M180.363 220.132C180.363 228.266 177.417 245.434 165.7 244.687C153.983 243.94 153.345 226.507 154.313 218.439C155.192 211.844 159.171 193.379 168.975 194.016C178.78 194.654 180.363 213.493 180.363 220.132Z" fill="url(#paint23_radial_19644_76753)"/>
<path d="M166.032 239.675C165.309 239.654 164.6 239.471 163.957 239.14C163.314 238.809 162.754 238.338 162.317 237.762C159.217 233.981 158.448 225.517 159.283 219.098C159.903 214.435 161.115 209.87 162.888 205.513C163.768 203.512 166.076 198.918 168.648 198.918C171.22 198.918 173.044 204.018 173.528 206.106C174.734 210.684 175.34 215.398 175.331 220.132C175.331 226.595 173.506 234.904 169.945 238.246C169.438 238.763 168.821 239.161 168.14 239.408C167.459 239.655 166.731 239.746 166.01 239.675H166.032Z" fill="#F9B0CB"/>
<path d="M168.739 233.476C166.931 233.43 165.205 232.709 163.903 231.453C161.001 228.727 159.506 223.627 159.352 218.615V219.077C158.517 225.496 159.352 233.959 162.386 237.74C162.823 238.317 163.383 238.788 164.026 239.119C164.669 239.45 165.378 239.632 166.101 239.653C166.822 239.725 167.55 239.634 168.231 239.386C168.912 239.139 169.529 238.742 170.036 238.224C171.601 236.563 172.76 234.561 173.421 232.377C172.045 233.239 170.421 233.618 168.805 233.454L168.739 233.476Z" fill="#EF97B7"/>
<path d="M169.68 203.316C169.672 203.488 169.629 203.657 169.555 203.813C169.48 203.968 169.376 204.107 169.247 204.222C169.118 204.337 168.967 204.425 168.804 204.48C168.64 204.536 168.468 204.559 168.295 204.547C167.947 204.519 167.624 204.356 167.394 204.093C167.164 203.83 167.046 203.488 167.064 203.14C167.075 202.967 167.121 202.799 167.198 202.644C167.275 202.489 167.382 202.352 167.513 202.239C167.644 202.126 167.797 202.041 167.961 201.988C168.126 201.935 168.299 201.916 168.471 201.931C168.643 201.939 168.811 201.982 168.965 202.056C169.12 202.131 169.258 202.236 169.371 202.366C169.484 202.495 169.569 202.646 169.622 202.809C169.676 202.972 169.695 203.145 169.68 203.316Z" fill="#EF97B7"/>
<path d="M171.416 207.074C171.398 207.334 171.304 207.583 171.144 207.789C170.985 207.995 170.768 208.15 170.521 208.233C170.274 208.316 170.008 208.324 169.757 208.257C169.505 208.189 169.279 208.048 169.108 207.852C168.936 207.655 168.826 207.413 168.792 207.154C168.759 206.896 168.802 206.633 168.917 206.4C169.033 206.166 169.214 205.972 169.44 205.841C169.666 205.711 169.925 205.65 170.185 205.667C170.358 205.678 170.528 205.723 170.684 205.8C170.839 205.877 170.978 205.984 171.093 206.114C171.207 206.245 171.295 206.397 171.35 206.562C171.406 206.726 171.428 206.9 171.416 207.074Z" fill="#EF97B7"/>
<path d="M167.484 206.81C167.475 206.982 167.433 207.151 167.358 207.307C167.284 207.463 167.179 207.602 167.05 207.716C166.921 207.831 166.77 207.919 166.607 207.975C166.444 208.03 166.271 208.053 166.099 208.041C165.913 208.049 165.729 208.018 165.556 207.95C165.384 207.881 165.228 207.777 165.098 207.645C164.968 207.512 164.868 207.354 164.804 207.18C164.74 207.005 164.713 206.82 164.726 206.635C164.738 206.45 164.789 206.269 164.876 206.106C164.963 205.942 165.084 205.798 165.23 205.684C165.376 205.57 165.545 205.488 165.725 205.443C165.905 205.398 166.092 205.392 166.275 205.425C166.446 205.433 166.614 205.476 166.769 205.551C166.923 205.626 167.061 205.731 167.174 205.86C167.287 205.989 167.373 206.14 167.426 206.303C167.479 206.467 167.499 206.639 167.484 206.81Z" fill="#EF97B7"/>
<path d="M188.599 221.357C182.577 226.847 171.923 240.616 180.359 248.755C188.796 256.894 202.181 245.679 207.41 239.502C211.689 234.414 222.638 218.999 215.634 212.213C208.63 205.426 193.502 216.888 188.599 221.357Z" fill="url(#paint24_radial_19644_76753)"/>
<path d="M183.839 245.109C184.347 245.63 184.965 246.031 185.648 246.283C186.331 246.536 187.062 246.632 187.787 246.567C192.66 246.311 199.432 241.169 203.581 236.218C206.596 232.643 209.149 228.702 211.178 224.489C212.068 222.393 213.949 217.638 212.088 215.849C210.228 214.059 205.393 216.118 203.482 217.096C199.318 219.289 195.446 221.995 191.956 225.151C187.179 229.505 182.308 236.464 182.229 241.357C182.203 242.087 182.34 242.814 182.631 243.484C182.922 244.154 183.359 244.751 183.911 245.23L183.839 245.109Z" fill="#F9B0CB"/>
<path d="M186.604 238.946C187.848 240.251 189.534 241.047 191.332 241.177C195.307 241.484 200.032 239.099 203.874 235.881C203.783 236.007 203.685 236.127 203.58 236.24C199.431 241.191 192.659 246.333 187.785 246.589C187.059 246.651 186.328 246.55 185.646 246.294C184.963 246.039 184.347 245.634 183.84 245.109C183.289 244.63 182.852 244.033 182.561 243.363C182.27 242.693 182.132 241.966 182.158 241.236C182.331 238.983 183.021 236.801 184.175 234.858C184.482 236.45 185.303 237.897 186.511 238.977L186.604 238.946Z" fill="#EF97B7"/>
<path d="M208.228 217.91C208.105 218.031 208.008 218.176 207.943 218.336C207.877 218.496 207.845 218.667 207.848 218.84C207.851 219.013 207.889 219.183 207.96 219.34C208.031 219.498 208.133 219.639 208.26 219.756C208.511 219.994 208.845 220.123 209.19 220.117C209.535 220.111 209.864 219.97 210.107 219.724C210.346 219.47 210.477 219.133 210.471 218.784C210.466 218.435 210.324 218.102 210.077 217.856C209.953 217.736 209.806 217.643 209.646 217.581C209.485 217.519 209.313 217.49 209.141 217.495C208.969 217.5 208.8 217.539 208.643 217.61C208.486 217.682 208.345 217.783 208.228 217.91Z" fill="#EF97B7"/>
<path d="M204.297 219.095C204.06 219.346 203.931 219.679 203.937 220.025C203.943 220.37 204.084 220.699 204.33 220.941C204.453 221.061 204.598 221.156 204.758 221.22C204.917 221.283 205.088 221.314 205.26 221.311C205.432 221.308 205.601 221.271 205.759 221.202C205.916 221.133 206.058 221.033 206.176 220.909C206.296 220.78 206.39 220.628 206.451 220.463C206.512 220.298 206.541 220.122 206.534 219.946C206.528 219.77 206.487 219.597 206.413 219.437C206.34 219.277 206.236 219.133 206.107 219.013C205.977 218.893 205.826 218.8 205.661 218.738C205.496 218.677 205.32 218.649 205.144 218.655C204.968 218.662 204.795 218.703 204.635 218.776C204.474 218.849 204.33 218.954 204.21 219.083L204.297 219.095Z" fill="#EF97B7"/>
<path d="M207.122 221.884C206.933 222.058 206.8 222.283 206.74 222.533C206.679 222.782 206.694 223.044 206.782 223.285C206.87 223.526 207.027 223.735 207.235 223.886C207.442 224.038 207.689 224.124 207.946 224.135C208.202 224.146 208.456 224.08 208.675 223.947C208.894 223.813 209.069 223.618 209.176 223.385C209.284 223.152 209.321 222.892 209.281 222.639C209.242 222.385 209.128 222.149 208.954 221.961C208.84 221.833 208.702 221.729 208.547 221.656C208.393 221.583 208.225 221.541 208.054 221.534C207.883 221.527 207.713 221.554 207.553 221.614C207.393 221.674 207.246 221.766 207.122 221.884Z" fill="#EF97B7"/>
<path d="M113.319 175.077C114.195 174.851 115.026 174.969 115.811 175.432C116.595 175.889 117.099 176.556 117.325 177.432C117.558 178.334 117.248 179.009 116.395 179.457C117.075 179.382 117.939 179.657 118.988 180.281C120.042 180.903 120.761 181.955 121.143 183.437C121.525 184.918 121.335 186.332 120.573 187.678C119.857 188.945 119.009 189.712 118.029 189.978L118.034 189.997L114.157 190.997L110.255 175.867L113.319 175.077ZM113.854 181.726L115.607 188.525L117.527 188.03L117.52 188.002C117.916 187.872 118.334 187.418 118.772 186.64C119.258 185.788 119.38 184.893 119.138 183.954C118.899 183.027 118.364 182.321 117.533 181.836C116.707 181.343 115.83 181.216 114.904 181.455L113.854 181.726ZM112.718 177.319L113.334 179.712L114.611 179.383C114.895 179.283 115.115 179.108 115.273 178.859C115.446 178.592 115.487 178.283 115.396 177.93C115.305 177.576 115.111 177.317 114.812 177.152C114.519 176.979 114.19 176.94 113.824 177.034L112.718 177.319Z" fill="#FBF8FF"/>
<path d="M125.069 178.139L126.984 188.003L125 188.388L123.084 178.524L125.069 178.139ZM123.284 174.277C123.668 174.203 124.023 174.273 124.35 174.488C124.677 174.703 124.878 175.005 124.954 175.395C125.029 175.785 124.956 176.141 124.733 176.463C124.511 176.785 124.207 176.983 123.824 177.057C123.447 177.13 123.095 177.059 122.768 176.844C122.441 176.629 122.24 176.327 122.164 175.937C122.088 175.547 122.162 175.191 122.384 174.87C122.607 174.548 122.907 174.35 123.284 174.277Z" fill="#FBF8FF"/>
<path d="M134.048 178.786L135.095 186.735L133.1 186.998L132.053 179.049L128.432 179.526L128.167 177.512L137.404 176.296L137.669 178.309L134.048 178.786Z" fill="#FBF8FF"/>
<path d="M149.906 181.08L149.846 179.597C149.704 178.97 149.368 178.411 148.84 177.917C148.13 177.268 147.296 176.963 146.34 177.002C145.377 177.041 144.568 177.413 143.912 178.117C143.263 178.821 142.958 179.654 142.997 180.617C143.036 181.573 143.407 182.379 144.112 183.035C144.822 183.684 145.659 183.989 146.621 183.95C147.578 183.911 148.384 183.539 149.039 182.835C149.526 182.301 149.815 181.716 149.906 181.08ZM149.712 176.289L149.684 175.586L151.713 175.504L152.121 185.554L150.091 185.637L150.04 184.378C149.105 185.426 147.994 185.976 146.706 186.028C145.17 186.09 143.838 185.603 142.708 184.567C141.584 183.525 140.991 182.236 140.929 180.701C140.866 179.166 141.353 177.836 142.39 176.713C143.432 175.582 144.721 174.986 146.256 174.924C147.544 174.872 148.696 175.327 149.712 176.289Z" fill="#FBF8FF"/>
<path d="M156.746 178.484L161.876 178.752L161.769 180.791L156.21 180.499C156.196 181.392 156.497 182.177 157.113 182.854C157.754 183.566 158.552 183.947 159.508 183.997C160.418 184.045 161.279 183.731 162.09 183.057L164.83 183.2C164.098 183.983 163.626 184.467 163.415 184.652C162.278 185.681 160.94 186.155 159.399 186.074C157.878 185.994 156.603 185.383 155.574 184.241C154.545 183.098 154.07 181.766 154.15 180.245C154.231 178.704 154.843 177.422 155.985 176.4C157.127 175.371 158.46 174.896 159.981 174.976C161.522 175.057 162.803 175.669 163.826 176.811C164.374 177.426 164.817 178.366 165.155 179.628L163.029 179.517C162.792 178.931 162.545 178.491 162.286 178.197C161.639 177.479 160.835 177.094 159.872 177.044C158.917 176.994 158.08 177.292 157.361 177.939C156.991 178.278 156.786 178.46 156.746 178.484Z" fill="#FBF8FF"/>
<path d="M172.056 183.677L175.875 177.456L177.731 177.721L176.309 187.669L174.308 187.383L174.949 182.897L172.365 187.105L170.779 186.878L169.487 182.116L168.846 186.602L166.845 186.316L168.266 176.368L170.122 176.634L172.056 183.677Z" fill="#FBF8FF"/>
<path d="M185.855 178.636C187.35 178.989 188.499 179.818 189.301 181.125C190.11 182.432 190.338 183.834 189.985 185.329C189.633 186.825 188.803 187.977 187.495 188.785C186.193 189.596 184.795 189.824 183.3 189.472C181.81 189.121 180.662 188.291 179.853 186.983C179.044 185.676 178.816 184.274 179.169 182.779C179.522 181.283 180.352 180.131 181.66 179.322C182.967 178.514 184.366 178.285 185.855 178.636ZM185.377 180.661C184.44 180.44 183.56 180.583 182.737 181.092C181.921 181.602 181.404 182.322 181.184 183.254C180.963 184.192 181.104 185.068 181.608 185.882C182.118 186.698 182.841 187.217 183.779 187.438C184.717 187.659 185.593 187.518 186.408 187.014C187.228 186.512 187.749 185.792 187.97 184.854C188.19 183.923 188.046 183.046 187.537 182.224C187.035 181.403 186.315 180.882 185.377 180.661Z" fill="#FBF8FF"/>
<path d="M192.34 188.835C192.714 188.949 192.991 189.177 193.172 189.519C193.36 189.862 193.396 190.221 193.282 190.594C193.163 190.98 192.93 191.263 192.583 191.442C192.241 191.623 191.884 191.657 191.51 191.542C191.143 191.43 190.865 191.202 190.678 190.858C190.49 190.515 190.456 190.15 190.574 189.764C190.689 189.391 190.92 189.114 191.268 188.935C191.615 188.755 191.973 188.722 192.34 188.835ZM197.08 176.774L193.802 187.465L191.869 186.872L195.147 176.182L197.08 176.774Z" fill="#FBF8FF"/>
</g>
<defs>
<radialGradient id="paint0_radial_19644_76753" cx="0" cy="0" r="1" gradientUnits="userSpaceOnUse" gradientTransform="translate(117.876 247.65) scale(60.5196 19.5063)">
<stop stop-color="#939598"/>
<stop offset="0.16" stop-color="#ADAFB1"/>
<stop offset="0.4" stop-color="#D1D2D3"/>
<stop offset="0.63" stop-color="#EAEBEB"/>
<stop offset="0.83" stop-color="#FAFAFA"/>
<stop offset="1" stop-color="white"/>
</radialGradient>
<radialGradient id="paint1_radial_19644_76753" cx="0" cy="0" r="1" gradientUnits="userSpaceOnUse" gradientTransform="translate(174.493 245.763) rotate(11.4025) scale(60.7177 19.9124)">
<stop stop-color="#939598"/>
<stop offset="0.16" stop-color="#ADAFB1"/>
<stop offset="0.4" stop-color="#D1D2D3"/>
<stop offset="0.63" stop-color="#EAEBEB"/>
<stop offset="0.83" stop-color="#FAFAFA"/>
<stop offset="1" stop-color="white"/>
</radialGradient>
<radialGradient id="paint2_radial_19644_76753" cx="0" cy="0" r="1" gradientUnits="userSpaceOnUse" gradientTransform="translate(191.678 107.294) rotate(-162.474) scale(78.4158 78.4158)">
<stop stop-color="white"/>
<stop offset="0.34" stop-color="#FDFDFC"/>
<stop offset="0.58" stop-color="#F8F5F3"/>
<stop offset="0.8" stop-color="#EFE7E3"/>
<stop offset="0.99" stop-color="#E3D4CD"/>
<stop offset="1" stop-color="#E2D3CC"/>
</radialGradient>
<radialGradient id="paint3_radial_19644_76753" cx="0" cy="0" r="1" gradientUnits="userSpaceOnUse" gradientTransform="translate(235.646 131.082) rotate(15.1541) scale(78.2853 78.2853)">
<stop stop-color="white"/>
<stop offset="0.34" stop-color="#FDFDFC"/>
<stop offset="0.58" stop-color="#F8F5F3"/>
<stop offset="0.8" stop-color="#EFE7E3"/>
<stop offset="0.99" stop-color="#E3D4CD"/>
<stop offset="1" stop-color="#E2D3CC"/>
</radialGradient>
<radialGradient id="paint4_radial_19644_76753" cx="0" cy="0" r="1" gradientUnits="userSpaceOnUse" gradientTransform="translate(203.318 164.177) rotate(16.7275) scale(39.3446 44.8921)">
<stop stop-color="white"/>
<stop offset="0.34" stop-color="#FDFDFC"/>
<stop offset="0.58" stop-color="#F8F5F3"/>
<stop offset="0.8" stop-color="#EFE7E3"/>
<stop offset="0.99" stop-color="#E3D4CD"/>
<stop offset="1" stop-color="#E2D3CC"/>
</radialGradient>
<radialGradient id="paint5_radial_19644_76753" cx="0" cy="0" r="1" gradientUnits="userSpaceOnUse" gradientTransform="translate(216.586 144.43) rotate(-162.474) scale(7.62167 7.62168)">
<stop offset="0.03" stop-color="#FEC5DE"/>
<stop offset="0.11" stop-color="#FECCE2"/>
<stop offset="0.46" stop-color="#FFE8F2"/>
<stop offset="0.77" stop-color="#FFF9FC"/>
<stop offset="1" stop-color="white"/>
</radialGradient>
<radialGradient id="paint6_radial_19644_76753" cx="0" cy="0" r="1" gradientUnits="userSpaceOnUse" gradientTransform="translate(185.347 134.567) rotate(-162.474) scale(7.62167 7.62167)">
<stop offset="0.03" stop-color="#FEC5DE"/>
<stop offset="0.11" stop-color="#FECCE2"/>
<stop offset="0.46" stop-color="#FFE8F2"/>
<stop offset="0.77" stop-color="#FFF9FC"/>
<stop offset="1" stop-color="white"/>
</radialGradient>
<linearGradient id="paint7_linear_19644_76753" x1="204.484" y1="139.194" x2="198.097" y2="137.178" gradientUnits="userSpaceOnUse">
<stop stop-color="#FAE6ED"/>
<stop offset="0.55" stop-color="#F3C0D3"/>
<stop offset="1" stop-color="#EFCDDB"/>
</linearGradient>
<linearGradient id="paint8_linear_19644_76753" x1="55.8072" y1="219.352" x2="84.0008" y2="219.352" gradientUnits="userSpaceOnUse">
<stop stop-color="#7F636F"/>
<stop offset="0.31" stop-color="#8F6F7D"/>
<stop offset="0.91" stop-color="#B88FA1"/>
<stop offset="1" stop-color="#BF94A7"/>
</linearGradient>
<linearGradient id="paint9_linear_19644_76753" x1="241.124" y1="231.417" x2="213.031" y2="231.417" gradientUnits="userSpaceOnUse">
<stop stop-color="#7F636F"/>
<stop offset="0.31" stop-color="#8F6F7D"/>
<stop offset="0.91" stop-color="#B88FA1"/>
<stop offset="1" stop-color="#BF94A7"/>
</linearGradient>
<radialGradient id="paint10_radial_19644_76753" cx="0" cy="0" r="1" gradientUnits="userSpaceOnUse" gradientTransform="translate(88.8966 112.926) rotate(176.566) scale(88.0501 88.0501)">
<stop stop-color="white"/>
<stop offset="0.34" stop-color="#FDFDFC"/>
<stop offset="0.58" stop-color="#F8F5F3"/>
<stop offset="0.8" stop-color="#EFE7E3"/>
<stop offset="0.99" stop-color="#E3D4CD"/>
<stop offset="1" stop-color="#E2D3CC"/>
</radialGradient>
<radialGradient id="paint11_radial_19644_76753" cx="0" cy="0" r="1" gradientUnits="userSpaceOnUse" gradientTransform="translate(126.529 107.616) rotate(-5.89) scale(87.892 87.892)">
<stop stop-color="white"/>
<stop offset="0.34" stop-color="#FDFDFC"/>
<stop offset="0.58" stop-color="#F8F5F3"/>
<stop offset="0.8" stop-color="#EFE7E3"/>
<stop offset="0.99" stop-color="#E3D4CD"/>
<stop offset="1" stop-color="#E2D3CC"/>
</radialGradient>
<radialGradient id="paint12_radial_19644_76753" cx="0" cy="0" r="1" gradientUnits="userSpaceOnUse" gradientTransform="translate(112.99 156.815) rotate(-2.91073) scale(45.5704 51.7864)">
<stop stop-color="white"/>
<stop offset="0.34" stop-color="#FDFDFC"/>
<stop offset="0.58" stop-color="#F8F5F3"/>
<stop offset="0.8" stop-color="#EFE7E3"/>
<stop offset="0.99" stop-color="#E3D4CD"/>
<stop offset="1" stop-color="#E2D3CC"/>
</radialGradient>
<radialGradient id="paint13_radial_19644_76753" cx="0" cy="0" r="1" gradientUnits="userSpaceOnUse" gradientTransform="translate(129.931 141.857) rotate(176.566) scale(8.54367 8.54367)">
<stop offset="0.03" stop-color="#FEC5DE"/>
<stop offset="0.11" stop-color="#FECCE2"/>
<stop offset="0.46" stop-color="#FFE8F2"/>
<stop offset="0.77" stop-color="#FFF9FC"/>
<stop offset="1" stop-color="white"/>
</radialGradient>
<radialGradient id="paint14_radial_19644_76753" cx="0" cy="0" r="1" gradientUnits="userSpaceOnUse" gradientTransform="translate(93.207 144.058) rotate(176.566) scale(8.54367 8.54367)">
<stop offset="0.03" stop-color="#FEC5DE"/>
<stop offset="0.11" stop-color="#FECCE2"/>
<stop offset="0.46" stop-color="#FFE8F2"/>
<stop offset="0.77" stop-color="#FFF9FC"/>
<stop offset="1" stop-color="white"/>
</radialGradient>
<linearGradient id="paint15_linear_19644_76753" x1="115.113" y1="141.234" x2="107.613" y2="141.684" gradientUnits="userSpaceOnUse">
<stop stop-color="#FAE6ED"/>
<stop offset="0.55" stop-color="#F3C0D3"/>
<stop offset="1" stop-color="#EFCDDB"/>
</linearGradient>
<linearGradient id="paint16_linear_19644_76753" x1="55.5313" y1="194.938" x2="240.997" y2="194.938" gradientUnits="userSpaceOnUse">
<stop stop-color="#1F0033"/>
<stop offset="0.514" stop-color="#8F3BE3"/>
<stop offset="0.971894" stop-color="#1F0033"/>
</linearGradient>
<radialGradient id="paint17_radial_19644_76753" cx="0" cy="0" r="1" gradientUnits="userSpaceOnUse" gradientTransform="translate(68.6355 188.366) rotate(-15.1011) scale(7.33274 5.64248)">
<stop stop-color="white"/>
<stop offset="0.34" stop-color="#FDFDFC"/>
<stop offset="0.58" stop-color="#F8F5F3"/>
<stop offset="0.8" stop-color="#EFE7E3"/>
<stop offset="0.99" stop-color="#E3D4CD"/>
<stop offset="1" stop-color="#E2D3CC"/>
</radialGradient>
<radialGradient id="paint18_radial_19644_76753" cx="0" cy="0" r="1" gradientUnits="userSpaceOnUse" gradientTransform="translate(146.518 167.53) rotate(5.31455) scale(7.27937 5.64135)">
<stop stop-color="white"/>
<stop offset="0.34" stop-color="#FDFDFC"/>
<stop offset="0.58" stop-color="#F8F5F3"/>
<stop offset="0.8" stop-color="#EFE7E3"/>
<stop offset="0.99" stop-color="#E3D4CD"/>
<stop offset="1" stop-color="#E2D3CC"/>
</radialGradient>
<radialGradient id="paint19_radial_19644_76753" cx="0" cy="0" r="1" gradientUnits="userSpaceOnUse" gradientTransform="translate(168.367 167.863) rotate(16.4888) scale(6.24549 4.79088)">
<stop stop-color="white"/>
<stop offset="0.34" stop-color="#FDFDFC"/>
<stop offset="0.58" stop-color="#F8F5F3"/>
<stop offset="0.8" stop-color="#EFE7E3"/>
<stop offset="0.99" stop-color="#E3D4CD"/>
<stop offset="1" stop-color="#E2D3CC"/>
</radialGradient>
<radialGradient id="paint20_radial_19644_76753" cx="0" cy="0" r="1" gradientUnits="userSpaceOnUse" gradientTransform="translate(229.815 185.632) rotate(36.8698) scale(6.22819 4.79091)">
<stop stop-color="white"/>
<stop offset="0.34" stop-color="#FDFDFC"/>
<stop offset="0.58" stop-color="#F8F5F3"/>
<stop offset="0.8" stop-color="#EFE7E3"/>
<stop offset="0.99" stop-color="#E3D4CD"/>
<stop offset="1" stop-color="#E2D3CC"/>
</radialGradient>
<radialGradient id="paint21_radial_19644_76753" cx="0" cy="0" r="1" gradientUnits="userSpaceOnUse" gradientTransform="translate(93.7929 221.112) rotate(-20.43) scale(44.5982 44.5982)">
<stop stop-color="white"/>
<stop offset="0.34" stop-color="#FDFDFC"/>
<stop offset="0.58" stop-color="#F8F5F3"/>
<stop offset="0.8" stop-color="#EFE7E3"/>
<stop offset="0.99" stop-color="#E3D4CD"/>
<stop offset="1" stop-color="#E2D3CC"/>
</radialGradient>
<radialGradient id="paint22_radial_19644_76753" cx="0" cy="0" r="1" gradientUnits="userSpaceOnUse" gradientTransform="translate(134.23 219.172) rotate(-167.905) scale(44.6984 44.6984)">
<stop stop-color="white"/>
<stop offset="0.34" stop-color="#FDFDFC"/>
<stop offset="0.58" stop-color="#F8F5F3"/>
<stop offset="0.8" stop-color="#EFE7E3"/>
<stop offset="0.99" stop-color="#E3D4CD"/>
<stop offset="1" stop-color="#E2D3CC"/>
</radialGradient>
<radialGradient id="paint23_radial_19644_76753" cx="0" cy="0" r="1" gradientUnits="userSpaceOnUse" gradientTransform="translate(170.758 215.744) rotate(3.43363) scale(35.6766 35.6766)">
<stop stop-color="white"/>
<stop offset="0.34" stop-color="#FDFDFC"/>
<stop offset="0.58" stop-color="#F8F5F3"/>
<stop offset="0.8" stop-color="#EFE7E3"/>
<stop offset="0.99" stop-color="#E3D4CD"/>
<stop offset="1" stop-color="#E2D3CC"/>
</radialGradient>
<radialGradient id="paint24_radial_19644_76753" cx="0" cy="0" r="1" gradientUnits="userSpaceOnUse" gradientTransform="translate(199.2 226.96) rotate(-136.034) scale(35.6872 35.6872)">
<stop stop-color="white"/>
<stop offset="0.34" stop-color="#FDFDFC"/>
<stop offset="0.58" stop-color="#F8F5F3"/>
<stop offset="0.8" stop-color="#EFE7E3"/>
<stop offset="0.99" stop-color="#E3D4CD"/>
<stop offset="1" stop-color="#E2D3CC"/>
</radialGradient>
<clipPath id="clip0_19644_76753">
<rect width="301" height="268" fill="white"/>
</clipPath>
</defs>
</svg>
