<svg width="271" height="247" viewBox="0 0 271 247" fill="none" xmlns="http://www.w3.org/2000/svg">
<path style="mix-blend-mode:multiply" d="M104.593 246.855C137.993 246.855 165.069 238.061 165.069 227.214C165.069 216.367 137.993 207.574 104.593 207.574C71.1932 207.574 44.1172 216.367 44.1172 227.214C44.1172 238.061 71.1932 246.855 104.593 246.855Z" fill="url(#paint0_radial_19549_82146)"/>
<path style="mix-blend-mode:multiply" d="M221.665 233.937C219.508 244.572 191.239 247.833 158.505 241.211C125.772 234.589 100.989 220.568 103.146 209.932C105.304 199.297 133.573 196.036 166.306 202.683C199.04 209.33 223.822 223.302 221.665 233.937Z" fill="url(#paint1_radial_19549_82146)"/>
<path d="M168.912 66.5559C168.686 93.4201 175.383 115.268 183.962 115.318C192.54 115.368 199.438 93.6709 199.664 66.7816C199.89 39.8923 193.167 18.0698 184.614 18.0196C176.061 17.9695 169.112 39.6665 168.912 66.5559Z" fill="url(#paint2_radial_19549_82146)"/>
<path d="M173.425 68.0611C173.275 89.8836 178.016 107.618 184.036 107.668C190.056 107.718 195.097 90.1093 195.273 68.2367C195.449 46.364 188.877 29.1067 184.663 28.7304C180.449 28.3542 173.601 46.2888 173.425 68.0611Z" fill="#FEC5DE"/>
<path d="M184.936 28.7309C185.849 28.9642 186.65 29.5156 187.193 30.2861C182.979 33.0954 177.461 49.6755 177.31 69.3157C177.31 87.7269 180.521 103.228 185.212 107.643C184.925 107.722 184.63 107.764 184.334 107.768C178.314 107.768 173.548 89.9844 173.723 68.1619C173.899 46.3394 180.571 28.2292 184.936 28.7309Z" fill="#FEB1D3"/>
<path d="M242.634 88.4546C228.111 111.03 210.578 125.728 203.454 121.063C196.33 116.397 202.325 94.4495 216.823 71.8243C231.322 49.1991 248.855 34.5505 255.979 39.216C263.102 43.8815 257.132 65.8294 242.634 88.4546Z" fill="url(#paint3_radial_19549_82146)"/>
<path d="M237.995 87.2489C226.231 105.635 212.535 117.876 207.518 114.615C202.502 111.354 207.87 93.8458 219.659 75.4848C231.448 57.1238 246.347 46.2878 250.16 48.0938C253.973 49.8998 249.784 68.8629 237.995 87.2489Z" fill="#FEC5DE"/>
<path d="M249.953 48.0444C249.08 47.7196 248.118 47.7196 247.244 48.0444C249.226 52.6848 244.736 69.616 234.201 86.1209C224.168 101.622 212.981 112.784 206.609 113.938C206.803 114.156 207.022 114.35 207.262 114.515C212.278 117.751 225.999 105.51 237.788 87.1242C249.577 68.7381 253.791 49.9758 249.953 48.0444Z" fill="#FEB1D3"/>
<path d="M224.802 175.119C215.195 207.426 187.453 227.743 163.021 220.444C138.59 213.145 126.425 181.038 136.032 148.731C145.639 116.424 173.306 96.0559 197.812 103.38C222.318 110.705 234.409 142.786 224.802 175.119Z" fill="url(#paint4_radial_19549_82146)"/>
<path d="M198.739 121.941C198.56 122.45 198.538 123 198.673 123.521C198.809 124.043 199.097 124.512 199.501 124.869C199.904 125.226 200.405 125.454 200.939 125.525C201.473 125.596 202.017 125.505 202.499 125.266C202.982 125.026 203.382 124.648 203.649 124.18C203.916 123.712 204.037 123.175 203.996 122.638C203.956 122.1 203.757 121.587 203.424 121.164C203.09 120.74 202.638 120.426 202.125 120.261C201.793 120.147 201.441 120.1 201.09 120.123C200.739 120.146 200.396 120.238 200.082 120.394C199.767 120.551 199.486 120.768 199.255 121.033C199.025 121.299 198.849 121.608 198.739 121.941Z" fill="black"/>
<path d="M201.698 121.941C201.572 122.342 201.698 122.743 201.948 122.818C202.199 122.894 202.5 122.643 202.651 122.242C202.801 121.84 202.651 121.414 202.4 121.339C202.149 121.263 201.848 121.539 201.698 121.941Z" fill="white"/>
<path d="M182.757 116.823C182.577 117.332 182.553 117.884 182.688 118.407C182.823 118.93 183.112 119.4 183.516 119.758C183.921 120.116 184.423 120.344 184.959 120.415C185.495 120.485 186.039 120.393 186.522 120.151C187.005 119.91 187.405 119.529 187.67 119.059C187.936 118.588 188.054 118.049 188.011 117.511C187.967 116.972 187.764 116.459 187.427 116.037C187.09 115.615 186.634 115.304 186.118 115.143C185.789 115.01 185.435 114.949 185.08 114.963C184.725 114.977 184.377 115.067 184.059 115.226C183.741 115.385 183.461 115.609 183.237 115.885C183.012 116.16 182.849 116.48 182.757 116.823Z" fill="black"/>
<path d="M185.719 116.823C185.719 117.224 185.719 117.625 185.945 117.701C186.17 117.776 186.521 117.525 186.647 117.124C186.772 116.722 186.647 116.296 186.421 116.221C186.195 116.145 185.844 116.522 185.719 116.823Z" fill="white"/>
<path d="M181.177 129.063C180.924 129.852 180.91 130.698 181.138 131.495C181.366 132.292 181.825 133.003 182.457 133.539C183.089 134.074 183.866 134.411 184.689 134.505C185.512 134.599 186.344 134.447 187.081 134.068C187.818 133.689 188.426 133.101 188.828 132.376C189.23 131.652 189.408 130.824 189.34 129.999C189.272 129.173 188.961 128.386 188.445 127.737C187.93 127.089 187.233 126.607 186.444 126.354C185.387 126.015 184.237 126.11 183.25 126.618C182.262 127.126 181.516 128.006 181.177 129.063Z" fill="white"/>
<path d="M189.06 131.573C188.807 132.362 188.793 133.208 189.021 134.005C189.249 134.801 189.708 135.513 190.34 136.048C190.972 136.584 191.748 136.92 192.572 137.015C193.395 137.109 194.227 136.957 194.964 136.578C195.701 136.199 196.309 135.61 196.711 134.886C197.113 134.161 197.291 133.334 197.223 132.508C197.155 131.683 196.843 130.896 196.328 130.247C195.812 129.598 195.116 129.117 194.327 128.864C193.269 128.525 192.12 128.62 191.132 129.128C190.145 129.636 189.399 130.515 189.06 131.573Z" fill="white"/>
<path d="M195.95 125.754C195.697 126.543 195.684 127.389 195.911 128.186C196.139 128.983 196.598 129.694 197.23 130.229C197.862 130.765 198.639 131.102 199.462 131.196C200.285 131.29 201.118 131.138 201.855 130.759C202.592 130.38 203.199 129.791 203.601 129.067C204.004 128.343 204.182 127.515 204.114 126.689C204.045 125.864 203.734 125.077 203.218 124.428C202.703 123.779 202.007 123.298 201.218 123.045C200.16 122.713 199.014 122.811 198.028 123.318C197.042 123.825 196.295 124.7 195.95 125.754Z" fill="white"/>
<path d="M179.927 120.638C179.674 121.426 179.66 122.273 179.888 123.069C180.116 123.866 180.575 124.577 181.207 125.113C181.839 125.649 182.616 125.985 183.439 126.079C184.262 126.173 185.094 126.022 185.831 125.643C186.568 125.264 187.176 124.675 187.578 123.95C187.98 123.226 188.158 122.398 188.09 121.573C188.022 120.747 187.711 119.96 187.195 119.311C186.68 118.663 185.983 118.181 185.194 117.929C184.137 117.589 182.987 117.684 182 118.192C181.012 118.7 180.266 119.58 179.927 120.638Z" fill="white"/>
<path d="M189.031 132.801C188.438 133.501 187.665 134.026 186.796 134.317C185.926 134.608 184.993 134.656 184.098 134.454C183.204 134.252 182.381 133.809 181.721 133.173C181.06 132.537 180.587 131.731 180.352 130.845C180.348 130.766 180.369 130.688 180.414 130.624C180.459 130.559 180.524 130.511 180.599 130.488C180.675 130.465 180.755 130.468 180.829 130.496C180.902 130.524 180.964 130.576 181.004 130.644C181.179 131.434 181.574 132.158 182.145 132.732C182.715 133.306 183.437 133.705 184.226 133.884C185.015 134.063 185.838 134.014 186.6 133.742C187.362 133.47 188.031 132.987 188.529 132.35C188.83 132.049 189.332 132.5 189.031 132.801Z" fill="#808080"/>
<path d="M189.102 132.551C189.177 133.343 189.444 134.105 189.881 134.769C190.319 135.434 190.912 135.981 191.61 136.363C192.397 136.651 193.247 136.723 194.071 136.573C194.896 136.423 195.665 136.057 196.301 135.51C196.652 135.26 197.003 135.811 196.652 136.062C195.972 136.716 195.115 137.155 194.187 137.325C193.259 137.496 192.302 137.39 191.434 137.022C190.565 136.653 189.825 136.038 189.303 135.252C188.782 134.466 188.502 133.544 188.5 132.601C188.5 132.174 189.077 132.149 189.152 132.601L189.102 132.551Z" fill="#808080"/>
<path style="mix-blend-mode:multiply" d="M198.656 131.069C198.24 132.486 198.25 133.994 198.685 135.404C199.12 136.815 199.96 138.067 201.101 139.004C202.242 139.941 203.633 140.522 205.102 140.674C206.57 140.826 208.051 140.543 209.36 139.859C210.668 139.176 211.747 138.123 212.462 136.831C213.176 135.539 213.495 134.065 213.378 132.593C213.261 131.122 212.714 129.717 211.804 128.554C210.895 127.391 209.663 126.521 208.263 126.053C207.304 125.732 206.289 125.608 205.281 125.688C204.272 125.768 203.29 126.05 202.393 126.519C201.497 126.987 200.703 127.631 200.061 128.413C199.419 129.195 198.941 130.098 198.656 131.069Z" fill="url(#paint5_radial_19549_82146)"/>
<path style="mix-blend-mode:multiply" d="M167.378 121.038C166.928 122.481 166.916 124.026 167.342 125.476C167.769 126.927 168.616 128.218 169.777 129.188C170.937 130.157 172.359 130.761 173.862 130.923C175.365 131.085 176.883 130.798 178.223 130.098C179.563 129.398 180.666 128.317 181.392 126.991C182.118 125.665 182.435 124.153 182.303 122.647C182.17 121.14 181.595 119.707 180.648 118.528C179.702 117.349 178.427 116.477 176.985 116.021C176.026 115.7 175.012 115.576 174.003 115.656C172.994 115.737 172.012 116.019 171.116 116.488C170.219 116.956 169.426 117.6 168.783 118.382C168.141 119.164 167.663 120.067 167.378 121.038Z" fill="url(#paint6_radial_19549_82146)"/>
<path d="M187.45 126.055C186.095 127.81 188.152 129.315 189.607 129.792C191.062 130.269 193.645 130.243 193.57 128.011C193.72 127.234 193.579 126.429 193.175 125.748C192.771 125.068 192.132 124.559 191.378 124.318C190.624 124.077 189.808 124.12 189.084 124.44C188.36 124.76 187.779 125.335 187.45 126.055Z" fill="url(#paint7_linear_19549_82146)"/>
<path d="M176.66 121.538C173.951 108.445 164.119 102.023 152.38 97.3076C151.978 97.1571 152.38 96.5551 152.681 96.7056C164.595 101.471 174.553 108.018 177.413 121.312C177.413 121.714 176.861 121.939 176.761 121.513L176.66 121.538Z" fill="#808080"/>
<path d="M175.202 123.422C170.461 114.893 161.481 112.184 152.627 109.4C152.225 109.4 152.376 108.623 152.777 108.748C161.682 111.582 170.837 114.392 175.653 123.046C175.854 123.422 175.302 123.798 175.101 123.422H175.202Z" fill="#808080"/>
<path d="M173.782 125.802C167.135 123.645 160.638 121.287 153.539 121.614C153.465 121.593 153.4 121.549 153.353 121.488C153.307 121.427 153.281 121.352 153.281 121.275C153.281 121.198 153.307 121.123 153.353 121.062C153.4 121.001 153.465 120.957 153.539 120.936C160.688 120.635 167.26 122.993 173.957 125.15C174.384 125.276 174.233 125.928 173.957 125.802H173.782Z" fill="#808080"/>
<path d="M203.278 132.576C213.311 123.421 225.025 123.747 237.692 126.782C238.118 126.782 237.968 127.535 237.692 127.434C225.075 124.499 213.788 124.048 203.779 133.028C203.453 133.304 202.952 132.852 203.278 132.576Z" fill="#808080"/>
<path d="M203.574 134.833C212.629 130.694 221.434 133.554 230.439 136.463C230.84 136.463 230.715 137.241 230.439 137.115C221.609 134.256 212.88 131.371 203.926 135.46C203.524 135.636 203.324 135.008 203.7 134.833H203.574Z" fill="#808080"/>
<path d="M203.8 137.592C210.523 139.724 217.295 141.605 222.939 146.07C223.265 146.321 222.939 146.822 222.487 146.572C216.944 142.182 210.272 140.351 203.65 138.244C203.249 138.244 203.374 137.466 203.8 137.592Z" fill="#808080"/>
<path d="M14.3727 228.671C14.7296 223.518 16.0841 218.483 18.361 213.847C19.6613 210.948 21.3489 208.24 23.3777 205.795C19.9552 204.618 16.3614 204.017 12.7423 204.014C8.40086 203.675 4.03982 204.345 0 205.971C20.6185 185.001 39.4561 179.232 51.3707 178.128C65.016 176.849 69.1046 180.887 70.0828 181.364L70.434 206.221C70.434 206.221 70.434 208.203 69.1297 208.73C68.2317 209.013 67.2685 209.013 66.3705 208.73C61.6716 207.047 56.6215 206.59 51.6967 207.4C39.4561 208.905 26.9144 216.079 14.3727 228.671Z" fill="#5C2092"/>
<path d="M42.3125 203.21C42.3125 208.653 67.3958 201.479 70.4309 206.22V187.207L42.8393 201.103L42.3125 203.21Z" fill="url(#paint8_linear_19549_82146)"/>
<path d="M255.63 228.822C255.275 223.671 253.929 218.638 251.667 213.997C250.372 211.104 248.684 208.403 246.65 205.971C250.078 204.776 253.68 204.157 257.311 204.14C261.65 203.805 266.008 204.466 270.053 206.071C249.259 185.151 230.547 179.458 218.532 178.479C205.012 177.125 200.873 181.163 199.995 181.74L199.594 206.598C199.594 206.598 199.594 208.579 200.873 209.106C201.779 209.393 202.751 209.393 203.657 209.106C208.35 207.434 213.387 206.968 218.306 207.752C230.572 209.106 243.138 216.255 255.63 228.822Z" fill="#4F197E"/>
<path d="M227.579 203.436C227.579 208.854 202.496 201.755 199.461 206.496L199.712 185.777L227.028 201.304L227.579 203.436Z" fill="url(#paint9_linear_19549_82146)"/>
<path d="M47.8358 63.8469C58.4711 91.8399 74.2736 111.856 83.128 108.495C91.9825 105.134 90.4775 79.6745 79.817 51.6313C69.1566 23.5881 53.3541 3.6469 44.4746 6.90773C35.5951 10.1686 37.1754 35.7285 47.8358 63.8469Z" fill="url(#paint10_radial_19549_82146)"/>
<path d="M53.151 63.5221C61.8047 86.4231 73.92 102.828 80.2159 100.42C86.5118 98.0117 84.6055 77.644 75.9267 54.8683C67.2478 32.0927 53.4771 16.7166 48.8617 17.9457C44.2464 19.1747 44.4721 40.7464 53.151 63.5221Z" fill="#FEC5DE"/>
<path d="M49.0653 17.9202C50.1039 17.8328 51.1409 18.1076 52 18.6978C48.7392 23.288 49.7174 42.8028 57.4933 63.2959C64.7925 82.5098 74.575 97.2838 81.2221 99.9928C80.9579 100.185 80.6716 100.345 80.3693 100.469C74.0734 102.978 61.9581 86.3224 53.3044 63.5468C44.6506 40.7711 44.475 19.1743 49.0653 17.9202Z" fill="#FEB1D3"/>
<path d="M133.419 56.7488C127.474 86.1716 115.133 108.496 105.827 106.615C96.5212 104.733 93.8624 79.3991 99.8072 49.9763C105.752 20.5536 118.068 -1.77057 127.399 0.110683C136.73 1.99193 139.338 27.3261 133.419 56.7488Z" fill="url(#paint11_radial_19549_82146)"/>
<path d="M128.105 57.3507C123.289 81.2552 114.033 99.5158 107.436 98.1864C100.839 96.857 99.4093 76.389 104.225 52.5347C109.041 28.6805 120.178 11.1723 124.894 11.6991C129.61 12.2258 132.946 33.4714 128.105 57.3507Z" fill="#FEC5DE"/>
<path d="M124.745 11.7246C123.698 11.7674 122.701 12.1859 121.936 12.9035C125.899 16.9169 128.107 36.3314 123.767 57.8278C119.704 77.8944 112.48 94.1234 106.359 97.9611C106.65 98.1176 106.963 98.2276 107.287 98.2872C113.884 99.6166 123.14 81.3309 127.956 57.4515C132.772 33.5722 129.461 12.1761 124.745 11.7246Z" fill="#FEB1D3"/>
<path d="M149.821 154.148C152.881 191.773 132.263 224.005 103.868 226.338C75.4739 228.67 49.939 200.126 46.9792 162.601C44.0194 125.076 64.5375 92.7439 92.9319 90.4112C121.326 88.0784 146.836 116.523 149.821 154.148Z" fill="url(#paint12_radial_19549_82146)"/>
<path d="M101.285 109.349C101.311 109.946 101.514 110.521 101.868 111.002C102.221 111.483 102.71 111.848 103.272 112.051C103.834 112.253 104.443 112.284 105.022 112.139C105.602 111.994 106.125 111.68 106.525 111.238C106.926 110.795 107.185 110.242 107.271 109.652C107.357 109.061 107.265 108.458 107.007 107.919C106.749 107.38 106.337 106.931 105.823 106.627C105.309 106.323 104.716 106.18 104.12 106.214C103.727 106.233 103.343 106.33 102.988 106.498C102.633 106.666 102.315 106.902 102.052 107.194C101.789 107.485 101.585 107.825 101.454 108.195C101.322 108.565 101.265 108.957 101.285 109.349Z" fill="black"/>
<path d="M104.377 108.144C104.377 108.621 104.678 108.997 104.979 108.972C105.28 108.947 105.506 108.546 105.456 108.069C105.406 107.593 105.155 107.216 104.854 107.241C104.553 107.267 104.352 107.643 104.377 108.144Z" fill="white"/>
<path d="M82.5809 110.479C82.6019 111.077 82.8005 111.655 83.1514 112.139C83.5024 112.624 83.9897 112.992 84.5513 113.199C85.1128 113.405 85.7231 113.439 86.3042 113.297C86.8853 113.155 87.4109 112.843 87.8139 112.401C88.2168 111.959 88.4789 111.406 88.5666 110.815C88.6543 110.223 88.5636 109.618 88.3062 109.078C88.0489 108.538 87.6364 108.087 87.1215 107.783C86.6066 107.478 86.0126 107.334 85.4153 107.368C84.6279 107.407 83.8879 107.756 83.3568 108.339C82.8258 108.922 82.5468 109.691 82.5809 110.479Z" fill="black"/>
<path d="M85.666 109.273C85.666 109.75 85.967 110.126 86.268 110.126C86.569 110.126 86.7947 109.7 86.7696 109.223C86.7446 108.747 86.4686 108.345 86.1676 108.37C85.8666 108.395 85.6409 108.797 85.666 109.273Z" fill="white"/>
<path d="M85.8635 123.823C85.9341 124.739 86.2736 125.613 86.8392 126.337C87.4049 127.061 88.1717 127.602 89.0434 127.892C89.9151 128.181 90.853 128.207 91.7395 127.966C92.6259 127.725 93.4215 127.228 94.0264 126.537C94.6313 125.845 95.0187 124.991 95.1399 124.08C95.2612 123.17 95.1109 122.243 94.7079 121.418C94.305 120.592 93.6673 119.904 92.8748 119.439C92.0823 118.975 91.1703 118.755 90.2531 118.806C89.6344 118.844 89.0295 119.005 88.4732 119.278C87.9169 119.552 87.4203 119.933 87.0121 120.399C86.6039 120.866 86.2923 121.408 86.0951 121.996C85.898 122.584 85.8193 123.205 85.8635 123.823Z" fill="white"/>
<path d="M95.094 123.27C95.165 124.187 95.5053 125.062 96.0723 125.786C96.6393 126.51 97.4076 127.05 98.2807 127.339C99.1539 127.628 100.093 127.652 100.98 127.409C101.867 127.166 102.662 126.666 103.265 125.972C103.869 125.278 104.254 124.421 104.372 123.509C104.491 122.597 104.337 121.671 103.93 120.846C103.523 120.021 102.882 119.335 102.086 118.874C101.291 118.412 100.376 118.196 99.4585 118.253C98.8397 118.288 98.2341 118.446 97.6774 118.719C97.1208 118.991 96.6244 119.373 96.2176 119.84C95.8108 120.308 95.5018 120.852 95.3088 121.441C95.1158 122.03 95.0428 122.652 95.094 123.27Z" fill="white"/>
<path d="M99.9339 114.44C100.004 115.356 100.344 116.231 100.91 116.954C101.475 117.678 102.242 118.219 103.114 118.509C103.985 118.799 104.923 118.825 105.81 118.584C106.696 118.342 107.492 117.845 108.097 117.154C108.702 116.462 109.089 115.608 109.21 114.697C109.331 113.787 109.181 112.861 108.778 112.035C108.375 111.209 107.738 110.521 106.945 110.057C106.153 109.592 105.241 109.372 104.323 109.423C103.705 109.462 103.1 109.622 102.543 109.895C101.987 110.169 101.491 110.55 101.082 111.016C100.674 111.483 100.363 112.026 100.165 112.613C99.9683 113.201 99.8896 113.822 99.9339 114.44Z" fill="white"/>
<path d="M81.2151 115.594C81.2857 116.51 81.6251 117.385 82.1908 118.109C82.7565 118.833 83.5233 119.373 84.395 119.663C85.2667 119.953 86.2046 119.979 87.091 119.738C87.9775 119.497 88.773 118.999 89.378 118.308C89.9829 117.617 90.3702 116.762 90.4915 115.852C90.6127 114.941 90.4625 114.015 90.0595 113.189C89.6566 112.364 89.0189 111.676 88.2264 111.211C87.4339 110.746 86.5219 110.526 85.6047 110.578C84.986 110.616 84.381 110.776 83.8247 111.05C83.2684 111.323 82.7719 111.704 82.3637 112.171C81.9555 112.637 81.6438 113.18 81.4467 113.767C81.2495 114.355 81.1708 114.976 81.2151 115.594Z" fill="white"/>
<path d="M95.5683 124.572C95.2586 125.559 94.678 126.438 93.8927 127.111C93.1075 127.783 92.1491 128.222 91.1268 128.376C90.1045 128.53 89.0594 128.394 88.1107 127.983C87.162 127.572 86.3477 126.903 85.7607 126.052C85.4346 125.701 86.0116 125.225 86.3376 125.576C86.838 126.328 87.5419 126.923 88.3672 127.29C89.1926 127.658 90.1054 127.783 90.9993 127.651C91.8931 127.52 92.7312 127.137 93.4159 126.548C94.1005 125.958 94.6034 125.186 94.866 124.322C95.0666 123.87 95.769 124.146 95.5683 124.572Z" fill="#808080"/>
<path d="M95.5725 124.299C95.9591 125.09 96.5342 125.773 97.2472 126.289C97.9602 126.806 98.7892 127.138 99.6611 127.259C100.592 127.233 101.5 126.962 102.293 126.473C103.085 125.984 103.735 125.295 104.176 124.474C104.239 124.415 104.321 124.379 104.408 124.373C104.495 124.367 104.581 124.391 104.652 124.441C104.723 124.491 104.774 124.565 104.797 124.648C104.82 124.732 104.813 124.821 104.778 124.901C104.295 125.782 103.599 126.529 102.753 127.072C101.908 127.615 100.939 127.938 99.937 128.011C98.8751 127.933 97.8525 127.576 96.972 126.977C96.0914 126.378 95.3839 125.559 94.9204 124.6C94.6946 124.199 95.3719 123.898 95.6227 124.299H95.5725Z" fill="#808080"/>
<path style="mix-blend-mode:multiply" d="M104.899 118.881C105.001 120.565 105.601 122.181 106.623 123.525C107.644 124.868 109.041 125.878 110.637 126.427C112.232 126.976 113.955 127.039 115.587 126.608C117.218 126.178 118.686 125.273 119.803 124.008C120.92 122.744 121.637 121.176 121.863 119.504C122.089 117.831 121.813 116.13 121.072 114.614C120.33 113.098 119.155 111.836 117.696 110.989C116.237 110.141 114.559 109.745 112.875 109.851C110.621 109.993 108.515 111.023 107.019 112.716C105.524 114.409 104.761 116.626 104.899 118.881Z" fill="url(#paint13_radial_19549_82146)"/>
<path style="mix-blend-mode:multiply" d="M68.233 121.111C68.3307 122.802 68.9282 124.426 69.9496 125.777C70.9711 127.128 72.3706 128.145 73.9707 128.7C75.5709 129.254 77.2997 129.321 78.9381 128.893C80.5765 128.464 82.0507 127.558 83.1739 126.291C84.2971 125.023 85.0187 123.451 85.2473 121.772C85.4759 120.094 85.2012 118.386 84.458 116.864C83.7148 115.343 82.5366 114.076 81.0726 113.224C79.6086 112.373 77.9248 111.975 76.2346 112.081C73.9782 112.223 71.8699 113.253 70.3704 114.945C68.871 116.637 68.1026 118.854 68.233 121.111Z" fill="url(#paint14_radial_19549_82146)"/>
<path d="M91.2996 118.152C90.5973 120.66 93.3565 121.288 95.0621 121.162C96.7678 121.037 99.4266 120.008 98.4484 117.726C97.8715 116.396 96.2661 114.666 94.6859 114.766C93.1056 114.866 91.701 116.773 91.2996 118.152Z" fill="url(#paint15_linear_19549_82146)"/>
<path d="M78.136 117.853C70.009 105.311 57.1413 102.602 43.0194 102.452C42.5177 102.452 42.618 101.699 43.0194 101.699C57.3419 101.875 70.3351 104.659 78.5875 117.376C78.8634 117.753 78.2865 118.254 78.0106 117.853H78.136Z" fill="#808080"/>
<path d="M77.379 120.411C69.0012 113.463 58.5414 114.266 48.3325 114.893C47.8559 114.893 47.7305 114.19 48.2071 114.165C58.6167 113.513 69.3022 112.735 77.8054 119.809C78.1817 120.11 77.8054 120.712 77.379 120.411Z" fill="#808080"/>
<path d="M76.8531 123.47C69.0772 123.921 61.3766 124.097 54.1025 127.307C53.651 127.483 53.35 126.806 53.8015 126.63C61.1007 123.394 68.8515 123.194 76.7527 122.742C77.2293 122.742 77.3296 123.445 76.7527 123.47H76.8531Z" fill="#808080"/>
<path d="M110.31 118.578C117.183 104.933 129.348 100.619 143.771 98.5117C144.248 98.5117 144.373 99.189 143.771 99.2642C129.7 101.196 117.66 105.284 110.862 118.729C110.661 119.155 109.959 118.904 110.185 118.478L110.31 118.578Z" fill="#808080"/>
<path d="M111.546 120.811C119.296 112.835 129.606 112.233 140.166 111.605C140.617 111.605 140.743 112.333 140.166 112.358C129.831 112.96 119.597 113.487 111.922 121.388C111.596 121.714 111.119 121.137 111.445 120.811H111.546Z" fill="#808080"/>
<path d="M112.874 123.597C120.75 123.096 128.551 122.318 136.227 124.651C136.308 124.693 136.371 124.762 136.404 124.847C136.438 124.932 136.439 125.026 136.408 125.112C136.378 125.197 136.317 125.269 136.238 125.314C136.158 125.358 136.065 125.372 135.976 125.353C128.451 123.045 120.75 123.848 113 124.35C112.523 124.35 112.398 123.622 113 123.597H112.874Z" fill="#808080"/>
<path d="M227.779 170.1C208.688 157.444 187.11 149.02 164.493 145.393C142.042 142.037 119.147 143.188 97.1447 148.779C78.0015 153.531 59.6021 160.89 42.463 170.652L42.3125 203.26C60.6215 191.202 80.8653 182.379 102.161 177.174C148.44 166.062 190.63 174.916 227.578 203.486L227.779 170.1Z" fill="url(#paint16_linear_19549_82146)"/>
<path d="M63.4918 162.1C64.2945 165.11 61.7862 168.396 57.8732 169.424C53.9602 170.452 50.1475 168.897 49.3448 165.887C48.5422 162.877 51.0505 159.591 54.9635 158.563C58.8765 157.534 62.6892 159.165 63.4918 162.1Z" fill="url(#paint17_radial_19549_82146)"/>
<path d="M137.586 144.364C137.285 147.45 133.774 149.657 129.76 149.381C125.747 149.105 122.712 146.195 123.013 143.085C123.314 139.975 126.8 137.793 130.814 138.068C134.827 138.344 137.862 141.279 137.586 144.364Z" fill="url(#paint18_radial_19549_82146)"/>
<path d="M159.989 147.926C159.247 149.135 158.127 150.066 156.803 150.574C155.478 151.083 154.023 151.14 152.662 150.737C151.302 150.334 150.113 149.493 149.279 148.346C148.445 147.198 148.012 145.807 148.049 144.389C148.791 143.18 149.911 142.249 151.235 141.74C152.56 141.232 154.015 141.175 155.375 141.578C156.736 141.981 157.925 142.821 158.759 143.969C159.593 145.117 160.025 146.507 159.989 147.926Z" fill="url(#paint19_radial_19549_82146)"/>
<path d="M221.615 167.943C221.12 169.197 220.245 170.265 219.111 170.995C217.978 171.726 216.644 172.083 215.297 172.016C213.951 171.949 212.659 171.461 211.604 170.621C210.549 169.781 209.784 168.632 209.416 167.335C209.048 166.037 209.097 164.657 209.555 163.389C210.012 162.121 210.856 161.028 211.968 160.264C213.079 159.501 214.402 159.105 215.75 159.132C217.098 159.16 218.404 159.609 219.483 160.418C220.732 161.162 221.649 162.357 222.045 163.756C222.442 165.156 222.288 166.653 221.615 167.943Z" fill="url(#paint20_radial_19549_82146)"/>
<path d="M96.7681 199.298C100.957 208.579 106.35 229.724 92.5792 234.841C78.8085 239.958 69.0761 220.468 66.1665 210.711C63.7836 202.734 58.8672 179.582 70.4056 175.268C81.9439 170.954 93.3568 191.773 96.7681 199.298Z" fill="url(#paint21_radial_19549_82146)"/>
<path d="M90.3969 229.047C89.5555 229.388 88.6485 229.539 87.7418 229.487C86.835 229.435 85.9512 229.182 85.1545 228.746C79.586 226.011 74.5693 216.856 72.061 208.98C70.381 203.338 69.4285 197.505 69.2266 191.622C69.2266 188.863 69.4523 182.366 72.4874 181.238C75.5225 180.109 80.0124 184.85 81.7432 186.957C85.4437 191.563 88.5453 196.62 90.9738 202.007C94.2848 209.532 96.4169 219.816 94.0591 225.46C93.7476 226.314 93.2476 227.086 92.5962 227.72C91.9447 228.355 91.1587 228.834 90.2966 229.122L90.3969 229.047Z" fill="#F9B0CB"/>
<path d="M90.3265 220.568C88.2421 221.433 85.9131 221.504 83.7797 220.769C79.064 219.113 74.825 214.046 72.0156 208.428L72.1661 208.98C74.4738 216.73 79.6911 226.011 85.1593 228.745C85.956 229.181 86.8398 229.434 87.7466 229.487C88.6533 229.539 89.5603 229.388 90.4017 229.046C91.2639 228.758 92.0499 228.279 92.7013 227.645C93.3527 227.011 93.8528 226.238 94.1642 225.384C95.1029 222.689 95.4118 219.814 95.0672 216.981C93.9285 218.67 92.2608 219.931 90.3265 220.568Z" fill="#EF97B7"/>
<path d="M75.9786 185.601C76.0984 185.908 76.1242 186.243 76.0526 186.565C75.981 186.886 75.8152 187.178 75.5765 187.405C75.3378 187.632 75.0369 187.782 74.7124 187.837C74.3878 187.892 74.0543 187.848 73.7544 187.713C73.4545 187.577 73.2019 187.355 73.0288 187.075C72.8556 186.795 72.7699 186.47 72.7825 186.141C72.795 185.812 72.9054 185.494 73.0994 185.229C73.2934 184.963 73.5622 184.761 73.8716 184.648C74.2777 184.501 74.7254 184.518 75.1191 184.696C75.5128 184.874 75.8212 185.199 75.9786 185.601Z" fill="#EF97B7"/>
<path d="M79.8686 189.013C79.9814 189.314 80.0022 189.643 79.9286 189.956C79.8549 190.27 79.6901 190.554 79.4548 190.774C79.2196 190.994 78.9245 191.14 78.6067 191.192C78.2889 191.244 77.9628 191.202 77.6694 191.069C77.3759 190.936 77.1284 190.719 76.9579 190.446C76.7875 190.173 76.7018 189.855 76.7117 189.533C76.7216 189.211 76.8266 188.9 77.0134 188.637C77.2003 188.375 77.4606 188.174 77.7616 188.059C77.9622 187.979 78.1768 187.941 78.3926 187.946C78.6085 187.951 78.8211 187.999 79.0178 188.088C79.2145 188.177 79.3912 188.305 79.5374 188.464C79.6836 188.622 79.7963 188.809 79.8686 189.013Z" fill="#EF97B7"/>
<path d="M75.2517 190.744C75.3598 191.047 75.3761 191.374 75.2985 191.686C75.2209 191.998 75.0528 192.28 74.8153 192.497C74.5779 192.714 74.2817 192.855 73.964 192.904C73.6463 192.953 73.3213 192.907 73.0298 192.771C72.7382 192.636 72.4932 192.417 72.3255 192.143C72.1578 191.869 72.0748 191.551 72.0871 191.23C72.0994 190.909 72.2063 190.599 72.3945 190.338C72.5827 190.077 72.8437 189.878 73.1447 189.766C73.3471 189.69 73.5626 189.655 73.7786 189.663C73.9947 189.672 74.2069 189.723 74.4029 189.814C74.599 189.905 74.775 190.034 74.9207 190.194C75.0664 190.353 75.1789 190.54 75.2517 190.744Z" fill="#EF97B7"/>
<path d="M106.132 198.671C103.372 208.479 101.115 230.176 115.588 233.186C130.061 236.196 136.683 215.452 138.163 205.369C139.317 197.141 140.671 173.513 128.681 170.979C116.692 168.446 108.364 190.645 106.132 198.671Z" fill="url(#paint22_radial_19549_82146)"/>
<path d="M116.867 227.065C117.731 227.258 118.627 227.261 119.493 227.075C120.359 226.888 121.175 226.517 121.884 225.987C126.9 222.475 130.638 212.517 131.766 204.49C132.591 198.671 132.667 192.77 131.992 186.932C131.616 184.198 130.387 177.802 127.226 177.149C124.066 176.497 120.479 181.74 119.049 184.248C116.097 189.306 113.796 194.717 112.201 200.352C110.019 208.152 109.467 218.788 112.653 224.005C113.091 224.801 113.701 225.488 114.439 226.018C115.177 226.547 116.023 226.905 116.917 227.065H116.867Z" fill="#F9B0CB"/>
<path d="M115.665 218.663C117.86 219.219 120.184 218.942 122.187 217.885C126.601 215.553 130.013 209.884 131.969 203.914V204.491C130.841 212.518 126.953 222.476 122.086 225.987C121.377 226.518 120.562 226.889 119.696 227.075C118.83 227.262 117.934 227.258 117.07 227.066C116.176 226.906 115.329 226.548 114.591 226.018C113.854 225.489 113.244 224.801 112.806 224.006C111.466 221.483 110.728 218.684 110.648 215.829C112.029 217.321 113.863 218.317 115.866 218.663H115.665Z" fill="#EF97B7"/>
<path d="M124.741 181.964C124.659 182.389 124.747 182.83 124.986 183.191C125.225 183.552 125.596 183.805 126.02 183.896C126.229 183.943 126.446 183.948 126.658 183.911C126.869 183.873 127.071 183.794 127.251 183.677C127.431 183.56 127.586 183.408 127.706 183.23C127.826 183.052 127.91 182.852 127.951 182.641C128.041 182.216 127.958 181.772 127.721 181.407C127.483 181.043 127.11 180.787 126.685 180.697C126.259 180.608 125.815 180.691 125.45 180.928C125.086 181.166 124.831 181.538 124.741 181.964Z" fill="#EF97B7"/>
<path d="M121.301 185.904C121.256 186.114 121.254 186.332 121.294 186.544C121.333 186.756 121.414 186.957 121.532 187.138C121.649 187.318 121.801 187.474 121.979 187.596C122.157 187.718 122.357 187.803 122.568 187.848C122.778 187.892 122.996 187.895 123.208 187.855C123.42 187.815 123.621 187.734 123.802 187.617C123.982 187.499 124.138 187.347 124.26 187.169C124.382 186.992 124.467 186.792 124.512 186.581C124.555 186.37 124.557 186.152 124.516 185.941C124.476 185.729 124.394 185.528 124.275 185.348C124.156 185.169 124.002 185.015 123.823 184.895C123.645 184.775 123.444 184.691 123.232 184.649C123.023 184.602 122.806 184.597 122.595 184.634C122.383 184.672 122.182 184.751 122.002 184.868C121.821 184.985 121.667 185.137 121.546 185.315C121.426 185.493 121.343 185.693 121.301 185.904Z" fill="#EF97B7"/>
<path d="M126.113 186.906C126.024 187.332 126.107 187.776 126.344 188.14C126.582 188.505 126.954 188.76 127.38 188.85C127.806 188.94 128.25 188.857 128.614 188.619C128.979 188.382 129.234 188.009 129.324 187.583C129.372 187.374 129.377 187.157 129.339 186.946C129.302 186.734 129.222 186.533 129.105 186.352C128.988 186.172 128.836 186.018 128.659 185.897C128.481 185.777 128.281 185.693 128.07 185.652C127.859 185.604 127.641 185.598 127.428 185.636C127.215 185.673 127.011 185.752 126.829 185.869C126.647 185.986 126.49 186.138 126.367 186.316C126.244 186.494 126.158 186.694 126.113 186.906Z" fill="#EF97B7"/>
<path d="M167.144 198.694C167.144 206.828 164.198 223.997 152.481 223.25C140.764 222.502 140.127 205.07 141.094 197.002C141.973 190.407 145.952 171.941 155.757 172.579C165.561 173.216 167.144 192.056 167.144 198.694Z" fill="url(#paint23_radial_19549_82146)"/>
<path d="M152.813 218.237C152.09 218.216 151.381 218.034 150.738 217.703C150.095 217.372 149.535 216.901 149.098 216.325C145.998 212.543 145.229 204.08 146.064 197.661C146.684 192.998 147.896 188.432 149.67 184.075C150.549 182.075 152.857 177.48 155.429 177.48C158.001 177.48 159.826 182.581 160.309 184.669C161.516 189.246 162.122 193.961 162.112 198.694C162.112 205.157 160.287 213.467 156.726 216.808C156.219 217.326 155.602 217.723 154.921 217.97C154.24 218.218 153.512 218.309 152.791 218.237H152.813Z" fill="#F9B0CB"/>
<path d="M155.52 212.038C153.712 211.993 151.987 211.271 150.684 210.016C147.782 207.29 146.287 202.19 146.134 197.178V197.639C145.298 204.058 146.134 212.522 149.167 216.303C149.604 216.879 150.165 217.35 150.808 217.681C151.451 218.012 152.16 218.195 152.882 218.216C153.603 218.287 154.331 218.196 155.012 217.949C155.694 217.702 156.31 217.304 156.817 216.787C158.382 215.125 159.541 213.124 160.203 210.939C158.827 211.802 157.202 212.181 155.586 212.016L155.52 212.038Z" fill="#EF97B7"/>
<path d="M156.462 181.878C156.453 182.05 156.411 182.219 156.336 182.375C156.262 182.531 156.157 182.67 156.028 182.785C155.899 182.899 155.748 182.987 155.585 183.043C155.422 183.098 155.249 183.121 155.077 183.109C154.729 183.081 154.405 182.918 154.176 182.656C153.946 182.393 153.827 182.051 153.846 181.702C153.857 181.53 153.902 181.361 153.979 181.207C154.056 181.052 154.164 180.914 154.295 180.802C154.426 180.689 154.578 180.604 154.742 180.551C154.907 180.498 155.08 180.478 155.253 180.493C155.424 180.501 155.592 180.544 155.747 180.619C155.901 180.694 156.039 180.799 156.152 180.928C156.265 181.058 156.35 181.208 156.404 181.372C156.457 181.535 156.477 181.707 156.462 181.878Z" fill="#EF97B7"/>
<path d="M158.197 185.636C158.179 185.896 158.085 186.145 157.926 186.351C157.766 186.558 157.55 186.712 157.303 186.795C157.056 186.879 156.79 186.887 156.538 186.819C156.286 186.751 156.06 186.61 155.889 186.414C155.717 186.218 155.608 185.975 155.574 185.717C155.54 185.459 155.583 185.196 155.699 184.962C155.814 184.728 155.996 184.534 156.221 184.404C156.447 184.273 156.706 184.213 156.966 184.229C157.14 184.24 157.309 184.286 157.465 184.363C157.621 184.439 157.76 184.546 157.874 184.677C157.989 184.808 158.076 184.96 158.131 185.124C158.187 185.289 158.209 185.463 158.197 185.636Z" fill="#EF97B7"/>
<path d="M154.261 185.372C154.253 185.545 154.21 185.714 154.136 185.869C154.061 186.025 153.956 186.164 153.827 186.279C153.698 186.394 153.548 186.481 153.384 186.537C153.221 186.593 153.048 186.615 152.876 186.604C152.691 186.612 152.506 186.58 152.333 186.512C152.161 186.444 152.005 186.34 151.875 186.207C151.746 186.075 151.646 185.916 151.581 185.742C151.517 185.568 151.491 185.382 151.503 185.197C151.515 185.012 151.567 184.832 151.654 184.668C151.74 184.504 151.861 184.36 152.007 184.246C152.153 184.132 152.322 184.05 152.502 184.005C152.682 183.961 152.869 183.955 153.052 183.988C153.223 183.996 153.392 184.039 153.546 184.113C153.701 184.188 153.839 184.293 153.951 184.423C154.064 184.552 154.15 184.703 154.203 184.866C154.256 185.029 154.276 185.201 154.261 185.372Z" fill="#EF97B7"/>
<path d="M175.38 199.919C169.358 205.409 158.704 219.179 167.141 227.317C175.577 235.456 188.962 224.241 194.191 218.064C198.47 212.976 209.419 197.561 202.415 190.775C195.411 183.989 180.283 195.451 175.38 199.919Z" fill="url(#paint24_radial_19549_82146)"/>
<path d="M170.62 223.672C171.129 224.193 171.747 224.594 172.43 224.846C173.113 225.098 173.843 225.195 174.568 225.129C179.442 224.873 186.214 219.732 190.363 214.781C193.377 211.206 195.93 207.265 197.96 203.051C198.85 200.955 200.73 196.2 198.87 194.411C197.009 192.622 192.174 194.681 190.263 195.659C186.099 197.851 182.227 200.557 178.737 203.714C173.961 208.067 169.089 215.026 169.01 219.92C168.984 220.65 169.121 221.377 169.413 222.047C169.704 222.717 170.141 223.313 170.692 223.793L170.62 223.672Z" fill="#F9B0CB"/>
<path d="M173.389 217.508C174.633 218.814 176.319 219.609 178.118 219.74C182.092 220.047 186.817 217.662 190.659 214.444C190.568 214.569 190.47 214.689 190.365 214.803C186.216 219.753 179.444 224.895 174.571 225.151C173.844 225.213 173.113 225.113 172.431 224.857C171.749 224.601 171.132 224.196 170.626 223.672C170.074 223.192 169.637 222.596 169.346 221.926C169.055 221.256 168.917 220.529 168.943 219.799C169.116 217.546 169.806 215.363 170.96 213.42C171.267 215.012 172.088 216.459 173.296 217.54L173.389 217.508Z" fill="#EF97B7"/>
<path d="M195.013 196.472C194.89 196.593 194.793 196.738 194.728 196.898C194.662 197.058 194.63 197.23 194.633 197.402C194.636 197.575 194.674 197.745 194.745 197.903C194.816 198.06 194.918 198.202 195.045 198.319C195.296 198.556 195.63 198.686 195.975 198.68C196.321 198.674 196.65 198.532 196.892 198.286C197.131 198.032 197.262 197.695 197.256 197.346C197.251 196.997 197.11 196.664 196.863 196.418C196.738 196.299 196.591 196.205 196.431 196.143C196.27 196.082 196.099 196.052 195.926 196.057C195.754 196.062 195.585 196.102 195.428 196.173C195.271 196.244 195.13 196.346 195.013 196.472Z" fill="#EF97B7"/>
<path d="M191.079 197.657C190.841 197.908 190.712 198.242 190.718 198.587C190.724 198.932 190.865 199.262 191.111 199.504C191.234 199.624 191.379 199.719 191.539 199.782C191.699 199.846 191.869 199.877 192.041 199.874C192.213 199.871 192.382 199.834 192.54 199.765C192.697 199.695 192.839 199.596 192.958 199.471C193.078 199.342 193.171 199.191 193.232 199.026C193.294 198.861 193.322 198.685 193.315 198.509C193.309 198.333 193.268 198.16 193.194 198C193.121 197.839 193.017 197.695 192.888 197.575C192.759 197.455 192.607 197.362 192.442 197.301C192.277 197.239 192.101 197.211 191.925 197.218C191.749 197.224 191.576 197.265 191.416 197.338C191.256 197.412 191.112 197.516 190.992 197.645L191.079 197.657Z" fill="#EF97B7"/>
<path d="M193.9 200.447C193.711 200.62 193.577 200.846 193.517 201.095C193.456 201.345 193.471 201.606 193.559 201.847C193.647 202.088 193.805 202.298 194.012 202.449C194.219 202.6 194.467 202.687 194.723 202.698C194.979 202.708 195.233 202.643 195.452 202.509C195.671 202.376 195.846 202.18 195.954 201.947C196.062 201.714 196.098 201.455 196.059 201.201C196.019 200.948 195.905 200.712 195.731 200.523C195.617 200.395 195.479 200.292 195.325 200.218C195.17 200.145 195.002 200.104 194.832 200.096C194.661 200.089 194.49 200.117 194.33 200.177C194.17 200.237 194.024 200.329 193.9 200.447Z" fill="#EF97B7"/>
<path d="M85.0178 169.995L86.5653 170.562C85.6797 172.387 84.4599 173.61 82.906 174.23C81.2443 174.893 79.5939 174.872 77.9549 174.168C76.3159 173.464 75.1649 172.281 74.5019 170.619C73.8408 168.963 73.8614 167.312 74.5636 165.668C75.2657 164.024 76.4477 162.871 78.1094 162.208C79.6633 161.588 81.3897 161.635 83.2884 162.349L82.5623 163.841C81.1417 163.328 79.8628 163.298 78.7255 163.752C77.4951 164.243 76.6153 165.1 76.086 166.322C75.5616 167.543 75.5458 168.771 76.0386 170.006C76.5335 171.246 77.3912 172.129 78.6119 172.653C79.8375 173.176 81.0654 173.191 82.2958 172.701C83.4331 172.247 84.3404 171.345 85.0178 169.995Z" fill="#FBF8FF"/>
<path d="M90.9001 162.028C92.0934 161.67 93.236 161.789 94.328 162.382C95.425 162.974 96.1521 163.866 96.5091 165.059C96.8661 166.253 96.7487 167.398 96.157 168.495C95.5703 169.59 94.6803 170.317 93.487 170.674C92.2988 171.029 91.1562 170.911 90.0592 170.319C88.9621 169.728 88.2351 168.835 87.8781 167.642C87.5211 166.448 87.6384 165.303 88.2302 164.206C88.8219 163.109 89.7119 162.383 90.9001 162.028ZM91.3835 163.643C90.6352 163.867 90.075 164.324 89.7029 165.013C89.3359 165.702 89.2636 166.417 89.486 167.161C89.7099 167.909 90.1634 168.467 90.8466 168.836C91.5348 169.203 92.2531 169.275 93.0014 169.051C93.7497 168.827 94.3082 168.373 94.6767 167.69C95.0503 167.005 95.1251 166.289 94.9012 165.54C94.6788 164.797 94.2228 164.24 93.533 163.867C92.8483 163.494 92.1318 163.419 91.3835 163.643Z" fill="#FBF8FF"/>
<path d="M99.6832 162.608L101.015 168.418L99.4096 168.786L97.5901 160.846L99.1952 160.478L99.4073 161.404C99.5343 160.422 100.102 159.815 101.11 159.584C101.969 159.387 102.721 159.537 103.365 160.034C104.014 160.524 104.451 161.228 104.678 162.145L105.861 167.308L104.263 167.674L103.095 162.573C102.99 162.115 102.733 161.763 102.324 161.515C101.914 161.263 101.478 161.189 101.015 161.295C100.557 161.4 100.198 161.651 99.9362 162.046C99.7947 162.279 99.7103 162.466 99.6832 162.608Z" fill="#FBF8FF"/>
<path d="M114.763 160.757C114.584 160.278 114.262 159.87 113.796 159.534C113.166 159.074 112.465 158.906 111.694 159.03C110.923 159.155 110.308 159.534 109.849 160.17C109.395 160.804 109.23 161.504 109.353 162.27C109.478 163.041 109.855 163.657 110.485 164.117C111.119 164.57 111.822 164.735 112.593 164.611C113.364 164.487 113.977 164.11 114.432 163.481C114.768 163.015 114.947 162.532 114.968 162.031L114.763 160.757ZM114.349 158.138L114.26 157.583L115.885 157.321L116.848 163.3C117.1 164.863 116.87 166.138 116.157 167.124C115.41 168.03 114.422 168.582 113.192 168.78C111.963 168.978 110.851 168.764 109.858 168.139C109.652 167.99 109.31 167.676 108.832 167.197L110.349 166.36C110.597 166.576 110.764 166.715 110.849 166.776C111.483 167.23 112.183 167.395 112.949 167.272C114.236 167.065 114.991 166.077 115.215 164.309C114.867 165.37 114.078 165.999 112.849 166.198C111.619 166.396 110.501 166.143 109.495 165.439C108.494 164.734 107.894 163.767 107.696 162.537C107.498 161.307 107.762 160.19 108.488 159.186C109.218 158.176 110.198 157.572 111.427 157.373C112.464 157.206 113.438 157.461 114.349 158.138Z" fill="#FBF8FF"/>
<path d="M120.174 157.977C120.693 157.087 121.394 156.573 122.276 156.435L122.46 158.128C121.87 158.223 121.419 158.466 121.105 158.855C120.632 159.438 120.424 160.092 120.482 160.818L120.933 164.982L119.303 165.158L118.426 157.059L120.055 156.883L120.174 157.977Z" fill="#FBF8FF"/>
<path d="M131.696 160.476L131.628 159.275C131.505 158.769 131.226 158.319 130.791 157.926C130.207 157.409 129.528 157.172 128.754 157.216C127.974 157.26 127.322 157.571 126.8 158.15C126.283 158.729 126.046 159.408 126.09 160.188C126.133 160.963 126.444 161.611 127.023 162.134C127.607 162.651 128.289 162.887 129.069 162.844C129.844 162.8 130.492 162.489 131.015 161.91C131.403 161.471 131.629 160.993 131.696 160.476ZM131.478 156.595L131.446 156.026L133.09 155.934L133.547 164.075L131.903 164.167L131.846 163.148C131.101 164.009 130.207 164.469 129.164 164.527C127.92 164.597 126.834 164.219 125.905 163.394C124.981 162.563 124.484 161.526 124.414 160.282C124.344 159.039 124.722 157.955 125.548 157.031C126.378 156.102 127.415 155.602 128.659 155.532C129.702 155.474 130.642 155.828 131.478 156.595Z" fill="#FBF8FF"/>
<path d="M136.762 155.931L136.756 152.875L138.395 152.872L138.4 155.928L139.865 155.925L139.868 157.564L138.403 157.567L138.416 164.074L136.777 164.077L136.765 157.57L135.3 157.572L135.297 155.934L136.762 155.931Z" fill="#FBF8FF"/>
<path d="M145.127 164.356C144.099 164.307 143.286 163.954 142.689 163.296C142.092 162.639 141.807 161.838 141.836 160.894L142.072 155.944L143.717 156.022L143.484 160.909C143.462 161.378 143.614 161.79 143.941 162.143C144.267 162.497 144.686 162.686 145.198 162.711C145.667 162.733 146.081 162.586 146.439 162.27C146.803 161.949 146.996 161.552 147.019 161.077L147.252 156.191L148.888 156.268L148.653 161.219C148.592 162.161 148.236 162.932 147.584 163.529C146.927 164.127 146.108 164.402 145.127 164.356Z" fill="#FBF8FF"/>
<path d="M154.342 152.207L153.184 164.828L151.544 164.678L152.702 152.057L154.342 152.207Z" fill="#FBF8FF"/>
<path d="M162.631 162.308L162.799 161.117C162.776 160.597 162.589 160.101 162.24 159.631C161.767 159.011 161.147 158.647 160.378 158.539C159.605 158.43 158.905 158.609 158.28 159.076C157.661 159.543 157.296 160.164 157.188 160.937C157.08 161.705 157.26 162.402 157.726 163.027C158.199 163.648 158.822 164.012 159.595 164.121C160.363 164.229 161.06 164.049 161.685 163.583C162.151 163.227 162.466 162.802 162.631 162.308ZM163.171 158.459L163.251 157.895L164.881 158.123L163.748 166.198L162.118 165.97L162.26 164.958C161.362 165.658 160.396 165.936 159.361 165.791C158.127 165.618 157.135 165.036 156.384 164.046C155.639 163.051 155.353 161.937 155.526 160.704C155.699 159.47 156.28 158.481 157.269 157.735C158.265 156.985 159.379 156.696 160.613 156.869C161.647 157.014 162.5 157.544 163.171 158.459Z" fill="#FBF8FF"/>
<path d="M168.941 158.925L169.539 155.928L171.146 156.248L170.548 159.245L171.985 159.532L171.664 161.139L170.228 160.852L168.956 167.234L167.349 166.914L168.621 160.532L167.185 160.246L167.505 158.639L168.941 158.925Z" fill="#FBF8FF"/>
<path d="M175.627 160.38L173.758 168.308L172.163 167.932L174.032 160.004L175.627 160.38ZM175.595 156.932C175.903 157.004 176.142 157.174 176.312 157.442C176.482 157.71 176.53 158.001 176.456 158.314C176.382 158.627 176.209 158.866 175.938 159.03C175.666 159.193 175.376 159.239 175.068 159.166C174.765 159.095 174.528 158.925 174.358 158.657C174.188 158.389 174.14 158.099 174.214 157.785C174.288 157.472 174.461 157.233 174.732 157.07C175.004 156.906 175.292 156.86 175.595 156.932Z" fill="#FBF8FF"/>
<path d="M182.855 161.605C184.051 161.951 184.948 162.668 185.546 163.758C186.148 164.849 186.277 165.993 185.932 167.19C185.587 168.386 184.869 169.286 183.777 169.889C182.691 170.493 181.55 170.622 180.353 170.277C179.162 169.933 178.264 169.216 177.662 168.124C177.059 167.033 176.931 165.889 177.276 164.693C177.621 163.496 178.339 162.596 179.43 161.994C180.522 161.391 181.663 161.262 182.855 161.605ZM182.387 163.226C181.637 163.009 180.918 163.09 180.232 163.469C179.551 163.85 179.103 164.412 178.888 165.158C178.672 165.908 178.751 166.623 179.127 167.303C179.507 167.984 180.072 168.433 180.823 168.649C181.573 168.865 182.288 168.786 182.968 168.411C183.652 168.037 184.103 167.475 184.319 166.724C184.534 165.979 184.453 165.263 184.074 164.577C183.7 163.893 183.138 163.442 182.387 163.226Z" fill="#FBF8FF"/>
<path d="M190.173 166.916L188.155 172.526L186.606 171.968L189.363 164.303L190.913 164.86L190.591 165.754C191.228 164.996 192.034 164.792 193.007 165.143C193.836 165.441 194.388 165.973 194.662 166.739C194.943 167.502 194.931 168.331 194.626 169.225L192.833 174.208L191.291 173.654L193.063 168.73C193.222 168.288 193.196 167.852 192.986 167.423C192.777 166.989 192.45 166.692 192.003 166.531C191.561 166.372 191.123 166.389 190.689 166.58C190.444 166.7 190.272 166.812 190.173 166.916Z" fill="#FBF8FF"/>
<path d="M196.681 173.33C196.631 173.573 196.632 173.759 196.686 173.891C196.793 174.141 196.97 174.319 197.219 174.423C197.467 174.527 197.715 174.528 197.964 174.426C198.217 174.326 198.398 174.147 198.506 173.889C198.61 173.641 198.611 173.393 198.51 173.144C198.439 172.971 198.257 172.675 197.964 172.254C197.543 171.729 197.266 171.304 197.133 170.979C196.901 170.413 196.903 169.85 197.137 169.29C197.374 168.725 197.775 168.327 198.342 168.095C198.91 167.858 199.476 167.858 200.041 168.095C200.606 168.331 200.996 168.718 201.212 169.255C201.367 169.635 201.412 170.005 201.347 170.367L199.702 170.176C199.718 170.04 199.718 169.945 199.7 169.892C199.649 169.768 199.551 169.675 199.405 169.614C199.259 169.552 199.11 169.553 198.958 169.615C198.813 169.675 198.71 169.777 198.649 169.923C198.587 170.069 198.586 170.215 198.646 170.36C198.702 170.486 198.849 170.722 199.087 171.068C199.552 171.652 199.864 172.138 200.022 172.524C200.295 173.199 200.293 173.865 200.018 174.522C199.736 175.194 199.26 175.67 198.588 175.949C197.922 176.225 197.254 176.223 196.582 175.941C195.915 175.662 195.446 175.185 195.173 174.51C194.984 174.047 194.94 173.551 195.042 173.021L196.681 173.33Z" fill="#FBF8FF"/>
<path d="M203.1 176.209C203.387 176.342 203.585 176.556 203.693 176.85C203.805 177.147 203.795 177.439 203.662 177.726C203.524 178.023 203.306 178.224 203.006 178.33C202.712 178.437 202.421 178.425 202.134 178.292C201.852 178.161 201.654 177.947 201.541 177.65C201.429 177.354 201.441 177.057 201.579 176.76C201.712 176.473 201.928 176.276 202.228 176.171C202.527 176.065 202.817 176.078 203.1 176.209ZM208.239 167.047L204.425 175.27L202.939 174.581L206.753 166.358L208.239 167.047Z" fill="#FBF8FF"/>
<defs>
<radialGradient id="paint0_radial_19549_82146" cx="0" cy="0" r="1" gradientUnits="userSpaceOnUse" gradientTransform="translate(104.658 226.213) scale(60.5196 19.5063)">
<stop stop-color="#939598"/>
<stop offset="0.16" stop-color="#ADAFB1"/>
<stop offset="0.4" stop-color="#D1D2D3"/>
<stop offset="0.63" stop-color="#EAEBEB"/>
<stop offset="0.83" stop-color="#FAFAFA"/>
<stop offset="1" stop-color="white"/>
</radialGradient>
<radialGradient id="paint1_radial_19549_82146" cx="0" cy="0" r="1" gradientUnits="userSpaceOnUse" gradientTransform="translate(161.282 224.326) rotate(11.4025) scale(60.7177 19.9124)">
<stop stop-color="#939598"/>
<stop offset="0.16" stop-color="#ADAFB1"/>
<stop offset="0.4" stop-color="#D1D2D3"/>
<stop offset="0.63" stop-color="#EAEBEB"/>
<stop offset="0.83" stop-color="#FAFAFA"/>
<stop offset="1" stop-color="white"/>
</radialGradient>
<radialGradient id="paint2_radial_19549_82146" cx="0" cy="0" r="1" gradientUnits="userSpaceOnUse" gradientTransform="translate(178.464 85.8562) rotate(-162.474) scale(78.4158 78.4158)">
<stop stop-color="white"/>
<stop offset="0.34" stop-color="#FDFDFC"/>
<stop offset="0.58" stop-color="#F8F5F3"/>
<stop offset="0.8" stop-color="#EFE7E3"/>
<stop offset="0.99" stop-color="#E3D4CD"/>
<stop offset="1" stop-color="#E2D3CC"/>
</radialGradient>
<radialGradient id="paint3_radial_19549_82146" cx="0" cy="0" r="1" gradientUnits="userSpaceOnUse" gradientTransform="translate(222.435 109.645) rotate(15.1541) scale(78.2853 78.2853)">
<stop stop-color="white"/>
<stop offset="0.34" stop-color="#FDFDFC"/>
<stop offset="0.58" stop-color="#F8F5F3"/>
<stop offset="0.8" stop-color="#EFE7E3"/>
<stop offset="0.99" stop-color="#E3D4CD"/>
<stop offset="1" stop-color="#E2D3CC"/>
</radialGradient>
<radialGradient id="paint4_radial_19549_82146" cx="0" cy="0" r="1" gradientUnits="userSpaceOnUse" gradientTransform="translate(181.678 141.64) rotate(-2.78278) scale(42.0108 45.6494)">
<stop stop-color="white"/>
<stop offset="0.34" stop-color="#FDFDFC"/>
<stop offset="0.58" stop-color="#F8F5F3"/>
<stop offset="0.8" stop-color="#EFE7E3"/>
<stop offset="0.99" stop-color="#E3D4CD"/>
<stop offset="1" stop-color="#E2D3CC"/>
</radialGradient>
<radialGradient id="paint5_radial_19549_82146" cx="0" cy="0" r="1" gradientUnits="userSpaceOnUse" gradientTransform="translate(203.367 122.992) rotate(-162.474) scale(7.62167 7.62168)">
<stop offset="0.03" stop-color="#FEC5DE"/>
<stop offset="0.11" stop-color="#FECCE2"/>
<stop offset="0.46" stop-color="#FFE8F2"/>
<stop offset="0.77" stop-color="#FFF9FC"/>
<stop offset="1" stop-color="white"/>
</radialGradient>
<radialGradient id="paint6_radial_19549_82146" cx="0" cy="0" r="1" gradientUnits="userSpaceOnUse" gradientTransform="translate(172.128 113.129) rotate(-162.474) scale(7.62167 7.62167)">
<stop offset="0.03" stop-color="#FEC5DE"/>
<stop offset="0.11" stop-color="#FECCE2"/>
<stop offset="0.46" stop-color="#FFE8F2"/>
<stop offset="0.77" stop-color="#FFF9FC"/>
<stop offset="1" stop-color="white"/>
</radialGradient>
<linearGradient id="paint7_linear_19549_82146" x1="191.269" y1="117.757" x2="184.883" y2="115.74" gradientUnits="userSpaceOnUse">
<stop stop-color="#FAE6ED"/>
<stop offset="0.55" stop-color="#F3C0D3"/>
<stop offset="1" stop-color="#EFCDDB"/>
</linearGradient>
<linearGradient id="paint8_linear_19549_82146" x1="42.5884" y1="197.914" x2="70.7821" y2="197.914" gradientUnits="userSpaceOnUse">
<stop stop-color="#7F636F"/>
<stop offset="0.31" stop-color="#8F6F7D"/>
<stop offset="0.91" stop-color="#B88FA1"/>
<stop offset="1" stop-color="#BF94A7"/>
</linearGradient>
<linearGradient id="paint9_linear_19549_82146" x1="227.905" y1="209.98" x2="199.812" y2="209.98" gradientUnits="userSpaceOnUse">
<stop stop-color="#7F636F"/>
<stop offset="0.31" stop-color="#8F6F7D"/>
<stop offset="0.91" stop-color="#B88FA1"/>
<stop offset="1" stop-color="#BF94A7"/>
</linearGradient>
<radialGradient id="paint10_radial_19549_82146" cx="0" cy="0" r="1" gradientUnits="userSpaceOnUse" gradientTransform="translate(75.6818 91.4887) rotate(176.566) scale(88.0501 88.0501)">
<stop stop-color="white"/>
<stop offset="0.34" stop-color="#FDFDFC"/>
<stop offset="0.58" stop-color="#F8F5F3"/>
<stop offset="0.8" stop-color="#EFE7E3"/>
<stop offset="0.99" stop-color="#E3D4CD"/>
<stop offset="1" stop-color="#E2D3CC"/>
</radialGradient>
<radialGradient id="paint11_radial_19549_82146" cx="0" cy="0" r="1" gradientUnits="userSpaceOnUse" gradientTransform="translate(113.319 86.1782) rotate(-5.89) scale(87.892 87.892)">
<stop stop-color="white"/>
<stop offset="0.34" stop-color="#FDFDFC"/>
<stop offset="0.58" stop-color="#F8F5F3"/>
<stop offset="0.8" stop-color="#EFE7E3"/>
<stop offset="0.99" stop-color="#E3D4CD"/>
<stop offset="1" stop-color="#E2D3CC"/>
</radialGradient>
<radialGradient id="paint12_radial_19549_82146" cx="0" cy="0" r="1" gradientUnits="userSpaceOnUse" gradientTransform="translate(99.7716 135.378) rotate(-2.91073) scale(45.5704 51.7864)">
<stop stop-color="white"/>
<stop offset="0.34" stop-color="#FDFDFC"/>
<stop offset="0.58" stop-color="#F8F5F3"/>
<stop offset="0.8" stop-color="#EFE7E3"/>
<stop offset="0.99" stop-color="#E3D4CD"/>
<stop offset="1" stop-color="#E2D3CC"/>
</radialGradient>
<radialGradient id="paint13_radial_19549_82146" cx="0" cy="0" r="1" gradientUnits="userSpaceOnUse" gradientTransform="translate(116.712 120.419) rotate(176.566) scale(8.54367 8.54367)">
<stop offset="0.03" stop-color="#FEC5DE"/>
<stop offset="0.11" stop-color="#FECCE2"/>
<stop offset="0.46" stop-color="#FFE8F2"/>
<stop offset="0.77" stop-color="#FFF9FC"/>
<stop offset="1" stop-color="white"/>
</radialGradient>
<radialGradient id="paint14_radial_19549_82146" cx="0" cy="0" r="1" gradientUnits="userSpaceOnUse" gradientTransform="translate(79.9961 122.621) rotate(176.566) scale(8.54367 8.54367)">
<stop offset="0.03" stop-color="#FEC5DE"/>
<stop offset="0.11" stop-color="#FECCE2"/>
<stop offset="0.46" stop-color="#FFE8F2"/>
<stop offset="0.77" stop-color="#FFF9FC"/>
<stop offset="1" stop-color="white"/>
</radialGradient>
<linearGradient id="paint15_linear_19549_82146" x1="101.894" y1="119.797" x2="94.3939" y2="120.247" gradientUnits="userSpaceOnUse">
<stop stop-color="#FAE6ED"/>
<stop offset="0.55" stop-color="#F3C0D3"/>
<stop offset="1" stop-color="#EFCDDB"/>
</linearGradient>
<linearGradient id="paint16_linear_19549_82146" x1="42.3125" y1="173.501" x2="227.779" y2="173.501" gradientUnits="userSpaceOnUse">
<stop stop-color="#1F0033"/>
<stop offset="0.514" stop-color="#8F3BE3"/>
<stop offset="0.971894" stop-color="#1F0033"/>
</linearGradient>
<radialGradient id="paint17_radial_19549_82146" cx="0" cy="0" r="1" gradientUnits="userSpaceOnUse" gradientTransform="translate(55.4245 166.93) rotate(-15.1011) scale(7.33274 5.64248)">
<stop stop-color="white"/>
<stop offset="0.34" stop-color="#FDFDFC"/>
<stop offset="0.58" stop-color="#F8F5F3"/>
<stop offset="0.8" stop-color="#EFE7E3"/>
<stop offset="0.99" stop-color="#E3D4CD"/>
<stop offset="1" stop-color="#E2D3CC"/>
</radialGradient>
<radialGradient id="paint18_radial_19549_82146" cx="0" cy="0" r="1" gradientUnits="userSpaceOnUse" gradientTransform="translate(133.303 146.092) rotate(5.31455) scale(7.27937 5.64135)">
<stop stop-color="white"/>
<stop offset="0.34" stop-color="#FDFDFC"/>
<stop offset="0.58" stop-color="#F8F5F3"/>
<stop offset="0.8" stop-color="#EFE7E3"/>
<stop offset="0.99" stop-color="#E3D4CD"/>
<stop offset="1" stop-color="#E2D3CC"/>
</radialGradient>
<radialGradient id="paint19_radial_19549_82146" cx="0" cy="0" r="1" gradientUnits="userSpaceOnUse" gradientTransform="translate(155.156 146.426) rotate(16.4888) scale(6.24549 4.79088)">
<stop stop-color="white"/>
<stop offset="0.34" stop-color="#FDFDFC"/>
<stop offset="0.58" stop-color="#F8F5F3"/>
<stop offset="0.8" stop-color="#EFE7E3"/>
<stop offset="0.99" stop-color="#E3D4CD"/>
<stop offset="1" stop-color="#E2D3CC"/>
</radialGradient>
<radialGradient id="paint20_radial_19549_82146" cx="0" cy="0" r="1" gradientUnits="userSpaceOnUse" gradientTransform="translate(216.6 164.194) rotate(36.8698) scale(6.22819 4.79091)">
<stop stop-color="white"/>
<stop offset="0.34" stop-color="#FDFDFC"/>
<stop offset="0.58" stop-color="#F8F5F3"/>
<stop offset="0.8" stop-color="#EFE7E3"/>
<stop offset="0.99" stop-color="#E3D4CD"/>
<stop offset="1" stop-color="#E2D3CC"/>
</radialGradient>
<radialGradient id="paint21_radial_19549_82146" cx="0" cy="0" r="1" gradientUnits="userSpaceOnUse" gradientTransform="translate(80.5741 199.674) rotate(-20.43) scale(44.5982 44.5982)">
<stop stop-color="white"/>
<stop offset="0.34" stop-color="#FDFDFC"/>
<stop offset="0.58" stop-color="#F8F5F3"/>
<stop offset="0.8" stop-color="#EFE7E3"/>
<stop offset="0.99" stop-color="#E3D4CD"/>
<stop offset="1" stop-color="#E2D3CC"/>
</radialGradient>
<radialGradient id="paint22_radial_19549_82146" cx="0" cy="0" r="1" gradientUnits="userSpaceOnUse" gradientTransform="translate(121.019 197.734) rotate(-167.905) scale(44.6984 44.6984)">
<stop stop-color="white"/>
<stop offset="0.34" stop-color="#FDFDFC"/>
<stop offset="0.58" stop-color="#F8F5F3"/>
<stop offset="0.8" stop-color="#EFE7E3"/>
<stop offset="0.99" stop-color="#E3D4CD"/>
<stop offset="1" stop-color="#E2D3CC"/>
</radialGradient>
<radialGradient id="paint23_radial_19549_82146" cx="0" cy="0" r="1" gradientUnits="userSpaceOnUse" gradientTransform="translate(157.539 194.307) rotate(3.43363) scale(35.6766 35.6766)">
<stop stop-color="white"/>
<stop offset="0.34" stop-color="#FDFDFC"/>
<stop offset="0.58" stop-color="#F8F5F3"/>
<stop offset="0.8" stop-color="#EFE7E3"/>
<stop offset="0.99" stop-color="#E3D4CD"/>
<stop offset="1" stop-color="#E2D3CC"/>
</radialGradient>
<radialGradient id="paint24_radial_19549_82146" cx="0" cy="0" r="1" gradientUnits="userSpaceOnUse" gradientTransform="translate(185.981 205.523) rotate(-136.034) scale(35.6872 35.6872)">
<stop stop-color="white"/>
<stop offset="0.34" stop-color="#FDFDFC"/>
<stop offset="0.58" stop-color="#F8F5F3"/>
<stop offset="0.8" stop-color="#EFE7E3"/>
<stop offset="0.99" stop-color="#E3D4CD"/>
<stop offset="1" stop-color="#E2D3CC"/>
</radialGradient>
</defs>
</svg>
