<svg width="45" height="40" viewBox="0 0 45 40" fill="none" xmlns="http://www.w3.org/2000/svg">
<g opacity="0.1">
<path d="M34.631 13.903C33.1126 12.3122 31.3431 10.9817 29.3932 9.96494C29.3414 9.94757 29.2852 9.9494 29.2347 9.97011C29.1842 9.99081 29.1429 10.029 29.1182 10.0777C29.0936 10.1264 29.0873 10.1823 29.1005 10.2353C29.1137 10.2882 29.1456 10.3346 29.1902 10.366C31.0998 11.362 32.8306 12.6683 34.3121 14.2315C34.3542 14.2743 34.4115 14.2986 34.4715 14.2992C34.5289 14.2973 34.5837 14.275 34.6261 14.2364C34.6494 14.2154 34.6682 14.1899 34.6811 14.1614C34.6941 14.1329 34.701 14.102 34.7014 14.0707C34.7019 14.0394 34.6959 14.0084 34.6838 13.9795C34.6716 13.9506 34.6537 13.9246 34.631 13.903Z" fill="white"/>
<path d="M26.2844 8.73824C24.9338 8.36666 23.5394 8.17814 22.1386 8.17773C14.9342 8.17773 8.49324 13.0483 4.45858 21.538C4.43358 21.5919 4.4307 21.6535 4.45057 21.7095C4.47045 21.7655 4.51149 21.8115 4.56488 21.8376C4.5951 21.8445 4.62647 21.8445 4.65669 21.8376C4.69908 21.8387 4.74089 21.8275 4.77694 21.8051C4.813 21.7828 4.84173 21.7504 4.85962 21.712C8.81698 13.3817 15.113 8.60295 22.1386 8.60295C23.4987 8.60331 24.8526 8.78697 26.1636 9.14896C26.2207 9.16498 26.2817 9.15768 26.3334 9.12868C26.385 9.09968 26.423 9.05136 26.439 8.99433C26.4551 8.93731 26.4478 8.87626 26.4188 8.82461C26.3898 8.77296 26.3415 8.73493 26.2844 8.71891V8.73824Z" fill="white"/>
</g>
<path d="M44.2798 39.997H41.917C41.917 23.1191 33.2195 9.89889 22.1399 9.89889C11.0603 9.89889 2.36282 23.1094 2.36282 39.997H0C0 21.7903 9.72185 7.53125 22.1399 7.53125C34.558 7.53125 44.2798 21.7806 44.2798 39.997Z" fill="#F49841"/>
<path d="M33.1423 29.0459L26.8773 30.7839C26.8773 30.7839 25.4449 21.7384 23.9813 16.8836C23.7573 16.0662 23.4534 15.2729 23.074 14.515L24.5124 12.4728C24.5124 12.4728 27.236 15.161 29.7696 19.9723C31.284 22.8371 32.4178 25.8875 33.1423 29.0459Z" fill="#FB7185"/>
<path d="M21.762 14.5677C21.4166 15.4275 21.1576 16.3195 20.9889 17.2306C19.9317 22.2336 19.2173 31.0668 19.2173 31.0668L12.8366 29.8151C13.3353 26.4894 14.2813 23.2465 15.6489 20.1744C17.7754 15.3879 20.1622 12.633 20.1622 12.633L21.762 14.5677Z" fill="#FB7185"/>
<g opacity="0.7">
<g style="mix-blend-mode:soft-light" opacity="0.5">
<path d="M20.1749 12.642L21.7644 14.5664C21.419 15.4262 21.16 16.3182 20.9912 17.2293C20.7439 17.2106 20.5009 17.1536 20.2711 17.0602C20.2711 17.0602 20.0403 17.3764 20.0156 17.4007C19.6384 17.8698 19.2042 18.29 18.723 18.6516C18.2452 19.0163 17.725 19.3218 17.1736 19.5612C16.6779 19.7776 16.1748 19.9753 15.6786 20.1995L15.6592 20.2045C17.7784 15.3993 20.1749 12.642 20.1749 12.642Z" fill="#09002E"/>
</g>
<g style="mix-blend-mode:soft-light" opacity="0.5">
<path d="M29.7685 19.9722C29.45 19.8945 29.1378 19.7934 28.8343 19.6697C27.2926 19.0568 25.9365 18.0543 24.8985 16.7601C24.6006 16.8483 24.2908 16.8899 23.9801 16.8835C23.7561 16.0661 23.4522 15.2727 23.0728 14.5149L24.5112 12.4727C24.5112 12.4727 27.2349 15.1609 29.7685 19.9722Z" fill="#09002E"/>
</g>
</g>
<path d="M37.1644 17.1318C36.4217 18.3892 34.8725 18.9359 33.4139 19.0708C31.5542 19.2467 29.6816 18.9138 27.9963 18.1078C26.3111 17.3018 24.8766 16.0529 23.8463 14.4946C23.2865 13.6514 22.5219 12.4692 22.7415 11.4016C22.7789 11.2222 22.8383 11.048 22.9183 10.883C23.294 10.0948 24.0852 9.4016 24.6755 8.84962C25.633 7.95193 26.7132 7.19481 27.8837 6.60096C29.1955 5.93447 30.6077 5.48765 32.0641 5.27832C33.5132 5.07635 35.2157 5.22169 36.0861 6.395C36.8664 7.43683 36.6471 8.99076 35.8405 10.0071C35.0338 11.0235 33.7641 11.5658 32.4955 11.8402C33.9458 11.6122 35.5326 12.0109 36.5555 13.0656L36.5828 13.0921C37.5834 14.1499 37.9003 15.8683 37.1644 17.1318Z" fill="#FB7185"/>
<g style="mix-blend-mode:soft-light" opacity="0.15">
<path d="M37.1589 17.1315C36.4163 18.389 34.867 18.9356 33.4085 19.0705C31.5487 19.2464 29.6761 18.9136 27.9908 18.1075C26.3056 17.3015 24.8711 16.0526 23.8408 14.4944C23.281 13.6512 22.5165 12.4689 22.7361 11.4014C22.7734 11.2219 22.8328 11.0477 22.9128 10.8827C23.5197 11.1515 24.0881 11.5001 24.6029 11.9192C25.9555 12.9645 27.2402 14.1172 28.7213 14.9496C30.2024 15.7819 31.9868 16.2693 33.6425 15.8474C34.3073 15.6726 34.9201 15.3398 35.4288 14.8774C35.8819 14.4799 36.2345 13.9807 36.4579 13.4208C36.4995 13.3142 36.5354 13.2054 36.5653 13.0949C37.5779 14.1496 37.8948 15.8681 37.1589 17.1315Z" fill="#09002E"/>
</g>
<path opacity="0.2" d="M36.0248 7.39606C36.0278 7.56331 35.9746 7.72671 35.8737 7.86018C35.7729 7.99365 35.6303 8.08949 35.4686 8.1324C35.1306 8.1799 34.8432 7.89022 34.6616 7.60187C34.3765 7.15973 34.1471 6.74455 33.5548 6.74361C33.2977 6.74477 33.0523 6.79186 32.8169 6.76692C32.6937 6.76272 32.5735 6.72751 32.4674 6.66454C32.3614 6.60158 32.273 6.51289 32.2103 6.40669C32.1637 6.29806 32.1498 6.17817 32.1705 6.06177C32.1911 5.94538 32.2454 5.83756 32.3265 5.75159C32.5044 5.5828 32.7401 5.48862 32.9853 5.48848C33.3301 5.51209 33.6718 5.56806 34.0061 5.65566C34.3544 5.69513 34.6958 5.78128 35.0211 5.9118C35.2838 6.02367 35.5135 6.20098 35.6882 6.42683C35.8629 6.65267 35.9768 6.91951 36.0191 7.20189C36.0256 7.2664 36.0275 7.33128 36.0248 7.39606Z" fill="#FBF8FF"/>
<path d="M8.18603 18.237C9.02449 19.4365 10.6102 19.8612 12.0755 19.8842C13.9434 19.9166 15.785 19.4407 17.4033 18.5074C19.0216 17.5741 20.3558 16.2185 21.2633 14.5855C21.7565 13.703 22.4267 12.464 22.1291 11.4176C22.0769 11.2428 22.0046 11.0747 21.9139 10.9165C21.4755 10.1556 20.6299 9.52421 20.0051 9.0219C18.983 8.20077 17.8498 7.52848 16.6391 7.02506C15.2797 6.4621 13.8368 6.12709 12.3685 6.03352C10.9065 5.94275 9.22109 6.21778 8.44267 7.45604C7.75256 8.55596 8.08376 10.088 8.96708 11.0393C9.8504 11.9905 11.1531 12.4462 12.4406 12.6097C10.9773 12.4936 9.42611 13.0124 8.48624 14.1322L8.46036 14.162C7.53935 15.3053 7.35182 17.0442 8.18603 18.237Z" fill="#FB7185"/>
<g style="mix-blend-mode:soft-light" opacity="0.15">
<path d="M8.18652 18.2358C9.02499 19.4353 10.6107 19.86 12.076 19.883C13.9439 19.9154 15.7855 19.4395 17.4038 18.5062C19.0221 17.5729 20.3563 16.2173 21.2638 14.5843C21.757 13.7018 22.4272 12.4629 22.1296 11.4164C22.0774 11.2417 22.0051 11.0735 21.9144 10.9153C21.328 11.2278 20.7868 11.6186 20.3056 12.0768C19.0374 13.2211 17.847 14.4691 16.4218 15.4114C14.9965 16.3538 13.2686 16.9871 11.5824 16.6832C10.9077 16.5647 10.2714 16.2853 9.72752 15.8689C9.24618 15.5065 8.85657 15.0363 8.59002 14.4959C8.54055 14.3927 8.49772 14.2852 8.45791 14.1795C7.53984 15.3041 7.35232 17.043 8.18652 18.2358Z" fill="#09002E"/>
</g>
<path opacity="0.2" d="M8.57016 8.45708C8.57967 8.62451 8.64514 8.78389 8.75607 8.90966C8.867 9.03542 9.01696 9.12028 9.1819 9.15061C9.52137 9.16964 9.78736 8.85991 9.94752 8.55912C10.1976 8.08612 10.3936 7.67325 10.9934 7.61306C11.2456 7.59256 11.4871 7.62111 11.7295 7.5825C11.8521 7.57061 11.9699 7.52864 12.0724 7.46032C12.1748 7.392 12.2589 7.29944 12.317 7.19085C12.3579 7.07338 12.3619 6.94623 12.3286 6.82639C12.2954 6.70655 12.2263 6.59973 12.1307 6.52019C11.9414 6.36401 11.6984 6.28822 11.454 6.3091C11.1125 6.35833 10.7764 6.43966 10.4502 6.552C10.1043 6.62191 9.76943 6.73841 9.45481 6.89832C9.19941 7.03022 8.98261 7.22614 8.8256 7.46692C8.66859 7.7077 8.57674 7.9851 8.55904 8.27201C8.55684 8.33391 8.56056 8.39588 8.57016 8.45708Z" fill="#FBF8FF"/>
<path d="M23.6767 7.68942L20.8677 7.79762C19.5902 7.84683 18.5946 8.92228 18.6438 10.1997L18.7872 13.9234C18.8364 15.2008 19.9119 16.1965 21.1893 16.1473L23.9983 16.0391C25.2757 15.9899 26.2714 14.9145 26.2222 13.637L26.0787 9.91331C26.0295 8.63589 24.9541 7.64021 23.6767 7.68942Z" fill="#FB7185"/>
<path opacity="0.2" d="M25.2395 10.6453C25.1837 10.8365 25.072 11.0067 24.9187 11.1338C24.8411 11.1953 24.7476 11.2335 24.6492 11.244C24.5507 11.2545 24.4513 11.2369 24.3624 11.1932C24.0974 11.0419 24.077 10.6791 23.9318 10.4123C23.7701 10.1629 23.5338 9.9709 23.2566 9.86365C22.7661 9.63599 22.1693 9.43543 22.0825 8.82178C22.0697 8.75147 22.0711 8.67933 22.0865 8.60956C22.102 8.53979 22.1311 8.47379 22.1723 8.41539C22.2134 8.35699 22.2658 8.30736 22.3264 8.2694C22.3869 8.23143 22.4544 8.20589 22.5249 8.19425C22.907 8.12169 23.3012 8.14506 23.6722 8.26225C24.1705 8.35033 24.6236 8.60639 24.9562 8.98783C25.1149 9.19712 25.2267 9.4381 25.284 9.69441C25.3413 9.95073 25.3428 10.2164 25.2884 10.4733C25.2762 10.5317 25.2599 10.5892 25.2395 10.6453Z" fill="#FBF8FF"/>
</svg>
